<svg xmlns="http://www.w3.org/2000/svg" xmlns:xlink="http://www.w3.org/1999/xlink" id="Layer_1" x="0px" y="0px" viewBox="0 0 1092.2 912.1" style="enable-background:new 0 0 1092.2 912.1;" xml:space="preserve"> <style type="text/css"> .st0{fill:#FCFCFC;} </style> <g> <path class="st0" d="M850.7,307.9c0.3-2.8,0.7-5.6,1-8.2c5.4,13.3,8.9,28,15.8,41.3c0.4-0.1,0.9-0.3,1.3-0.4 c-0.6,0.9-1.1,1.8-2.3,3.5c4.4,0.4,8.1,0.8,12.4,1.2c-0.2,0.3,1.4,0.6,2.6,0.6c1.3,0,2.5-1.1,3.9-1.9c0,0.6,0.1,1.8,0.1,3.1 c1.6-0.3,3.3-0.6,4.9-0.9c2.6,3.5,1.9,5.5-1.7,5.7c-0.8,5.5-1.5,10.9-2.2,16.4c-0.3,2.3-0.7,4.6-0.6,6.9c0,0.9,1.3,1.7,1.3,1.7 c0.7,2.5,0.7,5.2,1.8,6c4.4,3.1,5.6,8,8,12.2c1.1,2,1.1,4.8,2.5,6.3c2.4,2.6,5.7,4.2,8.3,6.6c2.1,1.9,4,4.2,5.5,6.7 c0.7,1.1,0.2,2.9,0.3,4.8c1.1,0,2.7-0.1,4.1,0.3c1.3,0.4,3.3,1.4,3.4,2.2c0.3,4.2,3.4,4.8,6.4,5.7c0,0-0.3-0.2-0.3-0.2 c0.9-1.9,1.8-3.8,3-6.4c1.9-0.3,4.7-0.8,7.6-1.3c0,0-0.3,0-0.3,0c0.5-0.8,1.1-1.5,1.6-2.3c0.5-0.7,1-1.4,1.5-2.1 c0.4-0.3,0.7-0.6,1.1-0.9l-0.1,0.1c0.5-0.3,1-0.6,1.5-0.9c-0.9-0.2-1.7-0.4-2.6-0.6c-2.9-0.2-5.8-0.4-9.1-0.6 c-0.3-0.7-0.8-1.9-1.3-3.1c0.9,0.2,1.8,0.4,2.7,0.5l0,0.2c-0.9-0.3-1.9-0.7-2.8-1c0.2-0.7,0.4-1.5,0.5-2.2c0.3,0.1,0.7,0.1,1,0.1 c-0.2-0.1-0.4-0.3-0.6-0.4c1.8-0.6,3.6-1.3,6.3-2.2c3.1,0.7,7.3,1.6,12,2.6c0.6-1.5,1.4-3.2,2.1-4.9c3.9,2.3,10.6,0.3,13.3-3.8 c0.9-1.4,2-2.6,4.9-2.3c4,0.4,8.3-1.8,13-3c-2-1-3.6-1.8-5.9-2.9c5.8-2.2,10.8-4.3,16-0.3c0.6,0.5,2.4,0.3,3.2-0.3 c4.8-3.2,6.6-8.2,5-14.2c3.3-2,10.6,0.3,8.6-7.6c1.9,5,4.2-0.9,6,0.6c-1.3-1.9-2.5-3.7-3.9-5.9c-0.3,0.7-0.9,1.8-1.5,3 c-0.5-2.8-1-5.6-1.5-8.7c2.3-1.2,5.6-2.8,9.2-4.6c-0.4-0.8-1-2.2-1.7-3.7c2.5-3.5,5.2-3.2,8.6-1.1c2.3,1.4,5.1,2,7.5,3.8 c-0.8,0.1-1.6,0.1-3.3,0.2c3.1,1.9,5.4,3.3,7.7,4.7c-2,0.6-3.9,1.2-5.9,1.7c-1.7,1.5-4.1,2.6-5,4.4c-2.1,4.2,3.3,3.8,4.6,6.4 c-2.9,4.2-6.4,7.3-11.9,7.5c-0.6,0-1.6,1.8-1.6,2.8c-0.1,1.3,0.5,2.6,0.7,3.2c2.6-0.3,4.8-0.6,7.2-1c-1.1,2.3-1.8,3.8-2.1,4.4 c3,0,6.1,0,9.3,0c-0.5-1.5-1.2-3.4-1.6-4.7c2.4,0.9,4.5,2.2,6.6,2.4c2.2,0.2,4.5-0.8,6.8-1.3c0.2,0,0.3-0.5,0.4-0.7 c-1.2-0.4-2.5-0.8-3.5-1.1c2.2-2,4.3-3.8,6.3-5.6c0.9-0.8,1.6-1.8,2.4-2.6c-1.2-1-2.3-1.9-3.5-2.9c4.3-2.7,6.8-0.9,8.4,3.4 c0.1-1.7,0.2-3.4,0.2-5.2c0.4,0,0.9,0,1.3,0c0.1,1,0.3,2,0.4,3c2.5-0.2,4.9-0.2,7.2-0.8c0.8-0.2,1.2-1.9,1.8-3 c3.5,3.5,6,3.4,8.2-0.3c1.4-2.4,2.7-4.9,4.1-7.3c0,0-0.1,0.1-0.1,0.1c0.8,5.7,1.5,11.5,2.5,17.2c1.1,7.1-4.5,9.8-8.9,13.4 c0.5,4.2,2.8,4.3,6.2,3.3c1-0.3,2.5,0.9,4.4,1.7c-0.2,0.2,0.4-0.6,0.9-1.4c0.2,0.2,0.6,0.4,0.6,0.6c4.9,17.6,4.6,35.6,4.3,53.6 c0,1.7-2.1,3.3-3.3,4.9c-0.6-0.5-1.1-1.1-1.7-1.6c0.9-0.7,1.7-1.4,2.7-2.3c-0.7,0-1.3,0-2.4,0c0.9-1,1.5-1.8,3.2-3.8 c-2.7,0-4.2-0.3-5.6,0.1c-2.6,0.6-5,1.7-7.6,2.1c-0.8,0.1-2.6-1.1-2.7-1.8c-0.1-1.2,0.6-2.7,1.5-3.6c0.7-0.7,2.1-0.8,3.2-1.1 c4.6-1.1,9.2-2.3,9.9-8.1c-4.8,1.1-9.5,2.3-14.6,3.5c1-3.9-1.1-6.9-4.6-7.3c-0.7-5.8,4.3-4,6.9-4.7c1-0.3,2.7,2.1,4.7,3.7 c2-0.8,4.9-1.9,6.9-2.7c0.5-4.5,0.9-8.2,1.4-12.7c-10.6,3-20.2,5.8-29.9,8.6c6.7-3.6,13.9-5.8,20.9-8.6c2.8-1.1,5.1-3.2,7.7-4.8 c-1.5-2.2-3-4.5-4.5-6.7c-0.1-0.2-0.5-0.2-0.2-0.1c-11.8,3.5-23,6.8-34.7,10.2c0,1.6,0,3.3,0,5c-3.5-4.3-5.6,0.6-8.2,1.5 c-1.3,0.5-2,2.7-3,4.1c0.4,0.3,0.8,0.6,1.1,0.9c3-1.4,8.3,3.3,9-3.9c1.2,4.9,5.1,2.2,8,2.8c-1.6,0.7-3.2,1.1-4.7,1.4 c-6.2,1.4-12.5,2.7-18.7,4.3c-4.6,1.2-8.9,3.2-13.5,4.3c-10.6,2.4-21.2,4.7-31.9,6.5c-3.9,0.7-7.1,6-11.7,1.7 c-1.5,1.7-2.7,3.2-4.1,4.8c-5.2-3.4-9.6-1.1-15,2.8c2,0,2.7,0,3.3,0c-2-0.4-3.9-0.8-6.2-1.3c-4.5,0.9-9.5,1.9-14.2,2.8 c-0.2-3.9,2.9-4.4,6.3-5c3.8-0.6,7.5-1.5,11.2-2.3c12.2-2.4,24.4-4.7,36.6-7.1c1.6-0.3,3.1-1.3,4.7-1.9 c-20.3,4.9-40.8,7.6-61.9,11.5c-0.9,0.5-2.9,1.6-4.8,2.6c-2.6,1.3-5.1,3-7.9,4c-3.7,1.4-7.6,2.3-11.5,3.4c0,0.5,0,1,0,1.5 c1.5,0.1,3.1,0.6,4.4,0.3c3.7-0.9,7.2-2.3,10.9-3.3c3.3-0.9,4.7-2.7,3.8-6.1c1.4,1.1,3,2,4.1,3.4c2.1,2.6,3.8,5.4,5.5,7.7 c6.3-3.2,9.9-10.2,18-5.1c0.5-2,0.8-3.6,1.2-5.3c0.7,0.5,1.3,1,2,1.3c5.8,2.7,12.3-0.9,18.3,1.8c0.4,0.2,2.1-2.1,2.5-1.9 c1.4,0.7,2.6,2,3.8,3.1c-0.2-0.5-0.3-1-0.5-1.5c1.4-0.8,2.8-1.5,4.2-2.3c2.6,6.7,3.8,1.1,5.3,0c2.3,0.7,4.7,1.1,6.9,0.8 c2.3-0.3,4.4-1.9,6.7-2c4.4-0.1,4.1-3.6,4.5-5.1c2.1,0.4,4.8,1.1,4.9,1c1.2-3.8,4.2-2.1,6.6-2.5c1.5-0.2,2.9-1.1,4.3-1.8 c0.9-0.5,1.7-1.1,3.3-2.2c-0.6,4.6,1,6,4.6,4.5c-0.9,1.9-1.1,3.3,1.8,2.6c3.5-0.8,7-1.5,10.6-2.2c-13.5,4-27,8.2-40.6,11.8 c-10.2,2.7-20.5,4.8-30.8,7.1c-6.5,1.5-13.1,3-19.7,4.1c-2.1,0.4-4.4-0.2-7.3-0.4c-2.8,3.8,0.9,7.6,2.2,11.5 c-6.1,5.3-7.7,12.2-7.6,20.7c48.1-9.9,95.4-21.8,141.7-38.1c-8.9,2.7-17.9,5.3-26.8,8c-0.2-0.7-0.4-1.4-0.6-2.1 c10.4-3.2,20.9-6.3,31.1-9.4c0.2,3.4,0.4,6.4,0.6,9.5c-5.1,0.6-9.9,1.9-11,8.6c-7.8-2.9-14.4,0.6-21.6,2.9 c-11.3,3.6-23,5.8-34.5,8.6c-7.2,1.8-14.4,3.9-21.6,5.5c-11.2,2.5-22.4,4.5-33.6,6.9c-5.8,1.2-11.5,3-17.3,4.1 c-1.9,0.4-4.1-0.7-7-1.3c1.7,6.5,2.9,12,4.7,17.3c1.4,4.2,0.5,6.7-3.7,7.9c-12.1,3.4-24.3,6.9-36.4,10.3c-4.3,1.2-8.8,2.1-10.9-4.1 c-0.4,4.7,1.1,7.4,5.7,7c5.1-0.4,10.2-1.4,15.3-1.7c1.7-0.1,4.3,0.8,5.1,2.1c2,3.4,4.4,3.9,7.8,2.6c6-2.3,12.1-4.6,18.9-7.1 c5,17.8,10,35.9,15,53.9c9.2-2.9,19.8-13.8,20-20.4c4.2-1,8.2-2,12.3-3c0,0-0.2,0-0.2,0c0.7,0.1,1.4,0.1,2.1,0.2l-0.2,0 c1.3-0.6,2.6-1.2,5.5-2.5c-2.6-1.8-4.2-3-5.9-4.2c0.1-0.9,0.2-1.7,0.2-2.6c1.7-3.5,2.1-8.1,7.3-9.3c-1-0.1-2.1-0.2-3.2-0.3 c1.9-6.7,1.2-7.3-7.1-5.9c0.6-2.2,1.1-4,1.7-6.2c-1.1-0.2-2.3-0.4-3.5-0.6c-0.2-0.4-0.4-0.9-0.6-1.3c1.7-0.8,3.3-1.8,5-2.2 c2.6-0.6,5.6-0.1,7.8-1.2c1.9-1,3-3.7,4.4-5.6c-0.3-0.6-0.5-1.1-0.8-1.7c5.4,0.9,10.8,1.8,16.2,2.6c-0.3-1.2-0.8-2.8-1.4-5 c1.6,1.2,2.6,2,4.9,3.7c-0.7-4.6-1.3-7.9-1.7-10.3c4-1.2,7.6-2.1,11.1-3.2c2.6-0.8,5.2-1.7,7.8-2.7c2.2-0.9,5.4-0.7,5-4.6 c0-0.4,1.5-1.4,2.4-1.5c1.5-0.3,3.1-0.1,5-0.1c0.1,0.2,0.3,1.1,0.8,3c3.3-8.6,11.7-5.9,16.7-9.9c1.6,2.4,2.9,4.4,4.3,6.5 c3-3.6,1.2-9,7.1-11.9c-0.4,3.5-0.5,5.9-1,8.2c-2.8,11.5-6.3,22.8-8.4,34.4c-2,11.1-2.2,22.5-4,33.6c-1.9,11.6-4.5,23-7.1,34.5 c-1.5,6.8-1.1,13.3,1.6,19.5c6.7,15.2,13.7,30.3,20.6,45.4c5.6,12.1,7.8,24.1,1.2,36.8c-4.3,8.2-11.3,12.1-19.6,14 c-17.5,3.9-35.2,7.3-52.7,11c-26.8,5.7-53.8,10.7-80.4,17.4c-13.1,3.3-25.4,9.6-38.1,14.5c-16.9,6.5-34.3,10.1-52.4,11.4 c-9,0.6-17.8,4-26.6,6.3c-25.7,6.7-51.3,13.9-77.1,20.3c-38.7,9.6-77.5,18.8-116.3,28.2c-22.3,5.4-44.7,10.6-66.8,16.5 c-14.9,4-29.6,8.9-44.2,13.9c-15.6,5.3-31.5,7.7-47.8,9.1c-23.5,2-46.9,5.7-70.2,9.2c-27.2,4.1-53.3,12.7-79.2,21.8 c-11.3,4-23.6,5.3-35.5,7.9c-14.8,3.2-29.6,6.5-44.4,9.5c-14.3,2.9-28.5,2-42.2-3.1c-21.6-8.2-43.1-16.6-63-28.7 c-20.7-12.6-41.8-24.6-62.6-37.2c-14-8.5-25.6-19.7-33.4-34.3c-5.9-11.1-9-22.6-5.5-35.5c8.5-31.2,7.1-63.1,4.1-94.8 c-0.9-8.9-4.9-17.6-7.6-26.3c-9.7-30.9-12-62.7-10.2-94.8c0.8-15.1,3-30.1,4.6-45.1c0.1-0.7,0.5-1.5,0.2-1.9 c-5.6-9.6-1-19.9-2.3-29.9c-0.7-5.7-0.2-11.6-0.2-17.5c0-1.1,0.1-2.4,0.7-3.3c4.1-6,2.6-12.1,0-17.9C12.3,424.4,4.6,409,2.5,391.8 C1,379.6,0.7,367.3,0,355.1c-0.1-1.6,0.4-3.3,1.1-4.8c7.2-15.7,18.5-27.4,34.2-34.8c5.3-2.5,10.5-5,15.8-7.5c1-0.5,2.2-1,3.3-1 c7.8-0.1,15.6,0,23.9,0c-0.7-4.4,1-5.1,4.6-5.6c5.9-0.8,11.5-3.1,17.3-4.7c3.4-0.9,6.9-2,10.4-2.4c12.3-1.5,24.7-2.6,37.1-4.1 c10-1.2,20-2.5,29.9-4.1c2.9-0.5,5.6-2.9,8.4-2.9c4.7,0,7.8-3,11.5-4.7c4.4-1.9,8.6-4.4,13-6.4c1.7-0.8,3.6-1.1,5.4-1.7 c0.2,0.5,0.4,0.9,0.5,1.4c-5.3,2.3-10.6,4.7-15.9,7c0.2,0.5,0.4,1.1,0.5,1.6c1.5-0.5,3.1-1,4.6-1.4c3.2-0.9,5.8-2.4,9.7-0.2 c4,2.3,1.6-2.2,1.9-2.8c28.1-19.7,59-19.8,90.8-17c18.7,1.7,37.5,1.6,56.1,2.3c1.4-6.3,5.5-7.9,12.8-6.1c-0.4,0.9-0.9,1.8-1.4,2.7 c1.1,0.4,2.2,1.3,3.2,1.2c9.3-1.3,18.6-2.5,27.8-4.2c17.5-3.2,34.9-6.6,52.4-10c1.8-0.4,4-1.5,4.9-3c3.1-4.8,5.8-10,9.1-15.8 c-6.8-0.9-7.1-5.8-7.7-10.4c-3.5-25.4-9.7-50.3-10.2-76.1c-0.5-25.4,3.2-49.8,15.2-72.5c6.7-12.6,16.6-22.4,27.3-31.5 c5.2-4.5,10.7-8.8,15.6-14.1c-2.2,0.6-4.3,1.4-6.5,1.9c-36.4,8.8-64.5,30.4-89.7,56.9c-25.5,26.8-46.5,56.9-66.8,87.7 c-11.4,17.4-23.6,34.3-35.2,51.5c-3.2,4.7-4.4,9.8-1,15.3c1.9,3-0.1,14.8-2.6,17.1c-0.7,0.6-2.1,0.8-3.2,0.7 c-4.3-0.3-8.7-0.6-12.9-1.2c-18-2.9-35.5-0.5-52.7,4.9c-2.2,0.7-4.4,1.2-6.6,1.8c-0.3-0.5-0.6-0.9-0.9-1.4 c5.4-4.3,10.5-8.9,16.2-12.9c9.5-6.7,19.3-13,29.1-19.3c7.7-5.1,12.8-12.2,17.2-20.3c21.6-40.3,45.4-79.1,74.2-114.7 c20-24.8,42-47.9,68.8-65.6c26.5-17.6,55.6-26.7,87.8-23c10,1.1,20,3.2,30,4.7c2.4,0.4,5,0.6,7.4,0.4c39.1-3,74.6,8,107.7,27.8 c10.7,6.4,21,13.4,31.4,20.3c2.5,1.6,4.6,3.7,6.9,5.5c-16.9-9.2-31.6-22.3-50.7-27.9c0.9,2.1,2.2,3.7,3.9,4.8 c2.2,1.5,4.8,2.4,7.1,3.8c2.5,1.5,4.8,3.4,7.3,5c7.1,4.9,14.4,9.6,21.4,14.6c9.7,6.9,19.2,14,28.8,21.1c2.2,1.7,4.6,3.3,6.2,5.5 c4.9,6.7,9.3,13.6,14,20.4c8.9,12.7,18,25.4,26.9,38.1c5.5,7.9,9.2,17.1,17.3,23.1c0.7,0.5,0.8,2.1,0.9,3.2 c0.3,2.5,0.4,4.9,0.6,7.4c0.8,9,7.5,17.2,4,27.1c1.8-3.1,4.1-6.6,3.6-9.5c-2-10.5-3.6-21.4-7.8-31.2c-4.6-10.6-11.6-20.1-18.1-29.8 c-6.1-9.1-12.7-17.8-19.4-26.4c-5.1-6.6-10.5-12.9-15.8-19.3c-3.4-4.1-6.7-8.2-10.2-12c-4.3-4.8-8.9-9.3-13.3-14 c26.9,21.5,47.1,48.7,65.6,77.2c6,9.3,11.2,19.2,16.8,28.9c0.4,0.7,1,1.5,1,2.2c1.2,14.9,10.8,26.1,16.6,39 c6.6,14.6,12.1,29.8,18.3,45.1c-1.5-0.3-2.2-0.5-2.9-0.7c-0.2,2.2-0.3,4.4-0.5,6.4c-1.3,0.3-4,0.1-4.6,1.2 c-0.7,1.3,0.4,3.6,0.9,6.1c-5.3,3.1-11.1-0.4-16.4-1.9c-9.6-2.6-18.8-6.5-28.1-9.9c-1.3-0.5-2.5-1.1-4.3-1.9 c1.6-1.5,2.5-2.4,2.8-2.7c-3.2-4-6.1-7.7-9.8-12.5c3.4-0.4,4.9-0.5,6.2-0.7c-1.6-1.9-3-3.8-4.7-5.4c-0.8-0.8-2.2-0.9-3.3-1.3 c-0.3,1-1.1,2.2-0.9,3c3.2,10,6.5,19.9,9.9,29.8c0.2,0.4,0.5,0.9,0.9,1.2c6.9,4.7,8.1,6,10.1,11.3c2-0.4,4.1-1.1,6.2-1.1 c2.9,0.1,5.7,0.7,8.6,1.3c5.6,1.2,11.1,3.1,16.8,3.9c5.5,0.8,11.1,0.6,17,0.9c0.1-0.6,0.2-1.9,0.3-2.7c1.9,1,4,2,6.2,3.1 c-3.3,0.5-2.5,2-1.4,4.8c2.4,6.2,3.8,12.8,5.6,19.2c1,2.9,0.1,6.9,3.1,8.7c0.8-0.5,1.6-1,2.4-1.5 C854.5,312.6,852.6,310.3,850.7,307.9z M755.5,637.8L755.5,637.8c1.8-0.4,3.6-0.7,5.3-1.1c0.6,0,1.1,0.1,1.7,0.1 c0.5-0.6,0.9-1.2,1.4-1.7c0,0-0.1,0-0.1,0c0.7-1,1.5-1.9,2.2-2.9c0.4-0.5,0.8-1,1.2-1.4c1.9,0,3.8,0.3,5.6,0 c1.2-0.2,2.4-1.3,3.5-1.9c1.1-0.1,2.2-0.1,3.3-0.2c1.7,0.1,3.3,0.2,5,0.3c0.3,1.5,0.7,4.2,0.9,4.2c3.3-0.3,6.5-0.9,9.8-1.5 c0,0,0.2,0.2,0.2,0.2c0.9,0,1.8,0,2.7,0l-0.2-0.1c0.6,0.4,1.1,0.7,1.7,1.1c0,0-0.2,0.1-0.2,0.1c1.4-0.9,2.8-1.8,4.2-2.8 c-0.9-1.4-1.9-2.8-2.8-4.2c2-1.1,3.9-2.2,6.3-3.5c2,1.6,4.6,3.7,8.3,6.6c0.5-4.2,0.8-6.8,1.1-9.3c8.1-0.2,1-7,4-9.4 c0.8,0.3,2.2,0.3,2.5,1c1.9,3.5,4.5,3.4,8,2.9c2.2-0.3,5.7-0.7,6.3,3.5c0.1,1,1.9,1.7,3,2.5c-0.3-0.6-0.6-1.3-1-1.9 c1.4-0.7,2.9-2,4.4-2.1c4-0.2,4.9-2.8,5.3-5.9c2.1,2.7,4.3,5.3,6.4,8c0.4-0.2,0.7-0.3,1.1-0.5c-0.2-1.3-0.4-2.7-0.6-4 c0.6,1.1,1.1,2.3,1.9,3.3c1.4,1.8,2.9,3.5,4.5,5.3c4.7-4.2,10.6-0.7,16.5,0.5c0.3-2.6,0.7-5.3,0.7-7.9c0-2.6,0.5-6.4-1-7.6 c-1.6-1.4-5.5-1.3-7.8-0.5c-3.2,1.2-5.8,3.7-8.6,5.6c-0.8-1.9-1.8-4.1-2.7-6.3c-0.1-0.4-0.2-0.8-0.3-1.2c-0.4-1.5-0.9-2.9-1.3-4.4 c-0.5-1.7-0.5-4-1.6-5.1c-2.8-2.5-2.7-4.8-1.6-8.1c1.5-4.7,6.5-7.8,5.8-13.6c-0.1-1.2,2.9-3.7,4.7-3.9c2.8-0.3,5.8,0.9,9.8,1.7 c-0.9-3.9-1.7-7.3-2.5-10.7c-0.2-0.8-0.5-1.6-0.7-2.4c-2.5-2.8-2.2-5.6-0.6-8.7c0.8-1.5,1.9-3.6,1.4-4.9c-1-2.6-0.1-4.7,0.7-7 c1.7-4.2,0.3-9.4-3.4-12.5c2.2-3.7-0.7-10.4-4.9-10.2c-6.4,0.3-12.7-2-19.4,0.5c-4.5,1.7-10.2,0-15.2,0.6 c-24.5,2.7-49,5.7-73.5,8.6c-8.1,1-16.3,1.8-24.2,3.7c-6.2,1.4-11.8,4.7-18.4,5.2c-5,0.4-9.9,1.9-14.9,2.5c-9.5,1.2-19,2-28.4,3.2 c-4.3,0.5-8.6,1.4-12.9,2.2c0.4,0.8,0.7,1.6,0.6,1.4c-2.5,0.2-5,0.3-8.4,0.5c2.6,4.9,1,7.2-3.2,7.6c-1.4-2.5-2.7-4.9-4.1-7.4 c-2.5,1-5.5,3.4-7.4,2.8c-4.4-1.6-7.7-0.4-10.9,2.2c-0.8-1.2-1.5-2.2-2.1-3.2c-0.1,0.6-0.1,1.1-0.2,1.7c-1.7,0.1-3.6,0.7-5.1,0.2 c-2.7-0.9-4.9-2.1-6.8,1.2c-0.3,0.6-1.8,0.5-2.5,1c-1.6,1.1-3.2,2.2-4.5,3.6c-1.2,1.3-1.9,2.9-2.8,4.4c0,0.1-0.1,0.2-0.1,0.5 c0.9,0.9,1.7,1.7,2.6,2.6c0.3,0,0.6,0,0.8-0.1c0.6,2.4,1.1,4.8,1.7,7.2c-0.5,0.1-0.9,0.3-1.4,0.4c0.8,0.1,1.5,0.2,2.3,0.3 c2.3,1,4.7,2,7,3c0.4,1.3,0.8,2.7,1.4,4.5c0.7-1.3,1.2-2.2,1.5-2.7c1.4,1.2,3,2.1,3.7,3.4c0.9,1.8,1.1,4.1,1.6,6.1 c1.3,0.5,2.6,0.9,4,1.4c1.6-0.9,3.2-1.8,4.8-2.7l0.2,0.2l0.2-0.2c0.3,2.3,0.7,4.6,1.2,7.7c1.4-1.7,1.9-2.3,2-2.4 c4,4.5,7.9,8.8,12.4,13.8c0.5-2.3,0.7-3.1,0.8-3.9c0.5,0.1,1,0.2,1.5,0.4c-0.7,2.6-1.4,5.2-2.4,8.9c0.2,0.2,1.3,1.4,2.4,2.5 c0-0.5,0.1-1.1,0.1-1.6c1.8-0.7,3.5-1.4,5-1.9c2.2,2.5,4,4.6,5.7,6.5c0.5-0.4,1.4-0.9,1.3-0.9c2.2,2.4,3.9,4.3,5.7,6.3 c-0.2,0.9-1.3,3.1-0.8,3.5c3.5,2.9,7.2,5.5,10.9,8.1c0.5,0.3,1.8-0.5,2.9-0.9c-0.6,3.4-1.4,7.3-2.3,12.4c2.6-1.7,3.8-2.5,4.7-3.1 c1.9,0.6,3.6,1.1,5.3,1.5c2.3,0.5,4.7,0.9,7.1,1.3c0,0,0.1,0.1,0.3,0.2c-2.9,1.4-7.4,0.1-8.3,5.2c1.2,0.8,2.6,1.7,3.4,2.3 c2-1.5,3.9-2.9,5.8-4.3c0.4,3.7,2.3,2.9,4.4,1.5c1.8,0.3,3.5,0.6,5.3,0.9c0.6-1.2,1.4-2.8,2.2-4.4c1.1,1.6,2.2,3.3,3.3,4.9 c0.4-0.2,0.7-0.4,1.1-0.6c-0.2-0.8-0.5-1.6-0.7-2.5c0.3-0.3,0.7-0.6,1-0.9c1.2,1.2,2.3,2.5,3.4,3.7c0.4-1.7,0.8-3.6,1.2-5.6 c0.2,0,0.5,0,0.7,0.1c0.2,0.8,0.3,1.6,0.4,2.1c3.5-0.3,6.8-0.5,10-0.8c0.1,1,0.2,2.2,0.2,3.4c0.2,0,0.4,0.1,0.6,0.1 c1-2.9,2.1-5.8,3.1-8.6c1.9,5.4,5.9,6.2,10,1.8c0.8,0.9,1.9,2.6,2.2,2.5c2.9-1.2,5.7-2.7,8.4-4.1l-0.2,0c0.7-0.1,1.4-0.1,2.2-0.2 C754.4,637.1,754.9,637.4,755.5,637.8z M435,528.7l-0.2,0.1c1.1-0.9,2.1-1.8,3.2-2.6c-1.7-2.7-3.4-4.2-5.1,0c0,0.7,0,1.4,0,2.2 c0,0.3,0,0.6-0.1,0.9C433.5,529,434.2,528.9,435,528.7z M416.4,474.6l-0.1,0.3c0.2-1.1,0.4-2.1,0.6-3.2c0.2-0.9,0.3-1.8,0.2-1.2 c3-1.5,5.3-2.7,8-4.1c0.4,0.8,0.9,1.9,1.4,3c4.2,2.4,5.1,2,5.7-2.5c0.2-1.2,0.7-2.4,1-3.7c1.4-3.1,6.8-4.6,10-2.6 c1.8,1.1,5.5,1.4,4.2,4.5c-1.6,3.7,1.7,6.4,0.6,9.7c1.6-2.2,3.1-4.2,5.3-7.3c0,3.9,0,6.3,0,8.9c3.2-0.5,6-0.9,9.7-1.4 c-0.4,2.3-0.8,4.6-1.4,7.8c2.6-0.7,5.4-1.5,8.1-2.3c-0.5-1.2-1.1-2.4-1.5-3.5c2.1-0.9,4.4-1.9,6.8-3c0.1,0.1,0.5,1.2,1.2,2.9 c0.7-1.9,1.2-3.1,1.7-4.3c0.1,0.4,0.3,0.9,0.4,1.3c2.4-0.6,4.7-1.3,7.7-2.1c-0.8,1.2-1.2,1.7-1.6,2.3c4.4-2.6,6.9,8,11.6,1.3 c0.4,2,0.8,3.8,1.4,6.5c0.6-2.1,1-3.3,1.5-4.9c0.6,1.3,1.1,2.2,1.7,3.5c0.4-1.6,0.7-2.7,0.7-2.5c5.8,0.9,11.3,1.7,16.3,2.5 c4-6.6,0.2-12.1-2.2-17.7c-0.5-1.1-1.7-2-2.5-3c-0.3-0.3-0.6-0.8-0.6-1.2c0.8-5.3-2.2-9.9-3.6-14.5c-2.9-9.5-8.5-18.3-13.3-27.2 c-1.1-2.1-3.3-3.7-4.8-5.6c-3.7-4.6-7.4-9.2-10.8-14c-1.4-1.9-2.1-4.1-3.3-6.2c-7.7-14-15.6-27.9-23.2-41.9 c-1.4-2.5-1.9-5.7-2.4-8.6c-0.7-5-4.1-8.3-8.8-9.7c-7.3-2.1-14.5-4.9-21.7-7.4c-1.6-0.6-3.3-1-4.9-1.7c-3.7-1.6-9.8-2.6-10.7-5.2 c-1.7-5.1-5.2-5.2-10-6.9c3.8,0,6.4,0,10,0c-5.1-4.3-13.3,0.4-16-6.8c0.5,0.5,1.1,1,2.4,2.3c0-2.9,0-4.9,0-6.7 c-1.7,0.5-2.9,1.3-3.4,1c-0.9-0.7-1.6-1.9-2-3.1c-0.1-0.3,1.4-1.1,2.3-1.7c-1.2-0.6-2.4-1.4-3.6-1.6c-1.2-0.2-2.4,0.5-3.6,0.3 c-3.7-0.5-7.4-1.6-11.1-1.7c-4.3-0.2-8.7,0.5-13,0.5c-0.6,0-1.3-1.3-1.9-2c0.7-0.4,1.3-1,2-1.3c2.7-1.4,5.7-2.6,8.1-4.3 c2.2-1.6,3.8-3.9,6-6.2c0.7,1.9,0.9,2.7,1.5,4.4c2.4-3.8,4.4-6.8,6.1-9.4c0.1,1.8,0.2,4.2,0.3,6.7c2.2-2.9,2.5-7.1,4.7-8.4 c3.2-1.9,7.9-2.6,10.2,1.4c1.9-0.9,3.6-2.5,5.1-2.3c6,0.9,11.9,2.4,17.8,3.5c9.3,1.8,15.8,8.9,24,12.6c1.3,0.6,2,2.2,3,3.4 c1,1.1,2,2.1,3.9,4.2c-2-13.6-5.5-25.5,1.2-37.9c-5.7,1.4-10.1,3.1-14.7,3.6c-13.9,1.4-27.8,2.3-41.7,3.6c-12,1.2-24,2.7-35.9,4.3 c-11.8,1.6-23.6,3.4-35.9,5.1c-0.5-0.3-1.9-1.6-3.3-1.6c-5.5,0.2-10.9,0.8-16.3,1.2l0.3,0.1c-2.3,2.4-3.6,8.7-8.2,1.8 c-0.7-1.1-3.2-1.5-4.9-1.4c-6.2,0.5-12.4,1.3-18.6,2.1c-5.2,0.7-10.3,1.6-15.4,2.2c-10.1,1.2-20.3,2-30.4,3.3 c-1.5,0.2-3,2.1-4.2,3.4c-1.6,1.9-2.8,3.5-4.6,0.3c-0.1-0.2-0.9-0.1-1.6-0.1c-0.1,1-0.2,1.9-0.2,2.6c-1.4,0-2.9,0-5.2,0 c1.8,1.6,2.7,2.4,3.6,3.2c-0.2,0.3-0.4,0.6-0.6,0.9c-2.4-1.1-4.9-2.3-7.3-3.4c-2.5,3.8-5.8,4.4-10.1,1.7c-2.4,6.4-8.2,2.2-12.1,3.7 c0.1,1,0.1,1.7,0.2,2.5c-0.4-0.5-0.8-1-1.1-1.4c-1.3,0.2-2.6,0.8-3.8,0.6c-3-0.4-5.9-1.1-9.1-1.7c0.5,1.8,0.7,2.6,0.9,3.1 c-2.4-0.8-4.7-1.6-7.9-2.7c0.8,3.7,1.3,6.1,2.1,9.8c-2.9-1.6-4.5-2.5-6.6-3.7c-0.6,0.2-1.8,0.8-3.1,1.3c-0.1-0.2-0.3-0.4-0.4-0.7 c1.3-0.9,2.7-1.7,4-2.6c-0.4-0.7-0.9-1.4-1.3-2.1c-3.1,1.6-6.2,3.2-8.9,4.6c-1.4-0.6-2.7-1.5-3.8-1.4c-3.9,0.3-7.6,2.6-11.8,0.9 c-0.6-0.2-1.9,1.5-2.9,2.3c-0.4,0.3-0.8,0.6-1.2,0.9c-0.5-0.3-1.1-1.1-1.4-1c-3.3,0.9-6.6,1.8-9.8,2.9c-0.8,0.3-1.3,1.1-2.1,1.6 c-4.8,3.2-2.8,7.7-2.3,11.9c-1.7,1.1-3.4,2.1-5.1,3.2c1.1,0.2,2.3,0.3,3.4,0.5c6.3-3.8,2.9,2.6,5.1,4.9c4.4-1.5,9.2-3.1,13.9-4.7 c-0.7,1.9-1.8,4.6-2.6,6.8c1.7-0.5,4-0.4,4.8-1.4c2-2.8,4.6-3.2,6.8-1.5c2,1.5,3.1,4.2,4.4,6.2c2.7,0.7,5.8,1.5,9.7,2.4 c1.3,3.3,4.7,4.8,7.8,2.7c0.4,1.7,0.8,3.5,1.2,5.5c1.4-1.3,2.6-2.4,3.8-3.5c0.1,0.2,0.3,0.3,0.4,0.5c-0.4,0.9-0.8,1.9-1.6,3.5 c1.5-0.8,2.4-1.2,3.3-1.7c0.6,2,1.3,3.8,2.2,6.8c1.7-1.7,3-3.1,4.2-4.3c-0.1,5.8,10.1-0.6,9.3,6.5c2.2-0.2,4.4-0.4,6.6-0.6 c-0.1,0.6-0.2,1.3-0.3,1.8c1.9,0.2,4.2-0.1,5.6,0.8c3.1,2,5.6,4.8,8.6,7c3.3,2.4,7,4.3,10.2,6.9c5.8,4.6,11.7,9.1,16.7,14.4 c2.4,2.5,8.9,3.5,5.5,9.3c0.9,0.4,2.2,0.6,2.4,1.2c2,5.1,6.2,7.2,11.1,8.2c4,0.8,8.9,5.7,9.4,9.9c0.5,3.8,2.3,6,6.3,6.6 c0.4-1.4,0.9-2.7,1.5-4.8c0.3,2.6,0.5,4.2,0.6,5.5c3.7,1.1,7.3,2.1,11.2,3.3c0.2-1.5,0.5-3,0.7-4.5c-1.1,5.4,4.7,3.6,6.9,6.3 c-3.1,0.2-5.6,0.4-8.1,0.5c0,0.4,0,0.8-0.1,1.2c1.9,0.2,3.8,0.5,5.2,0.7c-0.5,0.7-1.6,1.6-1.6,2.5c0,0.7,1.2,1.7,2,2 c2.6,0.9,5.3,1.5,8.1,2.3c0.2-0.4,0.7-1.6,1.2-2.8c3,0.8,5.7,1.5,7.6,2c0.7,2.8,1.3,5.3,2,7.8c0.4-0.1,0.7-0.1,1.1-0.2 c0.2-0.8,0.3-1.5,0.5-2.3c0.4,0,0.8,0,1.1,0c0.2,2.4,0.5,4.8,0.7,7.2c1.8-1.2,3.4-2.3,4.8-3.2c0.7,1.7,1.3,3.5,2,5.3 c-0.2,0.1-0.3,0.1-0.5,0.2c0.2,0,0.4,0,0.6,0c0.1,0.9,0.1,1.8,0.2,2.8c-0.7,0.8-1.4,1.6-2.1,2.4c0.4,0.4,0.7,0.9,1.1,1.3 c1.5-0.6,3-1.3,4.4-1.9c-0.9-0.6-1.8-1.3-2.7-1.9c2.1-3.5-3.2-8.3,1.7-11.2c3.2,2,6.2,3.8,9,5.6c-1.3,1.1-2.3,2-2.5,2.2 c0.7,2.7,1.1,4.6,1.6,6.5c1.6,0.3,3.3,0.6,5.1,0.9c-0.6,1.8-1.1,3.3-1.7,4.9c2.4-0.2,4.3-0.4,6.2-0.6l0.2,0.2c0,2.7,0,5.3,0,8.6 c-0.7-0.4-0.3,0-0.1-0.1c1.9-0.9,3.8-2,5.8-3c0.2-0.1,0.3-0.1,0.3-0.1c1.2,3.4-1.1,8.3,5.8,10.2c-3.9,0.3-6.2,0.6-8.5,0.8 c3,0.8,7-0.2,8.6,1.4c1.8,1.7,1.7,5.7,2,8.7c0.1,0.9-1.1,2.6-2,2.9c-1.3,0.3-2.8-0.4-4.6-0.7c0.1,1.6,0.2,2.9,0.3,3.1 c2.4,0.3,5.4,0.3,5.5,0.7c0.5,3.5,3,4.4,5.8,5.4c0.2-2.4,0.4-4.6,0.7-7.8c2.2,1.6,3.9,2.9,5.8,4.3c1.6,0,4.2,0.8,5.8-0.2 c2.8-1.6,8.6-0.7,6.9-7c-0.3-1,0.3-2.3,0.4-3.4c1.2,2.6,2.5,5.2,3.2,6.8c3.9-1.3,8.6-3.6,9-3c2,3.1,3.2,0.5,4.8,0.1 c0.2,5.9,4.5,7.8,9.1,9.4c0.3,0.1,0.6,0.3,0.9,0.4c1,1.4,1.9,2.8,3.2,4.7c2.1-2.5,4-4.8,5.8-7.1c3.7,0.3,7.4,0.5,11.1,0.8 c-0.1,0.1-0.1,0.2-0.2,0.4c0,0.1,0.1,0.2,0.2,0.2c-0.1-0.2-0.1-0.4-0.2-0.6c0.8-0.2,1.6-0.3,2.4-0.5c0.2,0.9,0.4,1.9,0.6,2.8 c0.3-0.1,0.7-0.3,1-0.4c-0.5-0.8-0.9-1.7-1.4-2.5c4.2-2.3,4.5,3.5,7.3,4c1.7-8,8.6-2.2,13.4-5.7c-9.1,0-17.8,2-22.8-6.9 c-0.3-0.4-0.7-0.9-1-1.3c0-0.5,0-0.9,0-1.4c-1.1-2.1-2.3-4.2-3.4-6.3C414.7,473.9,415.6,474.2,416.4,474.6z M643.9,243.2 c-0.3,0.9-0.6,1.8-0.9,2.7c-3.4,1.1-6.9,2.3-10.6,3.5c0.7,1.3,1.6,3,2.4,4.7c-0.2,0.1-0.3,0.2-0.5,0.2c-2.5-2.7-5-5.4-8.4-9 c0.7,2.9,1.1,4.6,1.4,6.1c-2.6,1.3-5.6,2-7.1,3.8c-2.4,2.8-3.4,0.7-4.4-0.7c-1.6-2.2-3.9-2.6-6.2-1.1c-1,0.7-2.5,0.6-3.8,0.6 c-1.4,0-3-0.8-4.3-0.5c-4.5,0.9-8.9,2.2-13.9,3.4c3.1,7.8-8.2,6-8.7,12.3c-1-0.7-1.9-1.4-2.9-2.1c-0.2,1.3-0.3,2.1-0.4,3.1 c-19.4-4.9-38.4-9.8-57.5-14.6c-0.1,0.3-0.3,0.6-0.4,1c2.8,2,5.5,3.9,8.3,5.9c-0.4,0.5-0.7,1-1.1,1.4c-7.6-5.5-15.5-10.6-22.7-16.5 c-3.3-2.7-6.6-6.7-7.6-10.6c-3.6-13.9-7.6-27.7-9.3-42.2c-2.1-17.3-5.9-34.3-8.9-51.5c-0.6-3.2-0.5-6.5-0.7-9.8 c-0.1-1.9-0.2-3.8-0.3-5c0.7-2.6,1.8-4.7,1.8-6.8c-0.3-18.1,7.1-34.1,14-50.2c1.1-2.5,4-4.2,5-6.7c5.2-13.2,15.9-21.8,25.6-31.2 c2.2-2.1,5.6-2.9,8.3-4.4c4.6-2.6,9-5.9,13.9-7.7c6.3-2.4,13-3.9,19.6-5.3c7.2-1.6,14.4-3.4,21.7-3.8c6.3-0.4,12.9,0.6,19.2,1.8 c6.8,1.3,13.3,3.7,20,5.3c3.3,0.8,6.8,1.1,10.1,1.6c0.1-0.6,0.2-1.1,0.4-1.7c-3.7-1.2-7.3-2.6-11-3.7c-14.8-4.4-29.6-9.2-45.3-8.5 c-4.9,0.2-9.8,1-14.6,1.7c-4.5,0.7-9,1.4-13.4,2.6c-3.7,1-7.2,2.7-10.8,3.8c-8.4,2.6-16.6,5.4-22.8,12.1c-4.8,5.1-10,9.7-14.6,15 c-5.6,6.5-12,12.9-15.9,20.4c-5.2,10.1-8.8,21.2-12.3,32.1c-1.9,5.8-2.5,12-3.2,18.1c-0.7,5.8,2.4,12.2-2.5,17.4 c-0.3,0.3-0.1,1-0.3,1.5c-2.7,11.4,2.8,21.8,4.4,32.6c0.7,4.5,2.9,8.8,3.6,13.4c2.1,14.1,4,28.2,5.6,42.4 c1.8,16.7,10.4,29.4,22.9,39.9c4.9,4.1,9.5,8.5,14.7,12.2c2.7,1.9,5.3,5.5,9.6,3.6c0.1-0.1,0.4,0.4,0.8,0.7 c-0.6,1.1-1.3,2.1-2.5,4.1c3.2,0.6,5.7,1,9,1.6c0.5,3.5,1.1,8.1,1.9,12.7c1.9,11.9,1.4,23.8,6.6,35.5c6.6,14.6,10.7,30.4,15.8,45.7 c1.4,4.1,2.4,8.3,3.7,12.8c-3.4-4-6.3-7.4-9.2-10.8c-1.1-1.2-2.8-2.1-3.3-3.5c-3.4-9.4-6.4-19-9.7-28.4c-1.4-4-3.3-7.7-5.3-12.1 c1.7-0.2,4.2-0.4,6.4-0.7c-1.7-4.2-3.8-9.4-5.9-14.6c-0.3,0.1-0.7,0.2-1,0.3c-0.3,1.5-0.5,3.1-0.8,4.6c-2.7-1.1-5.1-2-7.2-2.8 c1.2-2.1,3.2-4,3.4-6.1c0.2-2.4-1.2-5-1.7-7.2c-10.7-3.1-21.3-6.2-32-9.3c-5.3-1.6-10.4-3.9-15.8-4.8c-6.7-1.1-13.6-0.9-20.4-1.6 c-3.6-0.4-5.9,0.4-6.3,4.6c-1.6-3.5-2.9-6.4-4.3-9.3c-0.4,0.1-0.8,0.2-1.2,0.3c0,1.4-0.3,2.8,0,4.1c3.6,14.5,7,28.9,10.9,43.3 c2.2,8,5.1,15.8,7.3,23.9c4,14.6,11.2,28.4,17.2,42.5c1.8,4.2,5,5.7,9.6,5.7c7.6-0.1,15.2,0.1,22.8,0.4c2.6,0.1,5.1,1,7.7,1.2 c2.9,0.2,5.7-0.1,8.6-0.2c1.6,0,3.2,0.2,4.7-0.2c7.6-2.3,15.2-4.8,22.8-7.2c0.7-0.2,1.6,0.2,3.5,0.5c-5.8,5-10.7,9.2-15.3,13.1 c-1.1-0.5-2.8-2.1-4.4-2c-7.2,0.3-14.4,1.2-21.7,1.8c-5.2,0.4-10.5,0.8-16.1,1.2c2,5.2,3.9,9.9,5.7,14.7 c-9.9-15.8-9.9-15.8-13.4-15.9c0.1,0.5,0.2,1,0.4,1.4c7,16.1,14.1,32.2,21.2,48.2c0.6,1.3,2.1,2.1,3.1,3.1c0.3-0.3,0.5-0.5,0.8-0.8 c-2.5-8.9-5.1-17.8-7.6-26.6c4.8,13.5,9.6,27,14.4,40.4c1.3,3.6,3.7,7,4.4,10.7c1,5.5,0.9,11.1,1.2,16c8.5-2.4,17.7-5,26.9-7.7 c1,2.5,1.8,4.3,2.1,5.2c1.4-1.5,2.8-4.3,4.4-4.5c7.3-1,14.6-1.3,21.9-1.6c4.1-0.1,8.1,0.6,12.2,0.4c2.1-0.1,4.2-1.6,6.2-2.4 l-0.2,0.1c2.9-0.5,6-0.5,8.7-1.6c1.9-0.7,3.3-2.8,4.9-4.3c0.1,0.6,0.2,1.2,0.3,1.8c1.5,0.3,2.9,0.7,4.4,1c0.3-1.8,0.6-3.5,0.9-5.9 c-6.9,0.9-12.5,1.6-18.1,2.3c-2.9,0.3-2.9,1.6-1.2,3.5c-2.1-0.9-4.3-2.7-6.3-2.6c-9.1,0.4-18.2,1.2-27.4,1.9 c2.7-3.4,6.6-2.1,10.1-2.3c2.4-0.2,4.9-0.4,7.6-0.6c-0.5-1-0.9-1.7-1.2-2.4c3.6-1.9,7.1-3.8,10.4-5.6c1.1-0.1,2.4-0.2,3.7-0.3 c-0.3-2-0.6-4.1-1.1-7.2c-1.3,1.9-1.7,2.5-2.3,3.3c-0.6-1.8-1.1-3.3-1.4-4.4c-1.2,1-2.2,1.9-3.2,2.8c-2.7-3.7-5.1-3.1-7.9,0.1 c-0.6,0.6-2.5,0-3.8,0c-1.6,0-3.2,0.2-4.8,0.3c-0.3-4-2-5.5-5.5-4.7c6,3.3,1.9,4.8-1.1,6.6c-0.6-1.1-1.1-2.3-1.9-3.9 c-0.5,1.4-0.9,2.4-1.3,3.4c-2.4,6,2.5,10,4.1,14.9c-1.3-0.4-2.5-0.8-3.8-1.2c-0.2,0.4-0.4,0.7-0.5,1.1c0.7,0.3,1.4,0.7,2,1 c-0.1,0.4-0.1,0.8-0.2,1.2c-9.5,1.7-19.1,3.3-29.4,5.2c2.3-5.2,1.4-8.1-4-7.6c-0.5-2.7-0.9-5.1-1.3-7.6c3.6,0.2,3.6,0.2,13.6-13 c-3.1-1.9-1.8-3.8,0-5.8c1.1-1.3,2.5-3,2.4-4.5c-0.2-5-1-10-1.5-15c0.2-0.1,0.4-0.1,0.5-0.2c1.7,4.9,3.4,9.8,5.1,14.7 c0.4-0.1,0.8-0.2,1.2-0.3c-2.6-10.3-5.3-20.7-8-31.5c3.2,2.9,1.3,10.4,8.7,8c0-1.2,0-2.4,0-3.6c1.1,1.5,1.7,3.7,1,4.4 c-1.2,1-3.3,1-4.7,1.4c2.8,1.6,5.4,3,6.8,3.8c-0.7,3-1.1,4.9-1.5,6.7c1.9-0.7,3.3-1.3,4-1.6c-0.7,2.8-1.2,5.2-1.8,7.8 c2.4,0.3,3.9,0.4,5.6,0.6c0-2.8,0-5.5,0-7.8c1.6,0.5,2.9,0.9,4.3,1.3c-0.8,1.5-1.9,3.5-3.1,5.5c0.5,0.3,0.9,0.5,1.4,0.8 c0.5-0.9,1-1.7,1.6-2.7c0.6,1.4,1.1,2.5,1.6,3.6c3.2-2.6,6.1-4.9,8.7-7c0.2,1.4,0.6,3.8,1.1,7.2c3.4-1.6,6.1-2.9,10.1-4.7 c-3.2,6.8,3.7,5.4,5,8.8c0.9-1.1,1.7-2.1,2.4-3c1,1.1,1.9,2,1.8,1.9c2.7-0.6,4.8-1.6,6.5-1.3c2.8,0.5,5.4,1.9,8,3 c2,0.8,3.9,1.7,6,2.7c0,0.1,0.4-1.2,0.8-2.4c0.3,0.1,0.5,0.1,0.8,0.2c0.1,3.1,0.3,6.2,0.4,9.1c0.4-0.4,1.1-1,2.2-1.9 c1.2,2.4,2.2,4.6,2.8,5.9c1.6-0.6,3-1.6,4.3-1.5c1.7,0.1,3.4,1.1,5,1.7c-0.7,0.7-1.4,1.4-2.1,2.1c0.8-0.8,1.6-1.6,3.1-3.2 c0,3.4,0,5.7,0,8.1c0.3,0,0.5,0.1,0.8,0.1c0.5-1.6,1-3.3,1.3-4.3c1.7,0.7,3.3,1.3,5,2c0,0.4-0.1,1.2-0.2,2.1c2.5-0.2,4.7-0.3,6-0.4 c1,2.4,1.7,4.1,2.4,5.8c-0.9-1-1.6-2.4-2.7-2.8c-1.5-0.6-3.4-0.9-4.9-0.5c-0.8,0.3-1.6,2.3-1.6,3.5c0.1,3.5,1.3,6.8,5.3,7.1 c4.2,0.3,1.7-3.8,3.1-5.5c1.2,1.6,2.4,3.1,3.8,5c0.5-1.4,0.9-2.4,1.4-3.8c0.6,1.3,0.9,2.2,1.5,3.4c0.7-1.5,1.2-2.7,1.8-4.1 c0.5,1.2,0.9,2.2,1.3,3.3c2.4-1,5.6-3.4,6.6-2.7c3.5,2.6,5.9,1.5,8.4-1.4c2.4,5.2,4.8,2.1,7.1,1.4c1.1,0.8,2.2,1.1,3.4,1 c4.6-0.2,9-2.2,13.8-1.1c0.7,0.2,1.8-0.3,2.3-0.8c2-2.2,6.4,2.5,7.4-2.5c2.8,0.9,5.7,1.8,9.8,3.1c-5.8,1-10.4,1.9-15.1,2.7 c-11,1.8-22.1,3.8-33.2,5.2c-7.4,0.9-14.2,4.5-21.9,4.3c-3.4-0.1-6.5,2.9-10.4,1.4c-1.3-0.5-3.2,0.6-4.5,0.9c0.4,0.6,1,1.4,1.5,2.1 c-0.2,0.2-0.3,0.3-0.5,0.5c-1.7-0.9-3.3-1.9-5-2.9c-0.2,0.7-0.5,1.6-0.8,2.6c-0.8-1-1.5-1.8-2.8-3.4c0,2.2,0,3.4,0,4.5 c-3.7-0.1-6.2-3.5-10.3-1c-1.8,1.1-5.8-0.4-8.6,1.1c-0.8,0.4-2.5,0.6-2.9,0.2c-3.3-3.8-6.9,0.3-10.4-0.4c-2.1-0.4-5.1,1.7-6.9,3.5 c-0.9,0.9-0.7,4.8,0,5.2c3.6,1.8,7.5,4.7,11.4-0.2c0.8-1,3.2-1.1,4.7-0.9c2.6,0.4,5.1,1.3,7.8,2.1c0.3-1.7,0.5-2.7,0.8-4.3 c2.4,5.5,5.6,2.3,8.3,1.2c2.5-1,4.7-3,5.9-0.2c2.7-0.7,4.9-1.3,7.7-2c0.3-0.3,1.2-1.8,2.3-2c1.1-0.2,2.5,0.9,3.8,1.4 c2-3.5,6.1-3,9.3,2.5c0.3-1.8,0.5-3.2,0.6-3.3c2-0.3,3.6-1.1,4.6-0.6c3.8,1.9,7.3-0.9,11.1-0.3c4.6,0.7,9.2,0.7,13.8,1.3 c0.7,0.1,1.3,1.4,2.2,2.4c-5.1,2-9.7,3.9-14.5,5.8c-5.4-5-12.7,0.2-18.4,14.3c3.3,0.2,6.2,0.5,9.2,0.7c0-0.4,0.1-0.8,0.1-1.2 c-0.9-0.2-1.8-0.3-2.7-0.5c3.6-0.3,7.2-7.8,10.8-0.1c0.1,0.3,1.4,0.3,1.9,0.1c3.7-1.8,7.3-3.8,11-5.7c0.5-0.3,1.1-0.5,1.7-0.5 c5.6,0.3,11.2,0.7,16.7,1c-0.5,0.2-1.1,0.5-1.7,0.7c-0.1,0,0,0.3,0,1c4-1.1,7.6-3.3,12-1.8c1.8,0.7,4.2-0.3,6.4-0.6 c42.1-5.2,84.2-10.5,126.3-15.6c5.5-0.7,11-0.7,14-6.8c-0.9-2.9-3.6-2.2-6.1-1.9c-0.6,0.1-1.5,0.7-1.6,0.6c-2.2-3.3-5-1.6-7.8-1.3 c-4.6,0.5-9.3,0.7-14,1c-1.5,0.8-2.7,3.8-5-0.6c-0.4-0.8-2.7-0.8-4.1-0.8c-2.6,0.1-5.3,0.6-7.9,0.9c-1,0.1-2.8,0.3-2.8,0.4 c0.1,3.7-2.9,2.5-4.2,2.1c-4.4-1.1-8.6-2.8-13.2-4.3c-0.9,3.5-3.1,3.9-6.2,1.4c0,1.7,0,3.1,0,4.4c-1.2-1.1-1.6-2.5-2.3-3.6 c-0.5-0.7-1.6-1.3-2.4-1.2c-6.7,0.6-13.4,1.5-20.1,2c-1.4,0.1-2.9-1-5.3-1.9c11.3-3.4,21.3-5.6,31.9-5.5c8.5,0.1,17-2,25.6-2.9 c2.1-0.2,4.2,0.5,5.2,0.6c7.5-1,14-2.3,20.6-2.7c5.2-0.3,11.1,3.1,15-3.2c0.2,0.2,0.6,0.5,0.7,0.5c3.1-1.4,6.1-2.8,10.7-4.9 c-4-3.1-6.7-5.5-9.7-7.6c-1.2-0.8-2.8-1-4.2-1.4c0.9-1,1.9-2,2.6-2.8c0.6,0.8,0.9,1.4,1.2,1.7c1.7-2.5,3.3-4.6,4.6-6.8 c1.8-3.1,0.8-6.2-2.2-6.3c-7.4-0.3-14.9-0.8-22.2-0.1c-23,2.1-45.9,4.6-68.9,7c-13,1.4-26,2.9-38.9,4.7c-7.3,1-8.4,0.7-9.6-5.9 c2.6,0.5,5.3,1,7.7,1.4c0.5-1.3,1.2-3.4,1.5-4.4c2.5,0.6,4.6,1.9,5.7,1.2c5.5-3.2,11.7-2.6,17.5-4.1c4.7-1.2,9.6-1.8,14.4-2.1 c3.3-0.2,6.7,0.5,9.8,0.8c1.7-0.5,3.6-1.6,5.4-1.6c3.1,0.1,6.3,1.5,9.3,1.3c6.9-0.5,13.7-1.9,20.5-2.6c5.1-0.6,10.3-0.6,15.3-1.3 c3.7-0.5,7.3-1.5,11.6-2.5c-0.8,1.6-1.3,2.5-1.8,3.6c3.4-0.6,6.5-2,9.4-1.6c6.7,0.9,13.5-5.7,11.4-11.8c-1.7-5-3.4-10.2-5.8-14.8 c-6.8-12.7-13.5-25.5-21.1-37.8c-5.1-8.2-10.9-16.2-20.3-20.5c-2-0.9-3.6-3-4.9-4.8c-4.5-6.4-8.7-13-13.2-19.5 c-0.6-0.9-2-1.3-3-1.9c1.5-2.6,3-4.6-1.7-6c-4.8-1.4-8.8-11-5.7-13.7c3.4-3,1.8-5.4,1-8.2c-1.1-4.1-2.4-8.2-3.3-12.4 c-1.3-5.9-5.2-9.1-11-9.6c-3.5-0.3-7-1.4-10.8-2.2c0.1-0.3-0.2,0.4-0.3,0.8c-3.9-1.7-7.4-4.3-11.9-1.6c-0.9,0.5-2.5-0.1-3.7-0.4 c-3.9-0.8-7.9-1.8-10.2,3.8c-1.6-5.3,3-5.6,5.4-7.8c-1.2-0.7-2-1.2-2.8-1.7c3.8-1.8,7.6-3.5,11.7-5.4c-1.9-2.5-3.5-4.2,0-6 c0.6-0.3,0.4-3-0.1-4.3c-0.2-0.7-0.3-4.1-2.8-1.5c-1.8-4.8-4-9.5-5.3-14.4c-0.8-2.9-0.9-6.5,0.3-9.1c0.6-1.4,4.5-1.8,7-1.9 c3.2-0.1,6.5,0.8,9.8,0.9c3.5,0.2,6.9,0,10.8,0c-1.2-6.3-2.2-11.7-3.1-17c-14.8,0-29.2,0-43.7,0c0-0.1,0-0.3,0-0.4 c2.2-0.1,4.5-0.3,6.7-0.4c-0.8-0.5-1.7-0.4-2.4-0.7c-4.6-1.7-7.8,2.4-11.9,3c-7.9,1.1-15.8,2.3-23.5,4c-8.7,1.9-17.2,4.8-25.9,6.7 c-6.7,1.4-14.1-0.2-19.8,5.2C644.4,242.8,644.1,243,643.9,243.2z M430.5,579.7c-1.1,0-2.1,0-3.2,0l0.1,0c-0.7,0-1.4,0-2.1,0 c0,0,0.2,0,0.2,0c-2.5,0.7-4.9,1.4-7.4,2.1c0.1,0.5,0.1,1,0.2,1.6c-3-1.9-5.2-6.3-9.7-2.9c0.8,1.2,1.6,2.5,3,4.8 c-2.5-2-4.1-3.4-5.2-4.3c-2.5,0.6-4.6,1-6.6,1.7c-3.1,1.1-6.5,1.5-6.6,6.4c0,2.4-2,5.7-5.6,6c-3,0.3-6,0.2-8.9,0.5 c-1.4,0.1-2.7,0.8-4,1.3c0.1,0.5,0.2,1,0.4,1.5c7.1-0.9,14.2-1.8,21.2-2.7c3.8,5.8,4.4,5.9,8,2.2c1.5,6-5.5,1.9-6.7,5.4 c1.6,0,2.9,0,4.6,0c-1.2,0.6-1.9,1-3.7,2c3.6,0.4,6,0.6,8.4,0.9c0,0.4-0.1,0.8-0.1,1.2c-3.3,0.2-6.6,0.4-9.9,0.6 c-0.1,0.3-0.1,0.5-0.2,0.8c2.6,1.2,5.2,2.4,7.9,3.6c1.6-4.1,3.7-4.7,8-2.3c1.4,0.8,3.4,1.2,5,1c2-0.3,3.9-1.5,6.5-2.6 c-0.1,0.5,0-0.2,0.2-1.8c3.1,4.2,6,4.3,9.4,1.9c1.1-0.8,3.3-0.8,4.7-0.4c3.2,1,6.6,5.7,8.8-1.1c1,0.4,2,0.7,3.1,1.1 c-0.2-1.6-0.4-2.9-0.6-4.1c2.3,0.5,4.4,0.9,6.4,1.4c-1.3,0.9-2.6,1.8-3.9,2.7c1.5,0.5,3.1,1.5,4.6,1.4c2-0.1,3.9-1,5.9-1.6 c0.1-0.4,0.1-0.8,0.2-1.2c-2.1-0.5-4.1-0.9-6.2-1.4c3.2-0.1,6.1-2.8,9.5-1c2.9,1.6,2.5-2.3,4.5-2.8c2.6-0.8,5.7-3.3,6.7-5.8 c1.9-4.7,4.2-5.3,8.2-2.7c0.2-1.7,0.4-3.2,0.5-4.8c0.6,1,1.3,1.9,2.3,3.5c-0.2-4.6-5.4-9.6-8.1-8.5c-0.2,1-0.4,2.1-0.6,3.2 c-7.6-1.5-8-1.8-9.7-7.7c-4.8,3-9.3,3.4-13.7-0.9c-0.8-0.8-1.9-1.3-2.9-1.8c-2.9-1.6-10.3-0.1-11.5,1.9c-2.6-0.5-5.1-0.9-7.6-1.4 c0.2,0.5,0.3,1,0.5,1.6c-1.5,0.7-2.9,1.4-4.4,2.1C430.6,580.2,430.6,580,430.5,579.7z M108.9,303.7c0,0,0.1,0.1,0.1,0.1 c-0.6-0.8-1.2-1.6-1.7-2.3l0.2,0c-1.6,0.6-3.3,1.2-4.9,1.8c0,0,0-0.1,0-0.1c1.3,0.9,2.5,2.3,4,2.7c1.1,0.3,2.5-0.5,3.7-0.8 C109.8,304.6,109.4,304.2,108.9,303.7z M470.9,631.9c1.4,0,2.8,0,4.5,0c0.1,0.2,0.5,1.1,1.4,3.2c-0.5-8-1-8.7-4.3-9 c-0.8,1.8-1.4,3.2-2,4.5l0.2,0.1l0-0.2c0.1,0.6,0.2,1.2,0.4,1.8c-0.3,0.1-0.5,0.1-0.7,0.1C470.5,632.2,470.7,632.1,470.9,631.9z M399.1,530.7c-0.4,1.2-0.8,2.5-1.1,3.7c2.9-1.6,5.3-3,7.5-4.3c-0.5-0.1-1.5-0.4-2.7-0.7c1.2-0.7,1.9-1.2,2.7-1.6 c-0.3-0.4-0.6-0.8-0.9-1.2c-1.8,1.4-3.7,2.8-5.5,4.2c-1.8-1.4-3.7-2.7-0.9-5.1c0.8-0.7,0.6-2.7,0.8-4c-0.3,0-0.7-0.1-1-0.1 c-0.3,0.9-0.6,1.8-0.5,1.4c-2.1,0.6-3.4,0.9-4.6,1.3c-0.4-1.3-0.9-2.7-1.4-4.1c-0.5,0.2-1,0.5-1.4,0.7c1.9,3.5,3.7,6.9,5.7,10.6 C396.6,531.2,397.8,530.9,399.1,530.7z M372.1,494.6l0.3,0.1c-1.3,0-2.6,0-3.9-0.1c-3-0.4-6.8,2.7-6.2,5.1c0.5,1.9,1.3,3.7,3.7,3.3 c2.6-0.4,5.7-0.2,6-4l-0.2,0.1c2.6,1.4,5.3,2.9,7.9,4.3c0.6-2.4,1.3-4.8,1.7-6.4c-1.8-1-3.5-1.9-5.4-2.9 C375.2,494.3,373.7,494.5,372.1,494.6z M1056.1,559.8c-1.4-1.3-2.8-2.6-4.2-4c-0.3,0.3-0.5,0.7-0.8,1c2.2,3.8,4.4,7.6,6.6,11.4 c3.6-5.4,3.5-6.9-1-8.1c2,0.1,4,0.2,7.3,0.4c0.1-0.5,0.4-2,0.6-3.5c-0.3,0-0.5,0-0.8,0c0.5-1.1,1-2.2,1.5-3.3 c-1.1-0.5-3.1-1.5-3.1-1.4C1060.7,555.3,1055.5,555.2,1056.1,559.8z M648.9,678.4c1.6,0.9,3.1,1.7,4.7,2.6c0.8-1.6,1.6-3.3,2.3-4.9 l0,0.3c-0.7-1.5-1.4-2.9-1.8-3.8c-2.1,0-3.6,0-6.1,0c0.1,1.5,0.2,3.5,0.3,5.4c-1-0.8-2.1-1.6-3.1-2.4c0.9-1.9,1.8-3.7,2.8-5.9 c-0.9-1.3-2-3-3.6-5.4c-0.2,1.7-0.3,2.5-0.3,2.4c-2.8,0.8-5,1.4-7.3,2.1c1,0.7,2.1,1.4,3,2.1c0.2,0.1-0.3,1.2-0.2,1.2 c2,1,2.4,4.6,5.6,3.5c-2.9,1-2.9,3.1-1.9,5.4c0.4,0.8,2.2,1.8,2.3,1.7C646.9,681.3,647.9,679.9,648.9,678.4z M404.8,560.8 c1.7-0.5,3.5-1,6.2-1.8c-1.9-0.3-2.6-0.4-3.3-0.5c1.5-1.8,2.7-3.3,4-4.9c-0.3-0.3-0.6-0.5-0.9-0.8c-1,1.3-2,2.7-3.2,4.3 c-0.8-1.9-1.3-3-1.7-4.1c0.2-1,0.4-2,0.6-3c0.2-1.3,0.4-2.7,0.5-3.3c2.1-0.1,4.1,0.3,5.4-0.4c5.9-3.2,12.6-0.1,13.7,6.7 c0.5,3.1,1,6.2,1.5,9.2c0.3-0.1,0.6-0.2,1-0.3c0.2-1.5,0.5-3,1-5.8c1.1,2.5,1.6,3.7,2.3,5.4c0.6-1.4,0.9-2.5,1.4-3.4 c0.3-0.6,0.8-1.1,1.2-1.6l-0.1,0c-6.2,0.2-5.9-4.5-6.1-8.5c0-0.8-0.7-3.6,2.7-2.8c2.8,0.7,6,0,8.9-0.6c2.4-0.5,5-3,7-2.6 c6,1.2,9.8,0,10.4-6.2c5.1-1,9.7-1.8,14.2-2.7c3,2.3,6,4.5,9.4,7.1c-0.9-3.7-1.7-6.6-2.4-9.5c0.7-0.4,1.4-0.8,2.1-1.1 c2,2.2,4,4.5,6,6.6c2-3,1.6-5.7-1.8-8.4c-1.9-1.5-2.8-4.2-4.6-7c-1.8,3.4-3.9,7.2-5.5,10c-5.3,0-10.4-0.4-15.4,0.1 c-9,0.8-18,2.1-27,3.3c-7.4,0.9-14.8,1.9-22.2,3.1c-1,0.2-1.7,1.7-2.5,2.5c-2-3.9-5.4-1.2-8.4-1.2c-2,0-4-0.3-6.6-0.5 c0.1-0.1-0.6,1-1.5,1.3c-4.2,1.2-8.7,1.8-11.8,5.5c-1.1-1.4-2.2-2.9-3.3-4.3c-0.7,0.3-1.4,0.7-2.1,1c0.6,3.7,1.1,7.3,1.8,11.5 c1.6-3.4,2.7-5.9,3.9-8.4c-0.2,1.5-0.5,2.9-0.7,4.4c0.4,0.1,0.8,0.1,1.2,0.2c0.6-1.4,1.2-2.9,1.9-4.3c0.3,0.1,0.5,0.1,0.8,0.2 c0.2,3.4,0.4,6.8,0.6,10.4c0.8-1.5,1.4-2.8,2.1-4.1c0.4,0.1,0.8,0.2,1.2,0.3c0.2,3.1,0.3,6.1,0.5,9.2c3.8-3.3-2.8-11,5.3-12.3 c2.9,5.8,2.7,7.4-1.4,9.1c7.1,1.1,2.6,7.5,5.3,10.8c2.8-6.2,6.9,2,10.2-1.5c0.2-1.3,0.5-3.1,0.9-5c-1.2,0.2-2.3,0.5-4.2,0.8 c1-1.2,1.4-1.6,1.8-2.1L404.8,560.8z M849.4,320.8c0.6-0.7,1.8-1.4,1.7-1.9c-1.2-4.9-2.6-9.7-4.2-15.7c-2.7,4.7-4.6,8-6.7,11.6 c1.3,0.6,2.1,1,3,1.5c-0.5,2-0.3,3.9,0.7,5.1c1.9,2.2,4,2.1,5.6-0.6L849.4,320.8z M1039.2,597.1c2.1-0.4,4.1-0.9,6.2-1.1 c4.9-0.4,6.3-3,4.3-7.3c-0.9-2-1-4.4-1.7-6.6c-0.4-1.4-0.9-3.5-1.9-3.9c-2.4-1-5.1-1.1-7.7-1.6c-0.1,0.5-0.2,1-0.3,1.5 c2.2,1,5.7,8.6,4.9,11.1C1042,591.9,1040.5,594.5,1039.2,597.1c-0.9-1.4-1.8-2.8-2.7-4.2c-2.3,1-4.7,2-7.1,3 c-1-1.7-1.8-2.8-2.5-3.9c-0.9,3.3-1.7,6.3-2.7,9.8c1.9-0.2,3.2-0.1,3.5-0.5C1030.3,596.1,1035,597.3,1039.2,597.1z M618.9,535.3 c-2-0.8-4.1-5-5.9,0.2c-0.2,0.9-0.3,2.6-0.7,2.7c-3.5,0.7-7.1,1.1-10.6,1.8c-0.8,0.2-1.4,1.1-1.8,1.4c-1.6-2.9-3.2-5.6-4.8-8.3 c-0.7,0.2-1.4,0.3-2.1,0.5c0.3,3.6,0.7,7.2,1,11.1c13.9-1.9,27.2-3.7,41.8-5.7c-3.1-1.1-4.7-1.7-5.8-2.1c-1.9,0.7-3.9,2.1-5.5,1.8 C622.5,538.2,620.8,536.4,618.9,535.3z M233.6,446.2c-2.6,0.5-4.7,1-2.2,4.3c2.7,3.6,2.5,8,2.5,12.4c0,3.1,0.1,6.2,0.1,9.3 c0,4.1,0,8.3,0,12c2.4-0.3,3.8-0.4,5.7-0.7c-0.9-8-1.7-16-2.9-24c-0.7-4.5-2.2-8.9-3.4-13.3c-0.2-7.6-2.3-14.6-6.9-20.7 c0.6,4.1,1.9,7.9,3.3,11.6C231,440.1,232.4,443.1,233.6,446.2z M233.1,527.7c-0.3,0-0.8-0.1-1,0.1c-2.9,2.8-4.1,16.5-1.7,18.9 c1,1,2.8,1.3,4.2,1.5c1.1,0.1,2.4-0.6,3.6-1c0.6-2.2,1.2-4.6,1.8-6.9c-0.2-2.7-0.3-5.4-0.5-8.2c0,0,0.1,0.2,0.1,0.2 c-0.5-1-1-2-1.5-3l0,0.2c-1-0.7-2.1-1.5-3.1-2.2c2.1-1,5.5-1.6,6.1-3.2c0.7-2.2,0.1-6.6-1.3-7.3c-2.2-1.1-5.6-0.1-8.5,0.4 c-0.4,0.1-0.6,2.2-0.5,3.4c0.1,1.7,0.4,3.5,0.9,5.1C231.9,526.4,232.6,527,233.1,527.7z M995.2,630.7c-1.5,3.7-1.5,3.7,2.9,6.5 c-0.4-6.9,7.2-2.7,9.5-7c-4.3,0-8.1,0-12,0c0.6-0.8,1.2-1.7,2.1-2.9c-4.1,0.6-7.7,2.2-10.7,1.5c-4.4-1.2-8-1.8-10.1,1.1 c-1.5-0.7-2.4-1-4.1-1.8c0.9,4.2,1.5,7.3,2.3,10.3c0.3,1.2,1.1,3.1,1.6,3.1c1.7,0,3.3-0.8,5-1.4c0.2-0.1,0.2-1.3,0.4-1.3 c3.4-0.3,6.9-0.4,9.3-0.6C993,635,994.1,632.8,995.2,630.7z M520.5,241.1c-4.4,0.4-8.9,0.8-13.3,1.2c10.4-2.8,20.8-5.4,31.1-8.3 c6.4-1.8,12.5-4.5,18.9-6.3c5-1.5,10.2-3.2,15.4-3.3c6.5-0.1,13.1,1.3,19.6,1.9c0.9,0.1,1.8-0.6,3.7-1.4 c-6.6-0.6-11.6-1.1-16.7-1.6c0.1-1,0.2-2.1,0.3-3.1c14.8,0.4,29.5,1.5,45,5.5c-1.6,2.2-2.7,3.7-3.8,5.2c0.4-1.6,0.8-3.1,1.2-4.7 c-0.3,0-0.5-0.1-0.8-0.1c-0.7,1-1.4,2.1-2.8,4.1c0-2.3,0-3.3,0-4.9c-1.1,1.5-1.8,2.4-2.6,3.6c-0.4-1.2-0.6-1.8-0.9-2.6 c-0.7,0.9-1.2,1.7-1.9,2.7c-0.4-1.1-0.6-1.8-0.8-2.4c-0.5,0.4-0.9,0.7-1.4,1.1c1,0.9,1.8,2.3,2.9,2.6c2.4,0.5,4.9,0.5,7.4,0.7 c2,0.4,4,0.9,6,1.3c11.3,2.4,22.7,4.4,34.2,1.6c1.2-0.3,2.4-0.8,3.4-1.4c1.9-1.1,3.7-3,5.7-3.2c17.1-2.3,34.3-4.4,51.5-6.4 c3.4-0.4,7.2,0.9,10.3-0.1c7.2-2.5,14.4-1.8,21.7-1.1c-4.4,0.2-8.9,0.4-13.3,0.6c0,0.5,0,1,0.1,1.5c6,0,12-0.3,18,0.1 c3.7,0.2,5.4-1.4,6.6-4.5c3.5-8.7,7.9-16.8,16.2-22.7c-4.7-3-5.5-6.7-3-9.6c-2.2-3.2-4-5.7-5.6-8.3c-1.6-2.7-2.7-5.7-4.4-8.4 c-9.9-15.4-19.7-30.9-30-45.9c-5.8-8.6-11.7-17.4-19.3-24.4c-11.3-10.5-23.4-20.3-36.3-28.8c-24-16-48.9-30.3-77.3-37.2 c-1.3-0.3-2.4-1.3-3.6-1.6c-1.1-0.3-2.3-0.1-3.7-0.1c10.5,8.7,16.6,19.9,20.7,32.1c7.9,24,9.5,48.8,8.6,73.9 c-0.5,14.3-0.5,28.6-0.4,43c0,3.1,0.9,6.6,2.5,9.4c4.1,7.4,9.2,14.2,12.8,21.9c1.4,3.1,0.7,8.1-0.9,11.2c-0.8,1.6-5.9,1.8-8.9,1.4 c-8.4-1.2-16.7-3.2-25-4.5c-8.8-1.4-17.7-2.4-27.2-3.6c2.2-3.2,4-6.6,6.5-9.4c6.7-7.2,13.6-14.2,20.6-21.1c2.8-2.8,4-5.8,3.9-9.8 c-0.5-23.8-0.8-47.6-1.3-71.5c-0.1-5.3-0.2-10.8-1.6-15.8c-6.5-23.3-20-41.5-40.9-53.8c-5.8-3.4-12.5-6.1-19-2.5 c-11.4,6.3-23.3,11-33.2,20.6C504,64.2,496.7,76.8,490.5,90c-10,21.5-10.6,44.4-6.5,67.5c4.2,23.9,8.4,47.7,13.1,71.5 c0.9,4.8,4,9.1,6,13.7c0.1,0.5,0,1,0.3,1.4c5.9,9.3,25.3,14.7,35.2,9.7c1.1-0.6,1.8-2.1,2.6-3.2c-1.1-0.8-2.1-2.2-3.3-2.4 c-8.3-0.9-16.6-1.6-25-2.4c-1.3-0.1-2.7,0-4.1,0c0-0.5,0-0.9,0-1.4c2.9-0.3,5.8-0.4,8.6-1C518.6,243.3,519.5,241.8,520.5,241.1 c2,0.9,3.9,2.8,5.9,2.8c9.6,0,19.2-0.4,28.8-0.7c-0.3-0.5-0.5-1-0.8-1.4c0.6-1.2,1.2-2.3,2.5-4.6 C544.2,238.5,532.3,239.8,520.5,241.1z M550,8c-27.8-8.6-55-7-81.1,5.2c-27.5,12.9-61.8,44.2-59.8,54.3c2.4-1.3,5.1-2.1,6.8-3.9 c13.9-14,29.3-25.6,46.5-35.4c17.6-10.1,35.9-17.2,56.2-18.6C529.1,8.8,539.5,8.5,550,8z M884.6,469.1c3.9-8.5,14.7-6.7,20.2-13.1 c-5.5,0.7-10.7,2.3-15.9,3.7c-2.5,0.6-5.1,0.9-7.4,1.3c0,3.2-0.4,7.1,0.1,10.8c1.2,8.5,2.9,17,4.5,25.5c0.3,1.4,1.4,2.7,2.6,4.8 c-0.5-7.1-1-12.8-1.4-18.5c0.4-0.1,0.8-0.1,1.2-0.2c4.2,9.5,8.4,18.9,12.6,28.4c0.5-0.2,1-0.4,1.4-0.6c-0.1-1.9-0.2-3.8-0.4-6.9 c1.4,2.3,2.2,3.6,3.1,5.1c3.3-0.3,6.9-0.1,6.4-5.2c0-0.5,0.6-1.1,1.1-1.6c6.1-6,6.6-8.2,3.3-16.3c1-0.9,2-1.8,3.9-3.5 c-2.3-1.6-4.3-4.2-6-4c-5.2,0.7-8-2.2-11.1-5.2C897.6,468.5,891,467,884.6,469.1z M562.1,534.9c-0.4-0.3-0.9-0.6-1.3-1 c2.9-3.1,10.8-1.3,9.1-9.2c-4,2.6-6.2,0.6-8.8-2.6c-3-3.6-7-6.5-10.8-9.3c-1.6-1.1-4-1-7-1.7c4.1,11.4,7.7,21.3,11.5,31.1 c0.4,1,2.2,1.9,3.5,2.1c0.7,0.1,2.1-1.3,2.4-2.3C561.3,539.7,561.6,537.3,562.1,534.9z M869.8,433.4c0.5,0.8,1,1.6,1.5,2.3 c1.8-1,4.2-1.5,5.1-3c1.4-2.4,3.3-6.3,2.3-7.9c-3.8-6.1-8.5-11.7-13.1-17.3c-0.8-1-2.8-1.2-3.1-2.1c-2-6.2-7.2-8.8-13.1-12.6 c3.6,7.1,6.5,13.3,9.8,19.2c2.5,4.6,6.1,8.7,8,13.5c1.3,3.5,2.4,5.6,6.9,5.7C872.7,431.9,871.2,432.7,869.8,433.4z M375.5,524.7 c-0.9-1.9-1.6-3.6-2.5-5.7c-0.4,1.6-0.6,2.6-1.1,4.4c-0.8-2.1-1.2-3.2-2-5.2c-4.8,1.8-11.3,2.3-13.5,5.6 c-2.9,4.4-1.6,10.6,3.7,12.2c4.4-2.8,8-5,12.2-7.7c0,2.9,0,4.1,0,5.5c-2.2-1.7-5.2,0.7-6.4,5c-0.5-0.4-1-0.7-1.4-1.1 c3.3,2.6,3.3,2.6,3.8-1.5c4.1-0.9,8-1.7,12.5-2.7c0.2-1.4,0.4-3.5,0.6-5.6c-4.5,0.4-2.7-4-4.4-6.2 C376.4,522.9,376,523.6,375.5,524.7z M814.9,353.5c-5.8,4.5-0.8,6.6,2.1,9.3c-1.4,0.1-2.3,0.2-3.2,0.3c0,0.4-0.1,0.9-0.1,1.3 c11.2,2.6,22.3,5.3,33.5,7.9c0.1-0.4,0.2-0.7,0.3-1.1c-4.1-1.5-8.3-3-13-4.7c1.3-0.7,2.1-1.1,3.4-1.7c-5.3-4.2-10.1-8-15.3-12.1 c0.3-1.3,0.9-4.1,1.4-6.8c-0.2-0.1-0.4-0.1-0.7-0.2c-2,3.4-4,6.7-6.2,10.4C816.4,355.1,815.7,354.4,814.9,353.5z M238.2,585.1 c5.7,1.1,7,0.1,6.5-3.9c-0.9-7.4-1.8-14.8-2.7-22.2c-0.3-2.3-0.5-4.8-3.6-4c-3.5,0.9-6.8,2.5-10.2,3.9c-0.1,0,0.2,1.7,0.4,1.7 c4.4,1,1.2,4.2,1.9,6.6c3.8-0.6,4.2,1.5,3,4.4c1.6,0.6,3,1,3.9,1.4c1.1,4,2.1,7.6,3.1,11.5C240.7,584.6,239.9,584.7,238.2,585.1z M808.5,240.8c-0.9,0.5-2.7,1.3-2.6,1.5c0.5,1.6,0.9,3.9,2.1,4.5c4.4,2.2,9,4,13.7,5.6c1.3,0.4,3.1-0.7,4.7-1.2 c-0.8-2-1-5.3-2.4-5.8C819.1,243.4,813.9,242.3,808.5,240.8z M564.5,585.2c1.9-0.9,3.2-2,4.8-2.3c5.8-1.3,11.8-2.2,17.5-3.8 c4.3-1.2,8.4-3,12.4-5c2.6-1.3,2.6-3.2,0.6-4.1c-17.6,11.2-37,9.8-55.8,11.6c6.1,0,12.3,0,18.4,0 C563.2,583,563.9,584.3,564.5,585.2z M68.7,542c-4,10.1-4.2,19.9,1.1,29.4c4.7,8.4,16.2,11.2,23.1,6c-3.1,0.2-6.6,1.2-9.8,0.5 c-8.8-2-15-11-15.2-21.6C68,551.5,68.5,546.7,68.7,542z M539.9,513.9c0.6,11.8,9.6,20.5,11.8,31.6 C553,541.1,544.6,517.8,539.9,513.9z M565.5,236.2c-0.3,0.5-0.5,1.1-0.8,1.6c1.5,0.5,3,1.2,4.5,1.5c1.3,0.2,3-0.7,4.1-0.2 c6.7,3.4,13.5,0.9,20.3,0.6c0.3,0,0.6-1.1,1-1.7C584.6,237.3,575,236.8,565.5,236.2z M668.9,683c1.5-2.8,2.6-4.9,4.1-7.7 c-1.8-0.7-4.1-1.7-6.4-2.6c-0.5,2.4-1,4.9-1.6,7.3c-1.4-0.2-3.1-0.6-4.9-0.9c0.4-0.2,0.8-0.4,1.2-0.6c1.4,1.2,2.8,2.3,4.3,3.5 c-0.5,0.2-0.9,0.4-1.4,0.7C665.9,682.8,667.7,682.9,668.9,683z M991.3,623.4c0,0.6,0,1.2,0,1.8c2.6-0.3,5.1-0.7,7.7-1 c-0.2-1.5-0.8-3.1-0.5-4.5c1.1-6.1-3.7-7-8.2-9.2c2.2,3.8,4,7,5.9,10.3C994.6,621.6,992.9,622.5,991.3,623.4z M1063.4,540.9 c0.1,2.6,0.2,4.8,0.3,7.2c3.1-0.2,4.9-1.2,3.4-4.6c-0.9-1.9-1.8-4.5-3.3-5.1c-1.5-0.6-3.9,0.9-5.7,1.7c-0.9,0.4-1.6,1.4-2.4,2.2 c1.2,0.4,2.4,1.3,3.5,1.1C1060.5,543.2,1061.6,542,1063.4,540.9z M141.8,351.3c-0.1,0.6-0.2,1.2-0.3,1.8c9.4,1.7,18.9,3.4,28.3,5.1 c0.1-0.7,0.2-1.4,0.4-2.2C160.7,354.4,151.2,352.9,141.8,351.3z M386.2,532.8c3.9-2.7,5.9-5.7,3-9.7c-1.4,0.2-2.8,0.4-4.7,0.7 c0.6,4.5,1.2,8.9,1.6,12.4c2.2-1,4.3-2,6.9-3.2C392.1,529.4,389.3,533.4,386.2,532.8z M590,597.9c0.4,0.2,0.8,0.3,1.2,0.5 c1-1.6,3.3-4.2,3-4.6c-3.4-4.1-0.4-7.8,0.3-11.6c0.2-1.2,0.3-2.5,0.4-3c-3.5,2.9-6.9,5.7-10.3,8.4c1.9-0.5,4-1.1,6.3-1.8 C590.6,590.1,590.3,594,590,597.9z M657.9,627.2c4.5-0.2,5.2-1.8,4.1-4.7c-1.2-3-1.6-6.9-7.4-5.5 C655.8,620.6,656.8,623.9,657.9,627.2z M647.6,491.7c-2.9-2.3-5.2-5.5-7.6-5.6c-2.6-0.1-5.2,2.8-7.7,4.3c1.8,1.4,2.8,2.1,3.8,2.9 c0.2,0.6,0.5,1.1,0.7,1.7c2-1.8,4-3.7,6-5.5c-0.3-0.4-0.6-0.7-0.9-1.1c0.5,1.3,1,2.7,1.4,4C644.5,492.2,645.6,492,647.6,491.7z M237.7,504.4c0.5-4.9,1-8.7,1.5-13c-1-0.5-2.4-1.3-3.5-1.8C228.3,495.6,236,499,237.7,504.4z M349.8,560.4 c1.4-3.6,2.5-6.4,3.6-9.1c-0.1,0-1.2-0.1-2.2-0.3c0-0.3-0.1-0.7-0.1-1c1.4-0.4,2.9-0.9,4.6-1.4c0.5,1.6,0.9,3.1,1.3,4.5 c0.7-1,0.5-2.1,1-2.9c1.6-2.9-0.4-5.4-2.2-5.3c-2.1,0.2-5,2.5-5.6,4.4C349.1,552.7,349.8,556.4,349.8,560.4z M852.5,411.6 c2.3-4.2-2.2-12-7-12.4C847.8,403.2,850,407.1,852.5,411.6z M210.4,385.1c2.7,3.1,5.4,6.2,8.1,9.3 C217.5,386.2,213.5,382.3,210.4,385.1z M860.8,426.6c0.8-0.5,1.5-0.9,2.3-1.4c-1.8-3.4-3.7-6.7-5.5-10.1c-0.8,0.5-1.6,0.9-2.4,1.4 C857.1,419.8,858.9,423.2,860.8,426.6z M590.4,649.6c3,1.4,5.1,2.4,7.2,3.5c0-2.6,0-5.3,0-7.9c-0.5-0.1-1-0.2-1.4-0.4 C594.6,646.2,592.9,647.6,590.4,649.6z M604.6,662.4c-0.8-1-1.6-1.8-2.3-2.6c-0.3,0.6-0.5,1.2-0.9,2.1c-2.8-2.6-5.2-5-8.1-7.7 C597.2,664.4,597.2,664.4,604.6,662.4z M629.7,674.2c-0.3,0.3-0.6,0.6-0.9,1c2.4,0.6,4.8,1.2,7.4,1.9c-4.8-4.1-9.3-8.1-13.9-12 c0.4,2,1.7,3.5,3,4.8C626.7,671.3,628.2,672.8,629.7,674.2z M367.5,551.8c3.9-7.2-3.5-5.4-5.1-8c-0.4,0.1-0.8,0.3-1.3,0.4 c0.4,1.8,0.7,3.5,1.1,5.3c1.3-0.7,2.7-1.3,4.2-2.1C366.8,548.4,367.1,549.9,367.5,551.8z M392.5,514.4c-0.1-0.4-0.2-0.8-0.3-1.2 c-7.1,0.9-14.2,1.7-21.3,2.6c0,0.4,0.1,0.7,0.1,1.1C378.1,516.1,385.3,515.2,392.5,514.4z M656.1,29.6c0.2-0.5,0.5-0.9,0.7-1.4 c-3.6-1.4-7.1-2.9-11.7-4.7C647.3,30.5,653.1,26.8,656.1,29.6z M983.8,609.6c0.3,2.3,0.6,3.7,0.6,5c0,1.2-0.3,2.4-0.4,3.5 c2.5-0.2,4.2-0.4,6.1-0.6C988.1,615,986.3,612.7,983.8,609.6z M920.5,543c-0.1-0.5-0.2-1-0.3-1.6c-5.3,1.1-10.5,2.2-15.8,3.4 c0.1,0.5,0.2,1,0.3,1.5C910,545.2,915.2,544.1,920.5,543z M945.4,470.1c0.7-0.7,1.3-1.5,2-2.2c-1.7-1.4-3.4-2.8-5.1-4.3 c-0.2,0.7-0.5,1.5-0.7,2.2c-1.1,0.8-2.3,1.6-3.4,2.4c-0.1,0.4-0.1,0.9-0.2,1.3C940.5,469.8,942.9,470,945.4,470.1z M1073,516.6 c-1.3,3.2-6.6-1.3-6.1,5.1C1068.1,518.2,1074.6,524.8,1073,516.6z M970,612.7c1.4,2.5,2.6,4.9,4,7.4c0.3-0.1,1.2-0.4,3-1 C973.2,617.8,975.2,611.5,970,612.7z M856,326.2c0.7-0.2,1.4-0.4,2-0.6c-0.8-2.6-1.6-5.1-2.5-7.7c-0.7,0.2-1.3,0.4-2,0.6 C854.4,321.1,855.2,323.6,856,326.2z M437.1,552.6c-0.4,0.1-0.7,0.3-1.1,0.4c0.4,0.6,0.7,1.2,1.1,1.9c0.2-0.1,0.4-0.2,0.7-0.3 C437.5,554,437.3,553.3,437.1,552.6z M493.4,532.6c-0.1,0.1-0.3,0.2-0.3,0.3c0,0.3,0.2,0.5,0.2,0.8c0.1-0.2,0.3-0.5,0.4-0.7 C493.7,532.9,493.5,532.7,493.4,532.6z"></path> <path class="st0" d="M1021.7,254.2c0.8,2.3,1.8,4.5,2.3,6.8c0.3,1.3,0.5,3.3-0.3,4c-0.8,0.7-2.7,0.4-4,0c-3.1-0.9-6.2-1.9-9.2-3.1 c-1.5-0.7-2.8-2-4.7-3.3c-6.4,3.5-10.2-5.7-15.9-5.4c-1.1-1.8-1.5-3.5-2.5-4c-4.2-2.2-8.5-4.1-12.8-6.1c-0.7-0.3-1.5-1.2-2.2-1.1 c-5.7,1.2-8.8-4-13.3-5.3c-5.4-1.6-10-5.7-16.2-4.6c-0.6,0.1-1.4-0.6-2.2-1c-4.4-1.9-8.6-2.6-13.7-1.5c-3.5,0.8-7.7-1.8-12.1-3 c13.5-0.9,26.4-1.8,39.3-2.5c1.9-0.1,4,1,5.1,1.3c3.1-0.5,5.5-1.5,7.9-1.3c4.6,0.4,9.2,1.2,13.7,2.2c2.3,0.6,5.4-0.3,6.7,3.6 c0.4,1.1,3.7,6.4,7.8,2.3c0.2-0.2,1.6,0.8,1.5,0.8c-0.4,1.8-0.7,3.3-1.1,5.5c1.7-1.2,2.7-1.9,3.9-2.8c1,2,1.8,3.8,2.6,5.5 c0.3-0.1,0.5-0.1,0.8-0.2c-0.1-0.6-0.2-1.2-0.4-2.3c2.3,1,4.3,2,6.3,2.9c0.3,0.6,0.5,1.2,0.8,1.8c2.3-2.7,3.2,0,4.5,1.1 c2,1.8,4,3.5,5.9,5.3c-1.7,0.1-3.4,0.3-5.1,0.5c-0.1,0.3-0.2,0.5-0.3,0.8c1.3,0.5,2.6,1,3.2,1.2c0.4,2.2,0.7,3.9,1,5.6 C1020.1,256.4,1020.9,255.3,1021.7,254.2z"></path> <path class="st0" d="M908.3,311.4c-1,0.1-2.1,0.2-3.3,0.3c1.2-1.6,2.2-3,2.8-3.8c-2-0.5-3.7-1-6.6-1.7c2.6-1.3,4-2,5.4-2.7 c0-0.2,0-0.3,0-0.5c-1.9,0.3-3.9,0.6-5.9,0.9c1-4,2.3-6.1,6.8-3.2c2.1,1.4,5.5,0.8,8.4,0.9c5.8,0,10.3,2.3,13.6,7.1 c0.7,1.1,2.8,1.1,3.9,2.1c0.6,0.5,0.3,2,0.4,3.4c1.4-1.1,2.9-2.3,4.5-3.6c2.2,4.5,4.5,8.6,6,13c0.5,1.6-0.8,4-1.5,5.9 c-0.9,2.2-2.1,4.3-2.2,6.9c-2.6,1.1-5.2,2.1-8.1,3.2c-0.5-1-1.2-2.3-1.5-3.1c-2.4-0.5-4.6-1.6-6.5-1.3c-4.2,0.6-2.4-2.6-3.4-4.2 c-1.5-2.3-3.6-4-5.2-6.2C911.9,319.4,909.6,317,908.3,311.4z"></path> <path class="st0" d="M1030.9,358.2c1.9-0.6,3.9-1.2,5.9-1.7c-2-2.3-4.2-4.7,0.9-5.9c0,0-0.1,0.1-0.1,0.1c1.8-4,1.8-4,6.3,1.7 c0.9-2.3,1.9-4.6,2.9-7.1c1.5,0.6,2.7,1.1,4,1.6c0.2-0.6,0.5-1,0.4-1.1c-1.3-1.1-2.6-2.1-4-3.2c-0.4,0.3-0.9,0.7-1.3,1 c0.1-1.2,0.2-2.4,0.3-3.3c4,1.6,7.9,3.1,11.8,4.6c0.2-0.2-0.6,1.1-1,1c-4.8-1.3-4.2,1.7-3.4,4.4c1.2,4.1,2.7,8.1,4,12.1 c-4.2,0-8.4,0-12.2,0c0.2,0.3,1.1,1.4,1.5,1.9c-1,1.7-1.7,2.9-2.4,4c-0.7-2.9-2.4-3.2-5.4-3.7 C1036.1,364,1033.6,360.4,1030.9,358.2z"></path> <path class="st0" d="M996.1,554.6c-0.1,0.9-0.2,1.7-0.2,2.6c-0.4,0.5-0.7,1-1.1,1.6c0,0,0.2-0.1,0.2-0.1c-1.8,0.1-3.6,0.2-5.4,0.3 c-0.6-3.7-1.2-7.4-1.8-11.6c2-0.4,3.5-0.7,6.1-1.3c-1.5,2.1-2.3,3.3-2.5,3.6C993.3,551.7,994.7,553.1,996.1,554.6z"></path> <path class="st0" d="M934.3,530.4c4.9-2.1,9.2-3.9,13.9-5.9c0.3,5.3-3.6,5.4-6.5,6.6c-1.7,0.7-3.2,1.7-5.1,2.7 C936.4,533.4,935.5,532.1,934.3,530.4z"></path> <path class="st0" d="M965,470.1c3.6-1.4,7.1-2.9,10.7-4c0.9-0.3,2.2,1,3,2.2c-2.3,1.3-7.1-2.3-5.2,3.6c-2.9-0.7-5.6-1.3-8.4-2 C965.1,469.9,965,470.1,965,470.1z"></path> <path class="st0" d="M1037.6,350.6c0,0,0.1-0.1,0.1-0.1c-0.2,0-0.4,0-0.5-0.2c-2.8-4-5.6-8.2-11.9-7.3c0.1-0.5,0.3-1.1,0.4-1.6 c2.1-0.6,4.1-1.2,6.2-1.7c0.5-0.1,1.4,0.4,1.6,0.9C1034.9,344,1036.2,347.3,1037.6,350.6z"></path> <path class="st0" d="M350.8,255.6c0.7,0.6,1.3,1.2,2.2,2c0.5-0.9,0.9-1.7,1.5-2.6c0.4,0.8,0.7,1.5,0.7,1.6c2.7-0.5,5.3-1,9-1.7 c-3.6,6-8.3,3.1-12.1,3.8c-0.7,0.1-1.7-1.2-2.5-1.9C350,256.3,350.4,256,350.8,255.6z"></path> <path class="st0" d="M1077.5,359.2c-1.4-4.9-2.9-9.8-4.1-14.7c-0.2-0.7,1.2-1.9,1.9-2.8c0.5,0.2,0.9,0.3,1.4,0.5 C1076.9,347.8,1077.2,353.5,1077.5,359.2C1077.5,359.2,1077.5,359.2,1077.5,359.2z"></path> <path class="st0" d="M345.9,258.4c-3.8-0.2-6.9,1.7-8.6-2.3c-0.1-0.3-2.6,0.5-4.2,0.8c0.4-0.4,1.1-1.6,1.8-1.6 c2.9-0.2,5.8-0.2,8.7,0.1C344.2,255.4,344.7,256.6,345.9,258.4z"></path> <path class="st0" d="M1059.8,438.3c0-2.1,0-4.1,0-6.2c0.8-0.4,2.4-0.8,2.4-1.3c0.2-2.3,1.6-2.3,3.2-2.2c-0.4,0.9-0.6,1.9-1.3,2.7 c-2.8,3.4-0.6,4.1,2.5,5.1C1064.4,437.1,1062.1,437.7,1059.8,438.3z"></path> <path class="st0" d="M965,470.1c0,0,0.2-0.2,0.2-0.2c-2.2,4.3-5.5,2.7-9.9,2.2c3.2-1.7,5.1-2.9,7.2-3.7 C963,468.2,964.1,469.5,965,470.1z"></path> <path class="st0" d="M980,465c1.9,0,3.4,0,5,0c0.6,3.8,0.3,4-5,4C980,467.8,980,466.4,980,465z"></path> <path class="st0" d="M897.4,295.1c0.7-1,1.4-2,2.1-3c1.8,1,3.4,1.9,5.2,2.9c-0.8,0.7-1.9,1.8-3.1,2.8 C900.3,296.9,898.9,296.1,897.4,295.1z"></path> <path class="st0" d="M994.3,563.8c0,0,0.2,0,0.2,0c-1.2-0.5-2.4-0.9-4.1-1.6c-0.2-0.7-0.5-2-0.9-3.4c0.8,0.7,1.6,1.3,2.5,2 c-0.1,0-0.3,0-0.4,0.1c-0.1,0-0.1,0.2-0.1,0.3c0.1-0.2,0.2-0.3,0.3-0.5c1-0.7,2.1-1.3,3.1-2c0,0-0.2,0.1-0.2,0.1 C994.6,560.5,994.5,562.1,994.3,563.8z"></path> <path class="st0" d="M1009.7,243.6c-0.3-0.6-0.5-1.2-0.8-1.8C1009.2,242.4,1009.4,243,1009.7,243.6z"></path> <path class="st0" d="M927.4,427.7c0,0,0.3,0.2,0.3,0.2c0-0.3,0.1-0.6,0.1-0.9c0.2,0.2,0.4,0.3,0.5,0.5 C928,427.6,927.7,427.6,927.4,427.7z"></path> <path class="st0" d="M939.5,417.8c-0.6,0.7-1.2,1.4-1.7,2.2c0,0,0.3,0,0.3,0c-0.4-0.6-0.7-1.2-1.1-1.8c0,0,0.1,0.1,0.1,0.1l-0.1,0 c0.5-0.5,1-0.9,1.5-1.4c0,0,0.1,0,0.1,0C938.8,417.1,939.1,417.4,939.5,417.8z"></path> <path class="st0" d="M978.1,379.9c0.2-0.2,0.3-0.4,0.5-0.6c0.1,0.2,0.3,0.4,0.4,0.7c0,0.1-0.2,0.3-0.3,0.3 C978.6,380.2,978.4,380,978.1,379.9z"></path> <path class="st0" d="M940.9,413.2c0.3,0.6,0.7,1.1,1,1.7c0,0,0.1-0.1,0.1-0.1c-0.3,0.4-0.7,0.7-1,1.1 C940.9,414.9,940.9,414,940.9,413.2z"></path> <path class="st0" d="M426.6,469.4c0.6-2,1.2-4,1.9-6.3c-1.3-0.1-3.1-0.2-5.2-0.3c-0.1-0.9-0.2-2.3-0.3-3.8 c-4.5-0.6-4.7,1.9-3.3,6.3c-1.5-1.6-2.2-2.4-3.1-3.4c-1.1,0.8-2.3,1.6-3.4,2.4c-3.2-2.3-6.3-5.9-9.3-0.8c-0.9-1.2-2.2-2.8-3.4-4.5 c-1.1,1-2.2,2-3.5,3.1c0-2.6,0-5.5,0-8.4c0.7,6.1,6.3,3.9,10.7,6.1c-0.7-3.3-1.3-6-1.9-8.6c0,0,0-0.1,0-0.1 c1.5-2.8,1.3-3.3-1.4-3.5c-2.1-0.1-4.1,0.2-6.6-0.1c3.8-0.6,7.8-0.9,6.4-6.5c0.6,1,1.1,1.9,1.7,2.9c1.2-1.1,2.2-2,3.4-3 c-0.7-0.3-1.4-0.6-2-1c3.1-3.5,3.1-3.6-0.4-5.2c2-1.1,3.8-2.1,4.9-2.7c-0.3,3-0.6,6.1-0.9,9.2c0.6,0.4,1.2,0.8,1.8,1.2 c0.4-1,0.8-1.9,1.4-3.3c0.5,1.8,0.8,3.1,1.2,4.5c0.2,0,0.4,0,0.6-0.1c0-2.4,0-4.7,0-6.9c-1.2-0.1-2-0.2-2.8-0.3 c4.3-3.8,5.7,5.7,10.4,2c0.4,2.8-0.7,3.2-6,2.2c1,0.9,2,1.9,3,2.9c-0.3,0.1-1.1,0.4-2,0.7c0.2,0.2,0.4,0.7,0.5,0.7 c1.6-0.4,3.2-0.9,5.5-1.6c-0.2-0.2,0.5,0.5,1.8,2c0.4-2.4,0.6-4,0.8-5.5c0.2,0,0.4,0,0.7,0c0,2.2,0,4.4,0,6.8 c0.9,0.1,2.2,0.2,3.7,0.4c0.3,2.8,0.6,5.5,0.9,8.2c1.6-1.2,3-2.3,4.4-3.3c0.9,1.7,1.8,3.4,2.7,5.1c-0.4,0.2-0.8,0.3-1.2,0.5 c-0.5-1.3-1-2.6-1.7-4.4c-1.1,3.8-2.1,7-3,10.2c-0.4,1.2-0.9,2.4-1.1,3.7C431.6,471.4,430.8,471.7,426.6,469.4z"></path> <path class="st0" d="M389.3,481.3c1,0,2.7-0.2,2.8,0.1c0.8,2.3,2.1,2.6,4.1,1.6c0.5-0.3,1.5-0.2,1.9,0.2c1.4,1.4,2.3,4.6,5,2 c1.4-1.3,1.9-3.5,2.8-5.3c0.1-0.2,0.3-0.5,0.5-0.9c0.7,2.8,1.2,5.6,5.1,3.8c-1.1,2.2-2.3,4.4-3.4,6.6c0.1-0.5,0.3-1.2,0.2-1.3 c-1.2-0.7-4.6,0.6-5.6,1.4c-1.5,1.4-3.2,2.5-4.8,3.7c-0.3-0.1-0.6-0.3-0.9-0.4c-4.6-1.6-8.9-3.6-9.1-9.4c0.4-0.6,0.8-1.1,1.1-1.7 C389.1,481.5,389.2,481.4,389.3,481.3z"></path> <path class="st0" d="M872.2,561c-1.4,3.6-2.2,3.9-6.4,2.5c-1.5,1-3.4,2.6-3.7,2.3c-1.3-1.1-4.6-1.4-2.6-4.6c0.5-0.8,0-2.2-0.1-3.4 c-0.1-1.3-0.2-2.6-0.4-3.9c1.6,0.1,3.3-0.1,4.7,0.5c2.7,1.2,5.1,2.8,7.7,4.2C871.7,559.5,872,560.3,872.2,561z"></path> <path class="st0" d="M693.6,640c-0.1-0.5-0.2-0.9-0.3-1.4c4.3-0.7,8.5-1.4,12.8-1.9c0.2,0,0.6,2.9,0.9,4.4c-4.2-3.7-5.7-3-7.7,3.7 c-2.1,1.4-4,2.2-4.4-1.5c-0.3-1-0.7-2.1-1-3.1C693.8,640,693.7,640,693.6,640z"></path> <path class="st0" d="M405,560.7c-2.4,0.5-4.8,1-7.5,1.6c0-1,0-2,0-3.6c1,0.8,1.7,1.4,3.5,2.8c0.4-6,0.8-11.2,1.2-16.3 c-0.8,0.8-1.6,1.6-2.4,2.4c2.2,0.9,4.5,1.7,6.7,2.6c-0.2,1-0.4,2-0.6,3.1c-0.4,2.5-0.7,5.1-1.1,7.6L405,560.7z"></path> <path class="st0" d="M621.1,583.1c-0.9-4.7,0.7-6.9,5.8-6.4c2.1,0.2,4.3,0,6.4,0c0.1,0.5,0.1,1,0.2,1.5c-2,0.2-4,0.4-5.2,0.5 c-1.1,2-2.1,3.9-3.2,5.7C623.7,584,622.4,583.5,621.1,583.1z"></path> <path class="st0" d="M773,626.6c-1.1-0.2-2.2-0.3-4.9-0.7c2.6-1.5,3.9-2.8,5.3-3c1.9-0.4,3.9-0.2,5.8,0.2c1.1,0.2,2.9,1.2,2.9,1.9 c0.1,1.6-0.7,3.3-1.2,4.9c-0.4-0.4-0.9-0.8-1.3-1.2c-1.1,0.1-2.2,0.1-3.3,0.2C775.2,628.1,774.1,627.3,773,626.6z"></path> <path class="st0" d="M418.3,482.6c0.5,2.6,1.1,5.2,1.6,7.8c-0.8-0.5-1.9-0.7-2.4-1.4c-1.7-2.2-1.8-2.2-4,1.4 c-0.5-3.5-0.8-6.1-1.2-8.6c1.1-0.2,2.2-0.4,3.2-0.6c0.6,0,1.2,0.1,1.8,0.1C417.6,481.7,418,482.1,418.3,482.6z"></path> <path class="st0" d="M773,626.6c1.1,0.7,2.2,1.5,3.3,2.2c-1.2,0.7-2.3,1.7-3.5,1.9c-1.8,0.3-3.7,0-5.6,0c0,0-0.2-0.4-0.2-0.4 c-1.7-0.5-3.4-1.1-5.2-1.6l0.1,0.1c0.9-1.1,1.8-2.2,2.7-3.3C766.9,625.8,769.9,626.2,773,626.6z"></path> <path class="st0" d="M332.2,455.5c-0.4-0.8-0.9-1.6-1.6-3c2.7,0.4,4.8,0.6,6.7,0.9c0.9,2.3,1.8,4.9,2.8,7.7c-0.2,0-1,0.1-1.8,0.1 c0,0-0.1,0-0.3,0.1c-1.9-1.9-3.8-3.7-5.6-5.6L332.2,455.5z"></path> <path class="st0" d="M618.9,535.3c1.5,4.2,1.5,4.2-4.9,5c-0.4-1.6-0.7-3.2-1.1-4.8C614.8,530.3,616.9,534.4,618.9,535.3z"></path> <path class="st0" d="M855.2,607.3c-1-0.9-1.9-1.7-2.9-2.6c2.2,0.1,4.4,0.2,6.6,0.3c0.1,0.4,0.2,0.8,0.3,1.2c-1.1,1-2.2,2-3.3,3.1 C855.7,608.6,855.5,607.9,855.2,607.3c0-0.2,0-0.2,0-0.3C855.2,607.1,855.2,607.2,855.2,607.3z"></path> <path class="st0" d="M798.5,625.7c-0.6,1.4-1.1,2.7-1.7,4.1c0,0,0.2-0.1,0.2-0.1c-0.4,0.1-0.7,0.1-1.1,0.2 c-0.2-0.2-0.4-0.3-0.5-0.5c0.2,0.1,0.4,0.2,0.7,0.3c-0.2,0.7-0.4,1.4-0.6,2.1c0,0-0.2-0.2-0.2-0.2c-0.9-0.6-1.9-1.2-2.8-1.8 c0.1-0.5,0.2-1.1,0.3-1.6c0,0,0.5,0.1,0.5,0.1l-0.5,0.1C794.6,627.5,796.5,626.6,798.5,625.7z"></path> <path class="st0" d="M432.8,529.2c0-0.3,0.1-0.6,0.1-0.9c0-0.7,0-1.4,0-2.2c1.7-4.2,3.4-2.7,5.1,0c-0.8,0.3-1.6,0.7-2.4,1 c0.1-0.5,0.1-0.9,0-0.2c-0.2-0.7-0.1-0.3,0,0.1c-0.3,0.6-0.5,1.2-0.8,1.7c0,0,0.2-0.1,0.2-0.1C434.2,528.9,433.5,529,432.8,529.2z"></path> <path class="st0" d="M767,630.3c0,0,0.2,0.4,0.2,0.4c-0.4,0.5-0.8,1-1.2,1.4c-0.7,0.5-1.4,1-2.1,1.5l0.1,0c0,0.4,0,0.8,0,1.2l0,0.2 c-0.5,0.6-0.9,1.2-1.4,1.7c-0.6-0.3-1.1-0.6-1.7-1c0-0.7,0-1.4,0-2.1c0.7-1,1.4-2,2-3C764.2,630.6,765.6,630.4,767,630.3z"></path> <path class="st0" d="M430.7,580.2c-0.7,0.9-1.5,1.8-2.2,2.6c-0.4-1-0.7-2-1.1-3.1c0,0-0.1,0-0.1,0c1.1,0,2.1,0,3.2,0 C430.6,580,430.6,580.2,430.7,580.2z"></path> <path class="st0" d="M110.9,317.9c-0.5,1.3-1.1,2.5-1.6,3.8c-1.2-0.1-2.3-0.3-3.4-0.4C107.5,320.2,109.2,319.1,110.9,317.9z"></path> <path class="st0" d="M417.3,481.2c-0.6,0-1.2-0.1-1.8-0.1c-0.3-0.4-0.6-0.8-0.9-1.1c0.9-0.1,1.7-0.1,2.6-0.2 C417.3,480.3,417.3,480.7,417.3,481.2z"></path> <path class="st0" d="M644.5,242.7c0.7,0.1,1.4,0.1,2,0.2c-0.2,0.7-0.4,1.3-0.7,2c-0.7-0.5-1.3-1.1-2-1.6 C644.1,243,644.4,242.8,644.5,242.7z"></path> <path class="st0" d="M604.5,559.8c-0.4,0.3-0.8,0.7-1.2,1c-0.3,0-0.6,0-0.8,0.1c-0.2-0.7-0.3-1.4-0.5-2.1c0,0-0.1,0.1-0.1,0.1 c0.4-0.4,0.8-0.8,1.2-1.2c0,0,0,0.1,0,0.1C603.4,558.4,604,559.1,604.5,559.8z"></path> <path class="st0" d="M800.8,630.8c-0.5,0.7-1,1.4-1.5,2.1c0,0,0.2-0.1,0.2-0.1c-0.6-0.4-1.1-0.7-1.7-1.1c0,0,0.2,0.1,0.2,0.1 c-0.3-0.7-0.7-1.4-1-2.1c0,0-0.2,0.1-0.2,0.1c0.7,0,1.4,0.1,2.1,0.1c0,0-0.1-0.2-0.1-0.2c0.7,0.4,1.4,0.7,2.2,1.1 C801,630.8,800.8,630.8,800.8,630.8z"></path> <path class="st0" d="M372.1,494.6c-0.1,1.5-0.1,3-0.2,4.5c0,0,0.2-0.1,0.2-0.1c0.1-1.4,0.2-2.9,0.3-4.3 C372.4,494.7,372.1,494.6,372.1,494.6z"></path> <path class="st0" d="M600,557.7c1,0,2,0,3,0.1c0,0,0-0.1,0-0.1c-0.4,0.4-0.8,0.8-1.2,1.2c0,0,0.1-0.1,0.1-0.1 c-0.7-0.2-1.4-0.3-2.1-0.5C599.9,558,600,557.8,600,557.7z"></path> <path class="st0" d="M655.9,676.1c-0.6,0.1-1.3,0.2-0.5,0.1c-0.7-0.3-0.1-0.1,0.5,0.2C655.9,676.4,655.9,676.1,655.9,676.1z"></path> <path class="st0" d="M751.9,634.7c-0.1,0.7-0.1,1.5-0.2,2.3c0,0,0.2,0,0.2,0C751.9,636.1,751.9,635.4,751.9,634.7z"></path> <path class="st0" d="M102.6,303.3c0.6-0.1,1.3-0.3,1.9-0.4c0,0.2,0,0.5,0,0.7c-0.6-0.2-1.3-0.3-1.9-0.5 C102.6,303.2,102.6,303.3,102.6,303.3z"></path> <path class="st0" d="M754.8,636.7c0.3,0.4,0.5,0.7,0.8,1.1c0,0-0.1,0-0.1,0C755.2,637.5,755,637.1,754.8,636.7z"></path> <polygon class="st0" points="416.4,474.6 416.1,474.5 416.3,474.9 "></polygon> <path class="st0" d="M611.9,493.2c-0.1,0.9-0.3,1.8-0.4,2.7c0,0,0.2-0.1,0.2-0.1C611.8,494.9,611.8,494,611.9,493.2z"></path> <path class="st0" d="M425.3,579.8c0,0,0.2,0,0.2,0C425.5,579.8,425.3,579.8,425.3,579.8z"></path> <polygon class="st0" points="107.3,301.5 107.3,301.8 107.5,301.5 "></polygon> <polygon class="st0" points="996.5,564 996.4,563.7 996.3,564 "></polygon> <path class="st0" d="M763.8,633.7c0,0.5,0,0.9,0,1.4c0,0,0.1,0,0.1,0c0,0,0-0.2,0-0.2c0-0.4,0-0.8,0-1.2L763.8,633.7z"></path> <path class="st0" d="M301.1,272.8c0,0,0.3,0.1,0.3,0.1C301.4,272.9,301.1,272.8,301.1,272.8z"></path> <path class="st0" d="M239.6,531.9c0,0,0.1,0.2,0.1,0.2C239.7,532.1,239.6,531.9,239.6,531.9z"></path> <polygon class="st0" points="238.2,529.2 237.8,529.3 238.2,529.3 "></polygon> <polygon class="st0" points="933.1,410.2 932.9,410.2 933.1,410.4 "></polygon> <path class="st0" d="M1051.9,435.4c-2.1,0.6-4.6,0.7-6.3,1.9c-2.8,1.9-4.9,1.5-7.2-0.4c0,0-0.1,0.2-0.1,0.2 c1.2-1.9,2.3-3.7,3.5-5.6C1044.8,433.7,1050.2,430,1051.9,435.4z"></path> <path class="st0" d="M1038.3,437c0,0,0.1-0.2,0.1-0.2c0.5,4.7-2.4,4.5-5.6,4c-0.8-0.8-1.5-1.7-2.7-3 C1032.3,435.4,1035,434.7,1038.3,437z"></path> <path class="st0" d="M659.9,332.1c2.6-1.9,4.4-3.1,6.9-4.9c0-0.5-0.2-2.5-0.3-4.1c1.5,0.5,2.4,0.8,3.4,1.1c0.1-2.6,3.1-1.7,3.8-2.8 c3-5,7.1-2.2,10.8-2.1c0.1-1.3,0.1-2.6,0.2-4.5c5.4,5.8,10.1,0.2,14.9-0.3c6.2-0.7,12.3-3.1,19.3-5c-2.3,2.6-3.9,4.4-5.6,6.2 c0.3,0.5,0.6,1,0.8,1.4c4.6-0.7,8.6-0.5,9.7,5c-2.1,2.7-6.6,0.3-8.2,3.8c-0.3,0.6,0,1.5,0.1,2.8c-0.8,0.1-2.1,0.3-3.8,0.5 c0,0.6,0,1.6,0,1.9c-2.4,1.1-4.4,1.9-7.1,3.1c0.2-1,0.4-2.4,0.6-4c-3.1,0.7-9-4.2-9.4,5.5c-1.6-2.3-2.4-3.5-2.5-3.5 c-3.1,0.5-5.4,0.9-7.7,1.2c-0.8,0.1-1.9-0.4-2.4,0c-3.5,2.5-6.2,1.6-10-0.2C670.1,331.4,665.3,332.3,659.9,332.1z"></path> <path class="st0" d="M496.6,389.5c-1-4.8,3-7.4,5.1-11.4c-0.4-0.7-1-2-2.2-4.5c1.8,1.2,2.4,1.6,2.9,1.9c2.6-3.8,4.6-8.3,7.9-11.2 c2.2-1.9,6.3-2,9.6-2.1c0.9,0,1.9,2.8,3.2,4.8c4.6,1.1,10.3,2.6,16.5,4.1c-1.9,2-3.3,3.4-4.7,4.9c0.1,0.3,0.3,0.7,0.4,1 c2.2-0.5,4.4-0.9,7.7-1.6c-1.7,1.9-2.6,2.9-4.1,4.6c3.5-0.5,6.2-0.8,9.4-1.2c-0.6,2.8-1,4.8-1.5,7.2c-2-0.8-3.8-1.5-5.5-2.4 c-3-1.4-5.8-3.4-9.1-0.6c-0.7,0.6-2.6,0-3.8-0.4c-6.7-2.3-12.6-1.6-17.6,4c-2.1,2.4-7.2,1.5-7.4,6.2c-1-0.3-2-0.5-2.9-1 c-1.4-0.7-2.7-1.6-4.1-2.5L496.6,389.5z"></path> <path class="st0" d="M556.2,387.8c1.2-1.1,2.3-2.1,3.5-3.2c0.3,0.3,0.6,0.6,1,0.9c-0.5,0.9-1,1.9-1.6,2.7c-0.8,1-1.7,1.8-2.5,2.8 c-1.2-1.1-3.2-2.1-3.3-3.3c-0.3-2.6,0.3-5.3,0.5-8.8c1.4,1.7,2.5,2.8,3.3,3.8c-0.7,1.7-1.3,3.2-1.9,4.7 C555.5,387.6,555.8,387.7,556.2,387.8z"></path> <path class="st0" d="M575.4,290.6c0.2-0.8,0.5-1.7,0.9-3.2c2.3,4.7,5.3,3.2,8.1,1.5c1.1,2.3,2.1,4.5,3.6,7.7 C583.6,294.6,579.8,292.7,575.4,290.6z"></path> <path class="st0" d="M503.5,402.5c6.3,0.5,12.6,1.1,18.9,1.6c-6.4,2.7-12.6-0.6-18.9-0.4C503.5,403.3,503.5,402.9,503.5,402.5z"></path> <path class="st0" d="M728,277.7c-1.5,6.7-7.4,5.4-10.6,8.2c-0.2-0.4-0.5-0.7-0.7-1.1C720.1,282.6,723.6,280.4,728,277.7z"></path> <path class="st0" d="M496.5,389.4c0.6,1.5,1.3,3,1.7,3.9c-1.8,2.5-3.3,4.5-4.8,6.6c-0.6-0.4-1.1-0.8-1.7-1.2c1.7-3.1,3.3-6.1,5-9.2 C496.6,389.5,496.5,389.4,496.5,389.4z"></path> <path class="st0" d="M490.5,393.4c-1.3-3-2.6-6-3.9-9c0.6-0.3,1.1-0.6,1.7-0.8c1.6,2.9,3.2,5.8,4.8,8.7 C492.2,392.7,491.4,393.1,490.5,393.4z"></path> <path class="st0" d="M712.4,383.3c1.3-2.5,2.4-4.7,3.5-6.9c0.7,0.6,1.4,1.3,2.1,1.9c-0.5,0.8-0.9,1.6-1.6,2.8 c1.8-0.1,3.3-0.3,4.9-0.4c0.1,0.3,0.1,0.6,0.2,0.9C718.4,382.2,715.4,382.8,712.4,383.3z"></path> <path class="st0" d="M642.8,245.7c0.7,0,1.4,0,2.1-0.1c0,0.4-0.1,0.8-0.1,1.2c0,0,0.1-0.2,0.1-0.2c-0.3,0.5-0.6,0.9-0.8,1.4 C643.7,247.3,643.3,246.5,642.8,245.7z"></path> <path class="st0" d="M646,246.2c-0.7,0.6-1.3,1.2-2,1.8c0.3-0.5,0.6-0.9,1-1.4c0,0-0.1,0.2-0.1,0.2 C645.2,246.6,645.6,246.4,646,246.2z"></path> <path class="st0" d="M645.9,246.3c-0.4-0.2-0.8-0.4-1.1-0.5c0.4-0.4,0.8-0.7,1.1-1.1C645.9,245.2,645.9,245.8,645.9,246.3z"></path> <path class="st0" d="M289.2,402.8c0.4-0.2,1.2-0.7,2-1.3c-0.4-0.4-0.6-0.7-0.9-0.7c-3.9-0.2-7.3-0.5-8.6-5.4 c-0.4-1.6-3.5-2.5-5.2-3.6c3.5-3.1,3.7-6.6,2.3-6.9c-1.4,0.8-2.8,1.6-4.6,2.6c-3.9-5.7-2.7-9.3,2.4-11.7c-0.4-0.9-0.9-1.7-1.5-2.8 c2.4-0.7,4.6-1.8,6.9-1.8c2.4,0,4.8,1,7.1,1.8c1.5,0.5,3,1.3,4.1,2.4c2.5,2.4,4.4,2.7,8,0.4c3.4,6.1,11.2,6.2,15.2,12.8 c-0.6,0.3-2.4,1-4.2,1.8c0.4,0.5,0.8,1.1,1.3,1.6c1.3-0.4,2.5-0.8,3.6-1.2c0.5,1,0.8,2.1,1.5,2.7c0.7,0.6,1.8,0.7,3.1,1.2 c0.2-0.3,0.9-1.3,1.4-2.1c2.4,1.2,4.6,2.3,7.1,3.6c-1.4,1-2.4,1.7-4,2.9c1.4,0,2.2,0,3.3,0c-0.7,0.9-1.3,1.6-2,2.4 c2.7,0.3,5.2,0.7,8.3,1.1c-2.5,1.6-4.6,2.9-6.7,4.2c0.1,0.2,0.2,0.5,0.2,0.7c2.7-1.1,5.3-2.2,8.8-3.7c-0.9,1.4-1.2,2.3-1.8,2.8 c-2,1.9-1.9,3.3,0.7,4.5c2.9,1.3,2.8,3,1,5.3c-1.7,2.3-3.1,4.8-4.6,7.1c-0.3-0.3-0.8-1.1-1.3-1.8c-1.3,1.5-2.6,2.9-3.7,4.2 c-3.8-3-11.4-0.1-12.3-7.8c-1.9,0.5-4,1-6,1.5c0.2-0.4,0.5-0.8,0.7-1.2C303.8,413.1,296.4,407.9,289.2,402.8z"></path> <path class="st0" d="M330.7,328.5c-0.4-1.2-0.9-2.4-1.4-4c3.7,2.8,7,5.3,10.5,7.9c-0.1,0.1-0.5,0.8-1.2,1.9c2.4,0,4.3,0,6.3,0 c-0.5,2.2-1,4.7-1.7,7.8c1.9-1.1,3.2-1.9,4.4-2.6c1.7,0.8-1,7.6,4.4,3.1c0.1-0.1,1.6,1.5,2.5,2.3c-2.1,0.7-4.2,1.4-6.3,2 c0.1,0.4,0.2,0.8,0.3,1.2c1.4,0.1,2.8,0.2,4.4,0.3c-0.9,1.3-1.5,2.3-2.2,3.3c0.2,0.2,0.3,0.4,0.5,0.6c1.7-0.9,3.5-1.9,5.3-2.9 c-0.8-1.6-1.6-3-2.4-4.5c1.6,1.4,3.3,2.7,4.7,3.9c0.9-2.1,1.9-4.4,2.9-6.7c0.5,0.2,1,0.5,1.6,0.7c-0.7,1.5-1.5,3.1-2.7,5.6 c4.2-2.4,10.2,0.3,10.6-8.2c0.4,2.6,0.5,3.8,0.7,5c2-0.4,3.9-0.7,5.7-1c-2.8,2.1-5.5,4.1-7.9,6.4c-0.2,0.2,1.4,2.3,2.4,3.8 c-2.5,0.6-6,2.6-8.1,1.7c-3.7-1.7-5.8,1.1-9,1.3c0.6-0.8,1.1-1.4,1.7-2.1c-2.9,0-5.7,0-8.5,0c0.3-3.8,0.1-6.5-4.8-5.7 c-7.7,1.1-12.7-5.3-10.6-13.4c-1.5,0.7-2.8,1.2-3.9,1.7c0.7,1.6,1.3,3.2,2,4.7c-0.4,0.2-0.8,0.4-1.2,0.6c-1-2.4-2.5-4.7-2.8-7.2 c-0.1-0.7,3.3-1.8,5.9-3c-0.6-1.2-1.5-2.8-2.3-4.4C330.5,328.5,330.7,328.5,330.7,328.5z"></path> <path class="st0" d="M330.7,328.5c0,0-0.2,0-0.2,0c-4,1.6-8.1,3.1-13,5c0.7-4.9-0.1-7.6-4.5-8.1c-0.9-0.1-1.7-2.3-2.3-3.6 c-0.9-2-1.6-4.1-2.3-5.9c-1.9,1.2-3.3,2.1-5,3.2c-0.7-0.9-1.7-2.1-2.9-3.6c-0.1,1-0.3,1.7-0.3,2.1c-2.4-0.1-4.7-0.2-8-0.4 c0-1.5-0.9-4.6,0.2-6.8c1.9-4.1,7.2-4.4,10-3c3.7,1.8,5.7-0.6,7.3-0.7c5.1,4,9.5,7.4,14.3,11.1c-0.4,0.5-1,1.4-1.8,2.4 c2.6,0.7,6.9,0,3.2,4.7c-0.1,0.2,1.6,2,2.6,2.8C328.7,328.2,329.8,328.2,330.7,328.5z M318.9,318.4c-4.1-6.9-4.1-6.9-8.9-2.4 C313,316.8,315.8,317.5,318.9,318.4z"></path> <path class="st0" d="M253.4,366.5c-5,1.7-5,1.7-7.6-1.8c1.2-0.6,3.3-1,3.4-1.7c0.4-4.4,3.8-3.6,6.5-4.3c0.9,3,1.6,5.9-2,7.7 C253.6,366.4,253.5,366.5,253.4,366.5z"></path> <path class="st0" d="M384,476.9c-0.2,0.9-0.4,1.8-0.6,2.8c0.3-0.4,0.6-0.8,0.9-1.2c-1.7-1.4-3.4-2.8-6.1-5c-0.5,3.2-0.7,4.7-1,6.6 c-1.9-3-3.9-6-6.4-0.8c-0.1-1.3-0.8-3.2-0.2-3.9c3.3-3.4,4-3.4,10.2-1.4c0.3-1.2,0.7-2.5,1.4-5.1c0.8,3.4,1.3,5.6,1.8,7.7 C384,476.8,384,476.9,384,476.9z"></path> <path class="st0" d="M384,476.9c0-0.1,0-0.1,0-0.2c0.3-0.6,0.6-1.1,0.9-1.7c0.7-1.7,1.3-3.5,1.9-5.2c1.4,1.7,2.8,3.4,4.1,5 c0,0,0-0.3,0-0.3c-0.5,2.2-1,4.5-1.6,6.7c-0.1,0.1-0.1,0.2-0.2,0.3C387.4,480,385.7,478.5,384,476.9z"></path> <path class="st0" d="M390.8,474.6c0,0,0,0.3,0,0.3c4.7-1.3,9.5-2.6,14.2-3.9c0.3,0.6,0.5,1.3,0.8,1.9c-1.9,1.2-3.8,2.5-5.6,3.7 c-0.2-0.3-0.4-0.5-0.6-0.8c0.3-0.6,0.5-1.2,0.4-0.8C397.1,474.8,394,474.7,390.8,474.6z"></path> <path class="st0" d="M253.4,366.5c0.1-0.1,0.2-0.1,0.3-0.2c1.7,1.2,3.3,2.3,5,3.5c0,0,0-0.3,0-0.3c-0.9,1.6-1.7,3.2-2.9,5.6 C253.5,371.7,250.5,369.8,253.4,366.5z"></path> <path class="st0" d="M348.3,382c3.6-0.5,7.1-1.1,11.3-1.7c-3.1,4.7-3.9,4.9-8.7,2.9c-0.9-0.4-1.8-0.6-2.8-0.9 C348.1,382.2,348.2,382.1,348.3,382z"></path> <path class="st0" d="M348.3,382c-0.1,0.1-0.1,0.2-0.2,0.3c-2.1,1.9-4.2,2.7-6.2-0.7c1.1-1.4,2.3-2.9,4.4-5.5 c-0.4,2.4-0.6,3.4-0.8,4.8c2.4-1.5,4.4-2.8,6.3-4.2c0.2,0.2,0.4,0.4,0.6,0.6C351,378.9,349.6,380.5,348.3,382z"></path> <path class="st0" d="M441.4,452.6c0.2,1.9,0.4,3.8,0.6,6c-3.1-3.6-2.8-5,0.9-9.2c1,2.1,2.1,4.3,3.3,7 C443.2,458.8,443.4,454.3,441.4,452.6z"></path> <path class="st0" d="M498.5,454.1c3.2,1.9,5.7,3.4,8.2,4.8c-0.2,0.4-0.4,0.8-0.6,1.1c-2.9-1.5-5.7-3-8.6-4.5 C498.1,454.8,498.6,453.9,498.5,454.1z"></path> <path class="st0" d="M258.8,369.5c0,0,0,0.3,0,0.3c0.3-0.3,0.7-0.6,1-1c0.2,0.2,0.4,0.4,0.6,0.5c0-0.2,0.1-0.3,0.1-0.5 c-0.3,0-0.5,0.1-0.8,0.1c5-1.2,6,2.1,6.6,5.9c0-0.3-0.1-0.6-0.1-0.9c-0.2,0.1-0.4,0.2-0.6,0.4c0.3,0.1,0.6,0.2,0.9,0.3 c-1.5-0.6-3-1.3-4.6-1.9c0.5-0.3,0.9-0.7,0.3-0.2c0.3-0.7,0.1-0.2-0.1,0.3C260.9,371.8,259.8,370.6,258.8,369.5z"></path> <path class="st0" d="M417,471.8c-1,0.5-2.1,1-3.1,1.5c-0.1-0.5-0.2-1-0.2-1.5l0.2,0.1c0.3-0.5,0.5-0.9,0.8-1.4 C415.4,470.9,416.2,471.4,417,471.8z"></path> <path class="st0" d="M413.6,471.8c0.4-0.4,0.7-0.9,1.1-1.3c-0.3,0.5-0.6,0.9-0.9,1.4L413.6,471.8z"></path> <path class="st0" d="M827.3,563.1c5.8,0.6,10.8,1.1,16.2,1.7c-6.5,6.6-6.5,6.6-7.5,3.2c-3.3-0.3-6.1-0.5-8.9-1.1 C826.9,566.8,827.3,564,827.3,563.1z"></path> <path class="st0" d="M827.1,599.9c3.4-0.2,6.7-0.5,10.5-0.8c0.3,0.4,1.2,1.9,2.4,3.8c0,1.1,0,3.1,0,5.9c-3.2-2-6.6-4.1-10-6.2 c0,0,0.1,0.1,0.1,0.1c-0.4-0.4-0.8-0.8-1.2-1.2l0.2,0.2C828.4,601.2,827.7,600.6,827.1,599.9z"></path> <path class="st0" d="M813.4,564.2c2.1-0.1,4.2-0.3,6.6-0.4c-0.1-2.3-0.2-4.5-0.4-8c0.9,1.7,1.2,2.4,1.9,3.7 c0.3-1.3,0.4-2.1,0.7-3.2c0.7,0.3,1.8,0.4,2,0.9c2.3,4.7-2,6.8-3.7,9.9c-2.5-1.1-4.8-2.1-7-3L813.4,564.2z"></path> <path class="st0" d="M817.8,601.6c1.2-0.1,2.5-0.1,3.7-0.2c-0.4,1.1-0.7,2.2-1.1,3.4c0.5,1.1,0.9,2.1,1.4,3.2 c-2.1,0.6-4.3,1.2-6.7,1.9c-3.1-2.1-2.9-4.4,0.4-6.8c0,0,0,0,0,0C816.3,602.7,817,602.2,817.8,601.6z"></path> <path class="st0" d="M813.5,564.1c-4.5-0.8-8.8-2.1-11-6.8c4.5-1.2,5.7-0.4,5,3.2c1.4,2.1,6.5-1.6,5.9,3.7 C813.4,564.2,813.5,564.1,813.5,564.1z"></path> <path class="st0" d="M740.9,636.3c-1.9-1.2-3.7-2.4-5.6-3.6c1.8-1.3,3.6-2.5,5.8-4c1,2.4,1.8,4.3,2.6,6.2 C742.6,635.5,741.8,635.9,740.9,636.3z"></path> <path class="st0" d="M844,570.4c0.7-7.4,6.1-4.7,9.9-5.4C850.7,566.8,847.4,568.6,844,570.4z"></path> <path class="st0" d="M730.9,635.3c-1.8,1-3.7,2-5.5,3c-0.6-1.3-1.6-3.3-3.2-6.7c2.3,1.5,3.5,2.3,5.1,3.4c-0.2-1.8-0.4-3.4-0.7-5.9 c2,2.4,3.4,4,4.8,5.6C731.3,634.9,731.1,635.1,730.9,635.3z"></path> <path class="st0" d="M754.9,633.7c-0.9-0.6-1.8-1.3-2.6-1.9c1.5-0.1,2.9-0.2,4.4-0.2c0.1-1.3,0.3-2.5,0.5-4.1 c1.4,0.5,2.5,1,3.6,1.4c0,0,0.1-0.1,0.1-0.1c-0.3,0.4-0.7,0.8-1,1.2c-0.3,1.3-0.6,2.6-0.9,3.9c0.3,0.7,0.7,1.4,1,2.1 c-1.4-0.7-2.7-1.5-4.1-2.2c0,0,0.1,0.2,0.1,0.2c-0.4,0-0.8,0-1.2,0L754.9,633.7z"></path> <path class="st0" d="M612.9,571.9c-1.9-2.2-3.9-3.9-7.1-3c-0.1-3.7,2.7-1.7,4.2-2.3c0,0.2-0.1,0.5-0.1,0.7c0.3-0.2,0.5-0.4,0.8-0.6 c0.7-0.2,1.5-0.3,2.2-0.5C612.9,568.1,612.9,570,612.9,571.9z"></path> <path class="st0" d="M829.9,602.7c-0.3,6-3.4,1.2-5.2,1.3c0.2-1.1,0.5-2.3,0.7-3.4c0.5-0.3,1-0.5,1.5-0.8c0.7,0.7,1.4,1.4,2.2,2.1 c0,0-0.2-0.2-0.2-0.2c0.1,0.4,0.1,0.8,0.2,1.1c-0.3,0.2-0.7,0.4-0.3,0.2c-0.2,0.3,0,0,0.2-0.3c0.4,0.1,0.7,0.1,1.1,0.2L829.9,602.7 z"></path> <path class="st0" d="M787.8,624.1c-0.3,0-0.6,0-0.8-0.1c-0.1-0.1,0-0.5,0-0.7c0.2,0,0.4,0,0.5,0.1 C787.6,623.6,787.7,623.9,787.8,624.1z"></path> <path class="st0" d="M820.3,604.8c0.9-0.4,1.8-0.7,2.7-1.1C822.1,604.1,821.2,604.4,820.3,604.8z"></path> <path class="st0" d="M825.5,600.7c-0.5,0.7-1.1,1.4-1.6,2.1c-0.2-0.7-0.4-1.4-0.5-2.2C824,600.7,824.8,600.7,825.5,600.7z"></path> <path class="st0" d="M760.8,628.8c0.4,0,0.8,0,1.1,0c0,0-0.1-0.1-0.1-0.1c0,0.4,0.1,0.7,0.1,1.1c-0.4,0-0.7,0-1.1,0 c0-0.4,0.1-0.8,0.1-1.2L760.8,628.8z"></path> <path class="st0" d="M817.5,601.7c-0.7,0.5-1.3,1-2,1.5c0,0,0,0,0,0C816.2,602.7,816.8,602.2,817.5,601.7z"></path> <path class="st0" d="M823.9,602.7c0.2,0.4,0.4,0.8,0.6,1.1c-0.6,0-1.1,0-1.7,0C823.2,603.4,823.5,603,823.9,602.7z"></path> <path class="st0" d="M751.9,633.2c0,0.6,0,1.1,0,1.7C751.9,634.3,751.9,633.7,751.9,633.2z"></path> <path class="st0" d="M800.5,625.7c-0.7,0-1.5,0-2.2,0C799,625.7,799.8,625.7,800.5,625.7z"></path> <path class="st0" d="M998.6,560.4c-0.2,0.2-0.4,0.4-0.6,0.5c-0.1,0-0.4-0.2-0.3-0.2c0.1-0.2,0.2-0.5,0.3-0.7 C998.2,560.1,998.4,560.2,998.6,560.4z"></path> <path class="st0" d="M800.9,628.8c0.4,0.2,0.8,0.4,1.2,0.6c-0.4,0.4-0.9,0.9-1.3,1.3c0,0,0.2,0.1,0.2,0.1c0-0.7,0-1.4,0-2.1 L800.9,628.8z"></path> <path class="st0" d="M798.9,629.9c0.3-0.4,0.7-0.7,1-1.1c0,0,0-0.1,0-0.1c-0.4,0.4-0.7,0.7-1.1,1.1 C798.8,629.7,798.9,629.9,798.9,629.9z"></path> <path class="st0" d="M799.9,628.8c0.3,0,0.7,0,1,0c0,0,0-0.1,0-0.1c-0.4,0-0.7,0-1.1,0L799.9,628.8z"></path> <path class="st0" d="M108.9,303.7c-0.2,0.3-0.4,0.6-0.2,0.2c-0.4,0.1,0,0,0.3-0.1C109.1,303.9,108.9,303.7,108.9,303.7z"></path> <path class="st0" d="M312.9,447.2c0.3,0.7,0.7,1.4,1,2.1c-0.4,0.1-0.9,0.2-1.3,0.3c-0.1-0.6-0.2-1.2-0.3-1.8 C312.6,447.6,312.8,447.4,312.9,447.2z"></path> <path class="st0" d="M754.9,636.8c-0.4,0-0.7,0-1.1,0c0.4-1.1,0.7-2.1,1.1-3.2c0,0-0.2,0.1-0.2,0.1c0.4,0,0.8,0,1.2,0 c0,0-0.1-0.2-0.1-0.2C755.6,634.7,755.3,635.8,754.9,636.8z"></path> <path class="st0" d="M759.8,635.7c0.4,0,0.8,0,1.2,0c0,0.4,0,0.8,0,1.2C760.6,636.5,760.2,636.1,759.8,635.7z"></path> <path class="st0" d="M763,630.9c-0.4-0.4-0.8-0.8-1.2-1.2C762.2,630.1,762.6,630.5,763,630.9z"></path> <path class="st0" d="M759.8,629.7c0.4,0,0.8,0,1.1,0c0,1.4,0,2.8,0,4.1c-0.7,0-1.4,0-2.1,0C759.1,632.4,759.5,631.1,759.8,629.7z"></path> </g> </svg>