<svg xmlns="http://www.w3.org/2000/svg" xmlns:xlink="http://www.w3.org/1999/xlink" id="Layer_2" x="0px" y="0px" viewBox="0 0 318.3 636.4" style="enable-background:new 0 0 318.3 636.4;" xml:space="preserve"> <style type="text/css"> .st0{fill:#FFFFFF;} .st1{fill:#331C14;} </style> <g> <g> <path class="st0" d="M205.4,36.6l-1.4,0.2c-0.8,0.1-2.1,0.2-3,0.2c-0.9,0-9.3-0.3-9.3-0.3l-1.5,154.3h15.2V36.6z M118.9,35.2 l-2.3-0.2c-1.3-0.1-2.9-0.2-3.6-0.2c-0.7,0-2.4-0.1-3.8-0.3c-1.3-0.2-2.5-0.3-2.6-0.3c-0.2,0-0.4,4.8-0.5,16.1 c-0.3,26.8-2.8,140.7-2.8,140.7h15.5V35.2z M309.9,518.3c-1.2-19.9-0.4-21.5-1.9-38.2c-1.1-11.5-0.8-51.1-0.5-54.8 c2-27.6,0.2-74.3,1.4-91.1c1.2-14.9,0.9-40,0.7-45.4l-0.1-1.4c-1.9-37.7,4.9-50.6-8.8-74.3c0.2-0.1,0.4-0.3,0.6-0.4 c-2.6-4.4-2.4-6.8-8-11c-0.2,0.1-0.3,0.2-0.5,0.4c-0.1-0.2-0.3-0.3-0.4-0.4c-0.1-0.1-0.2-0.2-0.4-0.4c-0.5-0.5-1-1-1.6-1.4 c-0.2-0.2-0.4-0.3-0.6-0.5c-0.8-0.7-1.7-1.3-2.6-1.9c-0.2-0.1-0.4-0.3-0.7-0.4c-0.2-0.1-0.4-0.2-0.6-0.4c-0.1,0-0.2-0.1-0.2-0.1 c-0.1-0.1-0.3-0.1-0.4-0.2c-0.4-0.2-0.9-0.4-1.4-0.6c-0.1-0.1-0.2-0.1-0.3-0.1c-0.2-0.1-0.5-0.2-0.7-0.3c-0.2-0.1-0.5-0.2-0.7-0.3 c-0.3-0.1-0.6-0.2-0.9-0.3c-0.2-0.1-0.5-0.2-0.7-0.2c-0.3-0.1-0.6-0.2-0.9-0.2c-0.3-0.1-0.6-0.1-0.9-0.2c0,0,0,0,0,0 c-0.2,0-0.4-0.1-0.6-0.1c0,0,0,0,0,0c-5.7-1.2-14.6-1.3-43.8-1.2c-0.1,0-90.3-0.2-141.6-0.4v0h-8.8v0 c-29.5-0.1-39.9-2.2-55.7,11.9c-0.9-0.8-0.8-0.7-0.8-0.7c-5.5,4.2-6.4,6.7-9,11c0.1,0.1,0.2,0.1,0.3,0.2 c-12.4,17.8-4.6,36.3-7.1,87.8c0,0.5-0.6,9.8-0.6,10.3c0,0.1-1.4,50.9-1.5,94C9.1,516.1,2.3,537.8,4.4,560.1 c1.6,17-0.1,18.4,7.3,25.3c1.1,1,3,2.3,3.4,2.3c0,0-0.4-1-1-2.2c-3.3-6.7-0.8-9.2-0.2-8.2c0.8,1.4,9.9,4.4,20.3,5.4 c0.2,0,1,0.1,1.2,0.1c0.3,0,2.3,0.1,2.5,0.1c0.2,0,1.5,0,1.6,0c0.2,0,0.5,0,0.7,0c0.5,0,0.9,0,1.3,0c0.3,0,2.3-0.1,2.5-0.1 c0.5,0,1,0,1.4-0.1v0c2.4-0.2,7.8-0.5,8-0.5c1,0,1.9,0,2.8,0.1c0.2,0,0.5,0.1,0.7,0.1c0.2,0,0.5,0.1,0.7,0.1 c0.2,0.1,0.4,0.1,0.6,0.2c0.1,0,0.2,0.1,0.3,0.1c0.2,0.1,0.4,0.1,0.6,0.2c0.6,0.3,1.1,0.6,1.7,1c0.2,0.1,0.3,0.3,0.5,0.4 c0.1,0.1,0.2,0.2,0.2,0.2c0.6,0.7,1.2,1.5,1.7,2.5c1,2.1,1.1,3.1,0.6,5.6c-0.4,1.9-0.2,2.2-1.4,3.1l0.1,1c0.3,0,0.5,0,0.9,0.1 c3.1,0.2,9.1,0.8,12.2,0.3c4-0.6,6.4-1.9,7.3-2.3c11.7,0,11.5-0.1,12.7,0.5c2.7,1.3-0.7,1.2,14.7,1.3c23.8,0.2,12.2-1.4,28-1.7 c2.8,0,4.1,0.5,4.8,1c0.8,0.6,1.7,0.8,2.7,0.8c24.1-0.4,30.9,0.2,32.4-2.6c0.4-0.7,0.3-0.5,6.2-0.8l4.1-0.2 c2.5,3.7,7.1,2.7,25.2,2.5c11.3-0.1,10.4-1,11.5-3.9c0.4-1.2,9-0.7,10.5,0.8c1.8,1.8,9.1,2.3,19.4,2.4c0.1,0,0.3,0,0.4,0l-0.1-1.4 l1.1,0.1l-0.9-0.7c-3.5-2.7-2.4-7.2,0.6-10c0.2-0.2,0.5-0.4,0.7-0.6c1.5-1.2,3.4-2.1,5.6-2.6c0.1,0,0.3-0.1,0.4-0.1 c1.2-0.3,2.5-0.5,3.8-0.6c0.5,0,1-0.1,1.4-0.1c0.1,0,1.6-0.1,1.7-0.1c1,0,2,0,3.1,0c1.7,0,15.3,0.6,15.7,0.7 c14.1,0.5,14.8-5.6,16.2-5c0.6,0.2,2.1,4.3-1.4,9.7c-0.6,0.9-1,1.7-1,1.7c0.3,0,2.6-1.5,3.1-2c5.1-4.7,4.7-10.3,5.6-16.6 C313.2,555.6,311.8,550.6,309.9,518.3z"></path> <g> <path class="st1" d="M131.1,211.1c-0.2,0-0.5,0-0.5,6c-0.1,15.8-0.7,318.9-0.2,341.1c0.1,5.2,0.4,7.8,0.8,7.8 c0.2,0,0.6,0,0.8-7.8c0.3-15.2,0.1-318-0.2-341.1C131.5,211.1,131.2,211.1,131.1,211.1z"></path> <path class="st1" d="M179,231c-0.3-18.9-0.5-18.9-0.7-18.9c0,0-0.1,0-0.1,0.1c-0.9,0.9-0.8,42.6-0.7,116.2 c0.1,22.4,0.1,119.2,0,141.4c-0.1,60.5-0.1,92.1,0.6,92.9c0,0,0.1,0.1,0.1,0.1c0.3,0,0.8,0,1.2-43.2 C179.7,494.9,179.1,242.5,179,231z"></path> <path class="st1" d="M140.7,328.4c0.2-73.6,0.2-115.3-0.7-116.2c0,0-0.1-0.1-0.1-0.1c-0.2,0-0.4,0-0.7,18.9 c-0.2,11.5-0.7,263.9-0.5,288.5c0.4,43.2,0.9,43.2,1.2,43.2c0,0,0.1,0,0.1-0.1c0.8-0.8,0.7-32.4,0.6-92.9 C140.6,447.6,140.6,350.8,140.7,328.4z"></path> <path class="st1" d="M34,227.8c-0.3-0.4-0.6-0.9-0.9-1.4c-0.9-1.6-5.2-6.8-6.9-7c-0.2,0-0.4,0-0.5,0.2c-0.3,0.3,0.2,0.9,1.4,2.1 c1.2,1.3,3.1,3.3,4.7,6c1.8,2.8,3.2,6.9,4,11.4c0.8,4.6,0.5,76.4,0.2,152.5c-0.2,57.5-0.2,152.7-0.2,152.7 c0.1,16.7,0.2,22.5,0.7,22.7c0,0,0,0,0.1,0c0,0,0.1,0,0.1-0.1c0.3-0.3,0.6-8.5,0.7-25.8c0.1-7.6,0.2-194.7,0.5-222.2 c0.4-49.9,0.6-70.5-0.5-80C36.7,232.1,35.8,230.8,34,227.8z"></path> <path class="st1" d="M44.6,223.6c-0.1-0.2-0.1-0.4-0.2-0.6c-3.2-10-8-12.5-9-12.3c-0.2,0-0.3,0.2-0.3,0.3c0,0.3,0.3,0.7,1,1.4 c1.5,1.6,4.2,4.7,6.3,11c1.6,5,2.4,11,2.3,18c0,0.5-0.1,311,0,322.2c0,1.5,0.2,3.9,0.8,3.9h0c0.2,0,0.6-0.1,0.7-3.5 c0.7-26.2,1.5-313,0.8-323C46.2,228.5,45.4,225.9,44.6,223.6z"></path> <path class="st1" d="M84.6,415.1c-0.7-95.7-0.3-144-0.1-167.3c0.1-12.9,0.2-18.8-0.1-21.1c-0.1-1-0.3-1.4-0.6-1.4h0 c-0.4,0-0.5,0.8-0.5,1.4c-0.1,4.3-1.6,191.4-0.1,290c0.3,19.6,0.4,35.3,0.4,45.7c0,7.5,0.1,11.6,0.1,12.1c0,0.1,0.1,0.2,0.1,0.2 l0,0c0.1,0,0.2,0,0.3-3.4C84.3,569.6,84.8,438.8,84.6,415.1z"></path> <path class="st1" d="M92.7,222.8c-0.3,0-0.5,0.5-0.5,1.4c0,1.7-0.3,344.3-0.3,344.7c0,3.7,0.1,5.6,0.8,5.6c0,0,0,0,0,0 c0.1,0,0.1,0,0.2-0.1c0.3-0.3,0.6-1.3,0.7-6.7c0.6-67.6-0.1-337.4-0.3-343.3C93.2,223.3,93,222.8,92.7,222.8z"></path> <path class="st1" d="M272.5,567.5L272.5,567.5c0.6,0,0.8-2.4,0.9-3.9c0-11.2,0-321.6,0-322.2c-0.1-7,0.6-13,2.3-18 c2.1-6.4,4.8-9.4,6.3-11c0.6-0.7,1-1.1,1-1.4c0-0.1,0-0.2-0.3-0.3c-1.1-0.2-5.8,2.4-9,12.3c-0.1,0.2-0.1,0.4-0.2,0.6 c-0.8,2.3-1.6,4.9-2.4,17.4c-0.6,10,0.1,296.8,0.8,323C271.9,567.4,272.3,567.5,272.5,567.5z"></path> <path class="st1" d="M280,318.9c0.2,27.5,0.4,214.6,0.5,222.2c0.1,16.1,0.6,22.3,1,22.7c0,0,0.1,0,0.1,0s0.1,0,0.1,0 c0.4-0.5,0.5-3.5,0.5-11.8c0-3,0-103-0.2-160.5c-0.3-76.1-0.6-147.9,0.2-152.5c0.8-4.6,2.3-8.6,4-11.4c1.6-2.6,3.5-4.6,4.7-6 c1.2-1.3,1.7-1.8,1.4-2.1c-0.1-0.1-0.3-0.2-0.5-0.2c-1.6,0.2-5.9,5.4-6.9,7c-0.3,0.5-0.6,1-0.9,1.4c-1.9,3-2.7,4.4-3.5,11.2 C279.4,248.4,279.6,269.1,280,318.9z"></path> <path class="st1" d="M318.3,618.6c0-1.9-0.2-3.8-0.9-5.6c-1-2.8-2.6-5.4-4.8-7.3c-0.7-0.8-3.4-3.6-6.6-4.6 c-1.7-0.6-2.3-0.6-4.8-0.6c-0.7,0-1.6,0-2.6,0c0-0.2-0.1-0.4-0.2-0.7c-0.5-1.8-1.5-6.1,1.5-10.4c0.6-0.9,1.7-1.4,3-2 c3.3-1.5,7.8-3.6,9.1-13.7c0.2-1.3,0.4-2.6,0.6-4.1c0.8-5.3,1.8-11.3,1.1-20.2c-2-24.6-2.6-38.3-3-49.3 c-0.3-8.1-0.6-14.6-1.4-22.3c-1.3-12.7-0.1-60.2,0.1-65.6l0-0.2c0.2-7.8,0.3-10.8,0.4-13c0.2-3.2,0.2-4.9,0.2-16.8v-2.4 c-0.1-14.2-0.2-37.9,0.4-46.3c1.1-14.1,0.9-23.2,0.5-43.2c-0.2-11.2-0.5-26.5-0.7-48.1c-0.1-6.6-1-10.3-1.5-12.2l-0.1-0.2 c-0.7-2.7-2.2-7-4.6-13c-8.9-22.6-24.1-24.6-29.1-25.2c-0.8-0.1-1.4-0.2-1.5-0.3c-0.2-0.1-8.8-0.3-57.1-0.5H207 c0-5.4-0.2-160.3-0.3-162.1c-0.1-2.7-0.6-6.2-1.3-10.5c-1.1-6.3-2.2-9.1-4.5-11c-1.6-1.4-2.3-1.8-4.3-2.6 c-2.5-1.1-10.4-3.1-14.3-3.7C176.5,0,161.5-0.3,149,0.3c-6,0.3-8.5,0.5-13.5,1.2c-11.3,1.6-17.4,3.2-21.8,5.6 c-3.8,2-5.8,3.9-7.5,7c-1.4,2.5-1.5,3.5-1.3,13.7c0.1,4.8-2.5,157.6-2.6,163c0,0-26.2-0.1-30.4-0.1c-23-0.4-32.5-0.5-48.2,15.1 c-6.8,6.8-8.3,8.8-10.8,15.2c-2,5-3.6,12.2-4.1,18c-0.8,9.7-0.5,12.1,0.1,15.7c0.8,5.6,2,14.1,0.1,57.9 c-0.1,2.6-1.4,57.3-1.5,85.5c-0.2,67.3-2.6,102.4-4.2,125.6c-1.1,16.6-1.8,26.6-0.8,37.1c0.4,3.5,0.6,6.3,0.7,8.6 c0.6,8.8,0.8,10.9,7.2,16.9c1.5,1.4,3.1,2.4,4.7,2.9c0.8,0.2,0.9,0.4,1.9,2.1c1.8,3.1,2.4,4.6,2.4,7.3c0.1,1.9,0.4,3.1,0.9,3.4 c0,0.2-0.1,0.4-0.1,0.7c-7.4-1.1-16.4,2.6-19.5,11.7c-1.9,5.6-0.5,12,3.5,16.6c3.2,3.7,7.6,5.6,12.3,5.6c1.2,0,2.4-0.1,3.6-0.4 c4.8-1,9-4.1,11.7-8.6c2.6-4.3,3.3-9.3,1.9-13.7c0-0.1,0.1-0.2,0.6-0.4c0.9-0.3,2.7-0.9,4.5-3.2c3.6-4.5,4.4-11.3,3.4-13.6 c0,0,0,0,0,0c0.5,0,2,0.1,3.8,0.3c5.2,0.5,13.1,1.2,15.1,0.4c0,0,0.2,0,1.1,0c0,0,1.7,0.1,2.2,0.2c3.3,0.3,8.2,0.7,10.9,0.2 c3.7-0.6,6.1-1.7,7.3-2.3h3.9c7.6,0,7.6,0,8.7,0.5c0.5,0.2,0.7,0.4,1,0.6c1.1,0.7,1.1,0.7,13.1,0.8h0.6 c13.4,0.1,15.6-0.4,17.8-0.8c1.6-0.3,3.4-0.7,10.2-0.8c2.8,0,4.1,0.5,4.7,0.9c0.8,0.6,1.7,0.8,2.7,0.8c0,0,8.1-0.1,11.4-0.1 c15.2-0.1,19.8-0.2,21.1-2.6c0.2-0.5,0.2-0.5,2.9-0.6c0.8,0,7.2-0.3,7.2-0.3c2.1,3,5.7,2.9,16.3,2.7c2.6-0.1,5.5-0.1,9-0.2 c10.3-0.1,10.6-0.8,11.3-3.2c0.1-0.2,0.2-0.5,0.3-0.8c0-0.1,0.2-0.2,0.8-0.4c2.2-0.5,8.2,0,9.5,1.3c1.1,1.1,4.3,2.2,19.5,2.5 c0.1,0,16.1,0.1,20.8,0.2c0,0.6,0.1,1.2,0.1,1.9c0,3,0.1,6.7,3.9,10.8c2.3,2.4,4.5,3.4,5.4,3.8c-1.9,7.9-0.2,14.8,4.9,19.4 c4.8,4.4,11.8,5.8,17.8,3.7c5.6-2,9.4-6.6,10.4-13.1C318.3,621,318.4,619.8,318.3,618.6z M253.1,589.5c0.1,1.6,0.8,3.1,2.2,4.2 l0.5,0.4c-2.9-0.2-17.8-1.2-18.3-1.3c-2.5-1-3-3.8-3.2-4.9c-0.1-0.4-0.1-0.5-0.2-0.5c-0.1-0.1-0.2-0.1-0.2,0 c-0.3,0.2-0.3,1.6-0.2,2.5c0,0.2,0.1,0.3,0.1,0.5c0.1,0.3,0.1,0.6,0.1,0.6c0,0-0.2,0-0.4-0.1c-0.7-0.1-1.9-0.4-4.2-0.2 c-1.2,0.1-3.3,0.1-3.8,0c0.8-3.8,0.4-3.9,0.2-4c-0.1,0-0.4-0.1-1,1.3c-0.2,0.4-0.4,1.2-0.7,2c-0.2,0.7-0.4,1.4-0.5,1.6 c-0.2,0.3-0.3,0.6-0.4,0.9c-0.7,1.8-0.7,1.8-6.9,1.8c-1.2,0-7.3,0.1-8.5,0.1c-13,0.2-17.4,0.3-19.4-4.2c-1-2.3-1.2-2.4-1.4-2.4 c-0.3,0.1-0.2,0.5,0.4,3.7l0.1,0.7l-2,0c-3.2,0-4.9,0.4-5.9,0.7c-0.4,0.1-0.7,0.2-0.8,0.1c-0.1-0.1-0.1-0.4,0-1l0-0.3 c0.1-1.1-0.2-3.7-0.8-3.8c-0.2,0-0.5,0.2-0.6,2.8c-0.2,3.4-0.3,3.6-4.6,4c-5.5,0.5-28.1,1-29.4,0.6c-2.5-0.7-2.6-2.4-2.8-4.7 l0-0.1c-0.3-3.4-0.6-3.5-0.7-3.6c-0.1,0-0.2,0-0.2,0c-0.5,0.4-0.5,3.8,0.2,6.5l0.1,0.5c-4.1-0.6-7.1-0.2-8.8,0.2l-1,0.2l0.1-0.3 c1.1-2.2,1.3-5.8,0.8-6.3c-0.1-0.1-0.2-0.1-0.3-0.1c-0.1,0-0.5,0.1-1.1,3.3c-0.9,4.6-3.3,4.6-15.2,4.4c-2.1,0-8.3-0.1-8.9-0.1 c-4.3,0-10.2,0.1-12.2-2.9c-0.2-0.3-0.6-0.9-1-0.8c-0.2,0.1-0.2,0.3-0.1,0.7c0.2,0.7,0.4,1,0.6,1.3c0,0.1,0.1,0.1,0.1,0.1 c-0.3,0-1,0-1.8,0c-2,0-4.9-0.1-6.4,0.2c-0.6,0.1-1.1,0.2-1.3,0.3c0-0.1,0.1-0.3,0.2-0.6c0.2-0.5,0.6-3.1,0.1-3.3 c-0.3-0.1-0.5,0.2-1,1.2c-1.1,2.5-1.2,2.5-2.2,3.1c-2.6,1.5-7.5,1.5-13.2,1.4c-1.6,0-3.3,0-4.9,0c0.7-0.6,0.8-1,1-2 c0.1-0.3,0.1-0.6,0.2-1c0.6-2.6,0.5-3.6-0.6-5.7c-2.1-4.2-5.2-5.1-9.5-5.1c-1.6,0-3.4,0.1-5.4,0.3c-1.5,0.1-3,0.2-4.7,0.3 c-14.2,0.6-28.7-3.7-29.7-5.6c-0.2-0.3-0.5-0.4-0.7-0.2c-0.9,0.5-1.9,3.2,0.7,8.5c0.4,0.9,0.8,1.6,0.9,1.9 c-0.6-0.3-2.2-1.3-3.1-2.2c-5.9-5.5-6-7.4-6.6-16.5c-0.2-2.3-0.4-5.2-0.7-8.8c-0.9-9.2-0.2-18.3,0.9-33.4 c1.6-22.1,4-55.6,4.2-119.9c0.2-43.1,1.5-93.7,1.5-94c1.4-21.3,1.3-38.3,0.8-52c-0.7-20.6-1.2-34.2,6.9-46 c4.3-6.4,13.1-14.8,21.4-18.6c8.8-4.1,14.5-4,69.1-3.7c26.3,0.2,125.4,0.3,126.7,0.3c11.8,0,39.3-0.1,42.1,1.3c0,0,0,0,0,0 c0,0,0.5,0.1,0.6,0.1c0,0,0,0,0,0c5.3,1.2,10.2,3.9,14,8c9.3,9.8,15.1,27.5,16,39.9c0.3,4.4,0.2,8.9,0.2,14.6 c-0.1,7.6-0.3,17,0.4,30.7l0.1,1.4c0.3,5.6,0.6,30.5-0.6,45.3c-0.6,7.5-0.5,20.5-0.5,35.6c0.1,18.8,0.1,40.1-1,55.5 c-0.2,3.4-0.5,43.3,0.5,54.9c0.9,9.6,1,14.2,1.2,20.1c0.1,4.5,0.3,9.6,0.8,18.1c0.5,8.1,0.9,14.5,1.3,19.6 c1.1,15.5,1.5,20.7-0.1,30c-0.2,1.2-0.3,2.4-0.5,3.5c-0.6,4.9-1.1,9.2-5.1,13c-0.5,0.5-2.2,1.5-2.8,1.9c0.1-0.2,0.4-0.7,0.8-1.4 c2.9-4.4,2.4-8,1.7-9.4l-0.2-1.9c0-0.1,0-0.1-0.1-0.1c0,0-0.1,0-0.1,0l-2.9,3.3c-0.3,0.4-0.7,0.7-1,1c-2.8,1.6-7,2.4-12.3,2.2 c-2.3-0.1-4.6-0.2-6.8-0.3c-11-0.6-20.5-1.1-25.8,3.9C254.1,585.2,253,587.5,253.1,589.5z M197.2,40.1c-0.1,0.1-0.2,0.5-0.2,1.3 c0,0.5,0,1.1-0.1,1.9c-0.2,3.9-0.4,12.3-0.5,34.7V164c-0.1,13.9,0.1,22,0.7,22.4v4.3c-1.9,0-4.2,0-6.9,0 c0-1.6,1.5-149.9,1.5-154.1l5.4,0.2V40.1z M180.5,19.3c2.1,0.4,4.6,1.5,5.9,2.6c1.1,1,2.6,3.3,3.5,5.3c0.7,1.6,0.7,1.7,0.7,4.8 c0,2-2.2,155.8-2.2,158.8H120c0-3.6,0.4-75.7,0.4-93.1c0.1-38.2,0.2-61.8,0.3-62.8c0.1-0.2,0.2-0.5,0.1-0.7c0-0.1,0-0.4,0.1-0.5 c0.2-0.2,0.3-2,0.4-2.4c0.3-5.3,1.4-7.4,4.4-8.8c2.4-1.1,9.9-3,14-3.5c2-0.3,9.2-1.2,9.2-1.2c1.4-0.2,11.9-0.1,14,0.1 c1.3,0.1,3.5,0.3,4.9,0.4c1.3,0.1,4.3,0.3,6.8,0.4C176.9,18.9,179.6,19.2,180.5,19.3z M110.9,39.2c0,0-0.1,0.1-0.1,0.2 c0,0,0,0-0.2,57.3c-0.1,41.7-0.3,88.9-0.3,90.2c0,1,0.2,1.8,0.6,2.1v2h-7.4c0.1-4.7,2.6-123.6,2.7-140.5c0.1-7,0.2-15.1,0.4-16 c0.3,0,1.1,0.1,2.5,0.3c0.5,0.1,1.2,0.1,1.8,0.2V39.2z"></path> <path class="st1" d="M234.2,225.3L234.2,225.3c-0.3,0-0.5,0.5-0.6,1.4c-0.2,2.3-0.2,8.2-0.1,21.1c0.2,23.2-0.1,303.5,0,310.3 c0.2,10.9,0.4,10.9,0.6,10.9l0,0c0.1,0,0.1-0.1,0.2-0.2c0.1-0.5,0.1-3.8,0.1-10.4c0-8.4,0.1-22.4,0.4-41.7 c1.5-98.6,0-285.7-0.1-290C234.7,226,234.6,225.3,234.2,225.3z"></path> <path class="st1" d="M225.4,222.8c-0.3,0-0.5,0.5-0.5,1.5c-0.2,5.9-0.9,275.8-0.3,343.3c0,5.5,0.4,6.5,0.7,6.7 c0.1,0.1,0.2,0.1,0.2,0.1c0,0,0,0,0,0c0.7-0.1,0.8-2,0.8-5.6c0-0.4-0.3-343-0.3-344.7C225.9,223.3,225.7,222.8,225.4,222.8z"></path> <path class="st1" d="M187.1,211.1c-0.2,0-0.5,0-0.6,6c-0.4,23.1-0.6,325.9-0.2,341.1c0.2,7.8,0.6,7.8,0.8,7.8 c0.4,0,0.7-2.6,0.8-7.8c0.4-19.9,0-316.4-0.2-341.1C187.6,211.1,187.3,211.1,187.1,211.1z"></path> </g> <path class="st0" d="M110.9,18.6c0.3-2.8,3.1-5.8,5.7-7.5c4.3-2.9,23.1-5.9,11.5-5.7c-11.6,0.2-18.6,5.8-19.5,13.1 C108.1,23.4,110.7,21.4,110.9,18.6z M22.5,616.3c0.8,1.1,0.8,3.2,0.1,4.7c-0.6,1.2-2,2.6-3.2,3.2c-1.3,0.6-3.5,0.7-4.6,0.1 c-1.9-0.9-3.1-2.9-3-5.2c0-3.8,3.9-6.4,7.6-5.1C20.9,614.6,21.9,615.3,22.5,616.3z M307.2,615.1c-0.6-1.2-1.9-2.4-2.8-2.7 c-3-0.8-6.7,1-7.4,3.5c-0.5,1.8,0.2,3.9,1.7,5.5c1,1.1,1.9,1.4,3.3,1.2c2.1-0.3,4-1.5,5.2-3.3c0.6-0.9,0.6-1.1,0.6-2.2 C307.7,616.5,307.5,615.6,307.2,615.1z M295.9,606.8c-1.8,0.1-5.6,1.9-7.1,5.5c-0.9,2.3,0.6,1.7,1.3,0.6c0.7-1.1,2.1-2.7,4.4-4.3 C296.8,607.1,297.7,606.7,295.9,606.8z M12.8,607.5c-1.8,0.1-5.6,1.9-7.1,5.5c-0.9,2.3,0.6,1.7,1.3,0.6c0.7-1.1,2.1-2.7,4.4-4.3 C13.6,607.8,14.6,607.5,12.8,607.5z"></path> </g> <g> <g> <path class="st0" d="M228.1,357.7c-0.1,0-0.2,0-0.3-0.1c-0.4-0.2-4.5-7-6.9-11.6c-1-1.9-2.2-4.1-2.6-4.8c-1.7-3-5.1-10-5.4-11.3 c-0.2-0.5-0.5-1-0.6-1.5c-1.2,0.4-33.9,18.3-40.9,22.7c-2.7,1.7-11.4,6.7-13.6,8c-0.9,0.6-2,1.2-2.7,1.5c0.1,0.4-0.4,0.4-0.9,1 c0.1,0.1,0.2,0.2,0.3,0.3c0.1-0.2,0.3-0.1,0.7,0.8c0.2,0.2,0.3,0.4,0.4,0.6c0.1,0.1,0.1,0.2,0,0.3c1.9,3.8,3.8,5.9,7.4,13.6 c2,4.4,7,12.9,7.6,14.9c0.1,0.4,0.3,0.8,0.4,0.9c0.1,0,1.4-0.8,2.8-1.9c5.6-4.3,7.4-5.5,13.4-8.8c1.7-1,7-4.3,7.1-4.5 c0-0.1,22.9-12.9,23.8-13.4c3-1.6,7.2-5,10.1-6.5C228.3,358,228.2,357.8,228.1,357.7z"></path> <path class="st1" d="M186.1,343.1c-0.1,0-31.4,18.7-31.9,17.9c-0.2-0.3,1.8-1.4,31.5-19.6c0.5-0.3,11.6-6.7,12.1-6.9 c3.4-1.8,12.6-6.1,12.6-4.9c0,0.7-6.5,4-10.2,5.7C198.1,336.3,188.1,342,186.1,343.1z M218.2,364.6c-30.6,16.9-25,14.5-30.9,17.8 c-11.4,6.4-15.6,11-16.2,10.7c-0.1,0-0.2,0-0.2,0c0-0.3-0.4-1.7-3.9-8.2l0.7-0.4c1.8,0.6,55.4-32.2,55.4-32.4 c0.1-0.3,0.1-0.5,0-0.7l0.5-0.3c2.1,3.6,3.7,6.3,4,6.4c0.5,0.2,0.7,0,0.7-0.7c0-1-8.8-16-8.9-16.1c-4.8-7.8-6.2-11.9-6.7-11.1 c-0.3,0.4,2.9,6.7,6.3,13.2l-0.7,0.4c-0.3-0.2-1-0.1-1.9,0.5c-0.1,0-52.7,29.7-53.9,31.9l-0.4,0.2c-1.3-2.6-2.6-5.3-4.7-8.7 c-2.3-3.8-2.8-5.8-3.1-5.1c-0.5,1.4,11.5,24.8,13.2,27.8c3.9,7.4,2.2,3.6,17.8-4.9l8.9-5.1c0,0,1.6-1.1,1.7-1.1 c13.3-7.2,33.3-17.9,33.3-20.8C229.5,356.5,221.8,362.6,218.2,364.6z M195,371.9c0,0.4-0.1,0.5-0.6,0.5c-0.7,0-1.8,0.9-1.8,1.5 c0,1.4,1.7,1.5,3,1.6c1.5,0.1,1.7,0,2.3-2c0.4-1.5,0.4-2.5-0.1-2.9C196.8,369.7,195.1,370.7,195,371.9z M173.5,364.9 c-0.1,0.4,0.9,2,1.3,2c0.1,0,0.2-0.1,0.3-0.1c0.6-0.3,2.1-1.2,4.1-2.5c0.6-0.3,1.1-0.6,1.4-0.8c0.1-0.1,12.3-7.6,12.3-7.7 c3.3-2.1,6.3-3.8,7.7-4.5l1.5-0.8l0-0.1c0-0.1,0-0.3-0.1-0.5l0-0.2c0-0.2-0.1-0.5-0.2-0.7c-0.2-0.5-0.5-1-1-1.2 c-0.2,0-1.1,0.5-2,1.1c-1,0.6-2,1.3-2.3,1.4c-0.1,0.1-0.2,0.1-0.2,0.1c-0.2,0-0.4-0.1-0.5-0.3c0,0,0-0.1,0-0.1 c-0.1-0.3-0.6-1.2-1.1-2c-1.1-1.5-1.4-1.7-2.5-0.9c-0.4,0.3-0.8,0.5-0.9,0.5c-0.3,0-1.4,0.9-1.4,1.2c0,0.4,1.5,3.4,1.9,3.8 c0.3,0.3,0.2,0.4-0.7,1c-0.6,0.4-1.1,0.6-1.1,0.5c-0.2-0.3-1.1-0.6-1.4-0.4c-0.1,0-0.1,0.1-0.1,0.1c-0.1,0.1-0.1,0.2-0.1,0.3 c0,0.1,0,0.2,0,0.4c0,0.1,0,0.1,0,0.1c0,0.3-0.1,0.6-0.5,0.9c-0.6,0.3-0.6,0.3-1-0.4c-0.1-0.1-0.2-0.2-0.2-0.3 c-0.2-0.2-0.4-0.4-0.6-0.5c-0.1,0-0.3,0-0.4,0c-0.4,0-0.9,0.2-1.2,0.5c-0.4,0.3-0.6,0.6-0.6,0.8c0,0.1,0.1,0.3,0.1,0.5 c0.1,0.2,0.2,0.4,0.4,0.6l0.5,0.7l-0.8,0.5c-0.4,0.2-0.7,0.4-0.8,0.5c-0.1,0-0.1,0-0.1-0.1c-0.1-0.1-0.3-0.4-0.5-0.8 c-0.1-0.2-0.2-0.4-0.4-0.7c-0.2-0.2-0.3-0.5-0.6-0.8c-0.1-0.1-0.2-0.3-0.3-0.4c-0.1-0.1-0.2-0.3-0.2-0.3c-0.4-0.5-0.5-0.8-0.6-1 l0,0c0,0,0-0.1-0.1-0.2c-0.1-0.1-0.2-0.3-0.6-0.6c-0.1,0-0.2-0.2-0.3-0.2c-0.4-0.3-1.5-1.4-1.6-1.4c-0.3-0.3-0.6-0.5-0.8-0.7 c-0.2-0.2-0.4-0.3-0.4-0.2c0,0,0,0.2,0,0.5c0,0.5,0.1,1.2,0.2,2c0.3,2.1,0.4,2.6,1.2,4c0.4,0.7,0.7,1.4,0.8,1.7 c0,0.1,0,0.2,0,0.3c-0.2,0.1-0.5,0.3-0.9,0.5c-0.7,0.3-1,0.5-1.1,0.8c0,0,0,0,0,0.1c0,0,0,0,0,0.1c0,0.1,0,0.3,0.1,0.4 c0,0.1,0.1,0.2,0.1,0.4l0.3,0.7l-1.9,0.9C174.4,364.2,173.6,364.7,173.5,364.9z"></path> </g> <g> <path class="st0" d="M236.3,270.9c-32.8-3.8-32.9,25.4,2.9,43.4c0.7,0.4,10.4,4.1,11.3,4.2c1.1,0.1,3.7,2,14.3,2.5 c6.7,0.3,10.7-1.1,13-2.4c3.2-1.8,4.9-3.8,5.6-5.1C291.4,297.7,261.8,273.6,236.3,270.9z M275.7,314.8 c-15.8,8.3-49.8-6.8-58-23.5c-9.2-19,18.1-24.3,42.2-10c0.7,0.4,9.2,4.5,15.5,12.3C282.7,302.5,282.8,311.1,275.7,314.8z M251.9,278.7c-39.3-15.3-47.5,12.9-11.3,31c21.9,11,43.5,7.5,38.1-7.6c-0.1-0.4-0.3-0.7-0.4-1.1 C274.2,291.3,261.5,282.4,251.9,278.7z"></path> <path class="st1" d="M285.5,303.4c-1.3-4.3-4-8.2-4.8-9.4c-0.1-0.2-2.2-2.8-2.2-2.8c-2.9-3.3-7.9-7.3-7.9-7.4l-2.6-1.9 c-4.9-3.6-10.8-6.3-13.9-7.7c-1.4-0.6-2-1-8-2.8c-0.4-0.1-3.9-1-3.9-1c-28.8-6.7-43.6,12.3-21.2,33.9c8.3,8,18.6,12.5,21.4,13.7 c0.4,0.2,2.5,1.1,2.9,1.2c1,0.3,2.8,0.9,3.8,1.1c0.3,0.1,2.9,0.8,3.5,0.9c1.8,0.4,6,1.5,12.6,1.5c1.5,0,2.9,0,3.7-0.1 c0.3,0,2.5-0.3,3.4-0.4c1-0.2,2.9-0.7,6.6-2.3c0.2-0.1,2.1-1.3,2.3-1.5C282.5,317.3,288.4,312.7,285.5,303.4z M277.7,318.6 c-2.3,1.3-6.3,2.6-13,2.4c-10.5-0.5-13.2-2.4-14.3-2.5c-0.9-0.1-10.6-3.9-11.3-4.2c-35.8-18-35.6-47.2-2.9-43.4 c25.6,2.7,55.1,26.8,47.1,42.6C282.7,314.9,280.9,316.9,277.7,318.6z M259.9,281.3c-24.1-14.3-51.4-9-42.2,10 c8.2,16.7,42.2,31.8,58,23.5c7.1-3.8,6.9-12.3-0.3-21.2C269.1,285.9,260.6,281.7,259.9,281.3z M278.8,302 c5.4,15.1-16.3,18.6-38.1,7.6c-36.3-18.1-28.1-46.3,11.3-31c9.6,3.7,22.3,12.6,26.4,22.2C278.5,301.3,278.6,301.6,278.8,302z M243.9,287.5c-3.3-1.2-3.6-1.4-5.2-3.6c-2.1-2.9-3.3-4.1-4.1-4.1c-1.2,0-1.4,1.6-0.5,3.3l0.5,0.9c0,0.1,0,0.2,0,0.4 c-9.7-2-9.5-0.3-11-3.2c-1-2-1.2-1.7-1.9-1.2c-0.8,0.6-1,1-1,2.7c0,2.3,0.6,2,6,4.2c0.1,0,7.6,3,7.8,3c2.4,0-7.4,4.1-5.6,5.9 c0.2,0.2,1.6,0.3,2.3,0.2c0.3,0,0.7,0,1.1-0.1c0,0,0,0-0.1,0l0.8-0.1c1.3-0.2,6.3-3.2,8.1-4.5c0.2-0.1,0.8,0.3,1.5,0.6 c2.6,1.1,9.4,2,7-1.4C249.2,289.7,247,288.6,243.9,287.5z M271.6,301.2c-0.7,1.6-2.5,3.1-6.5,5c-3.1,1.5-3.8,1.6-5.5,0.8 c-1.8-0.9-5.2-4.4-6.1-6.2c-2.1-4.3,0.3-8.8,5.6-7.8c3.8,0.7,4.1,3,5.2,2.5C267.4,293.9,273,298,271.6,301.2z"></path> </g> </g> </g> </svg>