<svg xmlns="http://www.w3.org/2000/svg" xmlns:xlink="http://www.w3.org/1999/xlink" id="Layer_1" x="0px" y="0px" viewBox="0 0 652.8 356.2" style="enable-background:new 0 0 652.8 356.2;" xml:space="preserve"> <style type="text/css"> .st0{fill:#FFFFFF;} .st1{fill:#331C14;} </style> <g> <path class="st0" d="M0.9,221.7c2,9.1,14.4,14.3,17.4,12.1c11.1-0.6,9.4-34.9,24.7-31c6.2,1.5,48.4,25.3,86.5,41.5 c24.6,10.3,75.8,38.2,77.8,37.2c-0.1-0.1,1,0.7,1.1,0.7c1.6,2.6,4.9,3,5.8,2.8c0.2,0,0.3,0,2.2,0.1c2,2.5,4.2,1.1,9.6,2.1 c18.1,11.4,37.7,44,52.7,54.1c-0.1-0.1-0.2-0.1-0.3-0.2c4,3.1,6.8,4.5,11.9,6.7c23.6,10.3,39.8,12.9,77.7-6.1 c5.3-2.7,9.4-6.7,16.6-12.7c8.1-6.7,14.4-14.2,20.1-21.6c48-63.4,17.4-147.5,47.7-171.7c25.4-9,33,27.9,38.9,45.2 c2.9,8.8,19.6,22.3,25.3,24.6c23.3,17.8,45.7,9.9,64.7,2.6c7.5-3,20-12.5,26.4-20.3c40-48.1,25.5-88.2,32.2-122.4 c2.9-14,12.2-23.1,12.6-27.9c0.1-2.1-3.2-20.7-7.9-25c-1.4-1.3-1.3-1.3-7.6,0.7c-5.4,1.7-9,1.8-22.1,0.4 c-3.8-2.3-20.7-4.2-25.1-4.7c0-0.3-21.5-2.9-25.2-2.9c2.8-1.5-113.8-9.1-148.2-4.3c-1.3,0.2-9.6,2.2-9.7,2.7 c-5.6,1.8-30.7,13.9-35.8,16.9c-8.2,5-25.1,24.1-24.1,33.7c0.2,2.2,2.6,6.9,5.1,10.1c2,2.5,8.6,7.1,10.8,7.4 c1.2,0.2,2.3-0.4,3.4-1.5c8.1-1.1,17-30.4,28.4-40.1c12.3-10.6,108.7,4.8,124.7,3.3c1.8-0.2,5.8,0,2.1-1c1.1,0.3,3.1,0.6,4.3,0.8 c-28.3,21-46.3,59.7-44.4,59.3c-2.7,2.5-1.8,0.5-10.5,2.8c-4-0.9-29,6.7-44.5,23.3c-4.4,4.8-8.4,10.4-8.3,11.6 c-0.5,0.8-2,3.3-2.5,4.1c-25.6-6.1-15.6-2.8-28.3-7.1c-4.7-1.6-9.4-3.1-14.3-4c-1.4-2.2-28.3-9.7-83.6,30.7 c-46.9,34.2-59.4,69.1-81,81.8c-3.4,2-5.5,3.8-6.9,5.3c-2.1-0.5-4.8-1.1-5.7-1.5c1.4-2.5-111.4-51-139.2-53.5c-5-0.5-7-0.4-6.1,0.1 l0,0c-2.9,0-6.4,0.3-9.3,0.9c-20.8,0.3-38,19.9-40.5,29.4C0.3,218,0.5,219.9,0.9,221.7z M226.1,287.2c0.4,0.1,0.8,0.1,1.2,0.2 C226.9,287.4,226.5,287.3,226.1,287.2z M230,288.2c0.4,0.1,0.9,0.3,1.3,0.4C230.9,288.4,230.5,288.3,230,288.2z M228.7,287.8 c0.4,0.1,0.8,0.2,1.2,0.3C229.5,288,229.1,287.9,228.7,287.8z M227.4,287.5c0.4,0.1,0.8,0.2,1.2,0.3 C228.2,287.7,227.8,287.6,227.4,287.5z"></path> <path class="st1" d="M377.2,316.4c-16.7,14.1-36.3,21.7-55.1,21.7c-3.8,0-7.6-0.3-11.3-0.9l-5.5-1c0,0-0.1,0-0.1,0 c-2.6-1.7-4.8-3.1-6.7-4.3c-6.7-4.2-10.4-6.5-17-15.2c-11.3-14.9-15.6-24.6-19.4-43.4c-2.3-11.3-3.3-17.9-3.2-21.4 c0.6-24.2,13.9-45.8,21.7-54.8c2.5-2.9,30.5-25.7,35.6-29.4c10.1-7.3,25.8-16.8,43.7-20.6c17.3-3.7,32.2-1.2,44.5,7.3 c12.6,8.7,17.8,40.7,17.8,55.9C422,253.8,405.6,292.5,377.2,316.4z M0.2,217.3c2-8,16-24.8,32.5-28.5C46.4,185.9,50.5,185,158,229 c9.6,3.9,37.5,16.8,40.2,18.1c0.1-0.2,0.2-0.5,0.3-0.8c0.6-2,1.7-5.3,9.4-9.8c9.3-5.5,16.9-15,26.5-27.1 c12.5-15.7,28-35.3,54.6-54.7c52.5-38.4,79.7-33.7,82.8-31.2c0.4,0.3,0.4,0.6,0.3,0.8c-0.2,0.5-1.3,0.5-2.2,0.4 c-15-1.9-37.7,6.9-53.5,16.5C274,166.7,253,193.4,237.8,213c-9.9,12.7-17.8,22.8-27.9,28.1c-5.4,2.8-6.8,5.2-8.2,7.4 c-0.4,0.6-0.7,1.2-1.2,1.8l0.2,0.7c6.7,22.5,10.4,29.4,12.3,31.3c1.6,1.5,2,2.3,1.8,2.7c-0.1,0.2-0.4,0.3-0.9,0.3 c-0.5,0-1.1-0.1-2.1-0.3c-1.1-0.2-2.2-1-3.3-2.4c-0.4-0.3-0.8-0.5-1.2-0.8c0,0,0,0,0,0c-1.7,0-10.3-4.3-29.7-14.1 c-15.8-8-35.6-17.9-48-23.2c-29-12.4-48.4-22.6-62.6-30.1C52,206.6,43.8,202.2,38.2,203c-0.7,0.2-1.2,0.5-1.7,0.8 c-3,1.6-5.1,7.6-7.4,13.9c-2.9,8.2-6,16.7-11.3,16.3c-2.7,1.1-7.5-0.4-11.6-3.9C2.6,227.1-1,222.1,0.2,217.3z M590.1,9.1 c0-0.1,0-0.3-0.2-0.4c-0.6-0.4-7-0.5-11.1-0.3c-4.7,0.2-6.9,0.3-8.1,0.2c-2.9-0.1-11.5-1.3-58.1-3.2c-12.4-0.5-62.6-0.4-85.2-0.3 c-20,0.1-25.5,0.8-39.7,7.5c-32.9,13.6-41.8,36.2-41.2,42.5c1,8.5,12,17,16.1,17.7c1,0.1,2.1-0.3,3.3-1.5c3.6-0.3,6-4.6,10.3-12.3 c3.3-5.9,7.8-13.9,14.8-23.5c0.2-0.2,0.4-0.5,0.5-0.7c1.8-2.5,3.3-4.6,7.9-6.3c14-2.8,43.3-0.1,71.6,2.5 c19.4,1.8,37.7,3.5,50.7,3.4c1.8,0,2.8-0.3,3.1-0.2c-12.8,9.6-22.5,20.5-32.5,36.5c-4.6,7.4-12.1,21.3-11.8,22.6 c0,0.1,0.1,0.2,0.2,0.2c0.1,0.1,0.2,0.1,0.3,0.1c0,0,0.1,0,0.1,0c1-0.2,2.5-2.7,5.8-8.3c6.5-11.1,18.6-31.7,36.9-46.2 c9.8-7.8,35.6-23.9,48.5-26.9c3.9-0.9,8.3-1.5,11.8-1.9C588.9,9.8,590,9.6,590.1,9.1z M565.2,6c0.1-0.2,0.1-0.3,0-0.5 c-0.2-0.4-1.2-0.4-1.7-0.4l-0.1,0C558.6,4.7,444.9-5,409,3.4c-2.6,0.6-2.7,0.7-2.6,1c0.1,0.4,0.3,0.4,8.5,0 c19.4-1.1,71-3.9,145,2.3c0.7,0.1,1.4,0.1,2,0.1C563.8,6.8,564.9,6.5,565.2,6z M425.9,119.4c-5.3,5.7-8.7,10.6-8.3,11.9 c0.1,0.2,0.2,0.3,0.4,0.4c0,0,0.1,0,0.1,0c1.1,0,4.2-2.8,8.3-7.6c14.3-16.5,31.9-22.2,40.4-25c3.5-1.1,4.9-1.6,4.7-2.3 c-0.1-0.3-0.3-0.5-0.8-0.6C466.3,94.9,441.7,102.6,425.9,119.4z M195.8,240.4c-0.1-1.9-30.9-15.6-59.5-27.2 c-18.5-7.5-63.2-25-80-26.5c-6.4-0.6-6.5-0.2-6.6,0.1c-0.1,0.2,0,0.4,0.3,0.5c0.8,0.5,1.9,0.8,4.2,1.3c4.9,1.1,15.1,3.3,39.9,11.8 c26.5,9.1,61.9,24.1,83,33c13.8,5.8,17.6,7.4,18.3,7.4c0,0,0,0,0.1,0C195.7,240.7,195.8,240.6,195.8,240.4z M640.7,23.8 c0.5,2,2.6,11.1,2.4,11.8c-0.2,0.5-0.7,0.9-1.3,1.4c-0.7,0.6-1.2,1-1.1,1.5c0.1,0.4,0.6,0.6,1.5,0.8c0.2,0,0.4,0.1,0.6,0.1 c1,0,1.8-0.4,2.2-1.3c1.9-3.3-1-11.5-3.7-14.8c-0.6-0.6-2.4-0.5-3.2-0.1c-0.5,0.3-0.5,0.6-0.5,0.8c0,0.1,0.1,0.2,0.2,0.3 c0.4,0.2,1.3-0.1,2.3-0.5C640.5,23.9,640.6,23.9,640.7,23.8z M640.4,37.8l0.1-1.3c0.1-1.3-1.9-9-2.8-10.7c-0.3-0.5-0.7-1.1-1.1-0.9 c-0.2,0.1-0.6,0.4,0.7,5.5c0.6,2.3,1.5,5.2,1.9,5.9l0.8,1.5c0,0.1,0.1,0.1,0.2,0.1c0,0,0,0,0.1,0C640.3,38,640.3,37.9,640.4,37.8z M519.4,66.7c-14.7,18-20.7,44.8-16.1,71.6c4,23.5,15.5,43,30.6,52.1c6.1,3.7,11.3,5.3,19.1,5.3c3.7,0,8.1-0.4,13.4-1.1 c10.8-1.4,26.8-8.5,41.7-34.9c9.7-17.1,16.6-39.1,18.1-57.3c0.9-11.2,0-24.3-2.5-35.7c-2.9-13.3-7.7-23.7-13.9-30.3 c-5.2-5.5-11.2-8.2-17.9-8.1C578.7,28.6,534.6,48,519.4,66.7z M210,265.4c5.6,21.7,5.9,21.7,11.8,21.6h0c1.4,0,2.7,0.1,4,0.3 c0,0,0.1,0.1,0.1,0.1c7.5,4.7,12.1,11.2,17.8,19.5c4.7,6.7,10,14.3,18.2,22.6c9.7,9.8,30.9,21.8,50,25.8c2.6,0.6,5.4,0.8,8.3,0.8 c16.7,0,36.5-8.5,47.8-14.2c10.1-5.1,21.1-14.3,31-25.9c11.4-13.4,20.7-29.1,26.8-45.6c8.8-24.1,9.8-49.6,10.6-72.1 c1-27.2,1.9-50.7,16.4-62.5c3.9-1.7,8.9-0.6,10.2-0.3c14.5,3.6,20.7,23.4,26,39.8c0.6,1.9,1.1,3.9,1.9,5.7 c5.8,14,17.4,21.7,24,25.8c21.1,16,46.9,10.3,60.5,4.1c2.1-0.9,4-1.8,5.8-2.5c7.6-3,20-12.5,26.5-20.4c28.7-34.6,29.4-65.2,30-92.1 c0.2-10.7,0.4-20.7,2.3-30.3c1.7-8.3,5.8-15,8.7-19.9c2.1-3.4,3.7-6,3.8-8c0.2-2.4-3.3-20.9-8-25.2l-0.1-0.1 c-1.4-1.3-1.5-1.3-7.7,0.7l-0.1,0c-8.7,2.8-16.4,1.4-24.6-0.1c-8.7-1.6-18.6-3.3-31.2-0.4c-14.5,3.4-30.5,12.5-49,27.8 c-24.8,20.6-39.9,47.8-45.3,58.5c-0.1,0.2-0.2,0.4-0.2,0.5l-1.6-0.2c-6.7-0.9-33.2,7-44.8,19.8c-3.9,4.3-13.7,17.9-13.7,19.2 c0,0.5,0.3,0.7,0.4,0.7c0.8,0.3,2.3-1.1,3.4-2.5c0.9-1.1,1.8-2.3,2.8-3.7c5.7-7.7,14.4-19.4,34.4-27.1c9.3-3.5,13.8-3.9,16.5-4.1 c4.2-0.4,4.2-0.4,10.6-10.4c0.8-1.3,1.7-2.7,2.7-4.4c32.9-51.2,73-71.4,92-72.5c4.3-0.3,10.9,0.5,17.9,1.4c8,1,16.3,2,23,1.7 c4.7-0.2,7.6-1.5,9.7-2.4c1.6-0.7,2.7-1.1,3.5-0.7c1.7,0.9,3,5.8,6.3,19l1.5,6.1c-0.6,0.9-1.4,2-2.3,3.2 c-3.3,4.6-7.8,10.9-9.7,16.3c-3.8,10.9-4,23.2-4.2,36.3c-0.3,20.8-0.7,44.3-14.8,70.7c-11.9,22.1-26.9,33.2-37.7,39 c-5,2.7-20.6,9.6-28,10.1c-9,0.6-21.1-0.9-33.5-9.1c-17-11.3-22.4-28.8-27.1-44.3c-4.8-15.6-8.9-29.1-23.6-32.5 c-7.1-1.6-13.8-0.2-19.3,4c-8.2,6.2-13.7,18.7-14.4,32.5c0,0.7-5.4,78.6-12.4,100.6c-21.3,66.5-73.4,80.3-90.5,84.9 c-4.2,1.1-14.5,2.6-19.4,1.8c-34.4-5.5-47.5-26.2-58-42.9c-8.7-13.8-16.2-25.8-33.1-25c-0.2,0-0.4,0-0.6,0 c-3.8,0.3-4.4,0.3-10.1-21.9c-2.5-9.7-3.4-13.9-2.8-15c0.1-0.2,0.3-0.3,0.5-0.3c9.5-2.2,21.4-16.3,36.5-34.3 c16.4-19.5,36.8-43.7,61.5-60.9c28.9-20.1,57.5-26.4,87.6-19.4l4.1,0.9c24.4,5.7,25.8,6,26.3,5.5c0.2-0.2,0.1-0.4,0.1-0.6 c0,0,0-0.1,0-0.1c-0.4-1.9-7.3-3.5-20.5-6.4c-3.8-0.8-8-1.8-12.3-2.8c-30.3-7.1-47.8-1.7-71.5,11.4c-36.7,20.4-59.6,48.5-78,71.1 c-11.6,14.2-21.5,26.5-31.8,32.5C206.1,248.7,206,249.7,210,265.4z M221.7,258.6c-0.2,0.1-0.6,0.2-0.1,3.5 c0.5,2.8,2.5,12.1,3.9,12.1c0.4,0,0.5-0.6,0.6-0.8c0.2-1.1-2.2-11.9-3.1-13.4C222.4,258.8,222,258.4,221.7,258.6z M222.2,256.3 c0.2,0.8,1.6,1.1,2.3,1.1c1.1-0.1,1.4,0.4,3.5,7.8c2,7.2,1.3,7.5-0.3,8.2c-0.6,0.3-1.4,0.6-2.2,1.4c-0.3,0.4-0.5,0.7-0.4,0.9 c0.1,0.3,0.5,0.3,1.2,0.4c0.4,0.1,0.7,0.1,1,0.1c1.4,0,2.5-0.5,3.5-1.4c1.8-1.7,1.6-3.4,0.2-9.2c-2.2-8.6-3.4-10.8-4.7-11.4 c-0.7-0.4-1.5-0.1-2.1,0.2C222.6,254.9,222,255.6,222.2,256.3z"></path> <path class="st0" d="M315.1,186.9c10,4.2,21.3,0.3,32.1-1.3c17.1-2.6,34.5,0.9,51.4,4.3c1.9-1.8-0.7-4.8-3-6.1 C364.9,167.4,297.1,179.4,315.1,186.9z M338.6,200.4c-1.4,0.7-2.4,2.8-1.2,3.8c1.9,1.6,25.4,3.8,26.5-0.2 C365.4,198.1,341.7,198.8,338.6,200.4z M542.7,61.2c8.3,4.6,17.4,1.2,26,0.1c13.8-1.8,28.1,2.4,42,6.5c1.5-1.7-0.7-4.8-2.7-6.2 C582.6,44.1,527.9,53,542.7,61.2z M562.5,75.5c-1.2,0.7-2.3,3.5,0.3,4.3c4,1.2,19.7,4.2,20.3,0.4C584.1,74.4,563.6,74.9,562.5,75.5 z"></path> </g> </svg>