<svg xmlns="http://www.w3.org/2000/svg" xmlns:xlink="http://www.w3.org/1999/xlink" id="Layer_1" x="0px" y="0px" viewBox="0 0 207 6" style="enable-background:new 0 0 207 6;" xml:space="preserve"><style type="text/css"> .st0{fill:url(#SVGID_1_);} .st1{fill:url(#SVGID_00000051343252963192478300000016275200545227894953_);} .st2{fill:url(#SVGID_00000098187565841114533060000003994580931839913872_);} .st3{fill:url(#SVGID_00000027583420916445733410000002703464175185551257_);} .st4{fill:url(#SVGID_00000072992071290822738030000010552441562826088630_);} .st5{fill:url(#SVGID_00000005952733567621238450000009363616212655474061_);} .st6{fill:url(#SVGID_00000010301554068627914720000012653442444523405491_);} .st7{fill:url(#SVGID_00000173124027416998986270000002152734886605607871_);} .st8{fill:url(#SVGID_00000071529478520527971760000004615010638040151168_);} .st9{fill:url(#SVGID_00000018938078586120804860000017560569150338982043_);} .st10{fill:url(#SVGID_00000139295814813622917720000009663327136729327786_);} .st11{fill:url(#SVGID_00000049902653451491619550000014161892902278247327_);} .st12{fill:url(#SVGID_00000049187108252575422700000001331561331905650817_);} .st13{fill:url(#SVGID_00000018946703910937693190000000678638074490985399_);} .st14{fill:url(#SVGID_00000156562653307493276080000013317635045658145434_);} .st15{fill:url(#SVGID_00000117674789906800468140000013026644521042541971_);} .st16{fill:url(#SVGID_00000158002854847507419150000012259229591647180722_);} .st17{fill:url(#SVGID_00000140716799868784741160000008277265473954695325_);}</style><g> <g> <linearGradient id="SVGID_1_" gradientUnits="userSpaceOnUse" x1="210" y1="2.9869" x2="-3" y2="2.9869"> <stop offset="1.217023e-03" style="stop-color:#000000;stop-opacity:0.5"></stop> <stop offset="0.518" style="stop-color:#000000;stop-opacity:0.9"></stop> <stop offset="1" style="stop-color:#000000;stop-opacity:0.4"></stop> </linearGradient> <path class="st0" d="M0,3l1-0.1c0,0,0.1,0,0.1,0.1c0,0,0,0.1-0.1,0.1c0,0,0,0,0,0L0,3z"></path> <linearGradient id="SVGID_00000016034600431857582450000002845310800758028729_" gradientUnits="userSpaceOnUse" x1="210" y1="2.9869" x2="-3" y2="2.9869"> <stop offset="1.217023e-03" style="stop-color:#000000;stop-opacity:0.5"></stop> <stop offset="0.518" style="stop-color:#000000;stop-opacity:0.9"></stop> <stop offset="1" style="stop-color:#000000;stop-opacity:0.4"></stop> </linearGradient> <path style="fill:url(#SVGID_00000016034600431857582450000002845310800758028729_);" d="M11.1,2.3l2-0.1c0.5,0,0.9,0.3,0.9,0.8 s-0.3,0.9-0.8,0.9c0,0-0.1,0-0.1,0l-2-0.1c-0.4,0-0.7-0.4-0.7-0.8C10.5,2.6,10.8,2.3,11.1,2.3z"></path> <linearGradient id="SVGID_00000065782590468677136050000003508453647489587357_" gradientUnits="userSpaceOnUse" x1="210" y1="2.9869" x2="-3" y2="2.9869"> <stop offset="1.217023e-03" style="stop-color:#000000;stop-opacity:0.5"></stop> <stop offset="0.518" style="stop-color:#000000;stop-opacity:0.9"></stop> <stop offset="1" style="stop-color:#000000;stop-opacity:0.4"></stop> </linearGradient> <path style="fill:url(#SVGID_00000065782590468677136050000003508453647489587357_);" d="M23.3,1.6l2-0.1c0.8,0,1.5,0.6,1.5,1.4 c0,0.8-0.6,1.5-1.4,1.5c0,0-0.1,0-0.1,0l-2-0.1c-0.7,0-1.3-0.7-1.3-1.4C22.1,2.2,22.6,1.7,23.3,1.6z"></path> <linearGradient id="SVGID_00000120525830785802913850000000748132274129167024_" gradientUnits="userSpaceOnUse" x1="210" y1="2.9869" x2="-3" y2="2.9869"> <stop offset="1.217023e-03" style="stop-color:#000000;stop-opacity:0.5"></stop> <stop offset="0.518" style="stop-color:#000000;stop-opacity:0.9"></stop> <stop offset="1" style="stop-color:#000000;stop-opacity:0.4"></stop> </linearGradient> <path style="fill:url(#SVGID_00000120525830785802913850000000748132274129167024_);" d="M35.5,1.2l2-0.1c1.1,0,1.9,0.8,2,1.8 c0,1.1-0.8,1.9-1.8,2c0,0-0.1,0-0.1,0l-2-0.1c-1,0-1.8-0.9-1.8-1.9C33.8,2,34.6,1.2,35.5,1.2z"></path> <linearGradient id="SVGID_00000101078538510041140240000017536886057035154862_" gradientUnits="userSpaceOnUse" x1="210" y1="2.9869" x2="-3" y2="2.9869"> <stop offset="1.217023e-03" style="stop-color:#000000;stop-opacity:0.5"></stop> <stop offset="0.518" style="stop-color:#000000;stop-opacity:0.9"></stop> <stop offset="1" style="stop-color:#000000;stop-opacity:0.4"></stop> </linearGradient> <path style="fill:url(#SVGID_00000101078538510041140240000017536886057035154862_);" d="M47.7,0.8l2-0.1c1.3,0,2.3,1,2.3,2.2 s-1,2.3-2.2,2.3c0,0-0.1,0-0.1,0l-2-0.1c-1.2,0-2.2-1.1-2.2-2.3C45.6,1.7,46.5,0.8,47.7,0.8z"></path> <linearGradient id="SVGID_00000018919509646074454080000017411411317225040521_" gradientUnits="userSpaceOnUse" x1="210" y1="2.9869" x2="-3" y2="2.9869"> <stop offset="1.217023e-03" style="stop-color:#000000;stop-opacity:0.5"></stop> <stop offset="0.518" style="stop-color:#000000;stop-opacity:0.9"></stop> <stop offset="1" style="stop-color:#000000;stop-opacity:0.4"></stop> </linearGradient> <path style="fill:url(#SVGID_00000018919509646074454080000017411411317225040521_);" d="M59.9,0.4l2,0c1.4,0,2.6,1.1,2.6,2.5 c0,1.4-1.1,2.6-2.5,2.6c0,0-0.1,0-0.1,0l-2,0c-1.4,0-2.5-1.2-2.5-2.6C57.4,1.6,58.5,0.5,59.9,0.4z"></path> <linearGradient id="SVGID_00000065076257845384603050000012351692130751655310_" gradientUnits="userSpaceOnUse" x1="210" y1="2.9869" x2="-3" y2="2.9869"> <stop offset="1.217023e-03" style="stop-color:#000000;stop-opacity:0.5"></stop> <stop offset="0.518" style="stop-color:#000000;stop-opacity:0.9"></stop> <stop offset="1" style="stop-color:#000000;stop-opacity:0.4"></stop> </linearGradient> <path style="fill:url(#SVGID_00000065076257845384603050000012351692130751655310_);" d="M72,0.2l2,0c1.5,0,2.8,1.2,2.8,2.7 c0,1.5-1.2,2.8-2.7,2.8c0,0-0.1,0-0.1,0l-2,0c-1.5,0-2.7-1.3-2.7-2.8C69.4,1.5,70.6,0.3,72,0.2z"></path> <linearGradient id="SVGID_00000075854556907283059540000012602260841133529528_" gradientUnits="userSpaceOnUse" x1="210" y1="2.9869" x2="-3" y2="2.9869"> <stop offset="1.217023e-03" style="stop-color:#000000;stop-opacity:0.5"></stop> <stop offset="0.518" style="stop-color:#000000;stop-opacity:0.9"></stop> <stop offset="1" style="stop-color:#000000;stop-opacity:0.4"></stop> </linearGradient> <path style="fill:url(#SVGID_00000075854556907283059540000012602260841133529528_);" d="M84.2,0.1l2,0c1.6,0,2.9,1.3,2.9,2.9 c0,1.6-1.3,2.9-2.9,2.9h0l-2,0c-1.6,0-2.9-1.3-2.9-2.9C81.3,1.4,82.6,0.1,84.2,0.1z"></path> <linearGradient id="SVGID_00000168114622848932692920000016239156640273109123_" gradientUnits="userSpaceOnUse" x1="210" y1="2.9869" x2="-3" y2="2.9869"> <stop offset="1.217023e-03" style="stop-color:#000000;stop-opacity:0.5"></stop> <stop offset="0.518" style="stop-color:#000000;stop-opacity:0.9"></stop> <stop offset="1" style="stop-color:#000000;stop-opacity:0.4"></stop> </linearGradient> <path style="fill:url(#SVGID_00000168114622848932692920000016239156640273109123_);" d="M96.4,0l2,0c1.6,0,3,1.3,3,3 c0,1.6-1.3,3-3,3h0l-2,0c-1.6,0-3-1.3-2.9-3C93.5,1.3,94.8,0,96.4,0z"></path> <linearGradient id="SVGID_00000175282401320032611170000004454389651716624826_" gradientUnits="userSpaceOnUse" x1="210" y1="2.9869" x2="-3" y2="2.9869"> <stop offset="1.217023e-03" style="stop-color:#000000;stop-opacity:0.5"></stop> <stop offset="0.518" style="stop-color:#000000;stop-opacity:0.9"></stop> <stop offset="1" style="stop-color:#000000;stop-opacity:0.4"></stop> </linearGradient> <path style="fill:url(#SVGID_00000175282401320032611170000004454389651716624826_);" d="M108.6,0l2,0c1.6,0,3,1.3,3,3 c0,1.6-1.3,3-3,3l-2,0c-1.6,0-3-1.3-3-3C105.6,1.3,106.9,0,108.6,0L108.6,0z"></path> <linearGradient id="SVGID_00000152974641775603197280000001864740406241225374_" gradientUnits="userSpaceOnUse" x1="210" y1="2.987" x2="-3" y2="2.987"> <stop offset="1.217023e-03" style="stop-color:#000000;stop-opacity:0.5"></stop> <stop offset="0.518" style="stop-color:#000000;stop-opacity:0.9"></stop> <stop offset="1" style="stop-color:#000000;stop-opacity:0.4"></stop> </linearGradient> <path style="fill:url(#SVGID_00000152974641775603197280000001864740406241225374_);" d="M120.8,0.1l2,0c1.6,0,2.9,1.3,2.9,2.9 c0,1.6-1.3,2.9-2.9,2.9l-2,0c-1.6,0-2.9-1.3-3-2.9C117.8,1.4,119.1,0.1,120.8,0.1C120.7,0.1,120.7,0.1,120.8,0.1z"></path> <linearGradient id="SVGID_00000047059965720174734200000004781662990647512742_" gradientUnits="userSpaceOnUse" x1="210" y1="2.987" x2="-3" y2="2.987"> <stop offset="1.217023e-03" style="stop-color:#000000;stop-opacity:0.5"></stop> <stop offset="0.518" style="stop-color:#000000;stop-opacity:0.9"></stop> <stop offset="1" style="stop-color:#000000;stop-opacity:0.4"></stop> </linearGradient> <path style="fill:url(#SVGID_00000047059965720174734200000004781662990647512742_);" d="M132.9,0.2l2,0c1.5,0,2.7,1.3,2.7,2.8 c0,1.5-1.2,2.7-2.7,2.7l-2,0c-1.5,0-2.8-1.2-2.8-2.7C130.1,1.5,131.3,0.2,132.9,0.2C132.9,0.2,132.9,0.2,132.9,0.2z"></path> <linearGradient id="SVGID_00000170994163512860533480000003206351523883976361_" gradientUnits="userSpaceOnUse" x1="210" y1="2.987" x2="-3" y2="2.987"> <stop offset="1.217023e-03" style="stop-color:#000000;stop-opacity:0.5"></stop> <stop offset="0.518" style="stop-color:#000000;stop-opacity:0.9"></stop> <stop offset="1" style="stop-color:#000000;stop-opacity:0.4"></stop> </linearGradient> <path style="fill:url(#SVGID_00000170994163512860533480000003206351523883976361_);" d="M145.1,0.4l2,0c1.4,0,2.5,1.2,2.5,2.6 c0,1.4-1.1,2.5-2.5,2.5l-2,0c-1.4,0-2.6-1.1-2.6-2.5S143.6,0.4,145.1,0.4C145,0.4,145.1,0.4,145.1,0.4z"></path> <linearGradient id="SVGID_00000047762658360608461020000015068672466616650151_" gradientUnits="userSpaceOnUse" x1="210" y1="2.987" x2="-3" y2="2.987"> <stop offset="1.217023e-03" style="stop-color:#000000;stop-opacity:0.5"></stop> <stop offset="0.518" style="stop-color:#000000;stop-opacity:0.9"></stop> <stop offset="1" style="stop-color:#000000;stop-opacity:0.4"></stop> </linearGradient> <path style="fill:url(#SVGID_00000047762658360608461020000015068672466616650151_);" d="M157.3,0.7l2,0.1c1.2,0,2.2,1.1,2.2,2.3 c0,1.2-1,2.1-2.2,2.2l-2,0.1c-1.3,0-2.3-1-2.3-2.2c0-1.3,1-2.3,2.2-2.3C157.2,0.7,157.2,0.7,157.3,0.7z"></path> <linearGradient id="SVGID_00000179645170933359052240000016046928899037681309_" gradientUnits="userSpaceOnUse" x1="210" y1="2.987" x2="-3" y2="2.987"> <stop offset="1.217023e-03" style="stop-color:#000000;stop-opacity:0.5"></stop> <stop offset="0.518" style="stop-color:#000000;stop-opacity:0.9"></stop> <stop offset="1" style="stop-color:#000000;stop-opacity:0.4"></stop> </linearGradient> <path style="fill:url(#SVGID_00000179645170933359052240000016046928899037681309_);" d="M169.5,1.1l2,0.1c1,0,1.8,0.9,1.8,1.9 c0,1-0.8,1.7-1.8,1.8l-2,0.1c-1.1,0-2-0.8-2-1.8s0.8-2,1.8-2C169.4,1.1,169.4,1.1,169.5,1.1z"></path> <linearGradient id="SVGID_00000069369949171606836540000003331888527908101000_" gradientUnits="userSpaceOnUse" x1="210" y1="2.987" x2="-3" y2="2.987"> <stop offset="1.217023e-03" style="stop-color:#000000;stop-opacity:0.5"></stop> <stop offset="0.518" style="stop-color:#000000;stop-opacity:0.9"></stop> <stop offset="1" style="stop-color:#000000;stop-opacity:0.4"></stop> </linearGradient> <path style="fill:url(#SVGID_00000069369949171606836540000003331888527908101000_);" d="M181.6,1.5l2,0.1c0.7,0,1.3,0.7,1.3,1.4 c0,0.7-0.6,1.3-1.3,1.3l-2,0.1c-0.8,0-1.5-0.6-1.5-1.4c0-0.8,0.6-1.5,1.4-1.5C181.6,1.5,181.6,1.5,181.6,1.5z"></path> <linearGradient id="SVGID_00000078028209279800689640000017622200706166590596_" gradientUnits="userSpaceOnUse" x1="210" y1="2.987" x2="-3" y2="2.987"> <stop offset="1.217023e-03" style="stop-color:#000000;stop-opacity:0.5"></stop> <stop offset="0.518" style="stop-color:#000000;stop-opacity:0.9"></stop> <stop offset="1" style="stop-color:#000000;stop-opacity:0.4"></stop> </linearGradient> <path style="fill:url(#SVGID_00000078028209279800689640000017622200706166590596_);" d="M193.8,2.1l2,0.1c0.4,0,0.7,0.4,0.7,0.8 c0,0.4-0.3,0.7-0.7,0.7l-2,0.1c-0.5,0-0.9-0.3-0.9-0.8S193.3,2.2,193.8,2.1C193.8,2.1,193.8,2.1,193.8,2.1z"></path> <linearGradient id="SVGID_00000138563807588412982530000002940767277406348427_" gradientUnits="userSpaceOnUse" x1="210" y1="2.9869" x2="-3" y2="2.9869"> <stop offset="1.217023e-03" style="stop-color:#000000;stop-opacity:0.5"></stop> <stop offset="0.518" style="stop-color:#000000;stop-opacity:0.9"></stop> <stop offset="1" style="stop-color:#000000;stop-opacity:0.4"></stop> </linearGradient> <path style="fill:url(#SVGID_00000138563807588412982530000002940767277406348427_);" d="M206,2.9l1,0.1l-1,0.1 C206,3.1,205.9,3,206,2.9C205.9,3,205.9,2.9,206,2.9C206,2.9,206,2.9,206,2.9z"></path> </g></g></svg>