<svg xmlns="http://www.w3.org/2000/svg" xmlns:xlink="http://www.w3.org/1999/xlink" id="Layer_1" x="0px" y="0px" viewBox="0 0 1602.5 608.3" style="enable-background:new 0 0 1602.5 608.3;" xml:space="preserve"><style type="text/css"> .st0{filter:url(#Adobe_OpacityMaskFilter);} .st1{filter:url(#Adobe_OpacityMaskFilter_00000008865897133351635530000010904480511759900069_);} .st2{mask:url(#SVGID_1_);fill:url(#SVGID_00000124153631680304232290000003379439856295786164_);} .st3{opacity:0.5;}</style><g> <defs> <filter id="Adobe_OpacityMaskFilter" filterUnits="userSpaceOnUse" x="0" y="106.4" width="1602.5" height="392.9"> </filter> </defs> <mask maskUnits="userSpaceOnUse" x="0" y="106.4" width="1602.5" height="392.9" id="SVGID_1_"> <g class="st0"> <defs> <filter id="Adobe_OpacityMaskFilter_00000017485946923909845070000007091453502730991011_" filterUnits="userSpaceOnUse" x="0" y="-74.8" width="2376.8" height="574.1"> </filter> </defs> <mask maskUnits="userSpaceOnUse" x="0" y="-74.8" width="2376.8" height="574.1" id="SVGID_1_"> <g style="filter:url(#Adobe_OpacityMaskFilter_00000017485946923909845070000007091453502730991011_);"> </g> </mask> <linearGradient id="SVGID_00000134959425413874323830000000323084835532266423_" gradientUnits="userSpaceOnUse" x1="-20.8945" y1="551.0437" x2="1923.1044" y2="1.7096"> <stop offset="0" style="stop-color:#000000"></stop> <stop offset="3.810095e-03" style="stop-color:#030303"></stop> <stop offset="0.1117" style="stop-color:#4E4E4E"></stop> <stop offset="0.2128" style="stop-color:#8D8D8D"></stop> <stop offset="0.304" style="stop-color:#BEBEBE"></stop> <stop offset="0.3836" style="stop-color:#E2E2E2"></stop> <stop offset="0.4485" style="stop-color:#F7F7F7"></stop> <stop offset="0.4907" style="stop-color:#FFFFFF"></stop> <stop offset="1" style="stop-color:#000000"></stop> </linearGradient> <path style="mask:url(#SVGID_1_);fill:url(#SVGID_00000134959425413874323830000000323084835532266423_);" d="M123.6,463.3 l1.4,5.8l-7.8,1.9l-1.4-5.8L123.6,463.3z M69.1,476.5l1.4,5.8l7.8-1.9l-1.4-5.8L69.1,476.5z M84.7,472.7l1.4,5.8l7.8-1.9 l-1.4-5.8L84.7,472.7z M131.4,461.4l1.4,5.8l7.8-1.9l-1.4-5.8L131.4,461.4z M100.3,468.9l1.4,5.8l7.8-1.9l-1.4-5.8L100.3,468.9z M146.9,457.7l1.4,5.8l7.8-1.9l-1.4-5.8L146.9,457.7z M178,450.2l1.4,5.8l7.8-1.9l-1.4-5.8L178,450.2z M162.5,453.9l1.4,5.8 l7.8-1.9l-1.4-5.8L162.5,453.9z M2376.8-74.8h-4.7l0.3,1.1L2376.8-74.8z M2364.6-71.8l-0.7-2.9h-8.2l1.2,4.8L2364.6-71.8z M193.6,446.4l1.4,5.8l7.8-1.9l-1.4-5.8L193.6,446.4z M0,496.8v2.5l0.6-0.1L0,496.8z M53.6,480.2L55,486l7.8-1.9l-1.4-5.8 L53.6,480.2z M38,484l1.4,5.8l7.8-1.9l-1.4-5.8L38,484z M6.9,491.5l1.4,5.8l7.8-1.9l-1.4-5.8L6.9,491.5z M22.5,487.7l1.4,5.8 l7.8-1.9l-1.4-5.8L22.5,487.7z M318,416.3l1.4,5.8l7.8-1.9l-1.4-5.8L318,416.3z M395.8,397.6l1.4,5.8l7.8-1.9l-1.4-5.8 L395.8,397.6z M333.5,412.6l1.4,5.8l7.8-1.9l-1.4-5.8L333.5,412.6z M364.6,405.1l1.4,5.8l7.8-1.9l-1.4-5.8L364.6,405.1z M209.1,442.6l1.4,5.8l7.8-1.9l-1.4-5.8L209.1,442.6z M380.2,401.3l1.4,5.8l7.8-1.9l-1.4-5.8L380.2,401.3z M442.4,386.3l1.4,5.8 l7.8-1.9l-1.4-5.8L442.4,386.3z M411.3,393.8l1.4,5.8l7.8-1.9l-1.4-5.8L411.3,393.8z M426.9,390l1.4,5.8l7.8-1.9l-1.4-5.8 L426.9,390z M349.1,408.8l1.4,5.8l7.8-1.9l-1.4-5.8L349.1,408.8z M240.2,435.1l1.4,5.8l7.8-1.9l-1.4-5.8L240.2,435.1z M224.7,438.9l1.4,5.8l7.8-1.9l-1.4-5.8L224.7,438.9z M255.8,431.4l1.4,5.8l7.8-1.9l-1.4-5.8L255.8,431.4z M286.9,423.9l1.4,5.8 l7.8-1.9l-1.4-5.8L286.9,423.9z M302.4,420.1l1.4,5.8l7.8-1.9l-1.4-5.8L302.4,420.1z M271.3,427.6l1.4,5.8l7.8-1.9l-1.4-5.8 L271.3,427.6z M1873.3,40.7l1.4,5.8l7.8-1.9l-1.4-5.8L1873.3,40.7z M1919.9,29.4l1.4,5.8l7.8-1.9l-1.4-5.8L1919.9,29.4z M1904.4,33.1l1.4,5.8l7.8-1.9l-1.4-5.8L1904.4,33.1z M1857.7,44.4l1.4,5.8l7.8-1.9l-1.4-5.8L1857.7,44.4z M1888.8,36.9l1.4,5.8 l7.8-1.9l-1.4-5.8L1888.8,36.9z M1935.5,25.6l1.4,5.8l7.8-1.9l-1.4-5.8L1935.5,25.6z M1966.6,18.1l1.4,5.8l7.8-1.9l-1.4-5.8 L1966.6,18.1z M1982.1,14.4l1.4,5.8l7.8-1.9l-1.4-5.8L1982.1,14.4z M1951,21.9l1.4,5.8l7.8-1.9l-1.4-5.8L1951,21.9z M1997.7,10.6 l1.4,5.8l7.8-1.9l-1.4-5.8L1997.7,10.6z M2013.2,6.9l1.4,5.8l7.8-1.9L2021,5L2013.2,6.9z M1842.2,48.2l1.4,5.8l7.8-1.9l-1.4-5.8 L1842.2,48.2z M1733.3,74.5l1.4,5.8l7.8-1.9l-1.4-5.8L1733.3,74.5z M1748.8,70.7l1.4,5.8l7.8-1.9l-1.4-5.8L1748.8,70.7z M1717.7,78.2l1.4,5.8l7.8-1.9l-1.4-5.8L1717.7,78.2z M1702.2,82l1.4,5.8l7.8-1.9l-1.4-5.8L1702.2,82z M1826.6,51.9l1.4,5.8 l7.8-1.9l-1.4-5.8L1826.6,51.9z M1686.6,85.7l1.4,5.8l7.8-1.9l-1.4-5.8L1686.6,85.7z M1764.4,67l1.4,5.8l7.8-1.9l-1.4-5.8 L1764.4,67z M1795.5,59.4l1.4,5.8l7.8-1.9l-1.4-5.8L1795.5,59.4z M1811,55.7l1.4,5.8l7.8-1.9l-1.4-5.8L1811,55.7z M1779.9,63.2 l1.4,5.8l7.8-1.9l-1.4-5.8L1779.9,63.2z M2308.7-64.5l1.4,5.8l7.8-1.9l-1.4-5.8L2308.7-64.5z M2262.1-53.3l1.4,5.8l7.8-1.9 l-1.4-5.8L2262.1-53.3z M2246.5-49.5l1.4,5.8l7.8-1.9l-1.4-5.8L2246.5-49.5z M2231-45.7l1.4,5.8l7.8-1.9l-1.4-5.8L2231-45.7z M2199.9-38.2l1.4,5.8l7.8-1.9l-1.4-5.8L2199.9-38.2z M2215.4-42l1.4,5.8l7.8-1.9l-1.4-5.8L2215.4-42z M2277.6-57l1.4,5.8 l7.8-1.9l-1.4-5.8L2277.6-57z M2324.3-68.3l1.4,5.8l7.8-1.9l-1.4-5.8L2324.3-68.3z M2339.8-72l1.4,5.8l7.8-1.9l-1.4-5.8 L2339.8-72z M2293.2-60.8l1.4,5.8l7.8-1.9l-1.4-5.8L2293.2-60.8z M1671.1,89.5l1.4,5.8l7.8-1.9l-1.4-5.8L1671.1,89.5z M2168.8-30.7l1.4,5.8l7.8-1.9l-1.4-5.8L2168.8-30.7z M2106.6-15.7l1.4,5.8l7.8-1.9l-1.4-5.8L2106.6-15.7z M2091-11.9l1.4,5.8 l7.8-1.9l-1.4-5.8L2091-11.9z M2184.3-34.5l1.4,5.8l7.8-1.9l-1.4-5.8L2184.3-34.5z M2044.3-0.7l1.4,5.8l7.8-1.9l-1.4-5.8 L2044.3-0.7z M2059.9-4.4l1.4,5.8l7.8-1.9l-1.4-5.8L2059.9-4.4z M2075.4-8.2l1.4,5.8l7.8-1.9l-1.4-5.8L2075.4-8.2z M2122.1-19.4 l1.4,5.8l7.8-1.9l-1.4-5.8L2122.1-19.4z M2153.2-27l1.4,5.8l7.8-1.9l-1.4-5.8L2153.2-27z M2137.7-23.2l1.4,5.8l7.8-1.9l-1.4-5.8 L2137.7-23.2z M2028.8,3.1l1.4,5.8L2038,7l-1.4-5.8L2028.8,3.1z M1220,198.4l1.4,5.8l7.8-1.9l-1.4-5.8L1220,198.4z M1235.6,194.7 l1.4,5.8l7.8-1.9l-1.4-5.8L1235.6,194.7z M1251.2,190.9l1.4,5.8l7.8-1.9l-1.4-5.8L1251.2,190.9z M1204.5,202.2l1.4,5.8l7.8-1.9 l-1.4-5.8L1204.5,202.2z M1328.9,172.2l1.4,5.8l7.8-1.9l-1.4-5.8L1328.9,172.2z M1282.3,183.4l1.4,5.8l7.8-1.9l-1.4-5.8 L1282.3,183.4z M1297.8,179.7l1.4,5.8l7.8-1.9l-1.4-5.8L1297.8,179.7z M1313.4,175.9l1.4,5.8l7.8-1.9l-1.4-5.8L1313.4,175.9z M1173.4,209.7l1.4,5.8l7.8-1.9l-1.4-5.8L1173.4,209.7z M1266.7,187.2l1.4,5.8l7.8-1.9l-1.4-5.8L1266.7,187.2z M1188.9,206 l1.4,5.8l7.8-1.9l-1.4-5.8L1188.9,206z M1080.1,232.3l1.4,5.8l7.8-1.9l-1.4-5.8L1080.1,232.3z M1095.6,228.5l1.4,5.8l7.8-1.9 l-1.4-5.8L1095.6,228.5z M1126.7,221l1.4,5.8l7.8-1.9l-1.4-5.8L1126.7,221z M1157.8,213.5l1.4,5.8l7.8-1.9l-1.4-5.8L1157.8,213.5 z M1142.3,217.2l1.4,5.8l7.8-1.9l-1.4-5.8L1142.3,217.2z M1111.2,224.7l1.4,5.8l7.8-1.9l-1.4-5.8L1111.2,224.7z M1406.7,153.4 l1.4,5.8l7.8-1.9l-1.4-5.8L1406.7,153.4z M1546.7,119.6l1.4,5.8l7.8-1.9l-1.4-5.8L1546.7,119.6z M1344.5,168.4l1.4,5.8l7.8-1.9 l-1.4-5.8L1344.5,168.4z M1562.2,115.8l1.4,5.8l7.8-1.9l-1.4-5.8L1562.2,115.8z M1515.5,127.1l1.4,5.8l7.8-1.9l-1.4-5.8 L1515.5,127.1z M1531.1,123.3l1.4,5.8l7.8-1.9l-1.4-5.8L1531.1,123.3z M1593.3,108.3l1.4,5.8l7.8-1.9l-1.4-5.8L1593.3,108.3z M1624.4,100.8l1.4,5.8l7.8-1.9l-1.4-5.8L1624.4,100.8z M1500,130.8l1.4,5.8l7.8-1.9l-1.4-5.8L1500,130.8z M1640,97l1.4,5.8 l7.8-1.9l-1.4-5.8L1640,97z M1608.9,104.5l1.4,5.8l7.8-1.9l-1.4-5.8L1608.9,104.5z M1577.8,112l1.4,5.8l7.8-1.9l-1.4-5.8 L1577.8,112z M1655.5,93.3l1.4,5.8l7.8-1.9l-1.4-5.8L1655.5,93.3z M1391.1,157.1l1.4,5.8l7.8-1.9l-1.4-5.8L1391.1,157.1z M1484.4,134.6l1.4,5.8l7.8-1.9l-1.4-5.8L1484.4,134.6z M1360,164.6l1.4,5.8l7.8-1.9l-1.4-5.8L1360,164.6z M1375.6,160.9l1.4,5.8 l7.8-1.9l-1.4-5.8L1375.6,160.9z M1453.3,142.1l1.4,5.8l7.8-1.9l-1.4-5.8L1453.3,142.1z M1468.9,138.3l1.4,5.8l7.8-1.9l-1.4-5.8 L1468.9,138.3z M1437.8,145.9l1.4,5.8l7.8-1.9l-1.4-5.8L1437.8,145.9z M1422.2,149.6l1.4,5.8l7.8-1.9l-1.4-5.8L1422.2,149.6z"></path> </g> </mask> <path d="M123.6,463.3l1.4,5.8l-7.8,1.9l-1.4-5.8L123.6,463.3z M69.1,476.5l1.4,5.8l7.8-1.9l-1.4-5.8L69.1,476.5z M84.7,472.7 l1.4,5.8l7.8-1.9l-1.4-5.8L84.7,472.7z M131.4,461.4l1.4,5.8l7.8-1.9l-1.4-5.8L131.4,461.4z M100.3,468.9l1.4,5.8l7.8-1.9l-1.4-5.8 L100.3,468.9z M146.9,457.7l1.4,5.8l7.8-1.9l-1.4-5.8L146.9,457.7z M178,450.2l1.4,5.8l7.8-1.9l-1.4-5.8L178,450.2z M162.5,453.9 l1.4,5.8l7.8-1.9l-1.4-5.8L162.5,453.9z M193.6,446.4l1.4,5.8l7.8-1.9l-1.4-5.8L193.6,446.4z M0,496.8v2.5l0.6-0.1L0,496.8z M53.6,480.2L55,486l7.8-1.9l-1.4-5.8L53.6,480.2z M38,484l1.4,5.8l7.8-1.9l-1.4-5.8L38,484z M6.9,491.5l1.4,5.8l7.8-1.9l-1.4-5.8 L6.9,491.5z M22.5,487.7l1.4,5.8l7.8-1.9l-1.4-5.8L22.5,487.7z M318,416.3l1.4,5.8l7.8-1.9l-1.4-5.8L318,416.3z M395.8,397.6 l1.4,5.8l7.8-1.9l-1.4-5.8L395.8,397.6z M333.5,412.6l1.4,5.8l7.8-1.9l-1.4-5.8L333.5,412.6z M364.6,405.1l1.4,5.8l7.8-1.9 l-1.4-5.8L364.6,405.1z M209.1,442.6l1.4,5.8l7.8-1.9l-1.4-5.8L209.1,442.6z M380.2,401.3l1.4,5.8l7.8-1.9l-1.4-5.8L380.2,401.3z M442.4,386.3l1.4,5.8l7.8-1.9l-1.4-5.8L442.4,386.3z M411.3,393.8l1.4,5.8l7.8-1.9l-1.4-5.8L411.3,393.8z M426.9,390l1.4,5.8 l7.8-1.9l-1.4-5.8L426.9,390z M349.1,408.8l1.4,5.8l7.8-1.9l-1.4-5.8L349.1,408.8z M240.2,435.1l1.4,5.8l7.8-1.9l-1.4-5.8 L240.2,435.1z M224.7,438.9l1.4,5.8l7.8-1.9l-1.4-5.8L224.7,438.9z M255.8,431.4l1.4,5.8l7.8-1.9l-1.4-5.8L255.8,431.4z M286.9,423.9l1.4,5.8l7.8-1.9l-1.4-5.8L286.9,423.9z M302.4,420.1l1.4,5.8l7.8-1.9l-1.4-5.8L302.4,420.1z M271.3,427.6l1.4,5.8 l7.8-1.9l-1.4-5.8L271.3,427.6z M1220,198.4l1.4,5.8l7.8-1.9l-1.4-5.8L1220,198.4z M1235.6,194.7l1.4,5.8l7.8-1.9l-1.4-5.8 L1235.6,194.7z M1251.2,190.9l1.4,5.8l7.8-1.9l-1.4-5.8L1251.2,190.9z M1204.5,202.2l1.4,5.8l7.8-1.9l-1.4-5.8L1204.5,202.2z M1328.9,172.2l1.4,5.8l7.8-1.9l-1.4-5.8L1328.9,172.2z M1282.3,183.4l1.4,5.8l7.8-1.9l-1.4-5.8L1282.3,183.4z M1297.8,179.7 l1.4,5.8l7.8-1.9l-1.4-5.8L1297.8,179.7z M1313.4,175.9l1.4,5.8l7.8-1.9l-1.4-5.8L1313.4,175.9z M1173.4,209.7l1.4,5.8l7.8-1.9 l-1.4-5.8L1173.4,209.7z M1266.7,187.2l1.4,5.8l7.8-1.9l-1.4-5.8L1266.7,187.2z M1188.9,206l1.4,5.8l7.8-1.9l-1.4-5.8L1188.9,206z M1080.1,232.3l1.4,5.8l7.8-1.9l-1.4-5.8L1080.1,232.3z M1095.6,228.5l1.4,5.8l7.8-1.9l-1.4-5.8L1095.6,228.5z M1126.7,221l1.4,5.8 l7.8-1.9l-1.4-5.8L1126.7,221z M1157.8,213.5l1.4,5.8l7.8-1.9l-1.4-5.8L1157.8,213.5z M1142.3,217.2l1.4,5.8l7.8-1.9l-1.4-5.8 L1142.3,217.2z M1111.2,224.7l1.4,5.8l7.8-1.9l-1.4-5.8L1111.2,224.7z M1406.7,153.4l1.4,5.8l7.8-1.9l-1.4-5.8L1406.7,153.4z M1546.7,119.6l1.4,5.8l7.8-1.9l-1.4-5.8L1546.7,119.6z M1344.5,168.4l1.4,5.8l7.8-1.9l-1.4-5.8L1344.5,168.4z M1562.2,115.8 l1.4,5.8l7.8-1.9l-1.4-5.8L1562.2,115.8z M1515.5,127.1l1.4,5.8l7.8-1.9l-1.4-5.8L1515.5,127.1z M1531.1,123.3l1.4,5.8l7.8-1.9 l-1.4-5.8L1531.1,123.3z M1593.3,108.3l1.4,5.8l7.8-1.9l-1.4-5.8L1593.3,108.3z M1500,130.8l1.4,5.8l7.8-1.9l-1.4-5.8L1500,130.8z M1577.8,112l1.4,5.8l7.8-1.9l-1.4-5.8L1577.8,112z M1391.1,157.1l1.4,5.8l7.8-1.9l-1.4-5.8L1391.1,157.1z M1484.4,134.6l1.4,5.8 l7.8-1.9l-1.4-5.8L1484.4,134.6z M1360,164.6l1.4,5.8l7.8-1.9l-1.4-5.8L1360,164.6z M1375.6,160.9l1.4,5.8l7.8-1.9l-1.4-5.8 L1375.6,160.9z M1453.3,142.1l1.4,5.8l7.8-1.9l-1.4-5.8L1453.3,142.1z M1468.9,138.3l1.4,5.8l7.8-1.9l-1.4-5.8L1468.9,138.3z M1437.8,145.9l1.4,5.8l7.8-1.9l-1.4-5.8L1437.8,145.9z M1422.2,149.6l1.4,5.8l7.8-1.9l-1.4-5.8L1422.2,149.6z"></path> <g class="st3"> <g> <path d="M762.5,608.3C762.5,608.3,762.5,608.3,762.5,608.3c-29.6,0-58.8-4.3-86.9-12.6c-0.3-0.1-0.4-0.4-0.3-0.6 c0.1-0.3,0.4-0.4,0.6-0.3c28,8.4,57.1,12.6,86.6,12.6c0,0,0,0,0,0c6.7,0,13.5-0.2,20.1-0.7c0.3,0,0.5,0.2,0.5,0.5 c0,0.3-0.2,0.5-0.5,0.5C776,608.1,769.2,608.3,762.5,608.3z M812.4,604.2c-0.2,0-0.5-0.2-0.5-0.4c0-0.3,0.1-0.5,0.4-0.6 c28.9-4.8,57-13.8,83.3-26.8c0.2-0.1,0.5,0,0.7,0.2c0.1,0.2,0,0.5-0.2,0.7C869.7,590.3,841.5,599.4,812.4,604.2 C812.5,604.2,812.4,604.2,812.4,604.2z M647.5,585.7c-0.1,0-0.1,0-0.2,0c-27.2-11.2-52.6-26.2-75.6-44.8 c-0.2-0.2-0.2-0.5-0.1-0.7c0.2-0.2,0.5-0.2,0.7-0.1c22.9,18.5,48.2,33.5,75.3,44.6c0.3,0.1,0.4,0.4,0.3,0.7 C647.8,585.6,647.7,585.7,647.5,585.7z M922.1,562.9c-0.2,0-0.3-0.1-0.4-0.2c-0.1-0.2-0.1-0.5,0.2-0.7 c24.9-15.5,47.4-34.4,67-56.4c0.2-0.2,0.5-0.2,0.7,0c0.2,0.2,0.2,0.5,0,0.7c-19.6,22-42.2,41-67.2,56.5 C922.3,562.8,922.2,562.9,922.1,562.9z M549.6,521c-0.1,0-0.3,0-0.4-0.1c-21-20.7-38.9-44.2-53.1-69.9c-0.1-0.2,0-0.5,0.2-0.7 c0.2-0.1,0.5,0,0.7,0.2c14.2,25.6,32,49.1,53,69.7c0.2,0.2,0.2,0.5,0,0.7C549.9,521,549.8,521,549.6,521z M1008,483.1 c-0.1,0-0.2,0-0.3-0.1c-0.2-0.2-0.3-0.5-0.1-0.7c17.3-23.8,31.1-49.8,40.8-77.4c0.1-0.3,0.4-0.4,0.6-0.3c0.3,0.1,0.4,0.4,0.3,0.6 c-9.8,27.7-23.6,53.8-40.9,77.7C1008.3,483,1008.2,483.1,1008,483.1z M483.4,424.3c-0.2,0-0.4-0.1-0.5-0.3 c-11.6-27-19.2-55.6-22.6-84.8c0-0.3,0.2-0.5,0.4-0.6c0.3,0,0.5,0.2,0.6,0.4c3.4,29.2,10.9,57.6,22.5,84.6c0.1,0.3,0,0.5-0.3,0.7 C483.5,424.3,483.5,424.3,483.4,424.3z M1057.5,376.8c0,0-0.1,0-0.1,0c-0.3-0.1-0.4-0.3-0.4-0.6c5.7-23.4,8.6-47.7,8.6-72 c0-5-0.1-10.1-0.4-15.1c0-0.3,0.2-0.5,0.5-0.5c0.3,0,0.5,0.2,0.5,0.5c0.2,5,0.4,10.1,0.4,15.2c0,24.4-2.9,48.7-8.7,72.3 C1057.9,376.6,1057.7,376.8,1057.5,376.8z M458.9,309.7c-0.3,0-0.5-0.2-0.5-0.5c0-1.7,0-3.4,0-5.1c0-27.8,3.8-55.4,11.2-82 c0.1-0.3,0.4-0.4,0.6-0.3c0.3,0.1,0.4,0.4,0.3,0.6c-7.4,26.5-11.2,54-11.2,81.8c0,1.7,0,3.4,0,5 C459.4,309.5,459.1,309.7,458.9,309.7C458.9,309.7,458.9,309.7,458.9,309.7z M1062.8,259.7c-0.2,0-0.5-0.2-0.5-0.4 c-4.3-29-12.9-57.2-25.4-83.8c-0.1-0.2,0-0.5,0.2-0.7c0.2-0.1,0.5,0,0.7,0.2c12.5,26.6,21.1,54.9,25.4,84 C1063.3,259.4,1063.1,259.6,1062.8,259.7C1062.8,259.7,1062.8,259.7,1062.8,259.7z M479.6,194.3c-0.1,0-0.1,0-0.2,0 c-0.3-0.1-0.4-0.4-0.3-0.6c10.7-27.4,25.3-53,43.5-76.3c0.2-0.2,0.5-0.3,0.7-0.1c0.2,0.2,0.3,0.5,0.1,0.7 c-18.1,23.2-32.7,48.8-43.4,76C479.9,194.2,479.8,194.3,479.6,194.3z M1023.3,149.3c-0.2,0-0.3-0.1-0.4-0.2 c-15-25.2-33.6-48-55.2-67.9c-0.2-0.2-0.2-0.5,0-0.7c0.2-0.2,0.5-0.2,0.7,0c21.7,20,40.3,42.9,55.4,68.1c0.1,0.2,0.1,0.5-0.2,0.7 C1023.5,149.3,1023.4,149.3,1023.3,149.3z M542.6,95.5c-0.1,0-0.2,0-0.3-0.1c-0.2-0.2-0.2-0.5,0-0.7c20.3-21.4,43.6-39.6,69-54.3 c0.2-0.1,0.5-0.1,0.7,0.2c0.1,0.2,0.1,0.5-0.2,0.7c-25.4,14.6-48.6,32.8-68.8,54.1C542.8,95.4,542.7,95.5,542.6,95.5z M945,62.1 c-0.1,0-0.2,0-0.3-0.1c-23.5-17.7-49.3-31.9-76.7-42.1c-0.3-0.1-0.4-0.4-0.3-0.6c0.1-0.3,0.4-0.4,0.6-0.3 c27.5,10.2,53.4,24.5,77,42.2c0.2,0.2,0.3,0.5,0.1,0.7C945.3,62,945.1,62.1,945,62.1z M638.2,27.6c-0.2,0-0.4-0.1-0.5-0.3 c-0.1-0.3,0-0.5,0.3-0.7c26.8-12.1,55.3-20.2,84.5-24c0.3,0,0.5,0.2,0.6,0.4c0,0.3-0.2,0.5-0.4,0.6c-29.1,3.8-57.4,11.9-84.2,24 C638.3,27.6,638.3,27.6,638.2,27.6z M839.5,10.9c0,0-0.1,0-0.1,0c-25-6.6-50.9-9.9-76.9-9.9c-3.4,0-6.7,0.1-10.1,0.2 c-0.3,0-0.5-0.2-0.5-0.5c0-0.3,0.2-0.5,0.5-0.5c3.3-0.1,6.7-0.2,10.1-0.2c26.1,0,52.1,3.3,77.2,9.9c0.3,0.1,0.4,0.3,0.4,0.6 C839.9,10.7,839.7,10.9,839.5,10.9z"></path> </g> <g> <path d="M762.6,550.5c-12.9,0-26-1-38.8-3.1c-0.2,0-0.4-0.2-0.4-0.5c0,0,0-0.1,0-0.1c0-0.3,0.3-0.5,0.6-0.4 c12.8,2,25.8,3.1,38.6,3.1c23.3,0,46.5-3.4,69-10c5.9-1.7,11.8-3.7,17.5-5.9c0.2-0.1,0.6,0,0.6,0.3c0,0.1,0,0.1,0,0.2 c0,0.2-0.1,0.4-0.3,0.5c-5.8,2.2-11.7,4.1-17.6,5.9C809.3,547.1,786,550.5,762.6,550.5z M623.5,507.3L623.5,507.3 c-0.1,0-0.2,0-0.3-0.1c-14.9-10.2-28.7-22.1-41-35.2c-12.5-13.4-23.5-28.2-32.7-44.1c0-0.1-0.1-0.2-0.1-0.3 c0-0.2,0.1-0.3,0.2-0.4c0.2-0.1,0.5-0.1,0.7,0.2c18.1,31.2,43.5,58.5,73.4,79l0.1,0c0.1,0.1,0.2,0.2,0.2,0.4c0,0.1,0,0.2-0.1,0.3 C623.8,507.2,623.7,507.3,623.5,507.3z M939.5,475.1c-0.1,0-0.2,0-0.3-0.1c-0.1-0.1-0.1-0.2-0.2-0.4c0-0.1,0-0.3,0.1-0.4 c25-26.1,44.3-58,55.9-92.3c0.1-0.2,0.4-0.4,0.6-0.3c0.2,0.1,0.3,0.2,0.3,0.5c0,0.1,0,0.1,0,0.2c-5.8,17.2-13.5,33.8-22.9,49.4 c-9.4,15.6-20.6,30.2-33.2,43.3C939.8,475,939.7,475.1,939.5,475.1z M517.5,325c-0.3,0-0.5-0.2-0.5-0.5 c-0.6-6.7-0.9-13.5-0.9-20.3c0-14.9,1.4-29.8,4.1-44.5c2.7-14.4,6.7-28.7,11.9-42.5c0.1-0.2,0.4-0.4,0.6-0.3 c0.2,0.1,0.3,0.3,0.3,0.5c0,0.1,0,0.1,0,0.2c-10.5,27.9-15.9,57-15.9,86.6c0,6.7,0.3,13.5,0.8,20.2c0,0,0,0,0,0.1 C518,324.8,517.8,325,517.5,325C517.5,325,517.5,325,517.5,325z M1006.5,275.1c-0.2,0-0.5-0.2-0.5-0.4 c-1.6-13.3-4.4-26.7-8.2-39.6c-6.5-22-15.9-42.8-28-62c0-0.1-0.1-0.2-0.1-0.3c0-0.2,0.1-0.3,0.2-0.4c0.2-0.1,0.4-0.1,0.6,0v0 l0.1,0.2c12.2,19.2,21.6,40.2,28.1,62.2c3.8,13,6.6,26.4,8.2,39.8c0,0,0,0,0,0.1C1007,274.8,1006.8,275.1,1006.5,275.1 C1006.6,275.1,1006.5,275.1,1006.5,275.1z M592,127.6c-0.1,0-0.3,0-0.4-0.1c-0.1-0.1-0.1-0.2-0.1-0.4c0-0.1,0-0.3,0.1-0.4 c12.9-12.5,27.2-23.5,42.5-32.9c15.7-9.6,32.6-17.4,50.1-23.3c0.2-0.1,0.5,0.1,0.6,0.3c0,0,0,0.1,0,0.1c0,0.2-0.1,0.4-0.3,0.5 c-34.9,11.7-65.9,30.5-92.2,56l-0.1,0.1v0C592.1,127.6,592,127.6,592,127.6z M893.7,96.9c-0.1,0-0.2,0-0.3-0.1 C862.8,77.5,827.7,65,791.8,60.6c-0.3,0-0.4-0.2-0.4-0.5c0,0,0,0,0,0c0-0.3,0.3-0.5,0.6-0.4c18.1,2.2,36,6.5,53.2,12.6 c17.1,6.1,33.5,14.1,48.8,23.8c0.1,0.1,0.2,0.2,0.2,0.4c0,0.1,0,0.2-0.1,0.3C894.1,96.9,893.9,96.9,893.7,96.9z"></path> </g> <g> <path d="M762.5,581.3c-14.4,0-28.8-1.1-42.8-3.3c-1.1-0.2-1.8-1.2-1.7-2.3c0.2-1.1,1.2-1.8,2.3-1.7c17.8,2.8,36.2,3.8,54.4,3 c16.5-0.7,33.1-3,49.1-6.6l0.1,0v0c1.1-0.2,2.1,0.5,2.3,1.5c0.1,0.5,0,1.1-0.3,1.5c-0.3,0.5-0.7,0.8-1.2,0.9 c-16.3,3.7-33,6-49.8,6.7C770.8,581.2,766.6,581.3,762.5,581.3z M671.5,565.9c-0.2,0-0.5,0-0.7-0.1c-0.5-0.2-0.9-0.5-1.1-1 c-0.2-0.5-0.3-1-0.1-1.5c0.3-1,1.4-1.5,2.4-1.3l0,0l0.2,0.1c0.5,0.2,0.9,0.5,1.1,1c0.2,0.5,0.3,1,0.1,1.5 C673.1,565.3,672.4,565.9,671.5,565.9z M876.2,556.7c-0.8,0-1.5-0.5-1.8-1.2c-0.2-0.5-0.2-1-0.1-1.5c0.2-0.5,0.5-0.9,1-1.1l0,0 c1-0.5,2.2,0,2.7,1c0.5,1,0,2.2-1,2.6l0,0l0,0C876.8,556.7,876.5,556.7,876.2,556.7z M621.8,542.6c-0.4,0-0.7-0.1-1-0.3 c-14.4-8.6-28.1-18.5-40.7-29.6c-13.9-12.1-26.6-25.7-37.8-40.3c-0.7-0.9-0.5-2.1,0.4-2.8c0.9-0.6,2.1-0.5,2.8,0.4 c11.1,14.4,23.6,27.8,37.3,39.8c12.4,10.9,25.9,20.7,40.1,29.1c0.5,0.3,0.8,0.7,0.9,1.2c0.1,0.5,0.1,1.1-0.2,1.5 C623.2,542.3,622.5,542.6,621.8,542.6z M919.6,532c-0.7,0-1.3-0.3-1.6-0.9c-0.3-0.4-0.4-1-0.3-1.5c0.1-0.5,0.4-1,0.8-1.3 c14.9-10.4,28.8-22.3,41.4-35.4c11.4-11.9,21.8-25,30.9-38.8c0.6-0.9,1.9-1.2,2.8-0.6c0.9,0.6,1.2,1.9,0.6,2.8 c-9.2,14-19.7,27.2-31.3,39.3c-12.8,13.3-26.9,25.4-42,36C920.4,531.9,920,532,919.6,532z M517.3,431c-0.8,0-1.4-0.4-1.8-1.1 c-0.2-0.5-0.3-1-0.1-1.5c0.2-0.5,0.5-0.9,1-1.2c1-0.5,2.2-0.1,2.7,0.9c0.5,1,0.1,2.2-0.9,2.7C517.9,430.9,517.6,431,517.3,431z M1017.9,408.6c-0.2,0-0.5,0-0.7-0.1c-1-0.4-1.5-1.6-1.1-2.6c0.4-1,1.6-1.5,2.6-1.1c1,0.4,1.5,1.6,1.1,2.6 C1019.4,408.1,1018.7,408.6,1017.9,408.6z M497.3,379.9c-0.9,0-1.7-0.6-1.9-1.5c-4.5-16.1-7.5-32.8-9-49.5 c-0.7-8.2-1.1-16.5-1.1-24.8c0-10.2,0.6-20.4,1.7-30.5c0.1-1.1,1.1-1.9,2.2-1.8c1.1,0.1,1.9,1.1,1.8,2.2 c-1.1,9.9-1.6,20-1.6,30.1c0,8.2,0.4,16.4,1.1,24.4c1.5,16.5,4.4,32.9,8.8,48.8c0.3,1.1-0.3,2.2-1.4,2.5 C497.7,379.8,497.5,379.9,497.3,379.9z M1032.2,360.8c-0.1,0-0.3,0-0.4,0c-1.1-0.2-1.8-1.3-1.6-2.4c3.6-17.7,5.4-36,5.4-54.2 c0-16.3-1.5-32.7-4.3-48.7c-2.9-16.3-7.4-32.3-13.2-47.8l0-0.1l0,0c-0.2-0.5-0.1-1,0.1-1.5c0.2-0.5,0.6-0.9,1.1-1 c1-0.4,2.2,0.2,2.6,1.2c5.9,15.7,10.4,32,13.4,48.5l0,0c2.9,16.2,4.4,32.8,4.4,49.3c0,18.5-1.8,37-5.5,55 C1033.9,360.1,1033.1,360.8,1032.2,360.8z M498.9,227c-0.2,0-0.4,0-0.6-0.1c-0.5-0.1-0.9-0.5-1.2-1c-0.2-0.5-0.3-1-0.1-1.5l0,0 c0.3-1,1.5-1.6,2.5-1.3c1,0.3,1.7,1.4,1.3,2.5C500.6,226.4,499.8,227,498.9,227z M519.9,176.2c-0.3,0-0.6-0.1-0.9-0.2 c-1-0.5-1.3-1.7-0.8-2.7c7.9-14.7,17.2-28.9,27.7-42c11.5-14.4,24.5-27.7,38.6-39.6c0.8-0.7,2.1-0.6,2.8,0.2 c0.7,0.9,0.6,2.1-0.2,2.8c-13.9,11.7-26.7,24.8-38.1,39c-10.3,12.9-19.5,26.8-27.3,41.4C521.3,175.8,520.6,176.2,519.9,176.2z M995.5,159.9c-0.7,0-1.3-0.3-1.7-0.9c-0.6-0.9-0.3-2.2,0.6-2.8c0.9-0.6,2.1-0.3,2.7,0.6l0,0l0,0c0.6,0.9,0.3,2.2-0.6,2.8 C996.3,159.8,995.9,159.9,995.5,159.9z M965.2,120.2c-0.6,0-1.1-0.2-1.5-0.7c-12.3-13.4-26-25.6-40.7-36.3 c-13.4-9.7-27.7-18.3-42.5-25.4c-0.5-0.2-0.9-0.6-1-1.1c-0.2-0.5-0.1-1.1,0.1-1.5c0.5-1,1.7-1.4,2.7-0.9 c15.1,7.2,29.6,15.9,43.2,25.8c14.9,10.8,28.8,23.2,41.2,36.8c0.8,0.8,0.7,2.1-0.1,2.8C966.2,120,965.7,120.2,965.2,120.2z M626.8,66.8c-0.7,0-1.4-0.4-1.7-1c-0.3-0.5-0.3-1-0.2-1.5c0.1-0.5,0.5-1,0.9-1.2c0.9-0.5,2.2-0.2,2.7,0.8c0.6,1,0.2,2.2-0.8,2.7 C627.4,66.7,627.1,66.8,626.8,66.8z M677,44.6c-0.9,0-1.6-0.6-1.9-1.4c-0.4-1.1,0.2-2.2,1.3-2.5c15.9-5.2,32.4-9,49-11.2 c12.2-1.6,24.7-2.5,37.1-2.5c6,0,12.1,0.2,18.1,0.6c1.1,0.1,1.9,1,1.9,2.1c-0.1,1.1-1,1.9-2.1,1.9c-5.9-0.4-11.9-0.6-17.9-0.6 c-12.2,0-24.5,0.8-36.6,2.4c-16.4,2.2-32.6,5.9-48.3,11C677.4,44.5,677.2,44.6,677,44.6z M829.8,39.3c-0.2,0-0.3,0-0.5-0.1 c-1.1-0.3-1.7-1.4-1.5-2.4c0.3-1,1.4-1.7,2.4-1.5c1.1,0.3,1.7,1.4,1.5,2.4C831.5,38.7,830.7,39.3,829.8,39.3z"></path> </g> </g></g></svg>