<svg xmlns="http://www.w3.org/2000/svg" viewBox="0 0 130 101"><path d="M39.314 36.7727L39.5655 35.9859L43.8567 22.3157C43.8825 22.2348 43.918 22.0243 43.918 21.8678L43.9771 19.9867C43.7739 19.8701 40.4771 20.141 40.3384 20.2867L27.4917 33.7097L39.3151 36.7716L39.314 36.7727Z" fill="white"></path><path d="M39.3141 37.0425C39.2915 37.0425 39.2689 37.0393 39.2474 37.0339L27.424 33.9719C27.3316 33.9482 27.2585 33.877 27.2327 33.7841C27.2069 33.6913 27.2316 33.5931 27.2972 33.523L40.1439 20.0989C40.2138 20.0266 40.3181 19.9165 42.1111 19.7686C43.8847 19.6229 44.0428 19.7125 44.1094 19.7514C44.1954 19.801 44.2481 19.8938 44.2448 19.9942L44.1857 21.8754C44.1857 22.0448 44.1481 22.2844 44.1126 22.3967L39.8225 36.0657L39.5699 36.8536C39.5333 36.9669 39.428 37.0414 39.3141 37.0414V37.0425ZM28.0024 33.564L39.1356 36.4478L39.3098 35.9039L43.5999 22.2359C43.6171 22.183 43.6482 21.9995 43.6482 21.8689L43.6988 20.2263C43.0033 20.2176 40.8695 20.3979 40.4965 20.509L28.0024 33.564Z"></path><path d="M104.781 51.2436L107.515 52.814L109.012 53.6742L112.499 55.6773L109.269 60.7132C108.941 60.9042 108.522 61.0143 108.072 61.0499L109.299 61.7353L108.712 63.0272C108.712 63.0272 107.226 62.9657 106.045 62.3095C105.35 61.9231 103.329 60.6916 101.785 59.744C100.71 59.0846 99.8634 58.5611 99.8634 58.5611C99.8634 58.5611 99.3754 58.0226 98.7584 57.3307C97.864 56.3281 96.6945 54.9984 96.3247 54.4922L104.78 51.2436H104.781Z" fill="white"></path><path d="M108.713 63.297C108.713 63.297 108.705 63.297 108.702 63.297C108.638 63.2948 107.138 63.2258 105.917 62.5458C105.222 62.1594 103.211 60.9345 101.646 59.9739C100.571 59.3145 99.7239 58.791 99.7239 58.791C99.7024 58.7781 99.683 58.7619 99.6658 58.7424C99.6658 58.7424 99.1778 58.2039 98.5597 57.511C97.6482 56.4889 96.4829 55.1636 96.1099 54.652C96.0605 54.584 96.0454 54.4966 96.0691 54.4167C96.0927 54.3358 96.1529 54.271 96.2303 54.2408L104.686 50.9922C104.761 50.963 104.845 50.9695 104.915 51.0105L112.633 55.4431C112.697 55.4798 112.743 55.5413 112.761 55.6136C112.778 55.6859 112.765 55.7615 112.725 55.8241L109.496 60.86C109.474 60.8956 109.441 60.9258 109.405 60.9474C109.243 61.0413 109.059 61.1201 108.858 61.1805L109.431 61.5011C109.553 61.5691 109.603 61.7213 109.545 61.8486L108.958 63.1405C108.914 63.2366 108.818 63.2981 108.714 63.2981L108.713 63.297ZM100.038 58.3517C100.202 58.4532 100.974 58.9302 101.926 59.5141C103.487 60.4715 105.491 61.6932 106.177 62.0742C107.055 62.5631 108.129 62.7056 108.546 62.7444L108.952 61.8497L107.942 61.2852C107.839 61.2269 107.785 61.1082 107.81 60.9917C107.834 60.8751 107.933 60.7898 108.052 60.7801C108.452 60.7488 108.806 60.6549 109.081 60.5092L112.121 55.769L104.759 51.5404L96.7613 54.6131C97.158 55.1064 97.9072 55.9709 98.9596 57.1505C99.4928 57.7484 99.9303 58.232 100.038 58.3507V58.3517Z"></path><path d="M39.3141 34.7728L39.5656 33.986L43.9686 20.0773C43.9944 19.9964 43.9493 19.9133 43.8482 19.855L41.02 18.2307C40.8169 18.1141 40.4761 18.1422 40.3374 18.2868L27.4907 31.7098L39.3141 34.7717V34.7728Z" fill="white"></path><path d="M39.3141 35.0426C39.2915 35.0426 39.2689 35.0393 39.2474 35.034L27.424 31.972C27.3316 31.9483 27.2585 31.8771 27.2327 31.7842C27.2069 31.6914 27.2316 31.5932 27.2972 31.5231L40.1439 18.099C40.3686 17.8637 40.8405 17.8162 41.1533 17.9954L43.9815 19.6197C44.1943 19.7417 44.2889 19.9532 44.2244 20.1572L39.8214 34.0658L39.5688 34.8537C39.5323 34.967 39.4269 35.0415 39.313 35.0415L39.3141 35.0426ZM28.0024 31.5652L39.1356 34.449L39.3098 33.905L43.688 20.0752L40.8867 18.466C40.776 18.4023 40.5728 18.4314 40.5309 18.4746L28.0024 31.5652Z"></path><path d="M113.364 57.5704C113.364 59.4483 112.046 61.7321 110.419 62.671C108.794 63.61 107.475 62.8491 107.475 60.9712C107.475 59.0932 108.793 56.8095 110.419 55.8705C112.045 54.9315 113.364 55.6924 113.364 57.5704Z"></path><path d="M109.105 63.2916C108.787 63.2916 108.491 63.2161 108.228 63.0639C107.604 62.7023 107.261 61.9587 107.261 60.9722C107.261 59.0285 108.631 56.6562 110.313 55.6838C111.17 55.1884 111.987 55.1161 112.612 55.4798C113.236 55.8414 113.579 56.585 113.579 57.5714C113.579 59.5152 112.209 61.8875 110.527 62.8599C110.029 63.147 109.545 63.2927 109.105 63.2927V63.2916ZM111.734 55.6827C111.369 55.6827 110.958 55.8079 110.527 56.0572C108.963 56.9606 107.691 59.1644 107.691 60.9712C107.691 61.7979 107.958 62.4077 108.444 62.6894C108.931 62.9721 109.595 62.8998 110.313 62.4843C111.877 61.5809 113.149 59.3771 113.149 57.5704C113.149 56.7436 112.882 56.1338 112.396 55.8521C112.201 55.7388 111.977 55.6827 111.733 55.6827H111.734Z"></path><path d="M111.845 58.4478C111.845 59.3565 111.208 60.4617 110.421 60.9172C109.634 61.3716 108.997 61.0035 108.997 60.0948C108.997 59.186 109.634 58.0808 110.421 57.6254C111.208 57.171 111.845 57.539 111.845 58.4478Z" fill="white"></path><path d="M109.783 61.3824C109.6 61.3824 109.43 61.3381 109.277 61.2496C108.922 61.0435 108.727 60.6333 108.727 60.0937C108.727 59.0835 109.411 57.8963 110.286 57.3912C110.754 57.1214 111.209 57.0857 111.563 57.293C111.918 57.4991 112.114 57.9092 112.114 58.4489C112.114 59.4591 111.429 60.6463 110.554 61.1514C110.287 61.3057 110.025 61.3834 109.783 61.3834V61.3824ZM111.057 57.7009C110.909 57.7009 110.736 57.7549 110.554 57.8585C109.855 58.2622 109.264 59.2864 109.264 60.0937C109.264 60.4272 109.367 60.6787 109.546 60.7823C109.726 60.887 109.996 60.8503 110.286 60.683C110.986 60.2793 111.576 59.2551 111.576 58.4478C111.576 58.1143 111.473 57.8628 111.295 57.7592C111.227 57.7193 111.146 57.7009 111.057 57.7009Z"></path><path d="M107.721 41.6391C107.721 41.6391 107.254 41.1243 106.663 40.4616C105.806 39.5022 104.688 38.2297 104.334 37.7451L112.426 34.6368L115.042 36.1391L116.475 36.9626L119.812 38.8794L116.721 43.6984C116.407 43.8808 116.005 43.9866 115.575 44.0211L116.75 44.6773L116.188 45.9142C116.188 45.9142 114.765 45.8559 113.636 45.2277C112.971 44.8575 111.037 43.679 109.559 42.7724C108.53 42.141 107.719 41.6402 107.719 41.6402L107.721 41.6391Z" fill="white"></path><path d="M116.189 46.1829C116.189 46.1829 116.181 46.1829 116.178 46.1829C116.118 46.1807 114.679 46.1138 113.507 45.463C112.844 45.0939 110.918 43.9207 109.42 43.0023C108.391 42.3709 107.581 41.8701 107.581 41.8701C107.559 41.8571 107.54 41.841 107.523 41.8215C107.523 41.8215 107.055 41.3056 106.464 40.643C105.591 39.664 104.475 38.3948 104.118 37.9059C104.069 37.8379 104.054 37.7505 104.077 37.6706C104.101 37.5897 104.161 37.5249 104.239 37.4947L112.33 34.3864C112.405 34.3572 112.489 34.3637 112.559 34.4047L119.945 38.6474C120.009 38.6841 120.054 38.7456 120.073 38.8179C120.09 38.8902 120.077 38.9658 120.037 39.0284L116.947 43.8473C116.924 43.8829 116.892 43.9132 116.855 43.9348C116.707 44.0211 116.538 44.0934 116.355 44.1506L116.88 44.4442C117.003 44.5122 117.052 44.6643 116.994 44.7917L116.432 46.0286C116.388 46.1246 116.292 46.1861 116.188 46.1861L116.189 46.1829ZM107.893 41.4297C108.054 41.529 108.791 41.9845 109.699 42.5414C111.194 43.4577 113.111 44.6266 113.767 44.9914C114.598 45.4533 115.617 45.5925 116.022 45.6303L116.403 44.7917L115.445 44.2564C115.342 44.1981 115.288 44.0794 115.313 43.9628C115.337 43.8462 115.436 43.761 115.555 43.7513C115.935 43.7211 116.272 43.6326 116.533 43.4944L119.433 38.9712L112.403 34.9336L104.77 37.866C105.151 38.3387 105.864 39.1611 106.863 40.2814C107.371 40.8523 107.788 41.3132 107.893 41.4287V41.4297Z"></path><path d="M120.639 40.6904C120.639 42.4874 119.378 44.673 117.822 45.572C116.266 46.4711 115.004 45.7425 115.004 43.9445C115.004 42.1464 116.265 39.9619 117.822 39.0629C119.377 38.1639 120.639 38.8924 120.639 40.6904Z"></path><path d="M116.564 46.1743C116.258 46.1743 115.973 46.1019 115.72 45.9552C115.121 45.6066 114.791 44.8932 114.791 43.9456C114.791 42.0827 116.103 39.8087 117.715 38.8773C118.539 38.4013 119.324 38.3322 119.924 38.6819C120.524 39.0305 120.854 39.7439 120.854 40.6915C120.854 42.5544 119.542 44.8284 117.929 45.7598C117.452 46.0361 116.987 46.1753 116.563 46.1753L116.564 46.1743ZM119.08 38.8935C118.731 38.8935 118.34 39.0133 117.929 39.2507C116.435 40.1141 115.221 42.2198 115.221 43.9456C115.221 44.7323 115.474 45.3141 115.935 45.5817C116.399 45.8505 117.031 45.7814 117.715 45.3853C119.21 44.5219 120.424 42.4162 120.424 40.6905C120.424 39.9037 120.171 39.3219 119.709 39.0543C119.525 38.9463 119.312 38.8935 119.08 38.8935Z"></path><path d="M119.186 41.5301C119.186 42.4 118.575 43.4577 117.823 43.8927C117.069 44.3276 116.459 43.9747 116.459 43.1048C116.459 42.2349 117.07 41.1772 117.823 40.7422C118.575 40.3073 119.186 40.6602 119.186 41.5301Z" fill="white"></path><path d="M117.213 44.3503C117.037 44.3503 116.871 44.3071 116.723 44.2218C116.38 44.0222 116.191 43.6261 116.191 43.1059C116.191 42.1356 116.849 40.9948 117.689 40.5091C118.141 40.2479 118.579 40.2145 118.923 40.4141C119.266 40.6138 119.456 41.0099 119.456 41.5301C119.456 42.5004 118.798 43.6412 117.957 44.1269C117.7 44.2758 117.448 44.3503 117.213 44.3503ZM118.431 40.8275C118.291 40.8275 118.128 40.8782 117.956 40.9775C117.29 41.3628 116.727 42.3374 116.727 43.1059C116.727 43.421 116.823 43.6574 116.992 43.7545C117.161 43.8527 117.414 43.8182 117.688 43.6595C118.355 43.2742 118.917 42.2996 118.917 41.5312C118.917 41.216 118.821 40.9797 118.653 40.8826C118.589 40.8459 118.514 40.8275 118.431 40.8275Z"></path><path d="M98.9252 29.0278L99.2294 28.8508C99.5874 28.6425 100.215 28.6673 100.631 28.9069L102.211 29.8146C102.628 30.0542 102.675 30.4168 102.316 30.6251L102.011 30.8021C101.653 31.0104 101.026 30.9856 100.61 30.746L99.0295 29.8383C98.6124 29.5987 98.5662 29.2361 98.9252 29.0278Z" fill="white"></path><path d="M101.4 31.2122C101.078 31.2122 100.744 31.1345 100.476 30.9813L98.8961 30.0736C98.5908 29.8987 98.4156 29.6462 98.4146 29.3807C98.4146 29.1476 98.5511 28.9339 98.7897 28.7946L99.0939 28.6176C99.5325 28.3629 100.267 28.3867 100.764 28.6727L102.345 29.5804C102.65 29.7552 102.825 30.0077 102.826 30.2733C102.826 30.5064 102.69 30.7201 102.451 30.8593L102.147 31.0363C101.944 31.1539 101.677 31.2122 101.4 31.2122ZM99.8367 28.9803C99.655 28.9803 99.4852 29.0148 99.3637 29.085L99.0595 29.262C98.9929 29.3008 98.952 29.3451 98.952 29.3796C98.952 29.4303 99.0187 29.5221 99.1627 29.6052L100.743 30.5129C101.073 30.7028 101.603 30.7287 101.877 30.569L102.181 30.392C102.248 30.3531 102.289 30.3089 102.289 30.2743C102.289 30.2236 102.222 30.1319 102.078 30.0488L100.498 29.1411C100.313 29.0353 100.067 28.9803 99.8367 28.9803Z"></path><path d="M90.162 46.4322L113.941 19.5614C114.314 19.1405 115.288 19.0509 115.868 19.3844L116.84 19.9424L116.908 19.9813L117.4 19.474L120.639 19.3067V22.3427H120.628C120.645 22.4355 120.642 22.5294 120.592 22.6212C112.168 38.3355 96.6762 69.5773 96.6762 69.5773L91.2929 66.4852L72.5845 55.7399L90.162 46.4322Z"></path><path d="M96.6764 69.7932C96.6398 69.7932 96.6022 69.7835 96.57 69.7651L72.4782 55.9277C72.4105 55.8888 72.3686 55.8155 72.3696 55.7367C72.3707 55.6579 72.4148 55.5866 72.4847 55.5489L90.0278 46.2595L113.781 19.4179C114.22 18.9225 115.307 18.8124 115.976 19.1966L116.87 19.7104L117.247 19.3229C117.284 19.2841 117.336 19.2603 117.39 19.2581L120.628 19.0909C120.686 19.0865 120.744 19.1092 120.787 19.1502C120.83 19.1912 120.854 19.2474 120.854 19.3067V22.3427C120.854 22.3568 120.853 22.3697 120.851 22.3827C120.861 22.5057 120.838 22.6201 120.782 22.7237C112.457 38.2545 97.0247 69.3615 96.8699 69.6734C96.843 69.7263 96.7968 69.7662 96.7398 69.7835C96.7194 69.7899 96.6979 69.7932 96.6775 69.7932H96.6764ZM73.0307 55.7485L96.585 69.2773C97.9427 66.5435 112.43 37.3943 120.403 22.5197C120.423 22.4809 120.427 22.4409 120.417 22.3837C120.41 22.347 120.412 22.3103 120.424 22.2758V19.5344L117.495 19.6855L117.062 20.1324C116.994 20.2025 116.886 20.2187 116.802 20.1691L115.762 19.5722C115.275 19.2927 114.406 19.3618 114.101 19.705L90.3224 46.5758C90.3052 46.5952 90.2847 46.6114 90.2622 46.6232L73.0307 55.7475V55.7485Z"></path><path d="M91.3188 38.2556L91.623 38.0786C91.981 37.8703 92.6087 37.8951 93.0247 38.1347L94.6049 39.0424C95.022 39.282 95.0682 39.6446 94.7092 39.8529L94.405 40.0299C94.047 40.2382 93.4192 40.2134 93.0032 39.9738L91.4231 39.0661C91.006 38.8265 90.9598 38.4639 91.3188 38.2556Z" fill="white"></path><path d="M93.7932 40.439C93.4718 40.439 93.1375 40.3613 92.8699 40.208L91.2897 39.3003C90.9844 39.1255 90.8092 38.8729 90.8081 38.6074C90.8081 38.3743 90.9446 38.1606 91.1833 38.0214L91.4875 37.8444C91.9261 37.5897 92.6602 37.6134 93.1579 37.8994L94.7381 38.8071C95.0434 38.9819 95.2186 39.2345 95.2197 39.5C95.2197 39.7331 95.0832 39.9468 94.8445 40.086L94.5403 40.263C94.3372 40.3807 94.0706 40.439 93.7932 40.439ZM91.4531 38.4887C91.3864 38.5276 91.3456 38.5718 91.3456 38.6064C91.3456 38.6571 91.4122 38.7488 91.5563 38.8319L93.1364 39.7396C93.4665 39.9295 93.9964 39.9555 94.2705 39.7957L94.5747 39.6187C94.6414 39.5799 94.6822 39.5356 94.6822 39.5011C94.6822 39.4503 94.6156 39.3586 94.4715 39.2755L92.8914 38.3678C92.5613 38.179 92.0314 38.152 91.7573 38.3117L91.4531 38.4887Z"></path><path d="M81.2123 45.9098L81.5166 45.7328C81.8745 45.5245 82.5023 45.5494 82.9183 45.789L84.4985 46.6966C84.9155 46.9362 84.9618 47.2989 84.6027 47.5072L84.2985 47.6842C83.9406 47.8925 83.3128 47.8677 82.8968 47.6281L81.3166 46.7204C80.8995 46.4808 80.8533 46.1181 81.2123 45.9098Z" fill="white"></path><path d="M83.6868 48.0943C83.3654 48.0943 83.0311 48.0166 82.7634 47.8633L81.1832 46.9557C80.8779 46.7808 80.7027 46.5283 80.7017 46.2628C80.7017 46.0296 80.8382 45.8159 81.0768 45.6767L81.381 45.4997C81.8196 45.245 82.5538 45.2688 83.0515 45.5548L84.6317 46.4624C84.937 46.6373 85.1122 46.8898 85.1132 47.1553C85.1132 47.3885 84.9767 47.6022 84.7381 47.7414L84.4339 47.9184C84.2307 48.036 83.9641 48.0943 83.6868 48.0943ZM81.3466 46.143C81.28 46.1818 81.2391 46.2261 81.2391 46.2606C81.2391 46.3113 81.3058 46.4031 81.4498 46.4862L83.03 47.3939C83.36 47.5827 83.89 47.6097 84.1641 47.45L84.4683 47.273C84.5349 47.2341 84.5758 47.1899 84.5758 47.1553C84.5758 47.1046 84.5091 47.0129 84.3651 46.9298L82.7849 46.0221C82.4549 45.8321 81.925 45.8062 81.6508 45.966L81.3466 46.143Z"></path><path d="M96.6764 66.5424C96.6764 66.5424 112.17 35.3005 120.592 19.5862C120.725 19.338 120.607 19.0714 120.289 18.8879L116.84 16.9075C108.503 31.4594 94.4674 57.538 91.292 63.4502L96.6753 66.5424H96.6764Z" fill="white"></path><path d="M96.6763 66.8122C96.6301 66.8122 96.5839 66.8003 96.5431 66.7766L91.1597 63.6845C91.0329 63.6122 90.9877 63.4513 91.0565 63.3218C93.8482 58.1229 108.201 31.4475 116.608 16.7726C116.682 16.6431 116.846 16.5988 116.975 16.6733L120.423 18.6537C120.869 18.9095 121.033 19.3359 120.829 19.7147C112.505 35.2455 97.0719 66.3503 96.9171 66.6633C96.8838 66.7302 96.8258 66.7798 96.7548 66.8014C96.729 66.809 96.7032 66.8133 96.6763 66.8133V66.8122ZM91.6542 63.3466L96.5635 66.1657C98.0673 63.1373 112.43 34.245 120.356 19.4578C120.435 19.311 120.265 19.1837 120.156 19.1211L116.941 17.2744C108.638 31.7832 94.707 57.6632 91.6553 63.3456L91.6542 63.3466Z"></path><path d="M113.941 16.5265L90.162 43.3973L72.5845 52.705L91.2929 63.4503C94.4683 57.538 108.504 31.4594 116.841 16.9075L115.869 16.3495C115.289 16.016 114.314 16.1056 113.942 16.5265H113.941Z" fill="white"></path><path d="M91.2931 63.7201C91.2469 63.7201 91.2006 63.7082 91.1598 63.6845L72.4514 52.9392C72.3665 52.8906 72.3149 52.7989 72.3159 52.7006C72.3181 52.6024 72.3729 52.5129 72.4589 52.4664L89.9924 43.1814L113.739 16.3473C114.193 15.8347 115.313 15.7203 116.001 16.1153L116.973 16.6733C117.035 16.7089 117.08 16.7683 117.098 16.8373C117.117 16.9064 117.108 16.9809 117.071 17.0424C108.667 31.7109 94.318 58.3809 91.5274 63.5787C91.493 63.6424 91.4339 63.6899 91.3651 63.7104C91.3415 63.7168 91.3157 63.7212 91.2909 63.7212L91.2931 63.7201ZM73.1426 52.7147L91.1867 63.079C94.2524 57.3728 108.173 31.5123 116.474 17.0079L115.735 16.5837C115.228 16.2923 114.408 16.4056 114.142 16.7057L90.3633 43.5764C90.3418 43.6002 90.316 43.6207 90.288 43.6358L73.1436 52.7147H73.1426Z"></path><path d="M38.5113 35.2552L40.1377 35.4063C40.1377 35.4063 41.2309 35.2272 42.7294 35.3707C68.2326 48.8261 113.065 72.4892 113.065 72.4892C113.065 72.4892 124.362 78.6573 126.865 86.1755C126.865 86.1755 129.16 89.1641 129.638 90.9298C129.638 90.9298 129.638 90.9341 129.638 90.9362C129.674 91.0722 129.707 91.2082 129.728 91.3464C129.71 92.0414 129.484 92.7602 128.753 93.2329C128.753 93.2329 125.676 94.0402 112.71 87.8948C103.698 83.6231 89.9809 75.4551 68.9066 63.5614C61.8785 59.594 56.0072 56.2612 50.9173 53.3849C41.6588 46.7797 38.507 36.545 38.507 36.545L37.2515 35.6923L38.507 35.2541L38.5113 35.2552Z" fill="white"></path><path d="M128.296 93.5373C126.968 93.5373 122.845 92.9955 112.599 88.1387C106.105 85.0606 97.1797 79.9675 84.8264 72.9177C80.074 70.2055 74.6864 67.1306 68.7785 63.7967C64.6034 61.4407 60.7755 59.2735 57.399 57.361C55.0503 56.0313 52.8552 54.788 50.7892 53.6202C50.7806 53.6159 50.7731 53.6105 50.7655 53.6051C45.9433 50.1644 42.7991 45.7339 41.0115 42.6234C39.2776 39.6069 38.4455 37.2087 38.2843 36.7176L37.1051 35.9168C37.0212 35.8596 36.9761 35.7592 36.989 35.6578C37.0019 35.5563 37.0707 35.4711 37.1674 35.4376L38.423 34.9994C38.4595 34.9865 38.4971 34.9822 38.5358 34.9854L40.13 35.1333C40.3342 35.103 41.3705 34.9681 42.755 35.1009C42.7894 35.1041 42.8238 35.1138 42.855 35.1311C68.0668 48.4321 112.743 72.0133 113.191 72.2496C113.223 72.2669 116.075 73.8329 119.194 76.3001C122.074 78.5785 125.78 82.1164 127.106 86.046C127.381 86.4076 129.421 89.1274 129.894 90.8391C129.898 90.851 129.901 90.8639 129.904 90.8758C129.946 91.0312 129.976 91.1715 129.998 91.301C130.001 91.3172 130.002 91.3345 130.001 91.3507C129.976 92.2929 129.608 93.0009 128.904 93.4563C128.88 93.4715 128.853 93.4833 128.826 93.4909C128.799 93.4974 128.642 93.5341 128.298 93.5341L128.296 93.5373ZM51.0654 53.1572C53.1283 54.3228 55.319 55.564 57.6635 56.8915C61.0399 58.804 64.8667 60.9712 69.0418 63.3272C74.9508 66.6622 80.3385 69.7371 85.0919 72.4493C97.4344 79.4927 106.352 84.5825 112.828 87.652C124.714 93.2858 128.262 93.0311 128.654 92.9782C129.172 92.6242 129.437 92.0954 129.461 91.3658C129.443 91.2589 129.417 91.1424 129.382 91.0118C129.382 91.0085 129.38 91.0053 129.379 91.0021C128.921 89.3098 126.674 86.372 126.652 86.3418C126.633 86.318 126.619 86.291 126.61 86.263C124.169 78.9325 113.048 72.7893 112.936 72.7277C112.491 72.4935 67.8712 48.9415 42.6507 35.6362C41.235 35.5067 40.1913 35.6718 40.1805 35.674C40.1579 35.6772 40.1354 35.6783 40.1128 35.6761L38.5444 35.5304L37.85 35.7733L38.6616 36.3237C38.7121 36.3582 38.7498 36.409 38.768 36.4672C38.7756 36.4931 39.5742 39.0467 41.4844 42.3687C43.2441 45.4263 46.3335 49.7791 51.0644 53.1583L51.0654 53.1572Z"></path><path d="M116.319 86.931C116.006 86.8145 115.62 85.6424 116.053 85.6219C117.87 85.5345 122.437 85.038 124.786 82.2945C125.684 83.527 126.417 84.8286 126.865 86.1755C126.865 86.1755 123.139 89.476 116.319 86.93V86.931Z" fill="white"></path><path d="M121.286 88.1614C119.874 88.1614 118.175 87.9121 116.225 87.1847C115.823 87.0347 115.539 86.1907 115.601 85.787C115.648 85.4805 115.859 85.3618 116.039 85.3531C117.85 85.2657 122.306 84.7757 124.582 82.1196C124.636 82.057 124.715 82.0236 124.796 82.0257C124.878 82.029 124.954 82.07 125.002 82.1358C125.981 83.4795 126.693 84.8103 127.119 86.0914C127.153 86.1939 127.123 86.3072 127.042 86.3795C127.002 86.4152 126.043 87.2516 124.222 87.7686C123.461 87.9844 122.474 88.1614 121.285 88.1614H121.286ZM116.42 86.6807C122.293 88.8694 125.826 86.6202 126.549 86.0827C126.164 84.9948 125.565 83.867 124.763 82.7229C122.325 85.2884 117.986 85.7924 116.128 85.8885C116.105 86.0838 116.285 86.5878 116.42 86.6807Z"></path><path d="M109.06 82.7855L110.069 83.3694V81.7214L109.06 81.1385V82.7855Z" fill="white"></path><path d="M110.07 83.6392C110.024 83.6392 109.978 83.6274 109.936 83.6036L108.925 83.0197C108.842 82.9712 108.791 82.8827 108.791 82.7855V81.1375C108.791 81.0414 108.843 80.9518 108.925 80.9043C109.008 80.8558 109.11 80.8558 109.194 80.9043L110.205 81.4882C110.288 81.5368 110.339 81.6253 110.339 81.7224V83.3705C110.339 83.4665 110.287 83.5561 110.205 83.6036C110.163 83.6274 110.116 83.6403 110.07 83.6403V83.6392ZM109.328 82.6301L109.801 82.9032V81.8778L109.328 81.6048V82.6301Z"></path><path d="M106.889 81.5325L107.9 82.1164V80.4683L106.889 79.8855V81.5325Z" fill="white"></path><path d="M107.9 82.3862C107.854 82.3862 107.807 82.3743 107.765 82.3506L106.755 81.7667C106.671 81.7181 106.621 81.6296 106.621 81.5325V79.8844C106.621 79.7884 106.672 79.6988 106.755 79.6513C106.838 79.6027 106.94 79.6027 107.024 79.6513L108.034 80.2352C108.118 80.2837 108.169 80.3722 108.169 80.4694V82.1174C108.169 82.2135 108.117 82.3031 108.034 82.3506C107.992 82.3743 107.946 82.3873 107.9 82.3873V82.3862ZM107.159 81.3771L107.632 81.6501V80.6248L107.159 80.3517V81.3771Z"></path><path d="M104.72 80.2794L105.731 80.8633V79.2153L104.72 78.6324V80.2794Z" fill="white"></path><path d="M105.731 81.1331C105.685 81.1331 105.638 81.1213 105.596 81.0975L104.586 80.5136C104.502 80.4651 104.452 80.3766 104.452 80.2794V78.6314C104.452 78.5353 104.503 78.4457 104.586 78.3982C104.669 78.3497 104.771 78.3497 104.855 78.3982L105.865 78.9821C105.949 79.0307 106 79.1192 106 79.2163V80.8644C106 80.9605 105.948 81.05 105.865 81.0975C105.823 81.1213 105.777 81.1342 105.731 81.1342V81.1331ZM104.989 80.124L105.462 80.3971V79.3718L104.989 79.0987V80.124Z"></path><path d="M102.551 79.0264L103.561 79.6103V77.9622L102.551 77.3794V79.0264Z" fill="white"></path><path d="M103.561 79.8801C103.515 79.8801 103.469 79.8682 103.427 79.8445L102.417 79.2606C102.333 79.212 102.282 79.1235 102.282 79.0264V77.3783C102.282 77.2823 102.334 77.1927 102.417 77.1452C102.499 77.0967 102.601 77.0967 102.685 77.1452L103.696 77.7291C103.78 77.7777 103.83 77.8662 103.83 77.9633V79.6114C103.83 79.7074 103.779 79.797 103.696 79.8445C103.654 79.8682 103.608 79.8812 103.561 79.8812V79.8801ZM102.82 78.871L103.293 79.144V78.1187L102.82 77.8457V78.871Z"></path><path d="M100.382 77.7734L101.392 78.3572V76.7092L100.382 76.1264V77.7734Z" fill="white"></path><path d="M101.392 78.6271C101.346 78.6271 101.3 78.6152 101.258 78.5914L100.248 78.0076C100.164 77.959 100.113 77.8705 100.113 77.7733V76.1253C100.113 76.0292 100.165 75.9397 100.248 75.8922C100.33 75.8436 100.433 75.8436 100.516 75.8922L101.527 76.4761C101.611 76.5246 101.661 76.6131 101.661 76.7103V78.3583C101.661 78.4544 101.61 78.544 101.527 78.5914C101.485 78.6152 101.439 78.6281 101.392 78.6281V78.6271ZM100.651 77.6179L101.124 77.891V76.8657L100.651 76.5926V77.6179Z"></path><path d="M79.3584 65.6293L80.3678 66.2132V64.5652L79.3584 63.9824V65.6293Z" fill="white"></path><path d="M80.3676 66.483C80.3213 66.483 80.2751 66.4712 80.2332 66.4474L79.2227 65.8635C79.1389 65.815 79.0884 65.7265 79.0884 65.6293V63.9813C79.0884 63.8852 79.14 63.7956 79.2227 63.7482C79.3055 63.6996 79.4076 63.6996 79.4915 63.7482L80.5019 64.332C80.5858 64.3806 80.6363 64.4691 80.6363 64.5663V66.2143C80.6363 66.3104 80.5847 66.3999 80.5019 66.4474C80.46 66.4712 80.4138 66.4841 80.3676 66.4841V66.483ZM79.6269 65.4739L80.0999 65.747V64.7217L79.6269 64.4486V65.4739Z"></path><path d="M76.9951 64.2651L78.0056 64.849V63.201L76.9951 62.6171V64.2651Z" fill="white"></path><path d="M78.0057 65.1188C77.9595 65.1188 77.9133 65.1069 77.8714 65.0832L76.8609 64.4993C76.7771 64.4508 76.7266 64.3622 76.7266 64.2651V62.6171C76.7266 62.521 76.7782 62.4314 76.8609 62.3839C76.9437 62.3354 77.0458 62.3354 77.1297 62.3839L78.1401 62.9678C78.224 63.0164 78.2745 63.1049 78.2745 63.202V64.8501C78.2745 64.9461 78.2229 65.0357 78.1401 65.0832C78.0982 65.1069 78.052 65.1199 78.0057 65.1199V65.1188ZM77.264 64.1086L77.737 64.3817V63.3564L77.264 63.0833V64.1086Z"></path><path d="M74.6323 62.9009L75.6428 63.4837V61.8368L74.6323 61.2529V62.9009Z" fill="white"></path><path d="M75.643 63.7536C75.5967 63.7536 75.5505 63.7417 75.5086 63.7179L74.4981 63.134C74.4143 63.0855 74.3638 62.997 74.3638 62.8998V61.2518C74.3638 61.1557 74.4154 61.0662 74.4981 61.0187C74.5809 60.9701 74.683 60.9701 74.7669 61.0187L75.7773 61.6026C75.8612 61.6511 75.9117 61.7396 75.9117 61.8368V63.4848C75.9117 63.5809 75.8601 63.6705 75.7773 63.7179C75.7354 63.7417 75.6892 63.7546 75.643 63.7546V63.7536ZM74.9012 62.7444L75.3742 63.0175V61.9922L74.9012 61.7191V62.7444Z"></path><path d="M72.2695 61.5356L73.28 62.1195V60.4715L72.2695 59.8876V61.5356Z" fill="white"></path><path d="M73.2802 62.3893C73.2339 62.3893 73.1877 62.3775 73.1458 62.3537L72.1353 61.7698C72.0515 61.7213 72.001 61.6328 72.001 61.5356V59.8876C72.001 59.7915 72.0526 59.7019 72.1353 59.6544C72.2181 59.6059 72.3202 59.6059 72.4041 59.6544L73.4145 60.2383C73.4984 60.2869 73.5489 60.3754 73.5489 60.4725V62.1206C73.5489 62.2166 73.4973 62.3062 73.4145 62.3537C73.3726 62.3775 73.3264 62.3904 73.2802 62.3904V62.3893ZM72.5385 61.3802L73.0114 61.6533V60.6279L72.5385 60.3549V61.3802Z"></path><path d="M69.9082 60.1714L70.9176 60.7553V59.1073L69.9082 58.5234V60.1714Z" fill="white"></path><path d="M70.9174 61.0251C70.8711 61.0251 70.8249 61.0133 70.783 60.9895L69.7726 60.4056C69.6887 60.3571 69.6382 60.2686 69.6382 60.1714V58.5234C69.6382 58.4273 69.6898 58.3377 69.7726 58.2902C69.8553 58.2417 69.9574 58.2417 70.0413 58.2902L71.0517 58.8741C71.1356 58.9227 71.1861 59.0112 71.1861 59.1083V60.7564C71.1861 60.8524 71.1345 60.942 71.0517 60.9895C71.0098 61.0133 70.9636 61.0262 70.9174 61.0262V61.0251ZM70.1767 60.0149L70.6497 60.288V59.2627L70.1767 58.9896V60.0149Z"></path><path d="M67.5454 58.8061L68.5559 59.39V57.742L67.5454 57.1591V58.8061Z" fill="white"></path><path d="M68.556 59.6598C68.5098 59.6598 68.4636 59.648 68.4217 59.6242L67.4112 59.0403C67.3274 58.9918 67.2769 58.9033 67.2769 58.8061V57.1581C67.2769 57.062 67.3285 56.9724 67.4112 56.9249C67.494 56.8764 67.5961 56.8764 67.68 56.9249L68.6904 57.5088C68.7743 57.5574 68.8248 57.6459 68.8248 57.743V59.3911C68.8248 59.4872 68.7732 59.5767 68.6904 59.6242C68.6485 59.648 68.6023 59.6609 68.556 59.6609V59.6598ZM67.8143 58.6507L68.2873 58.9238V57.8985L67.8143 57.6254V58.6507Z"></path><path d="M65.1826 57.4419L66.1931 58.0258V56.3778L65.1826 55.7939V57.4419Z" fill="white"></path><path d="M66.1933 58.2956C66.147 58.2956 66.1008 58.2838 66.0589 58.26L65.0484 57.6761C64.9646 57.6276 64.9141 57.5391 64.9141 57.4419V55.7939C64.9141 55.6978 64.9657 55.6082 65.0484 55.5607C65.1312 55.5122 65.2333 55.5122 65.3172 55.5607L66.3276 56.1446C66.4115 56.1932 66.462 56.2817 66.462 56.3788V58.0269C66.462 58.123 66.4104 58.2125 66.3276 58.26C66.2857 58.2838 66.2395 58.2967 66.1933 58.2967V58.2956ZM65.4515 57.2854L65.9245 57.5585V56.5332L65.4515 56.2601V57.2854Z"></path><path d="M62.8198 56.0777L63.8303 56.6605V55.0135L62.8198 54.4297V56.0777Z" fill="white"></path><path d="M63.8305 56.9303C63.7842 56.9303 63.738 56.9185 63.6961 56.8947L62.6856 56.3108C62.6018 56.2623 62.5513 56.1738 62.5513 56.0766V54.4286C62.5513 54.3325 62.6029 54.2429 62.6856 54.1955C62.7684 54.1469 62.8705 54.1469 62.9544 54.1955L63.9648 54.7793C64.0487 54.8279 64.0992 54.9164 64.0992 55.0135V56.6616C64.0992 56.7577 64.0476 56.8472 63.9648 56.8947C63.9229 56.9185 63.8767 56.9314 63.8305 56.9314V56.9303ZM63.0887 55.9212L63.5617 56.1943V55.169L63.0887 54.8959V55.9212Z"></path><path d="M60.457 54.7124L61.4675 55.2963V53.6483L60.457 53.0655V54.7124Z" fill="white"></path><path d="M61.4677 55.5661C61.4214 55.5661 61.3752 55.5543 61.3333 55.5305L60.3228 54.9466C60.239 54.8981 60.1885 54.8096 60.1885 54.7124V53.0644C60.1885 52.9683 60.2401 52.8787 60.3228 52.8313C60.4056 52.7827 60.5077 52.7827 60.5916 52.8313L61.602 53.4151C61.6859 53.4637 61.7364 53.5522 61.7364 53.6493V55.2974C61.7364 55.3935 61.6848 55.483 61.602 55.5305C61.5601 55.5543 61.5139 55.5672 61.4677 55.5672V55.5661ZM60.726 54.557L61.1989 54.8301V53.8048L60.726 53.5317V54.557Z"></path><path d="M58.0952 53.3482L59.1057 53.9321V52.2841L58.0952 51.7002V53.3482Z" fill="white"></path><path d="M59.1058 54.2019C59.0596 54.2019 59.0134 54.1901 58.9715 54.1663L57.961 53.5824C57.8772 53.5339 57.8267 53.4454 57.8267 53.3482V51.7002C57.8267 51.6041 57.8783 51.5145 57.961 51.467C58.0438 51.4185 58.1459 51.4185 58.2298 51.467L59.2402 52.0509C59.3241 52.0995 59.3746 52.188 59.3746 52.2851V53.9332C59.3746 54.0292 59.323 54.1188 59.2402 54.1663C59.1983 54.1901 59.1521 54.203 59.1058 54.203V54.2019ZM58.3641 53.1917L58.8371 53.4648V52.4395L58.3641 52.1664V53.1917Z"></path><path d="M55.7324 51.984L56.7429 52.5668V50.9198L55.7324 50.336V51.984Z" fill="white"></path><path d="M56.7431 52.8366C56.6968 52.8366 56.6506 52.8248 56.6087 52.801L55.5982 52.2171C55.5144 52.1686 55.4639 52.0801 55.4639 51.9829V50.3349C55.4639 50.2388 55.5155 50.1492 55.5982 50.1017C55.681 50.0532 55.7831 50.0532 55.867 50.1017L56.8774 50.6856C56.9613 50.7342 57.0118 50.8227 57.0118 50.9198V52.5679C57.0118 52.664 56.9602 52.7535 56.8774 52.801C56.8355 52.8248 56.7893 52.8377 56.7431 52.8377V52.8366ZM56.0013 51.8275L56.4743 52.1006V51.0753L56.0013 50.8022V51.8275Z"></path><path d="M53.3696 50.6187L54.3801 51.2026V49.5546L53.3696 48.9707V50.6187Z" fill="white"></path><path d="M54.3803 51.4724C54.334 51.4724 54.2878 51.4606 54.2459 51.4368L53.2354 50.8529C53.1516 50.8044 53.1011 50.7159 53.1011 50.6187V48.9707C53.1011 48.8746 53.1527 48.785 53.2354 48.7376C53.3182 48.689 53.4203 48.689 53.5042 48.7376L54.5146 49.3214C54.5985 49.37 54.649 49.4585 54.649 49.5556V51.2037C54.649 51.2998 54.5974 51.3893 54.5146 51.4368C54.4727 51.4606 54.4265 51.4735 54.3803 51.4735V51.4724ZM53.6385 50.4633L54.1115 50.7364V49.7111L53.6385 49.438V50.4633Z"></path><path d="M51.0073 49.2545L52.0178 49.8384V48.1904L51.0073 47.6065V49.2545Z" fill="white"></path><path d="M52.018 50.1082C51.9717 50.1082 51.9255 50.0964 51.8836 50.0726L50.8731 49.4887C50.7893 49.4402 50.7388 49.3517 50.7388 49.2545V47.6065C50.7388 47.5104 50.7904 47.4208 50.8731 47.3733C50.9559 47.3248 51.058 47.3248 51.1419 47.3733L52.1523 47.9572C52.2362 48.0058 52.2867 48.0943 52.2867 48.1914V49.8395C52.2867 49.9355 52.2351 50.0251 52.1523 50.0726C52.1104 50.0964 52.0642 50.1093 52.018 50.1093V50.1082ZM51.2762 49.098L51.7492 49.3711V48.3458L51.2762 48.0727V49.098Z"></path><path d="M48.6455 47.8892L49.656 48.4731V46.8251L48.6455 46.2423V47.8892Z" fill="white"></path><path d="M49.6561 48.7429C49.6099 48.7429 49.5637 48.7311 49.5218 48.7073L48.5113 48.1234C48.4275 48.0749 48.377 47.9864 48.377 47.8892V46.2412C48.377 46.1451 48.4286 46.0555 48.5113 46.0081C48.5941 45.9595 48.6962 45.9595 48.7801 46.0081L49.7905 46.5919C49.8744 46.6405 49.9249 46.729 49.9249 46.8262V48.4742C49.9249 48.5703 49.8733 48.6598 49.7905 48.7073C49.7486 48.7311 49.7024 48.744 49.6561 48.744V48.7429ZM48.9144 47.7338L49.3874 48.0069V46.9816L48.9144 46.7085V47.7338Z"></path><path d="M46.2827 46.525L47.2932 47.1089V45.4609L46.2827 44.877V46.525Z" fill="white"></path><path d="M47.2933 47.3787C47.2471 47.3787 47.2009 47.3669 47.159 47.3431L46.1485 46.7592C46.0647 46.7107 46.0142 46.6222 46.0142 46.525V44.877C46.0142 44.7809 46.0658 44.6913 46.1485 44.6438C46.2313 44.5953 46.3334 44.5953 46.4173 44.6438L47.4277 45.2277C47.5116 45.2763 47.5621 45.3648 47.5621 45.4619V47.11C47.5621 47.2061 47.5105 47.2956 47.4277 47.3431C47.3858 47.3669 47.3396 47.3798 47.2933 47.3798V47.3787ZM46.5516 46.3696L47.0246 46.6427V45.6174L46.5516 45.3443V46.3696Z"></path><path d="M22.4223 24.9157C22.4793 24.9287 22.5449 24.9492 22.6083 24.9675L16.293 7.90954L17.9194 6.76982L23.0307 9.72165L32.6408 26.7473C33.6072 28.459 34.9541 30.3758 36.3848 32.0238C38.3154 33.0416 40.4438 34.1651 42.7303 35.3707C41.8692 35.2887 41.1426 35.3124 40.6803 35.3469C40.3396 35.3728 40.0128 35.4937 39.7333 35.6902C38.9959 36.2071 38.7099 37.1612 39.0475 37.9966C39.1915 38.3527 39.3657 38.765 39.5731 39.2237C42.5776 45.8677 47.6825 51.3397 54.0409 54.9045C68.9902 63.2884 84.8973 72.4342 87.7878 74.0963C122.864 94.2593 128.757 93.2329 128.757 93.2329C127.853 94.0111 126.07 94.5594 122.566 94.0035C118.055 93.2891 113.328 91.2427 110.108 89.6238C109.49 89.3281 108.887 89.0227 108.315 88.6935L108.112 88.5769C106.882 87.9045 106.148 87.4491 106.143 87.4458C106.143 87.4458 57.1432 59.9912 39.9891 50.3834C38.036 49.2891 36.1505 48.1353 34.3994 47.0021C31.8926 45.3788 29.7288 43.2386 27.8917 40.7908C24.8076 36.6831 22.5599 33.2618 21.3334 26.8725C21.356 26.4278 22.0783 24.8369 22.4234 24.9146L22.4223 24.9157Z" fill="white"></path><path d="M125.152 94.5C124.366 94.5 123.49 94.4234 122.523 94.2701C117.967 93.5481 113.191 91.4759 109.987 89.8656C109.275 89.5256 108.699 89.2267 108.181 88.9288L107.978 88.8122C106.81 88.1733 106.081 87.7265 106.003 87.6779C106.003 87.6779 57.0099 60.2275 39.8581 50.6209C38.0521 49.6096 36.1667 48.4688 34.2533 47.2309C31.8443 45.6713 29.6321 43.5602 27.6757 40.9559C24.597 36.8558 22.3203 33.4485 21.069 26.9264C21.0647 26.9048 21.0637 26.8832 21.0647 26.8617C21.0873 26.4094 21.6656 25.0884 22.0999 24.7571C22.1408 24.7258 22.1794 24.7031 22.2171 24.6858L16.0404 8.00344C15.9974 7.88795 16.0383 7.75844 16.1382 7.68829L17.7657 6.54857C17.8517 6.48921 17.9635 6.48381 18.0538 6.53562L23.1652 9.48852C23.2071 9.51227 23.2415 9.54788 23.2651 9.58889L32.8752 26.6145C33.848 28.337 35.1874 30.2279 36.5547 31.808L42.855 35.1311C42.969 35.1915 43.0238 35.3232 42.9872 35.4473C42.9507 35.5704 42.8314 35.6524 42.7045 35.6383C41.8607 35.5574 41.1491 35.5811 40.6997 35.6157C40.4117 35.6373 40.13 35.7398 39.886 35.9114C39.2475 36.3593 39.0045 37.1742 39.2959 37.894C39.456 38.2912 39.6323 38.7003 39.8172 39.1115C42.7497 45.5968 47.8471 51.1217 54.171 54.6682C67.0951 61.9166 80.8276 69.7835 87.8631 73.8275L87.9212 73.861C105.807 84.1433 115.921 88.7852 121.256 90.8693C127.111 93.1563 128.7 92.9664 128.715 92.9653C128.834 92.948 128.951 93.0117 129 93.1207C129.05 93.2297 129.023 93.3581 128.933 93.4358C128.111 94.1428 126.845 94.4978 125.153 94.4978L125.152 94.5ZM28.1121 40.6408C30.0276 43.1901 32.1915 45.2547 34.5435 46.7765C36.4462 48.009 38.322 49.1433 40.1182 50.1492C57.2722 59.757 106.272 87.2116 106.272 87.2116C106.275 87.2138 106.28 87.216 106.282 87.2181C106.361 87.2667 107.078 87.706 108.238 88.3416L108.446 88.4614C108.954 88.7529 109.517 89.0453 110.221 89.3821C113.396 90.9783 118.116 93.0268 122.604 93.738C124.935 94.1071 126.742 94.01 127.903 93.4607C125.276 93.1099 115.94 90.5941 87.6503 74.3315L87.5922 74.2981C80.5578 70.254 66.8274 62.3882 53.9055 55.1409C50.7021 53.3439 47.8234 51.0774 45.3478 48.403C42.8507 45.7048 40.8244 42.6537 39.3238 39.3359C39.1346 38.9183 38.9562 38.5017 38.7939 38.0991C38.408 37.1439 38.7294 36.0625 39.5753 35.47C39.8989 35.2433 40.2719 35.1084 40.6557 35.0793C40.8868 35.062 41.1835 35.0469 41.5317 35.0458L36.257 32.2634C36.228 32.2483 36.2011 32.2267 36.1796 32.2019C34.7778 30.5873 33.4019 28.6479 32.4044 26.8811L22.833 9.91915L17.9334 7.08929L16.6166 8.01099L22.8599 24.8747C22.8954 24.9708 22.8739 25.0776 22.8051 25.1521C22.7363 25.2266 22.6309 25.2557 22.5331 25.2276L22.4869 25.2136C22.4622 25.206 22.4374 25.1985 22.4138 25.192C22.1794 25.3701 21.6474 26.4612 21.6033 26.8584C22.8341 33.238 25.0721 36.5903 28.0981 40.6192C28.1035 40.6257 28.1089 40.6322 28.1132 40.6397L28.1121 40.6408Z"></path><path d="M21.4043 10.8614L31.0144 27.887C32.8268 31.0978 35.9774 35.0415 38.5122 36.546L21.6129 27.8114L16.293 7.90955L21.4043 10.8614Z" fill="white"></path><path d="M38.5113 36.8158C38.4694 36.8158 38.4274 36.8061 38.3887 36.7856L21.4895 28.051C21.4218 28.0165 21.3723 27.955 21.353 27.8816L16.033 7.97969C16.0051 7.87392 16.0427 7.76276 16.1287 7.69584C16.2147 7.62893 16.3319 7.62137 16.4265 7.67534L21.5378 10.6272C21.5798 10.6509 21.6142 10.6865 21.6378 10.7275L31.2479 27.7531C33.0054 30.8679 36.112 34.8073 38.6489 36.3129C38.7736 36.3874 38.8176 36.5482 38.7478 36.6755C38.6983 36.764 38.607 36.8148 38.5124 36.8148L38.5113 36.8158ZM21.841 27.6258L36.14 35.0167C34.119 33.0859 32.082 30.3283 30.7792 28.0197L21.2068 11.0589L16.721 8.46753L21.8421 27.6258H21.841Z"></path><path d="M4.66064 40.7833L4.67354 39.4849L9.14103 39.2464L23.2691 34.6745L29.8359 38.139L31.4118 38.0548L33.2769 38.5448V39.9555L32.0557 40.0904L8.00159 42.713C7.86184 42.7281 7.7178 42.7022 7.61675 42.645L4.78856 41.0207C4.67892 40.957 4.64775 40.8718 4.67569 40.793L4.66064 40.7854V40.7833Z" fill="white"></path><path d="M7.92007 42.9861C7.76098 42.9861 7.60511 42.9483 7.48257 42.8781L4.65438 41.2538C4.48239 41.1556 4.38994 40.9991 4.39639 40.834C4.39316 40.8167 4.39209 40.7995 4.39209 40.7822L4.40499 39.4838C4.40606 39.3413 4.51786 39.2248 4.65975 39.2172L9.09177 38.9798L23.1865 34.4188C23.2553 34.3972 23.3305 34.4026 23.394 34.4371L29.8952 37.8671L31.398 37.7861C31.426 37.784 31.4539 37.7872 31.4808 37.7947L33.3458 38.2847C33.4641 38.316 33.5468 38.4229 33.5468 38.5459V39.9565C33.5468 40.0947 33.4437 40.2102 33.3071 40.2253L32.086 40.3602L8.03079 42.9828C7.99424 42.9871 7.9577 42.9893 7.92115 42.9893L7.92007 42.9861ZM4.94461 40.7973L7.75023 42.4087C7.79323 42.4324 7.87815 42.4529 7.97274 42.4432L32.0269 39.8205L33.0083 39.7126V38.7521L31.3841 38.3257L29.849 38.4078C29.8007 38.411 29.7523 38.4002 29.7093 38.3776L23.2424 34.966L9.22183 39.5032C9.19926 39.5108 9.17669 39.5151 9.15411 39.5162L4.93924 39.7418L4.92956 40.7056C4.93924 40.7358 4.94461 40.7671 4.94354 40.7984L4.94461 40.7973Z"></path><path d="M4.88153 39.214L23.2685 33.2639L33.2763 38.5449L32.0552 38.6798L8.00103 41.3024C7.86129 41.3175 7.71725 41.2916 7.6162 41.2344L4.78801 39.6101C4.58485 39.4935 4.63107 39.296 4.88153 39.2151V39.214Z" fill="white"></path><path d="M7.92131 41.5755C7.76115 41.5755 7.60635 41.5377 7.48381 41.4675L4.65562 39.8432C4.47395 39.7385 4.37613 39.5691 4.39548 39.3899C4.41591 39.1946 4.56747 39.0338 4.80074 38.9582L23.1877 33.0081C23.2565 32.9855 23.3318 32.993 23.3952 33.0265L33.403 38.3074C33.5072 38.3624 33.5642 38.4801 33.5416 38.5967C33.5201 38.7132 33.4245 38.8017 33.3073 38.8147L32.0862 38.9496L8.03096 41.5722C7.99441 41.5765 7.95786 41.5776 7.92131 41.5776V41.5755ZM5.04475 39.4439L7.7504 40.998C7.79339 41.0218 7.87832 41.0423 7.97291 41.0326L32.3743 38.3722L23.2447 33.5553L5.04583 39.445L5.04475 39.4439Z"></path><path d="M40.2725 79.3966L44.5035 81.8271L47.9907 83.8303L44.7605 88.8662C44.4326 89.0572 44.0134 89.1673 43.563 89.2029L44.7905 89.8883L44.2036 91.1802C44.2036 91.1802 42.717 91.1186 41.5367 90.4624C40.3575 89.8062 35.3546 86.7141 35.3546 86.7141C35.3546 86.7141 34.8666 86.1756 34.2496 85.4837C33.3552 84.4811 32.1857 83.1514 31.8159 82.6452L40.2715 79.3966H40.2725Z" fill="white"></path><path d="M44.2049 91.45C44.2049 91.45 44.1974 91.45 44.1942 91.45C44.1307 91.4478 42.6301 91.3777 41.4079 90.6988C40.2362 90.0469 35.4193 87.0703 35.2151 86.944C35.1936 86.931 35.1743 86.9148 35.1571 86.8954C35.1571 86.8954 34.669 86.3569 34.0509 85.664C33.1394 84.643 31.9752 83.3176 31.6011 82.805C31.5517 82.737 31.5366 82.6495 31.5603 82.5697C31.5839 82.4887 31.6441 82.424 31.7215 82.3937L40.1771 79.1451C40.2523 79.116 40.3362 79.1225 40.406 79.1635L48.1242 83.5961C48.1887 83.6328 48.2338 83.6943 48.2521 83.7666C48.2693 83.8389 48.2564 83.9144 48.2166 83.977L44.9875 89.013C44.9649 89.0486 44.9326 89.0788 44.8961 89.1004C44.7338 89.1943 44.55 89.2731 44.3489 89.3335L44.9219 89.6541C45.0444 89.722 45.0939 89.8742 45.0358 90.0016L44.4489 91.2935C44.4048 91.3895 44.3092 91.451 44.2049 91.451V91.45ZM35.529 86.5047C35.9622 86.7724 40.5565 89.6087 41.668 90.2271C42.5463 90.7161 43.6201 90.8585 44.0372 90.8974L44.4435 90.0027L43.4331 89.4382C43.3299 89.3799 43.2761 89.2612 43.3009 89.1446C43.3256 89.0281 43.4245 88.9428 43.5427 88.9331C43.9437 88.9018 44.2973 88.8079 44.5725 88.6622L47.6125 83.922L40.2502 79.6934L32.2525 82.7661C32.6503 83.2593 33.3984 84.1238 34.4508 85.3035C34.984 85.9014 35.4215 86.3849 35.529 86.5036V86.5047Z"></path><path d="M48.8549 85.7233C48.8549 87.6013 47.537 89.885 45.9106 90.824C44.2853 91.763 42.9663 91.0021 42.9663 89.1241C42.9663 87.2462 44.2842 84.9624 45.9106 84.0235C47.5359 83.0845 48.8549 83.8454 48.8549 85.7233Z"></path><path d="M44.596 91.4446C44.2778 91.4446 43.9811 91.369 43.7188 91.2168C43.0953 90.8553 42.7524 90.1117 42.7524 89.1252C42.7524 87.1814 44.1219 84.8092 45.8042 83.8367C46.661 83.3414 47.4779 83.269 48.1035 83.6328C48.727 83.9943 49.0699 84.7379 49.0699 85.7244C49.0699 87.6682 47.7004 90.0404 46.0181 91.0129C45.5204 91.3 45.0367 91.4457 44.596 91.4457V91.4446ZM47.2253 83.8357C46.8598 83.8357 46.4492 83.9619 46.0181 84.2102C44.4541 85.1135 43.1824 87.3174 43.1824 89.1241C43.1824 89.9509 43.449 90.5606 43.9349 90.8423C44.4218 91.1251 45.0862 91.0528 45.8042 90.6373C47.3683 89.7339 48.6399 87.53 48.6399 85.7233C48.6399 84.8966 48.3733 84.2868 47.8875 84.0051C47.6918 83.8918 47.4682 83.8357 47.2242 83.8357H47.2253Z"></path><path d="M47.3364 86.6008C47.3364 87.5095 46.699 88.6147 45.9121 89.0702C45.1252 89.5245 44.4878 89.1565 44.4878 88.2478C44.4878 87.339 45.1252 86.2338 45.9121 85.7784C46.699 85.324 47.3364 85.692 47.3364 86.6008Z" fill="white"></path><path d="M45.2744 89.5353C45.0917 89.5353 44.9208 89.4911 44.7681 89.4026C44.4134 89.1964 44.2178 88.7863 44.2178 88.2467C44.2178 87.2365 44.9025 86.0493 45.7775 85.5442C46.2451 85.2743 46.6988 85.2387 47.0546 85.4449C47.4093 85.651 47.6049 86.0611 47.6049 86.6008C47.6049 87.611 46.9202 88.7982 46.0452 89.3033C45.7786 89.4576 45.5163 89.5353 45.2744 89.5353ZM46.5483 85.8539C46.3999 85.8539 46.2269 85.9079 46.0452 86.0115C45.3465 86.4151 44.7552 87.4394 44.7552 88.2467C44.7552 88.5802 44.8574 88.8316 45.0369 88.9352C45.2175 89.0399 45.4873 89.0032 45.7775 88.8359C46.4762 88.4323 47.0675 87.4081 47.0675 86.6008C47.0675 86.2673 46.9643 86.0169 46.7858 85.9122C46.7181 85.8733 46.6375 85.8539 46.5483 85.8539Z"></path><path d="M67.4815 74.0682L71.7125 76.4987L75.1997 78.5019L71.9694 83.5378C71.6416 83.7288 71.2213 83.8389 70.7719 83.8745L71.9995 84.5598L71.4126 85.8517C71.4126 85.8517 69.926 85.7902 68.7457 85.134C67.5665 84.4778 62.5636 81.3857 62.5636 81.3857C62.5636 81.3857 62.0756 80.8471 61.4586 80.1553C60.5642 79.1527 59.3947 77.823 59.0249 77.3168L67.4805 74.0682H67.4815Z" fill="white"></path><path d="M71.4128 86.1216C71.4128 86.1216 71.4053 86.1216 71.4021 86.1216C71.3386 86.1194 69.8369 86.0493 68.6169 85.3704C67.4452 84.7185 62.6283 81.7419 62.4241 81.6156C62.4026 81.6026 62.3832 81.5865 62.366 81.567C62.366 81.567 61.878 81.0285 61.2599 80.3356C60.3484 79.3135 59.1842 77.9881 58.8101 77.4766C58.7607 77.4086 58.7456 77.3211 58.7693 77.2413C58.7929 77.1603 58.8531 77.0956 58.9305 77.0654L67.3861 73.8167C67.4613 73.7876 67.5452 73.7941 67.615 73.8351L75.3332 78.2677C75.3976 78.3044 75.4428 78.3659 75.4611 78.4382C75.4783 78.5105 75.4654 78.5861 75.4256 78.6487L72.1954 83.6846C72.1728 83.7202 72.1406 83.7504 72.104 83.772C71.9417 83.8659 71.7579 83.9447 71.5569 84.0051L72.1298 84.3257C72.2524 84.3937 72.3018 84.5458 72.2438 84.6732L71.6568 85.9651C71.6128 86.0611 71.5171 86.1227 71.4128 86.1227V86.1216ZM62.738 81.1763C63.1712 81.444 67.7655 84.2803 68.877 84.8988C69.7531 85.3866 70.828 85.5301 71.2462 85.569L71.6525 84.6743L70.6421 84.1098C70.5389 84.0515 70.4851 83.9328 70.5099 83.8162C70.5346 83.6997 70.6335 83.6144 70.7517 83.6047C71.1527 83.5734 71.5063 83.4795 71.7815 83.3338L74.8215 78.5936L67.4592 74.365L59.4615 77.4377C59.8582 77.9309 60.6074 78.7954 61.6598 79.9751C62.193 80.573 62.6305 81.0565 62.738 81.1752V81.1763Z"></path><path d="M76.0639 80.3949C76.0639 82.2728 74.746 84.5566 73.1196 85.4956C71.4943 86.4345 70.1753 85.6736 70.1753 83.7957C70.1753 81.9178 71.4932 79.634 73.1196 78.695C74.7449 77.7561 76.0639 78.517 76.0639 80.3949Z"></path><path d="M71.805 86.1151C71.4868 86.1151 71.1901 86.0395 70.9278 85.8874C70.3043 85.5258 69.9614 84.7822 69.9614 83.7957C69.9614 81.8519 71.3309 79.4797 73.0132 78.5072C73.8699 78.0119 74.6869 77.9395 75.3125 78.3033C75.936 78.6648 76.2789 79.4084 76.2789 80.3949C76.2789 82.3387 74.9094 84.7109 73.2271 85.6834C72.7294 85.9705 72.2457 86.1162 71.805 86.1162V86.1151ZM74.4332 78.5072C74.0677 78.5072 73.6571 78.6335 73.226 78.8818C71.662 79.7851 70.3903 81.989 70.3903 83.7957C70.3903 84.6224 70.6569 85.2322 71.1428 85.5139C71.6297 85.7967 72.2941 85.7244 73.0121 85.3089C74.5762 84.4055 75.8478 82.2016 75.8478 80.3949C75.8478 79.5682 75.5813 78.9584 75.0954 78.6767C74.8997 78.5634 74.6761 78.5072 74.4321 78.5072H74.4332Z"></path><path d="M74.5454 81.2724C74.5454 82.1811 73.9079 83.2863 73.1211 83.7417C72.3342 84.1972 71.6968 83.8281 71.6968 82.9193C71.6968 82.0106 72.3342 80.9054 73.1211 80.4499C73.9079 79.9945 74.5454 80.3636 74.5454 81.2724Z" fill="white"></path><path d="M72.4834 84.2069C72.3007 84.2069 72.1298 84.1627 71.9771 84.0742C71.6224 83.868 71.4268 83.4579 71.4268 82.9183C71.4268 81.9081 72.1115 80.7209 72.9865 80.2158C73.4541 79.9459 73.9077 79.9103 74.2635 80.1165C74.6183 80.3226 74.8139 80.7327 74.8139 81.2724C74.8139 82.2826 74.1292 83.4698 73.2542 83.9749C72.9876 84.1292 72.7253 84.2069 72.4834 84.2069ZM73.7573 80.5255C73.6089 80.5255 73.4358 80.5795 73.2542 80.6831C72.5555 81.0867 71.9642 82.1099 71.9642 82.9183C71.9642 83.2518 72.0674 83.5032 72.2459 83.6068C72.4265 83.7115 72.6963 83.6748 72.9865 83.5076C73.6852 83.1039 74.2764 82.0797 74.2764 81.2724C74.2764 80.9389 74.1733 80.6874 73.9948 80.5838C73.9271 80.5449 73.8465 80.5255 73.7573 80.5255Z"></path><path d="M22.4796 73.8653L22.1754 74.0423C21.8163 74.2506 21.8636 74.6143 22.2796 74.8528L23.8598 75.7605C24.2758 75.999 24.9036 76.0249 25.2615 75.8166L25.5658 75.6396C25.9248 75.4313 25.8775 75.0676 25.4615 74.8291L23.8813 73.9214C23.4653 73.6829 22.8375 73.657 22.4796 73.8653Z" fill="white"></path><path d="M24.6497 76.2257C24.3283 76.2257 23.994 76.148 23.7263 75.9947L22.1461 75.087C21.8408 74.9122 21.6656 74.6596 21.6646 74.3941C21.6646 74.161 21.8011 73.9473 22.0397 73.8081L22.3439 73.6311C22.7825 73.3764 23.5167 73.4001 24.0144 73.6861L25.5946 74.5938C25.8999 74.7687 26.0751 75.0212 26.0761 75.2867C26.0761 75.5198 25.9396 75.7335 25.701 75.8728L25.3968 76.0498C25.1936 76.1674 24.927 76.2257 24.6497 76.2257ZM22.6148 74.0984L22.3106 74.2754C22.2439 74.3143 22.2031 74.3585 22.2031 74.3931C22.2031 74.4438 22.2687 74.5355 22.4138 74.6186L23.994 75.5263C24.324 75.7152 24.8539 75.7422 25.128 75.5824L25.4322 75.4054C25.4978 75.3666 25.5397 75.3223 25.5387 75.2878C25.5387 75.2371 25.4731 75.1453 25.328 75.0622L23.7478 74.1545C23.4178 73.9646 22.8878 73.9387 22.6137 74.0984H22.6148Z"></path><path d="M38.4112 69.4197L38.107 69.5967C37.748 69.805 37.7953 70.1688 38.2113 70.4073L39.7914 71.315C40.2075 71.5535 40.8352 71.5794 41.1932 71.3711L41.4974 71.1941C41.8564 70.9858 41.8091 70.6221 41.3931 70.3835L39.8129 69.4759C39.3969 69.2373 38.7692 69.2114 38.4112 69.4197Z" fill="white"></path><path d="M40.5813 71.7801C40.2599 71.7801 39.9256 71.7024 39.6579 71.5492L38.0778 70.6415C37.7725 70.4666 37.5973 70.2141 37.5962 69.9486C37.5962 69.7155 37.7327 69.5018 37.9713 69.3625L38.2756 69.1855C38.7141 68.9308 39.4483 68.9546 39.946 69.2406L41.5262 70.1483C41.8315 70.3231 42.0067 70.5757 42.0078 70.8412C42.0078 71.0743 41.8713 71.288 41.6326 71.4272L41.3284 71.6042C41.1252 71.7218 40.8587 71.7801 40.5813 71.7801ZM38.5454 69.6529L38.2412 69.8299C38.1745 69.8687 38.1337 69.913 38.1337 69.9475C38.1337 69.9982 38.2003 70.09 38.3444 70.1731L39.9245 71.0808C40.2545 71.2696 40.7845 71.2966 41.0586 71.1369L41.3628 70.9599C41.4295 70.921 41.4703 70.8768 41.4703 70.8422C41.4703 70.7915 41.4037 70.6998 41.2596 70.6167L39.6794 69.709C39.3494 69.519 38.8195 69.4931 38.5454 69.6529Z"></path><path d="M51.606 63.5388L51.3018 63.7158C50.9428 63.9241 50.9901 64.2878 51.4061 64.5263L52.9863 65.434C53.4023 65.6725 54.03 65.6984 54.388 65.4901L54.6922 65.3131C55.0512 65.1048 55.0039 64.7411 54.5879 64.5026L53.0078 63.5949C52.5918 63.3564 51.964 63.3305 51.606 63.5388Z" fill="white"></path><path d="M53.7752 65.8991C53.4538 65.8991 53.1195 65.8214 52.8518 65.6682L51.2716 64.7605C50.9663 64.5857 50.7911 64.3331 50.79 64.0676C50.79 63.8345 50.9266 63.6208 51.1652 63.4816L51.4694 63.3046C51.908 63.0498 52.6422 63.0736 53.1399 63.3596L54.7201 64.2673C55.0253 64.4421 55.2006 64.6947 55.2016 64.9602C55.2016 65.1933 55.0651 65.407 54.8265 65.5462L54.5223 65.7232C54.3191 65.8409 54.0525 65.8991 53.7752 65.8991ZM52.2122 63.6672C52.0305 63.6672 51.8607 63.7017 51.7392 63.7719L51.435 63.9489C51.3684 63.9877 51.3275 64.032 51.3275 64.0665C51.3275 64.1173 51.3942 64.209 51.5382 64.2921L53.1184 65.1998C53.4484 65.3886 53.9783 65.4156 54.2525 65.2559L54.5567 65.0789C54.6222 65.04 54.6642 64.9958 54.6642 64.9612C54.6642 64.9105 54.5975 64.8188 54.4535 64.7357L52.8733 63.828C52.6884 63.7222 52.4422 63.6672 52.2122 63.6672Z"></path><path d="M0.318389 84.902L0.275391 83.078L5.89737 82.9722L47.3065 70.5746L63.3211 60.3689L82.0295 71.1142L87.4129 72.1385V74.2064C87.4129 74.2064 33.4139 83.3327 6.25748 88.2866C5.82858 88.3643 5.36527 88.2985 5.04709 88.115L1.59865 86.1345L0.626899 85.5765C0.301189 85.3898 0.213044 85.1319 0.319464 84.902H0.318389Z"></path><path d="M5.89717 88.5348C5.54566 88.5348 5.2006 88.4539 4.93831 88.3028L0.518124 85.7643C0.135442 85.5452 -0.0236506 85.1956 0.101043 84.8621L0.0591205 83.0834C0.0580455 83.0262 0.0795445 82.9701 0.119318 82.9291C0.159091 82.8881 0.212838 82.8632 0.270885 82.8622L5.86277 82.7575L47.215 70.3771L63.2038 60.1876C63.2715 60.1444 63.3564 60.1423 63.4263 60.1822L82.1035 70.9092L87.4514 71.9269C87.5524 71.9463 87.6266 72.0348 87.6266 72.1385V74.2064C87.6266 74.3121 87.5514 74.4017 87.4471 74.419C86.9075 74.5096 33.1396 83.6015 6.29382 88.4981C6.16375 88.5219 6.02939 88.5338 5.89717 88.5338V88.5348ZM0.49555 83.2906L0.533173 84.8977C0.533173 84.9311 0.526723 84.9635 0.512749 84.9937C0.426753 85.1794 0.613794 85.3218 0.732038 85.3898L5.15223 87.9283C5.42956 88.088 5.83805 88.1441 6.2175 88.0751C32.2872 83.3187 83.7407 74.6089 87.1966 74.025V72.3187L81.9874 71.3279C81.9638 71.3236 81.9412 71.315 81.9208 71.3031L63.3252 60.6226L47.4203 70.7581C47.4031 70.7689 47.3859 70.7775 47.3665 70.7829L5.95736 83.1805C5.93909 83.1859 5.91974 83.1892 5.90039 83.1892L0.494475 83.2906H0.49555Z"></path><path d="M87.4114 72.1384C87.4114 72.1384 33.4124 81.2648 6.256 86.2187C5.82709 86.2964 5.36379 86.2306 5.0456 86.0471L1.59717 84.0666C26.7424 79.1688 71.8107 70.9134 82.0281 69.0463L87.4114 72.1384Z" fill="white"></path><path d="M5.89917 86.5209C5.53799 86.5209 5.18218 86.4378 4.91237 86.2824L1.46393 84.3019C1.36611 84.2458 1.31344 84.1346 1.33171 84.0234C1.34999 83.9123 1.43491 83.8238 1.54563 83.8022C26.8725 78.8688 72.991 70.4235 81.9797 68.7808C82.0421 68.77 82.1066 68.7808 82.1614 68.8121L87.5447 71.9042C87.6436 71.9604 87.6963 72.0737 87.6759 72.1859C87.6555 72.2982 87.5684 72.3856 87.4555 72.405C86.9159 72.4957 33.148 81.5875 6.30335 86.4853C6.17006 86.509 6.03354 86.5209 5.89809 86.5209H5.89917ZM2.35936 84.194L5.17895 85.814C5.44232 85.9651 5.8465 86.0201 6.20875 85.9543C31.3325 81.3706 80.033 73.1152 86.6257 71.9992L81.9797 69.3312C72.8491 70.9998 27.7346 79.2627 2.35936 84.195V84.194Z"></path><path d="M0.921137 82.3948L47.3052 68.5078L63.3198 58.3021L82.0282 69.0474C71.8108 70.9146 26.7425 79.17 1.59728 84.0677L0.625526 83.5097C0.0450536 83.1762 0.194471 82.6129 0.921137 82.3948Z" fill="white"></path><path d="M1.5972 84.3375C1.55098 84.3375 1.50475 84.3257 1.46391 84.3019L0.492152 83.7439C0.146018 83.5453 -0.0313481 83.2518 0.00520014 82.9388C0.0460482 82.5815 0.359933 82.2826 0.844735 82.1369L47.1933 68.2595L63.1756 58.0744C63.2595 58.0204 63.367 58.0183 63.453 58.0679L82.1614 68.8132C82.2592 68.8693 82.3119 68.9816 82.2925 69.0927C82.2732 69.205 82.1872 69.2924 82.0754 69.3129C73.0878 70.9556 26.9724 79.3998 1.64772 84.3332C1.63052 84.3365 1.61332 84.3386 1.59612 84.3386L1.5972 84.3375ZM0.997378 82.6528C0.697467 82.7424 0.550199 82.8913 0.538375 82.9992C0.5287 83.0867 0.610396 83.1892 0.758739 83.2744L1.6445 83.7828C26.3726 78.967 70.7659 70.8315 81.2552 68.9125L63.3272 58.6151L47.4491 68.7333C47.4287 68.7463 47.4051 68.7571 47.3825 68.7646L0.997378 82.6528Z"></path><circle cx="65" cy="50" r="8" fill="none" stroke="#888" stroke-linecap="round" stroke-linejoin="round" stroke-width="1" opacity="0.5"/><path d="M68,53a3,3,0,1,1,0-4" fill="none" stroke="#888" stroke-linecap="round" stroke-linejoin="round" stroke-width="1" opacity="0.5"/></svg>