<svg xmlns="http://www.w3.org/2000/svg" width="8" height="15" viewBox="0 0 8 15"><path d="M4.40924 5.15357V3.27857C4.40946 3.15538 4.43254 3.03345 4.47714 2.91973C4.52174 2.80602 4.58699 2.70277 4.66917 2.61587C4.75135 2.52896 4.84884 2.46012 4.95607 2.41328C5.0633 2.36644 5.17818 2.34251 5.29412 2.34286H6.17563V1.41826e-07H4.41092C4.06345 -0.000117134 3.71938 0.0724976 3.39833 0.213697C3.07728 0.354896 2.78556 0.561913 2.53982 0.822924C2.29409 1.08393 2.09915 1.39382 1.96615 1.73489C1.83316 2.07596 1.76471 2.44153 1.76471 2.81071V5.15357H0V7.5H1.76471V15H4.41009V7.5H6.1748L7.05882 5.15357H4.40924Z"></path></svg>