<svg xmlns="http://www.w3.org/2000/svg" viewBox="0 0 17.11 19.63"><path class="cls-1" d="M8.56,11.78c-1.94,0-3.51-1.57-3.51-3.51s1.57-3.51,3.51-3.51,3.51,1.57,3.51,3.51-1.58,3.51-3.51,3.51Zm0-5.72c-1.22,0-2.21,.99-2.21,2.21s.99,2.21,2.21,2.21,2.21-.99,2.21-2.21-.99-2.21-2.21-2.21Z"></path><path class="cls-1" d="M8.56,19.63c-1.35,0-2.7-.51-3.76-1.52C2.1,15.52-.88,11.39,.24,6.46H.24C1.26,2,5.15,0,8.55,0h0c3.41,0,7.3,2,8.31,6.46,1.12,4.93-1.87,9.06-4.57,11.65-1.05,1.01-2.4,1.52-3.75,1.52ZM1.51,6.74c-.98,4.34,1.74,8.07,4.19,10.43,1.6,1.54,4.11,1.54,5.71,0,2.46-2.36,5.18-6.08,4.2-10.43-.91-4.02-4.37-5.45-7.05-5.45h0C5.87,1.3,2.42,2.73,1.51,6.74h0Z"></path></svg>