<svg xmlns="http://www.w3.org/2000/svg" viewBox="0 0 15.3 20.3"><path d="M10.27,20.3H5.02c-3.85,0-5.02-1.26-5.02-5.4V5.4C0,1.26,1.17,0,5.02,0h5.25c3.85,0,5.03,1.26,5.03,5.4V14.9c0,4.14-1.17,5.4-5.03,5.4ZM5.02,1.3C1.89,1.3,1.3,1.95,1.3,5.4V14.9c0,3.45,.59,4.1,3.73,4.1h5.25c3.13,0,3.72-.65,3.72-4.1V5.4c0-3.45-.59-4.1-3.72-4.1H5.02Z"></path><path d="M9.4,4.62h-3.5c-.36,0-.65-.29-.65-.65s.29-.65,.65-.65h3.5c.36,0,.65,.29,.65,.65s-.29,.65-.65,.65Z"></path><path d="M7.65,17.55c-1.11,0-2.01-.95-2.01-2.12s.9-2.12,2.01-2.12,2.01,.95,2.01,2.12-.9,2.12-2.01,2.12Zm0-2.95c-.39,0-.71,.37-.71,.82s.32,.82,.71,.82,.71-.37,.71-.82-.32-.82-.71-.82Z"></path></svg>