<svg xmlns="http://www.w3.org/2000/svg" viewBox="0 0 18 12"><path d="M17.0988 5.45522L12.1438 0.500221C11.9986 0.355015 11.8016 0.273437 11.5963 0.273438C11.3909 0.273438 11.194 0.355015 11.0488 0.500221C10.9036 0.645427 10.822 0.84237 10.822 1.04772C10.822 1.25307 10.9036 1.45002 11.0488 1.59522L14.6818 5.22822H1.44978C1.2445 5.22822 1.04763 5.30977 0.902481 5.45492C0.757327 5.60007 0.675781 5.79694 0.675781 6.00222C0.675781 6.2075 0.757327 6.40437 0.902481 6.54952C1.04763 6.69468 1.2445 6.77622 1.44978 6.77622H14.6818L11.0488 10.4092C10.9036 10.5544 10.822 10.7514 10.822 10.9567C10.822 11.1621 10.9036 11.359 11.0488 11.5042C11.194 11.6494 11.3909 11.731 11.5963 11.731C11.8016 11.731 11.9986 11.6494 12.1438 11.5042L17.0978 6.54922C17.2429 6.40422 17.3245 6.20756 17.3247 6.00243C17.3249 5.7973 17.2436 5.60048 17.0988 5.45522Z"></path></svg>