<svg xmlns="http://www.w3.org/2000/svg" viewBox="0 0 19.63 16.88"><path d="M14.4,16.88H5.23c-3.33,0-5.23-1.91-5.23-5.23V5.23C0,1.91,1.91,0,5.23,0H14.4c3.33,0,5.23,1.91,5.23,5.23v6.42c0,3.33-1.91,5.23-5.23,5.23ZM5.23,1.3c-2.61,0-3.93,1.32-3.93,3.93v6.42c0,2.61,1.32,3.93,3.93,3.93H14.4c2.61,0,3.93-1.32,3.93-3.93V5.23c0-2.61-1.32-3.93-3.93-3.93H5.23Z"></path><path d="M9.81,9.2c-.76,0-1.53-.24-2.12-.71l-2.86-2.29c-.28-.22-.33-.63-.1-.91,.22-.28,.63-.33,.91-.1l2.86,2.29c.71,.57,1.91,.57,2.63,0l2.87-2.29c.28-.22,.69-.18,.91,.1s.18,.69-.1,.91l-2.87,2.29c-.6,.47-1.36,.71-2.12,.71Z"></path></svg>