<svg xmlns="http://www.w3.org/2000/svg" width="24" height="24" viewBox="0 0 24 24"><path d="M3.54038 3.54067C3.79422 3.28683 4.20578 3.28683 4.45962 3.54067L20.2342 19.3152C20.488 19.5691 20.488 19.9806 20.2342 20.2345C19.9803 20.4883 19.5688 20.4883 19.3149 20.2345L3.54038 4.45991C3.28654 4.20607 3.28654 3.79451 3.54038 3.54067Z"></path><path d="M3.76431 20.4596C3.51047 20.2058 3.51047 19.7942 3.76431 19.5404L19.5389 3.76582C19.7927 3.51198 20.2043 3.51198 20.4581 3.76582C20.7119 4.01966 20.7119 4.43122 20.4581 4.68506L4.68355 20.4596C4.4297 20.7135 4.01815 20.7135 3.76431 20.4596Z"></path></svg>