<svg xmlns="http://www.w3.org/2000/svg" xmlns:xlink="http://www.w3.org/1999/xlink" id="Layer_1" x="0px" y="0px" viewBox="0 0 998 298.2" style="enable-background:new 0 0 998 298.2;" xml:space="preserve"><style type="text/css"> .st0{fill:#494949;}</style><path id="Flying_airplane" class="st0" d="M670.9,246.2c11,2.4,19.3,12.3,19.3,24c0,1.6,0,4.1-1.2,6.5c0.4-1.6,0.7-3.3,0.7-5 c0-1.8-0.2-3.6-0.6-5.4c-0.4-1.8-1-3.5-1.8-5.2c-0.8-1.7-1.8-3.2-2.9-4.7c-0.3-0.4-0.6-0.7-0.9-1c-0.1-0.2-0.3-0.3-0.4-0.5l-0.5-0.5 c-0.3-0.3-0.6-0.6-0.9-0.9c-0.3-0.3-0.7-0.6-1-0.8c-0.3-0.3-0.7-0.5-1-0.8c-0.3-0.2-0.7-0.5-1-0.7c-0.7-0.4-1.4-0.9-2.1-1.2 c-0.3-0.2-0.7-0.3-1-0.5c-0.4-0.1-0.7-0.3-1-0.4c-0.3-0.1-0.7-0.3-1-0.4c-0.3-0.1-0.7-0.2-1-0.3c-0.6-0.2-1.3-0.3-1.9-0.4 c-0.3-0.1-0.6-0.1-0.9-0.2c-0.3,0-0.6-0.1-0.8-0.1c-1.1-0.2-2-0.1-2.8-0.1c-0.1,0-0.2,0-0.3,0c-0.1,0-0.2,0-0.3,0 c-0.2,0-0.3,0-0.5,0c-0.3,0-0.6,0-0.8,0.1c-0.4,0-0.6,0-0.6,0s0.2,0,0.6,0c0.2,0,0.5,0,0.8,0c0.2,0,0.3,0,0.5,0c0.1,0,0.2,0,0.3,0 c0.1,0,0.2,0,0.3,0c0.8,0.1,1.7,0.1,2.8,0.3c0.3,0,0.5,0.1,0.8,0.1c0.3,0,0.6,0.1,0.9,0.2c0.6,0.2,1.2,0.3,1.8,0.5 c0.3,0.1,0.6,0.2,0.9,0.3c0.3,0.1,0.6,0.3,1,0.4c0.3,0.2,0.6,0.3,1,0.5c0.3,0.2,0.6,0.4,1,0.6c0.7,0.4,1.3,0.8,1.9,1.3 c0.3,0.2,0.6,0.5,0.9,0.7c0.3,0.3,0.6,0.5,0.9,0.8c0.3,0.3,0.6,0.6,0.9,0.9c0.3,0.3,0.5,0.6,0.8,0.9l0.4,0.5l0.4,0.5 c0.2,0.3,0.5,0.7,0.8,1c1,1.4,1.8,2.9,2.4,4.5c0.6,1.6,1.1,3.2,1.4,4.9c0.3,1.7,0.3,3.3,0.2,4.9c-0.1,1.6-0.5,3-0.9,4.4 c-0.3,0.6-0.5,1.3-0.8,1.8c-0.1,0.1-0.2,0.3-0.2,0.4l-0.1,0.2l-0.1,0.2c-0.2,0.3-0.4,0.5-0.5,0.8c-0.2,0.3-0.4,0.5-0.5,0.7 c-0.2,0.2-0.4,0.4-0.5,0.6c-0.4,0.4-0.8,0.7-1.1,1c-0.4,0.3-0.8,0.5-1.1,0.8c-0.3,0.2-0.7,0.4-0.9,0.5c-0.1,0.1-0.3,0.2-0.4,0.2 c-0.1,0.1-0.3,0.1-0.4,0.2c-0.3,0.1-0.5,0.2-0.7,0.3c-0.1,0-0.1,0.1-0.2,0.1c-3.3,0.8-7.5,1.4-12.9,1.3c-3.7,0-6.9-0.3-9.5-0.7 c5,0.3,9.9-0.2,13.6-0.7c1-0.1,1.8-0.3,2.6-0.4c0.8-0.1,1.4-0.3,2-0.4c1.1-0.2,1.7-0.4,1.7-0.4s-0.6,0.1-1.7,0.2 c-0.6,0.1-1.2,0.1-2,0.2c-0.8,0.1-1.7,0.1-2.6,0.2c-1,0.1-2,0.1-3.1,0.1c-1.1,0-2.3,0-3.5,0c-1.2,0-2.4-0.1-3.7-0.2 c-1.2-0.1-2.5-0.3-3.7-0.5c-1.2-0.2-2.5-0.5-3.7-0.8c-1.2-0.3-2.3-0.7-3.4-1.1c-1.1-0.4-2-0.9-2.9-1.5c-0.4-0.3-0.8-0.5-1.2-0.8 c-0.2-0.1-0.4-0.3-0.5-0.4c-0.2-0.2-0.3-0.3-0.5-0.5c-0.1-0.1-0.2-0.1-0.2-0.2c-0.1-0.1-0.1-0.2-0.2-0.2c-0.1-0.2-0.3-0.3-0.4-0.4 c-0.2-0.3-0.4-0.6-0.6-0.9c-0.1-0.2-0.3-0.5-0.4-0.7c-0.6-2-0.6-3.8-0.6-5.1c0-8.6,4.5-16.1,11.2-20.5c-1,0.9-1.9,1.9-2.7,2.9 c-1.1,1.4-2.1,2.8-2.8,4.3c-0.8,1.5-1.5,2.9-2,4.4c-0.1,0.2-0.1,0.4-0.2,0.5c-0.1,0.2-0.1,0.4-0.2,0.5c-0.1,0.4-0.2,0.7-0.3,1 c-0.1,0.3-0.2,0.7-0.3,1c-0.1,0.3-0.2,0.7-0.2,1c-0.1,0.6-0.2,1.3-0.3,1.9c0,0.3-0.1,0.6-0.1,0.9c0,0.3,0,0.6-0.1,0.8 c0,0.3,0,0.5,0,0.8c0,0.2,0,0.5,0,0.7c0,0.2,0,0.5,0,0.7c0,0.2,0,0.4,0,0.6c0,0.4,0,0.7,0.1,1c0,0.3,0.1,0.5,0.1,0.7 c0.1,0.4,0.1,0.6,0.1,0.6s0-0.2-0.1-0.6c0-0.2,0-0.5-0.1-0.7c0-0.3,0-0.6,0-1c0-0.2,0-0.4,0-0.6c0-0.2,0-0.4,0-0.7 c0-0.2,0-0.5,0-0.7c0-0.2,0.1-0.5,0.1-0.8c0-0.3,0.1-0.5,0.1-0.8c0.1-0.3,0.1-0.6,0.2-0.8c0.1-0.6,0.3-1.2,0.4-1.8 c0.1-0.3,0.2-0.6,0.3-1c0.1-0.3,0.2-0.6,0.3-1c0.1-0.3,0.2-0.7,0.4-1c0.1-0.2,0.1-0.3,0.2-0.5c0.1-0.2,0.1-0.3,0.2-0.5 c0.6-1.4,1.3-2.7,2.2-4.1c0.8-1.4,1.9-2.7,3-3.9c1.1-1.3,2.4-2.4,3.7-3.4c1.3-1,2.8-1.8,4.3-2.5c1.5-0.7,3-1.1,4.6-1.4 c0.4-0.1,0.8-0.1,1.1-0.2c0.4,0,0.8-0.1,1.1-0.1c0.2,0,0.4,0,0.5,0c0.2,0,0.4,0,0.5,0c0.4,0,0.7,0,1.1,0c0.7,0,1.4,0.1,2,0.2 C670.2,246.1,670.5,246.2,670.9,246.2z M345.5,249c1,0.9,1.9,1.9,2.7,2.9c1.1,1.4,2.1,2.8,2.8,4.3c0.8,1.5,1.5,2.9,1.9,4.4 c0.1,0.2,0.1,0.4,0.2,0.5c0.1,0.2,0.1,0.4,0.2,0.5c0.1,0.4,0.2,0.7,0.3,1c0.1,0.3,0.2,0.7,0.2,1c0.1,0.3,0.2,0.7,0.2,1 c0.1,0.6,0.2,1.3,0.3,1.9c0,0.3,0.1,0.6,0.1,0.9c0,0.3,0,0.6,0,0.8c0,0.3,0,0.5,0,0.8c0,0.2,0,0.5,0,0.7c0,0.2,0,0.5,0,0.7 c0,0.2,0,0.4,0,0.6c0,0.4-0.1,0.7-0.1,1c0,0.3-0.1,0.5-0.1,0.7c-0.1,0.4-0.1,0.6-0.1,0.6s0-0.2,0.1-0.6c0-0.2,0-0.5,0.1-0.7 c0-0.3,0-0.6,0-1c0-0.2,0-0.4,0-0.6c0-0.2,0-0.4,0-0.7c0-0.2,0-0.5,0-0.7c0-0.2-0.1-0.5-0.1-0.8c0-0.3-0.1-0.5-0.1-0.8 c-0.1-0.3-0.1-0.6-0.2-0.8c-0.1-0.6-0.2-1.2-0.4-1.8c-0.1-0.3-0.2-0.6-0.3-1c-0.1-0.3-0.2-0.6-0.3-1c-0.1-0.3-0.2-0.7-0.4-1 c-0.1-0.2-0.1-0.3-0.2-0.5c-0.1-0.2-0.1-0.3-0.2-0.5c-0.6-1.4-1.3-2.7-2.1-4.1c-0.8-1.4-1.9-2.7-3-3.9c-1.1-1.3-2.4-2.4-3.7-3.4 c-1.3-1-2.8-1.8-4.3-2.5c-1.5-0.7-3-1.1-4.5-1.4c-0.4-0.1-0.8-0.1-1.1-0.2c-0.4,0-0.7-0.1-1.1-0.1c-0.2,0-0.4,0-0.5,0 c-0.2,0-0.4,0-0.5,0c-0.4,0-0.7,0-1.1,0c-0.7,0-1.4,0.1-2,0.2c-0.4,0.1-0.7,0.1-1.1,0.2c-11,2.4-19.4,12.2-19.4,23.9 c0,1.6,0,4.1,1.2,6.6c-0.4-1.6-0.7-3.3-0.7-5c0-1.8,0.2-3.6,0.6-5.4c0.4-1.8,1.1-3.5,1.8-5.2c0.8-1.6,1.8-3.2,2.9-4.6 c0.3-0.4,0.6-0.7,0.9-1c0.1-0.2,0.3-0.3,0.4-0.5l0.5-0.5c0.3-0.3,0.6-0.6,0.9-0.9c0.3-0.3,0.7-0.6,1-0.8c0.3-0.3,0.7-0.5,1-0.8 c0.3-0.2,0.7-0.5,1-0.7c0.7-0.4,1.4-0.9,2.1-1.2c0.3-0.2,0.7-0.3,1-0.5c0.4-0.1,0.7-0.3,1-0.4c0.3-0.1,0.7-0.3,1-0.4 c0.3-0.1,0.7-0.2,1-0.3c0.6-0.2,1.3-0.3,1.9-0.4c0.3-0.1,0.6-0.1,0.9-0.2c0.3,0,0.6-0.1,0.8-0.1c1.1-0.2,2-0.1,2.8-0.1 c0.1,0,0.2,0,0.3,0c0.1,0,0.2,0,0.3,0c0.2,0,0.3,0,0.5,0c0.3,0,0.6,0,0.8,0.1c0.4,0,0.6,0.1,0.6,0.1s-0.2,0-0.6,0 c-0.2,0-0.5,0-0.8,0c-0.2,0-0.3,0-0.5,0c-0.1,0-0.2,0-0.3,0c-0.1,0-0.2,0-0.3,0c-0.8,0.1-1.7,0.1-2.8,0.3c-0.3,0-0.5,0.1-0.8,0.1 c-0.3,0-0.6,0.1-0.9,0.2c-0.6,0.2-1.2,0.3-1.8,0.5c-0.3,0.1-0.6,0.2-0.9,0.3c-0.3,0.1-0.6,0.3-1,0.4c-0.3,0.1-0.6,0.3-1,0.5 c-0.3,0.2-0.6,0.4-1,0.6c-0.7,0.3-1.3,0.8-1.9,1.3c-0.3,0.2-0.6,0.5-0.9,0.7c-0.3,0.3-0.6,0.5-0.9,0.8c-0.3,0.3-0.6,0.6-0.9,0.9 c-0.3,0.3-0.6,0.6-0.8,0.9l-0.4,0.5l-0.4,0.5c-0.3,0.3-0.5,0.7-0.8,1c-1,1.4-1.8,2.9-2.4,4.5c-0.6,1.6-1.1,3.2-1.4,4.9 c-0.3,1.6-0.3,3.3-0.2,4.9c0.1,1.6,0.5,3,0.9,4.4c0.3,0.6,0.5,1.3,0.8,1.8c0.1,0.1,0.2,0.3,0.2,0.4l0.1,0.2l0.1,0.2 c0.2,0.3,0.3,0.5,0.5,0.8c0.2,0.3,0.4,0.5,0.5,0.7c0.2,0.2,0.4,0.4,0.5,0.6c0.4,0.4,0.8,0.7,1.1,1c0.4,0.3,0.8,0.6,1.1,0.8 c0.3,0.2,0.7,0.4,0.9,0.6c0.1,0.1,0.3,0.2,0.4,0.2c0.1,0.1,0.3,0.1,0.4,0.2c0.3,0.1,0.5,0.2,0.7,0.3c0.1,0,0.1,0.1,0.2,0.1 c3.3,0.9,7.5,1.4,12.9,1.4c3.7,0,6.9-0.2,9.5-0.7c-5,0.3-9.9-0.2-13.6-0.7c-1-0.1-1.8-0.3-2.6-0.4c-0.8-0.1-1.4-0.3-2-0.4 c-1.1-0.2-1.7-0.4-1.7-0.4s0.6,0.1,1.7,0.3c0.6,0.1,1.2,0.2,2,0.2c0.8,0.1,1.7,0.1,2.6,0.2c1,0.1,2,0.1,3.1,0.1c1.1,0,2.3,0,3.5,0 c1.2,0,2.4-0.1,3.7-0.2c1.2-0.1,2.5-0.3,3.8-0.4c1.2-0.2,2.5-0.4,3.7-0.8c1.2-0.3,2.3-0.7,3.4-1.1c1.1-0.4,2-0.9,2.9-1.5 c0.4-0.3,0.8-0.5,1.2-0.8c0.2-0.1,0.4-0.3,0.5-0.4c0.2-0.2,0.3-0.3,0.5-0.5c0.1-0.1,0.2-0.1,0.2-0.2c0.1-0.1,0.1-0.2,0.2-0.2 c0.1-0.2,0.3-0.3,0.4-0.4c0.2-0.3,0.4-0.6,0.6-0.9c0.1-0.2,0.3-0.5,0.4-0.7c0.6-1.9,0.6-3.8,0.6-5.1 C356.6,261,352.2,253.4,345.5,249z M998,204.9c0,0.4,0,0.8-0.2,1.2c-0.4,1.7-1.7,3-3.5,3.3c0,0-62,3.6-143.1,10.7l0,7 c0,3.3-2.6,5.9-5.9,5.9c-3.3,0-5.9-2.6-5.9-5.9l0-5.9c-29.5,2.6-61.1,5.7-93,9.2l0,6.4c0,3.3-2.6,5.9-5.9,5.9 c-3.3,0-5.9-2.6-5.9-5.9l0-5c-16.8,1.9-33.6,3.9-50.2,6.1c11.2,6.5,18.7,18.6,18.7,32.5c0,20.7-16.8,28-37.5,28 c-20.7,0-37.4-7.4-37.4-28.1c0-10.1,4-19.3,10.5-26c-30.3,4.5-58.6,9.5-82.9,14.9c-1.9,10.4-11.1,18.3-22.1,18.3 c0,0-18.2-1.2-36-1.2c-17.9,0-36,1.1-36,1.1c-11.2,0-20.4-8.2-22.1-18.9c-23.7-5.3-51.2-10.2-80.6-14.8c6.5,6.8,10.5,15.9,10.4,26 c0,20.7-16.8,28-37.5,28c-20.7,0-37.4-7.4-37.4-28.1c0-13.9,7.6-26,18.8-32.4c-16.5-2.2-33.3-4.3-50.2-6.3l0,5 c0,3.3-2.6,5.9-5.9,5.9c-3.3,0-5.9-2.6-5.9-5.9l0-6.4c-32-3.7-63.6-6.9-93-9.6l0,5.9c0,3.3-2.6,5.9-5.9,5.9c-3.3,0-5.9-2.6-5.9-5.9 l0-7C65.6,211.2,3.7,207.4,3.7,207.4c-1.8-0.2-3.2-1.6-3.5-3.3C0,203.7,0,203.3,0,202.9l3-39.1l2.6,35.4 c16.7,0.9,198.3,11,418.6,28.4c6.5,0.5,10.6,0.2,14.6-3.1c-0.9-4.5-1.3-9.2-1.3-14.2c0-4.2,0.4-8.4,1-12.4c-3-0.3-6.3-0.7-9.7-1.1 c-3.6-0.5-7.5-0.9-11.4-1.5c-7.9-1.1-16.4-2.2-24.8-3.3c-8.4-1.1-16.9-2.2-24.8-3.2c-4-0.5-7.8-1-11.4-1.5 c-3.6-0.5-7.1-0.9-10.2-1.4c-3.2-0.4-6.1-0.8-8.6-1.2c-2.6-0.4-4.8-0.7-6.7-0.9c-3.7-0.5-5.8-0.8-5.8-0.8c-1.3-0.2-2.2-1.4-2-2.7 c0.2-1.2,1.3-2.1,2.5-2c0,0,2.1,0.2,5.8,0.5c1.9,0.2,4.1,0.3,6.7,0.5c2.6,0.2,5.5,0.5,8.7,0.7c3.2,0.3,6.6,0.6,10.3,0.9 c3.6,0.3,7.5,0.7,11.5,1c8,0.7,16.4,1.5,24.9,2.2c8.5,0.7,17,1.4,24.9,2.1c4,0.3,7.8,0.7,11.5,1c3.6,0.4,7.1,0.7,10.3,1 c0.2,0,0.4,0,0.6,0.1c7.1-24,25.7-41.9,49.2-45.3c0-1.5,0-3,0-4.5c0-3.7,0.1-7.8,0.2-12.1c0.1-4.3,0.3-8.8,0.5-13.5 c0.2-4.7,0.5-9.5,0.7-14.4c0.2-4.9,0.5-9.9,0.7-14.9c0.1-2.5,0.2-5,0.3-7.5c0.1-2.5,0.2-5,0.3-7.4c0.2-4.9,0.3-9.7,0.4-14.4 c0.1-4.7,0.2-9.2,0.3-13.5c0.1-4.3,0.2-8.3,0.3-12.1c0.1-3.7,0.1-7.2,0.2-10.2c0-3,0.1-5.7,0.1-7.9c0-2.2,0-3.9,0.1-5.1 c0-1.2,0-1.8,0-1.8c0-2.3,1.9-4.1,4.2-4.1c2.3,0,4.1,1.9,4.1,4.1c0,0,0,0.6,0,1.8c0,1.2,0,2.9,0,5.1c0,2.2,0.1,4.8,0.1,7.9 c0,3,0.1,6.5,0.2,10.2c0.1,3.7,0.1,7.8,0.2,12.1c0.1,4.3,0.2,8.8,0.3,13.5c0.1,4.7,0.2,9.5,0.3,14.4c0.1,2.5,0.2,4.9,0.2,7.4 c0.1,2.5,0.2,5,0.3,7.5c0.2,5,0.5,10,0.7,14.9c0.2,4.9,0.5,9.7,0.7,14.4c0.2,4.7,0.4,9.2,0.5,13.5c0.1,4.3,0.2,8.3,0.2,12.1 c0,1.6,0,3.1,0,4.5c23.4,3.4,41.9,21.4,49,45.3c2.9-0.3,6.1-0.6,9.4-0.9c3.6-0.3,7.5-0.7,11.5-1c8-0.6,16.5-1.3,24.9-2 c8.5-0.7,17-1.4,24.9-2.1c4-0.3,7.8-0.7,11.5-1c3.6-0.3,7.1-0.6,10.3-0.8c3.2-0.3,6.1-0.5,8.7-0.7c2.6-0.2,4.8-0.4,6.7-0.5 c3.7-0.3,5.8-0.4,5.8-0.4c1.3-0.1,2.4,0.9,2.5,2.2c0.1,1.3-0.8,2.3-2,2.5c0,0-2.1,0.3-5.8,0.8c-1.8,0.2-4.1,0.5-6.7,0.9 c-2.6,0.3-5.5,0.7-8.6,1.1c-3.2,0.4-6.6,0.8-10.2,1.3c-3.6,0.5-7.5,0.9-11.4,1.4c-7.9,1-16.4,2.1-24.8,3.1 c-8.4,1.1-16.9,2.2-24.8,3.2c-4,0.5-7.8,1-11.4,1.4c-2.9,0.3-5.7,0.7-8.3,0.9c0.7,4.1,1,8.3,1,12.6c0,4.3-0.4,8.5-1,12.4 c4.7,4.9,8.9,5.4,16.5,4.8c220.4-16.5,402-25.9,418.7-26.7l2.7-35.4L998,204.9z M555.7,190.4c0.3,1.1,0.6,2.2,0.8,3.3l89-11 L555.7,190.4z M494,142.8c1.3-0.1,2.7-0.2,4-0.1c1.4,0,2.7,0.1,4,0.2l-3.8-121.4L494,142.8z M439.4,193.6c0.3-1.1,0.5-2.2,0.8-3.3 l-90.2-8.1L439.4,193.6z M332.2,237.9c-5.2,0-10,1.2-14.3,3.4c0.3-0.1,0.6-0.2,0.9-0.3c2.9-1,6-1.7,9-2c1.5-0.1,3-0.2,4.5-0.1 c1.5,0.1,3,0.2,4.4,0.4c2.9,0.5,5.5,1.3,7.9,2.5c2.4,1.1,4.4,2.6,6.2,4.1c1.7,1.5,3.1,3.1,4.1,4.7c0.3,0.4,0.5,0.8,0.7,1.1 c0.2,0.4,0.5,0.7,0.6,1.1c0.2,0.3,0.4,0.7,0.6,1c0.2,0.3,0.3,0.6,0.5,0.9c0.3,0.6,0.5,1.1,0.7,1.6c0.2,0.5,0.4,0.9,0.5,1.2 c0.2,0.7,0.4,1,0.4,1s-0.1-0.3-0.4-1c-0.1-0.3-0.3-0.7-0.5-1.2c-0.2-0.5-0.5-1-0.8-1.5c-0.2-0.3-0.3-0.6-0.5-0.9 c-0.2-0.3-0.4-0.6-0.6-1c-0.2-0.3-0.4-0.7-0.7-1c-0.2-0.3-0.5-0.7-0.8-1c-1.1-1.4-2.5-2.9-4.3-4.3c-1.7-1.4-3.8-2.6-6.1-3.6 c-2.3-1-4.9-1.6-7.6-1.9c-1.4-0.1-2.7-0.2-4.1-0.2c-1.4,0-2.8,0.2-4.2,0.4c-2.8,0.4-5.6,1.2-8.3,2.4c-1.3,0.5-2.6,1.2-3.9,1.9 c-1.2,0.7-2.4,1.5-3.6,2.3c-1.1,0.8-2.2,1.7-3.2,2.7c-1,0.9-1.9,1.9-2.7,3c-1.7,2-2.9,4.3-3.9,6.4c-0.9,2.2-1.5,4.4-1.7,6.4 c-0.3,2-0.3,3.9-0.1,5.6c0,0.4,0.1,0.8,0.1,1.2c0,0.4,0.1,0.8,0.2,1.1c0.1,0.4,0.1,0.7,0.2,1c0.1,0.3,0.1,0.6,0.2,0.9 c0.1,0.3,0.1,0.5,0.2,0.8c3.2,9.7,13.4,14.6,30.3,14.6c-1.7-0.2-3.4-0.4-5-0.8c-3.8-0.8-7.3-1.9-10.1-3.2c-1.4-0.6-2.6-1.3-3.7-2 c-1-0.7-1.9-1.4-2.5-2c-0.3-0.3-0.6-0.6-0.8-0.8c-0.2-0.3-0.4-0.5-0.6-0.7c-0.3-0.4-0.4-0.6-0.4-0.6s0.2,0.2,0.5,0.5 c0.2,0.2,0.4,0.4,0.6,0.6c0.3,0.2,0.6,0.5,0.9,0.8c0.7,0.5,1.6,1.1,2.7,1.7c1.1,0.6,2.3,1.1,3.8,1.6c2.8,1,6.3,1.8,10,2.2 c3.7,0.4,7.7,0.4,11.7,0c3.9-0.4,7.8-1.2,11.2-2.3c1.7-0.6,3.3-1.3,4.7-2c1.4-0.8,2.7-1.6,3.7-2.4c1-0.9,1.9-1.7,2.5-2.5 c0.6-0.8,1-1.6,1.3-2.2c0.1-0.2,0.1-0.3,0.2-0.5c0,0,0,0,0,0c0.7-2.2,1.1-4.7,1.1-7.5C363.7,252.1,349.6,237.9,332.2,237.9z M475.8,273c0,0-0.6,0-1.7,0c-0.5,0-1.2,0-1.9,0c-0.7,0-1.6,0-2.5,0c-0.9,0-1.9-0.1-2.9-0.2c-0.5,0-1-0.1-1.6-0.1 c-0.5-0.1-1.1-0.1-1.6-0.2c-1.1-0.2-2.2-0.4-3.4-0.6c-1.1-0.3-2.3-0.6-3.3-1c-1.1-0.4-2.2-0.9-3.2-1.4c-1-0.5-2-1.1-2.8-1.8 c-0.9-0.6-1.7-1.3-2.4-2c-0.2-0.2-0.4-0.4-0.5-0.5c-0.2-0.2-0.3-0.4-0.5-0.5c-0.3-0.3-0.6-0.7-0.9-1.1c-0.3-0.3-0.5-0.7-0.8-1 c-0.2-0.3-0.5-0.7-0.7-1c-0.2-0.3-0.4-0.6-0.5-0.9c-0.2-0.3-0.3-0.5-0.4-0.8c-0.3-0.5-0.5-0.8-0.6-1.1c-0.1-0.3-0.2-0.4-0.2-0.4 s0,0.2,0.1,0.4c0.1,0.3,0.1,0.7,0.3,1.2c0.1,0.3,0.2,0.6,0.3,0.9c0.1,0.3,0.2,0.6,0.4,1c0.1,0.4,0.3,0.7,0.5,1.1 c0.2,0.4,0.4,0.8,0.6,1.2c0.5,0.8,1,1.7,1.7,2.6c0.7,0.8,1.5,1.7,2.4,2.5c0.9,0.8,1.9,1.5,3,2.1c1.1,0.6,2.3,1.2,3.5,1.6 c1.2,0.4,2.4,0.8,3.7,1c1.2,0.3,2.4,0.4,3.6,0.5c1.2,0.1,2.3,0.1,3.4,0c1.1,0,2.1-0.1,3-0.3c0.9-0.1,1.8-0.3,2.5-0.4 c0.7-0.1,1.4-0.3,1.9-0.4c0.5-0.1,0.9-0.3,1.2-0.3C475.6,273.1,475.8,273,475.8,273z M553.5,258.7c0,0-0.1,0.1-0.2,0.4 c-0.1,0.3-0.3,0.6-0.6,1.1c-0.1,0.2-0.3,0.5-0.4,0.8c-0.2,0.3-0.4,0.6-0.5,0.9c-0.2,0.3-0.4,0.6-0.7,1c-0.3,0.3-0.5,0.7-0.8,1 c-0.3,0.3-0.6,0.7-0.9,1.1c-0.2,0.2-0.3,0.4-0.5,0.5c-0.2,0.2-0.3,0.4-0.5,0.5c-0.7,0.7-1.5,1.4-2.4,2c-0.9,0.6-1.8,1.2-2.8,1.8 c-1,0.5-2.1,1-3.2,1.4c-1.1,0.4-2.2,0.7-3.3,1c-1.1,0.3-2.3,0.5-3.4,0.6c-0.6,0.1-1.1,0.1-1.6,0.2c-0.5,0.1-1.1,0.1-1.6,0.1 c-1,0.1-2,0.1-2.9,0.1c-0.9,0-1.7,0-2.5,0c-0.7,0-1.4,0-1.9,0c-1.1,0-1.7,0-1.7,0s0.1,0,0.4,0.1c0.3,0.1,0.7,0.2,1.2,0.3 c0.5,0.1,1.2,0.3,1.9,0.4c0.7,0.2,1.6,0.3,2.5,0.4c0.9,0.1,1.9,0.2,3,0.3c1.1,0,2.2,0,3.4,0c1.2-0.1,2.4-0.2,3.6-0.5 c1.2-0.2,2.5-0.6,3.7-1c1.2-0.4,2.4-1,3.5-1.6c1.1-0.6,2.1-1.4,3-2.1c0.9-0.8,1.7-1.6,2.4-2.5c0.7-0.9,1.3-1.7,1.7-2.5 c0.2-0.4,0.4-0.8,0.6-1.2c0.2-0.4,0.3-0.8,0.5-1.1c0.1-0.4,0.3-0.7,0.4-1c0.1-0.3,0.2-0.6,0.3-0.9c0.2-0.5,0.2-0.9,0.3-1.2 C553.5,258.8,553.5,258.7,553.5,258.7z M681.9,246.4c-1.2-0.7-2.5-1.4-3.9-1.9c-2.7-1.1-5.5-1.9-8.3-2.4c-1.4-0.2-2.8-0.4-4.2-0.4 c-1.4,0-2.8,0-4.1,0.1c-2.7,0.3-5.3,0.9-7.6,1.9c-2.3,0.9-4.4,2.2-6.1,3.5c-1.7,1.4-3.2,2.8-4.3,4.3c-0.3,0.3-0.5,0.7-0.8,1 c-0.3,0.3-0.5,0.7-0.7,1c-0.2,0.3-0.4,0.6-0.6,1c-0.2,0.3-0.4,0.6-0.5,0.9c-0.3,0.6-0.6,1.1-0.8,1.5c-0.2,0.5-0.4,0.8-0.5,1.2 c-0.3,0.6-0.4,1-0.4,1s0.1-0.4,0.4-1c0.1-0.3,0.3-0.7,0.5-1.2c0.2-0.5,0.4-1,0.7-1.6c0.1-0.3,0.3-0.6,0.5-0.9c0.2-0.3,0.4-0.7,0.6-1 c0.2-0.4,0.4-0.7,0.6-1.1c0.2-0.4,0.5-0.7,0.7-1.1c1.1-1.5,2.4-3.1,4.1-4.6c1.7-1.5,3.8-3,6.2-4.1c2.4-1.2,5.1-2,7.9-2.5 c1.4-0.2,2.9-0.4,4.4-0.4c1.5,0,3,0,4.5,0.2c3,0.3,6.1,1,9,2c0.3,0.1,0.6,0.2,0.9,0.3c-4.3-2.2-9.1-3.4-14.2-3.4 c-17.4,0-31.6,14.1-31.6,31.5c0,2.9,0.4,5.5,1.2,7.8c0,0.1,0,0.1,0.1,0.2c0.3,0.6,0.7,1.4,1.3,2.2c0.6,0.8,1.4,1.7,2.5,2.6 c1,0.9,2.3,1.7,3.7,2.5c1.4,0.8,3,1.5,4.7,2c3.4,1.2,7.3,2,11.2,2.4c3.9,0.4,7.9,0.4,11.7,0c3.7-0.4,7.2-1.1,10-2.1 c1.4-0.5,2.7-1.1,3.8-1.6c1.1-0.6,2-1.2,2.7-1.7c0.4-0.3,0.6-0.5,0.9-0.8c0.3-0.2,0.5-0.4,0.6-0.6c0.3-0.3,0.5-0.5,0.5-0.5 s-0.2,0.2-0.4,0.6c-0.2,0.2-0.3,0.4-0.6,0.7c-0.2,0.2-0.5,0.5-0.8,0.8c-0.7,0.6-1.5,1.3-2.6,2c-1,0.7-2.3,1.4-3.7,2 c-2.8,1.3-6.3,2.4-10.1,3.1c-1.7,0.3-3.4,0.6-5.2,0.8c0,0,0.1,0,0.1,0c16.8,0,26.9-4.7,30.3-14.2c0.1-0.3,0.2-0.7,0.3-1.1 c0.1-0.3,0.1-0.6,0.2-0.9c0.1-0.3,0.1-0.7,0.2-1c0.1-0.4,0.1-0.7,0.2-1.1c0-0.4,0.1-0.8,0.1-1.2c0.2-1.7,0.2-3.5-0.1-5.6 c-0.3-2-0.8-4.2-1.7-6.4c-0.9-2.2-2.2-4.4-3.8-6.4c-0.8-1-1.7-2-2.7-3c-1-1-2-1.9-3.2-2.7C684.3,247.8,683.1,247.1,681.9,246.4z M940.5,207.5c0,0-6.4,0.3-17.7,0.8c-2.8,0.1-5.9,0.3-9.3,0.4c-3.4,0.2-7.1,0.4-11,0.6c-7.8,0.4-16.7,0.9-26.4,1.4 c-9.7,0.6-20.1,1.2-31.2,1.8c-11.1,0.7-22.7,1.4-34.8,2.1c-12.1,0.8-24.5,1.6-37.2,2.4c-12.7,0.9-25.5,1.7-38.4,2.6 c-12.9,0.9-25.7,1.8-38.4,2.7c-12.7,0.9-25.1,1.8-37.2,2.7c-24.1,1.8-46.6,3.4-65.9,4.9c-8.1,0.6-15.5,1.2-22.4,1.7 c-8.3,0.3-14.1-1.4-17.1-4.4c-0.4,0.6-0.7,1.3-1.1,1.9c-0.4,0.7-0.8,1.3-1.2,1.9c-0.4,0.6-0.8,1.3-1.2,1.8c-0.8,1.2-1.5,2.3-2.2,3.2 c-1.3,1.9-2.2,3-2.2,3s0.6-1.4,1.4-3.5c0.4-1,0.8-2.3,1.3-3.6c0.2-0.7,0.5-1.3,0.7-2c0.2-0.7,0.4-1.4,0.7-2.1 c0.2-0.7,0.4-1.4,0.6-2.1c0.2-0.7,0.4-1.4,0.5-2.1c0.2-0.7,0.3-1.3,0.5-1.9c0.1-0.6,0.3-1.2,0.4-1.7c0.1-0.5,0.2-1,0.3-1.4 c0-0.1,0-0.2,0.1-0.4c0.3-2.8,0.4-5.4,0.5-7.7c0.1-34.8-23.8-62.1-54.4-62.1c-30.6-0.1-54.6,27.1-54.6,61.9c0,1.7,0.2,4.4,0.7,7.7 c0,0.1,0,0.2,0.1,0.4c0.1,0.4,0.2,0.9,0.3,1.4c0.1,0.5,0.2,1.1,0.4,1.7c0.1,0.6,0.3,1.3,0.5,1.9c0.2,0.7,0.3,1.4,0.5,2.1 c0.2,0.7,0.4,1.4,0.6,2.1c0.2,0.7,0.4,1.4,0.6,2.1c0.2,0.7,0.5,1.4,0.7,2c0.5,1.3,0.9,2.6,1.3,3.6c0.8,2.1,1.4,3.5,1.4,3.5 s-0.9-1.2-2.2-3c-0.6-0.9-1.4-2-2.2-3.2c-0.4-0.6-0.8-1.2-1.2-1.9c-0.4-0.6-0.8-1.3-1.2-1.9c-0.3-0.5-0.6-1-0.9-1.5 c-3.3,2.9-9.4,4.4-18,3.8c-6.6-0.5-13.8-1.1-21.5-1.7c-19.3-1.5-41.8-3.2-65.9-5.1c-12.1-0.9-24.5-1.8-37.2-2.8 c-12.7-0.9-25.5-1.9-38.4-2.8c-12.9-0.9-25.7-1.8-38.4-2.7c-12.7-0.9-25.1-1.7-37.2-2.6c-12.1-0.8-23.7-1.6-34.8-2.3 c-11.1-0.7-21.5-1.3-31.2-1.9c-9.7-0.6-18.5-1.1-26.4-1.5c-3.9-0.2-7.6-0.4-11-0.6c-3.4-0.2-6.5-0.3-9.3-0.5 c-11.3-0.6-17.7-0.9-17.7-0.9s6.4,0.5,17.7,1.4c2.8,0.2,5.9,0.5,9.3,0.7c3.4,0.3,7.1,0.6,11,0.9c7.8,0.7,16.7,1.4,26.3,2.3 c9.6,0.9,20.1,1.8,31.1,2.8c11,1,22.7,2.1,34.7,3.3c12,1.2,24.5,2.4,37.1,3.6c12.6,1.3,25.5,2.5,38.3,3.8 c12.8,1.3,25.7,2.6,38.3,3.9c12.6,1.3,25.1,2.6,37.1,3.9c24,2.6,46.5,4.9,65.7,7c21.9,2.4,39.6,4.3,50.8,5.5l41.9-23.2 c1.7-1,3.8-1,5.5-0.1l39.4,19.7c-7.1-3.1-22.7-9.7-38.3-16.4l-1-0.4c-0.4-0.1-0.6-0.3-1.2-0.5c-1-0.3-2-0.3-2.9,0.1 c-0.2,0.1-0.5,0.2-0.7,0.3c-0.2,0.1-0.4,0.2-0.5,0.3l-0.9,0.6c-0.6,0.4-1.2,0.7-1.8,1.1c-2.4,1.5-4.8,2.9-7.1,4.3 c-4.6,2.8-9,5.4-12.7,7.6c-7.4,4.4-12.3,7.4-12.3,7.4s5.1-2.6,12.8-6.6c3.8-2,8.3-4.3,13.1-6.8c2.4-1.2,4.9-2.5,7.4-3.8 c0.6-0.3,1.3-0.6,1.9-1l1-0.5c0.4-0.2,0.5-0.3,0.7-0.3c0.4-0.1,0.9-0.1,1.3,0.1c0.1,0,0.5,0.2,0.8,0.4l1,0.5 c16.1,8.1,32.1,16.3,38.4,19.4c-0.1,0.1-0.3,0.3-0.4,0.4c-0.6,0.7-1.3,1.5-2,2.2c-0.4,0.4-0.7,0.8-1.1,1.1c-0.2,0.2-0.4,0.4-0.6,0.6 c-0.2,0.2-0.4,0.4-0.6,0.6c-0.4,0.4-0.9,0.8-1.3,1.2c-0.2,0.2-0.4,0.4-0.7,0.6c-0.2,0.2-0.5,0.4-0.7,0.6c-0.5,0.4-1,0.8-1.5,1.2 c-0.5,0.4-1,0.8-1.6,1.1c-2.1,1.6-4.5,3-7.1,4.3c-1.3,0.6-2.6,1.3-4,1.8c-0.3,0.1-0.7,0.3-1,0.4l-0.5,0.2l-0.5,0.2 c-0.7,0.2-1.4,0.5-2.1,0.8c-2.9,0.9-5.9,1.6-9,2.1c-3.1,0.4-6.2,0.6-9.3,0.6c-3.1-0.1-6.1-0.4-9-1c-2.9-0.5-5.6-1.3-8.2-2.2 c-0.6-0.2-1.3-0.5-1.9-0.7c-0.3-0.1-0.6-0.2-0.9-0.4c-0.3-0.1-0.6-0.3-0.9-0.4c-0.6-0.3-1.2-0.5-1.7-0.8c-0.5-0.3-1.1-0.6-1.6-0.8 c-2.1-1.1-4-2.3-5.6-3.3c-1.6-1.1-2.9-2.1-4-3c-1.1-0.9-1.9-1.6-2.4-2.2c-0.5-0.5-0.8-0.8-0.8-0.8s0.3,0.3,0.8,0.8 c0.5,0.5,1.2,1.4,2.3,2.3c1,1,2.3,2.1,3.8,3.3c1.5,1.2,3.3,2.5,5.4,3.7c0.5,0.3,1.1,0.6,1.6,0.9c0.6,0.3,1.1,0.6,1.7,0.9 c0.3,0.1,0.6,0.3,0.9,0.5c0.3,0.1,0.6,0.3,0.9,0.4c0.6,0.3,1.2,0.6,1.9,0.8c2.6,1,5.3,2,8.3,2.8c3,0.7,6.1,1.3,9.3,1.5 c3.2,0.2,6.5,0.2,9.7,0c3.3-0.3,6.5-0.9,9.6-1.7c0.8-0.2,1.6-0.4,2.3-0.7l0.6-0.2l0.6-0.2c0.4-0.1,0.8-0.3,1.1-0.4 c1.5-0.5,2.9-1.1,4.4-1.7c2.8-1.3,5.5-2.7,7.9-4.2c0.6-0.4,1.2-0.7,1.8-1.1c0.6-0.4,1.1-0.8,1.7-1.2c0.3-0.2,0.5-0.4,0.8-0.6 c0.3-0.2,0.5-0.4,0.8-0.6c0.5-0.4,1-0.8,1.5-1.2c0.2-0.2,0.5-0.4,0.7-0.6c0.2-0.2,0.5-0.4,0.7-0.6c0.4-0.4,0.9-0.8,1.3-1.2 c0.9-0.7,1.6-1.5,2.3-2.2c0.7-0.7,1.4-1.4,2-2.1c0.6-0.7,1.1-1.3,1.6-1.8c0.1-0.1,0.2-0.3,0.4-0.4c0.1-0.1,0.2-0.3,0.3-0.4 c0.2-0.2,0.4-0.5,0.5-0.7c0.3-0.4,0.6-0.8,0.9-1.1c0,0,0-0.1,0.1-0.1c11.2-1.2,26.8-2.8,45.6-4.8c19.2-2,41.7-4.3,65.7-6.7 c12-1.2,24.5-2.4,37.1-3.7c12.6-1.2,25.5-2.5,38.3-3.8c12.8-1.2,25.7-2.5,38.3-3.7c12.6-1.2,25.1-2.3,37.1-3.5 c12-1.1,23.7-2.1,34.7-3.1c11-1,21.5-1.9,31.1-2.7c9.6-0.8,18.5-1.5,26.3-2.2c3.9-0.3,7.6-0.6,11-0.9c3.4-0.3,6.5-0.5,9.3-0.7 C934.1,208,940.5,207.5,940.5,207.5z M495.9,179.8l-21-1.2l-3.8,13.9l25.1,1.1L495.9,179.8z M499.5,179.8l0.2,13.7l24.4-1l-3.8-13.9 L499.5,179.8z M529.3,178.6l11.9,18l6.6,1.8l-13.5-19.7L529.3,178.6z M455.5,196.2l2.9-0.8l10.2-2.7l3.9-14.2l-5.1,0L455.5,196.2z M465.9,178.5l-4.2,0l-13.6,19.6l5.6-1.5L465.9,178.5z M537.6,195.6l1.9,0.5l-11.6-17.5l-4.9,0l-0.2,0l3.8,14L537.6,195.6z M450.6,189.1c-0.5,0.7-1.1,1.4-1.6,2c0.4-0.8,0.9-1.5,1.3-2.2c0.4-0.7,0.9-1.5,1.3-2.2c0.9-1.5,1.8-3,2.7-4.4 c0.9-1.5,1.8-3,2.8-4.4l2.8-4.4l0.3-0.5l0.6,0c1.6-0.1,3.1-0.1,4.7-0.2l4.7-0.1l2.3-0.1l1.2,0l0.6,0l0.3,0l0.1,0l0,0l0.1,0l0.1,0 l4.7,0.2l4.6,0.2l4.6,0.2c3.1,0.1,6.1,0.3,9.2,0.5l4.6-0.2l4.7-0.2c3.1-0.1,6.3-0.3,9.4-0.4l2.4-0.1l1.2,0l0.1,0l0.2,0l0.1,0l0.3,0 l0.6,0l4.7,0.1l4.7,0.1c1.6,0,3.2,0.1,4.7,0.2l0.6,0l0.3,0.5l2.8,4.4c0.5,0.7,0.9,1.5,1.4,2.2l1.4,2.2c0.5,0.7,0.9,1.5,1.4,2.2 l1.4,2.2c0.5,0.7,0.9,1.5,1.4,2.2c0.4,0.8,0.9,1.5,1.3,2.3c-0.6-0.7-1.1-1.4-1.7-2c-0.6-0.7-1.1-1.4-1.6-2l-1.6-2.1 c-0.5-0.7-1.1-1.4-1.6-2.1l-1.6-2.1c-0.5-0.7-1.1-1.4-1.6-2.1l-2.8-3.7c-1.4,0.1-2.8,0.1-4.2,0.1l-4.7,0.1l-4.7,0.1l-0.6,0l-0.3,0h0 l0,0l0,0l0,0l-0.1,0l-1.2,0.1l-2.4,0.2c-3.1,0.2-6.3,0.4-9.4,0.6l-4.7,0.3l-4.7,0.3l-0.1,0l-0.1,0c-3.1-0.2-6.2-0.3-9.3-0.6 l-4.6-0.3l-4.6-0.3l-4.6-0.3l-4.6-0.1l-4.7-0.1c-1.4,0-2.7-0.1-4.1-0.2l-2.8,3.7c-1.1,1.4-2.1,2.8-3.2,4.1c-1.1,1.4-2.1,2.7-3.2,4.1 C451.7,187.7,451.1,188.4,450.6,189.1z M520.7,175.7L520.7,175.7C520.6,175.7,520.6,175.7,520.7,175.7z M540.5,200.2 c-0.8-0.2-1.6-0.5-2.5-0.7l-2.5-0.7c-0.8-0.2-1.6-0.5-2.5-0.7l-2.5-0.7c-1.6-0.4-3.3-0.9-5-1.3l-0.1,0l-0.2,0 c-2.3,0-4.6,0.1-6.9,0.1c-2.3,0.1-4.6,0.1-6.9,0.2c-2.3,0.1-4.6,0.2-6.9,0.2l-3.4,0.1l-3.3,0.2c-2.3-0.1-4.6-0.2-7-0.3 c-2.3-0.1-4.7-0.2-7-0.3l-3.5-0.1l-3.5-0.1c-2.4-0.1-4.7-0.1-7.1-0.1l-0.2,0l-0.1,0c-0.8,0.2-1.6,0.4-2.4,0.7l-2.4,0.7l-2.4,0.7 l-2.4,0.7l-2.4,0.7c-0.8,0.2-1.6,0.5-2.4,0.7c-0.8,0.2-1.6,0.5-2.4,0.7c-0.8,0.3-1.6,0.5-2.4,0.8c0.8-0.1,1.6-0.2,2.5-0.3 c0.8-0.1,1.6-0.2,2.5-0.4c0.8-0.1,1.6-0.2,2.5-0.4l2.4-0.4l2.4-0.4l2.4-0.4l2.4-0.4c0.7-0.1,1.5-0.3,2.2-0.4 c2.3,0.2,4.6,0.4,6.9,0.6l3.5,0.3l3.5,0.3c2.3,0.2,4.7,0.3,7,0.5c2.3,0.1,4.7,0.3,7,0.4l0.1,0l0.1,0l3.4-0.2l3.4-0.2 c2.3-0.1,4.6-0.3,6.9-0.4c2.3-0.1,4.6-0.3,6.9-0.5c2.2-0.2,4.5-0.3,6.7-0.5c1.6,0.3,3.2,0.6,4.8,0.8l2.5,0.4 c0.8,0.2,1.7,0.3,2.5,0.4l2.5,0.4c0.8,0.1,1.7,0.3,2.5,0.4c0.8,0.1,1.7,0.3,2.5,0.4c0.9,0.1,1.7,0.2,2.6,0.3 c-0.8-0.3-1.6-0.5-2.5-0.8C542.2,200.7,541.3,200.5,540.5,200.2z"></path></svg>