<svg xmlns="http://www.w3.org/2000/svg" xmlns:xlink="http://www.w3.org/1999/xlink" x="0px" y="0px" viewBox="-19 -2 87 37.5" xml:space="preserve"><rect x="-19" y="-2" width="1" height="30"></rect><rect x="-17" y="-2" width="2" height="30"></rect><rect x="-13" y="-2" width="1" height="30"></rect><rect x="-10" y="-2" width="1" height="30"></rect><rect x="-8" y="-2" width="1" height="30"></rect><rect x="-6" y="-2" width="1" height="30"></rect><rect x="-3" y="-2" width="1" height="30"></rect><rect y="-2" width="2" height="30"></rect><rect x="3" y="-2" width="1" height="30"></rect><rect x="5" y="-2" width="2" height="30"></rect><rect x="9" y="-2" width="1" height="30"></rect><rect x="12" y="-2" width="1" height="30"></rect><rect x="14" y="-2" width="1" height="30"></rect><rect x="16" y="-2" width="2" height="30"></rect><rect x="20" y="-2" width="1" height="30"></rect><rect x="23" y="-2" width="1" height="30"></rect><rect x="25" y="-2" width="1" height="30"></rect><rect x="27" y="-2" width="2" height="30"></rect><rect x="31" y="-2" width="1" height="30"></rect><rect x="34" y="-2" width="1" height="30"></rect><rect x="36" y="-2" width="1" height="30"></rect><rect x="38" y="-2" width="1" height="30"></rect><rect x="41" y="-2" width="1" height="30"></rect><rect x="44" y="-2" width="2" height="30"></rect><rect x="47" y="-2" width="1" height="30"></rect><rect x="49" y="-2" width="1" height="30"></rect><rect x="52" y="-2" width="1" height="30"></rect><rect x="55" y="-2" width="2" height="30"></rect><rect x="58" y="-2" width="1" height="30"></rect><rect x="60" y="-2" width="1" height="30"></rect><rect x="63" y="-2" width="2" height="30"></rect><rect x="67" y="-2" width="1" height="30"></rect><text x="-19" y="43" fill="#000000" font-size="5px" font-weight="bold" font-family="'Helvetica Neue', Helvetica, Arial-Unicode, Arial, Sans-serif">Created by Mohamed Mb</text><text x="-19" y="48" fill="#000000" font-size="5px" font-weight="bold" font-family="'Helvetica Neue', Helvetica, Arial-Unicode, Arial, Sans-serif">from the Noun Project</text></svg>