<svg xmlns="http://www.w3.org/2000/svg" xmlns:xlink="http://www.w3.org/1999/xlink" id="Layer_1" x="0px" y="0px" viewBox="0 0 462.2 292.7" style="enable-background:new 0 0 462.2 292.7;" xml:space="preserve"><style type="text/css"> .st0{fill:#494949;}</style><g> <g id="Spoon_x2C__fork_x2C__knife_and_plate"> <path class="st0" d="M79.1,275.1c-3.9-25.9-6.6-52.2-8-78.2c-1.2-21.6-1.5-43.5-1-65.1c0.1-4.3,1.5-8.5,4.1-12 c4.1-5.6,8.9-13.5,8.5-19.5c-0.5-8.9-3.5-64-3.9-70.3c-0.1-1-0.9-1.8-1.9-1.8c-1,0-1.9,0.8-1.9,1.9L74,93.6c0,0.7-0.6,1.3-1.3,1.3 c0,0-0.1,0-0.1,0c-0.7,0-1.2-0.7-1.2-1.4l0-63.3c0-0.5-0.2-1-0.5-1.4c-0.3-0.3-0.8-0.5-1.3-0.5H69c-1,0-1.8,0.8-1.8,1.9l-1.2,68 c0,0.8-0.7,1.4-1.5,1.4c-0.8,0-1.5-0.7-1.5-1.5l0.3-68c0-0.5-0.2-1-0.5-1.4c-0.3-0.3-0.8-0.5-1.3-0.5H61c-1,0-1.8,0.8-1.8,1.9 l-0.5,63.4c0,0.7-0.6,1.3-1.3,1.3c-0.7,0-1.3-0.6-1.3-1.3l-0.5-63.4c0-1-0.9-1.9-1.9-1.9h-0.1c-1,0-1.8,0.8-1.9,1.8l0,0.6 C51,41.1,47.8,92,47.3,100.4c-0.5,8.1,3.9,14.3,7.7,18.9c3.1,3.6,4.8,8.2,5,12.9c0.8,21.5,0.6,43.3-0.5,64.9 c-1.4,25.9-4.3,52-8.5,77.7c-0.2,1.3-0.4,3.1-0.4,3.6c0,8,6.5,14.5,14.5,14.5c8,0,14.5-6.5,14.5-14.5c0-0.3-0.1-0.8-0.2-1.7 C79.3,276.1,79.2,275.7,79.1,275.1z M57.2,117.5c-3.7-4.4-7.5-9.9-7.1-17c0.3-5.3,1.7-27.7,2.8-46l0.3,39.1c0,2.2,1.8,4,4.1,4 c1.2,0,2.3-0.5,3-1.4l0,1.9c0,2.3,1.9,4.2,4.2,4.3c2.3,0,4.2-1.9,4.2-4.2l0.1-3.4c0.5,1.6,1.9,2.7,3.6,2.8c0.1,0,0.2,0,0.2,0 c2.2,0,2.6-1,3,4.3c0.2,4-0.9,7.9-6.3,15.3c-2.9,3.9-3.8,8.3-3.8,8.3c-0.3,1-0.9,1.2-2,0.9c-0.6-0.2-1-0.6-1.3-1.1 C60.9,122.2,59.1,119.8,57.2,117.5z M65.8,133.8v12.1c0,1.2-0.9,2.2-2.1,2.4l0,0c-0.1-5-0.2-10.1-0.4-15.1c0-0.4,0.3-0.7,0.7-0.6 c0.3,0,0.5,0.1,0.8,0.1C65.4,132.7,65.8,133.2,65.8,133.8C65.8,133.7,65.8,133.8,65.8,133.8z M75.3,284.3 c-0.8,1.2-1.8,2.3-3.1,3.1c-1.2,0.8-2.6,1.4-4.1,1.8c-1,0.2-1.9,0.3-3,0.3c0,0,0,0-0.1,0c-6.2,0-11.2-5-11.2-11.2 c0-0.3,0.2-1.8,0.4-3.1c4.3-25.8,7.1-52,8.5-78c0.6-11.6,1-23.3,1-35c0-1.2,0.9-2.1,2-2.3l0,0v123.7c0,1.1,0.8,2,1.9,2.1 c0,0,0,0,0,0c1.1,0.1,2.3-0.1,3.5-0.4c1.1-0.4,2.3-0.9,3.2-1.8c1-0.8,1.7-1.9,2.3-3.1C76.5,281.7,76.1,283.1,75.3,284.3z"></path> <path class="st0" d="M27.3,263.3c-3.4-22.2-5.7-44.8-6.9-67.2c-1-18.5-1.3-37.3-0.8-55.9c0.1-3.7,1.3-7.3,3.5-10.3 c3.5-4.8,7.6-11.6,7.3-16.7c-0.5-7.6-3-55-3.3-60.3c0-0.9-0.8-1.5-1.6-1.5c-0.9,0-1.6,0.7-1.6,1.6L23,107.5c0,0.6-0.5,1.1-1.1,1.1 c0,0,0,0-0.1,0c-0.6,0-1.1-0.6-1.1-1.2l0-54.3c0-0.5-0.2-0.9-0.5-1.2c-0.3-0.3-0.7-0.4-1.1-0.4h-0.5c-0.9,0-1.5,0.7-1.6,1.6 l-1,58.4c0,0.7-0.6,1.2-1.3,1.2c-0.7,0-1.3-0.6-1.3-1.3l0.3-58.3c0-0.5-0.2-0.9-0.5-1.2c-0.3-0.3-0.7-0.5-1.1-0.5h-0.6 c-0.9,0-1.6,0.7-1.6,1.6l-0.5,54.4c0,0.6-0.5,1.1-1.1,1.1c-0.6,0-1.1-0.5-1.1-1.1L7,53c0-0.9-0.7-1.6-1.6-1.6H5.3 c-0.9,0-1.6,0.7-1.6,1.5l0,0.5c-0.6,9-3.2,52.6-3.7,59.9c-0.4,6.9,3.3,12.3,6.6,16.2c2.6,3.1,4.2,7.1,4.3,11.1 c0.7,18.5,0.5,37.2-0.5,55.7c-1.2,22.2-3.7,44.7-7.3,66.7c-0.2,1.1-0.4,2.7-0.4,3.1c0,6.8,5.6,12.4,12.4,12.4 c6.8,0,12.4-5.6,12.4-12.4c0-0.2-0.1-0.7-0.1-1.5C27.4,264.2,27.4,263.8,27.3,263.3z M8.5,128c-3.2-3.8-6.4-8.5-6.1-14.6 c0.3-4.6,1.5-23.8,2.4-39.5l0.3,33.5c0,1.9,1.6,3.5,3.5,3.5c1,0,2-0.5,2.6-1.2l0,1.6c0,2,1.6,3.6,3.6,3.7c2,0,3.6-1.6,3.6-3.6 l0.1-2.9c0.5,1.3,1.7,2.3,3.1,2.4c0.1,0,0.1,0,0.2,0c1.9,0,2.3-0.9,2.5,3.7c0.2,3.4-0.8,6.8-5.4,13.1c-2.5,3.4-3.3,7.1-3.3,7.1 c-0.3,0.9-0.8,1.1-1.7,0.8c-0.5-0.1-0.9-0.5-1.1-0.9C11.7,132.1,10.1,130,8.5,128z M15.9,142v10.4c0,1-0.8,1.9-1.8,2l0,0 c-0.1-4.3-0.2-8.7-0.3-13c0-0.3,0.3-0.6,0.6-0.5c0.2,0,0.5,0.1,0.7,0.1C15.5,141.1,15.9,141.5,15.9,142 C15.9,141.9,15.9,142,15.9,142z M24,271.2c-0.7,1-1.6,1.9-2.6,2.6c-1.1,0.7-2.3,1.2-3.6,1.5c-0.8,0.2-1.7,0.3-2.6,0.3 c0,0,0,0-0.1,0c-5.3,0-9.6-4.3-9.6-9.6c0-0.2,0.1-1.5,0.3-2.7c3.7-22.1,6.1-44.6,7.3-67c0.5-10,0.8-20,0.9-30c0-1,0.7-1.8,1.7-2 l0,0v106.2c0,0.9,0.7,1.7,1.6,1.8c0,0,0,0,0,0c1,0.1,2,0,3-0.3c1-0.3,1.9-0.8,2.8-1.5c0.8-0.7,1.5-1.6,2-2.7 C25.1,269,24.7,270.2,24,271.2z"></path> <path class="st0" d="M439.5,142.6l0-0.1c1-8.2,4.2-15.1,10.2-21.6c7.8-7.6,12.4-20.6,12.4-34.7c0-22.8-12.2-41.3-27.2-41.3 s-27.2,18.5-27.2,41.3c0,14.3,4.8,27.4,12.8,35c5.8,6.5,9,13.3,10,21.3l0,0.1c0.5,19.3,0.2,38.8-0.9,58 c-1.3,23.2-3.7,46.7-7.2,69.8c-0.1,0.5-0.1,0.9-0.2,1.3c-0.1,0.8-0.2,1.3-0.2,1.5c0,7.1,5.8,12.9,12.9,12.9 c7.1,0,12.9-5.8,12.9-12.9c0-0.4-0.2-2-0.4-3.2c-3.8-22.9-6.3-46.2-7.6-69.3c-1-19.2-1.2-38.6-0.5-57.8 C439.5,142.7,439.5,142.7,439.5,142.6z M419.4,61c-0.9,1.4-1.7,2.9-2.5,4.4c-0.7,1.5-1.3,3.1-1.9,4.7c-1.1,3.2-1.8,6.6-2.1,10 c-0.4,3.4-0.4,6.9-0.3,10.3c0.1,3.5,0.5,6.9,1.2,10.3c0.8,3.4,1.9,6.7,3.8,9.7c-2-2.9-3.4-6.2-4.3-9.5c-0.9-3.4-1.4-6.9-1.7-10.4 c-0.1-1.7-0.2-3.5-0.3-5.3c0-1.8,0-3.5,0.1-5.3c0.2-3.5,0.8-7,1.7-10.5c0.5-1.7,1-3.4,1.7-5.1c0.7-1.7,1.5-3.3,2.4-4.8 c1.8-3.1,4.1-6,7.1-8.3c1.5-1.1,3.2-2.1,5-2.7c1.8-0.7,3.8-1,5.7-1c1,0,2,0.1,3,0.4c5.1,1,9.8,4.6,13.6,10.4 c4.8,7.2,7.4,16.9,7.4,27.3s-2.6,20-7.4,27.3c-4.5,6.9-10.5,10.7-16.7,10.7c8.4-11,13.1-50.5,4.8-69.1c-0.9-1.9-2.7-3.3-4.8-3.4 c0,0,0,0,0,0c-3.1-0.2-6.2,0.8-8.8,2.6C423.4,55.7,421.2,58.2,419.4,61z M440.2,279.4c1-0.3,2-0.8,2.9-1.6c0.9-0.7,1.5-1.7,2-2.8 c-0.1,1.2-0.6,2.4-1.2,3.5c-0.7,1.1-1.6,2-2.7,2.7c-1.1,0.7-2.4,1.3-3.7,1.6c-0.8,0.2-1.7,0.3-2.7,0.3c0,0,0,0-0.1,0 c-5.5,0-10-4.5-10-10c0-0.2,0.1-1.6,0.4-2.8c3.8-23,6.4-46.4,7.6-69.6c0.6-10.3,0.9-20.8,0.9-31.2c0-1,0.8-1.9,1.8-2l0,0v110.3 c0,1,0.7,1.8,1.7,1.9c0,0,0,0,0,0C438.1,279.8,439.1,279.7,440.2,279.4z M438.7,127.7c-1,0.6-2.2,1.1-3.3,1.6v25.9c0,0,0,0,0,0 c0,1-0.8,1.9-1.8,2l0,0c0-0.4,0-0.9,0-1.3h0c0-2.1-0.1-4.2-0.1-6.2c0-1-0.1-2-0.1-3c0-1.3-0.1-2.6-0.1-3.9c0-0.1,0-0.2,0-0.3 l0-0.2l0-0.1c-0.7-6.2-2.7-11.6-6-16.8c2.4,1.1,5,1.7,7.6,1.7c1.2-0.1,2.3-0.2,3.5-0.5c1.3-0.3,2.6-0.9,3.8-1.5 C440.9,126,439.9,126.9,438.7,127.7z"></path> <path class="st0" d="M400.1,276.3c-3.4-22.1-5.4-44.7-6-67.2c-0.4-18.8,0.3-37.7,0.9-52.9l0-0.8c0.6-15.2,0.7-135.6,0.6-153.1 c0-1.3-1.2-2.4-2.5-2.4c-18.5,0-21.7,46-21.8,142.6c0,1.4,0.6,2.8,1.7,3.6c4.5,3.6,5.5,10.1,5.5,10.1c1.1,17.5,1.4,35.2,0.9,52.8 c-0.6,22.5-2.4,45.2-5.5,67.6c-0.1,0.5-0.3,2.2-0.3,2.6c0,7.4,6,13.3,13.3,13.3c7.4,0,13.3-6,13.3-13.3 C400.5,278.9,400.3,276.9,400.1,276.3z M375,144c-0.4-0.3-0.6-0.8-0.6-1.3c0-5.9,0.1-17,0.1-17c1.2,0.2,2.3-0.7,2.3-1.9 c0.3-40.7,1.5-69,3.8-86.4c2.2-17.1,5.6-29,10.4-33.5c0.5-0.5,1.1-0.8,1.8-0.8l0,0c0.1,17.9,0,125-0.5,149.1c0,1.2-1,2.1-2.1,2.1 l-5.8,0c-1.8,0-3.3-1.1-4-2.7C379.3,149,377.7,146.1,375,144z M387,161v8.4c0,3.1-1.7,6-4.4,7.5l0,0c-0.2-5.5-0.3-10.9-0.5-15.9 c0-1.2,0.9-2.2,2.1-2.2h0.7C386,158.9,387,159.9,387,161z M393.1,287.7c-1,0.7-2.1,1.3-3.4,1.6c-0.9,0.2-1.8,0.3-2.7,0.3v0 c-0.1,0-0.2,0-0.2,0c-5.7,0-10.4-4.6-10.4-10.3c0-0.4,0.2-2,0.3-2.4l0-0.1l0-0.1c3.4-22.2,5.5-45,6-67.5 c0.1-6.3,0.2-12.7,0.1-18.9c0-3,1.6-5.7,4.2-7.1l0,0v100.3c0,1.3,1,2.5,2.3,2.6c0,0,0,0,0,0c0.9,0.1,1.9,0,2.8-0.3 c1.9-0.6,3.6-1.9,4.8-3.8C396.4,284.2,395.1,286.3,393.1,287.7z M381.2,147.3c-1.1-1.6-0.2-3.7,1.7-4.1c2.5-0.5,3.8-1.3,4.1-4.9 c-0.2-22.7,0.8-115.5,3.9-117.6c0.1,20.8-0.4,120.8-0.4,131.1c0,0.5-0.4,0.8-0.9,0.8h-4.4c-0.8,0-1.5-0.5-1.8-1.2 C382.8,149.8,382,148.5,381.2,147.3z"></path> <path class="st0" d="M164.3,212.6c-1.5-1.6-3-3.3-4.3-5.1c-1.4-1.8-2.7-3.6-3.9-5.4c1.4,1.7,2.8,3.4,4.3,5.1 c1.5,1.6,3,3.2,4.6,4.7c3.2,3,6.6,5.8,10.2,8.3c3.6,2.5,7.4,4.7,11.3,6.7c3.9,2,8,3.6,12.2,4.9c8.3,2.6,17,3.9,25.7,3.9 c4.3,0,8.7-0.4,13-1c4.3-0.7,8.5-1.7,12.7-3c1-0.3,2.1-0.7,3.1-1l3-1.2c2-0.9,4-1.7,5.9-2.7c3.9-2,7.6-4.2,11.1-6.7 c3.5-2.5,6.9-5.3,10-8.3c3.1-3.1,6-6.3,8.7-9.8c2.7-3.5,5-7.2,7.1-11l0.8-1.4c0.3-0.5,0.5-1,0.7-1.5l1.4-3l1.3-3l0.3-0.8l0.3-0.8 l0.6-1.5c1.5-4.1,2.7-8.4,3.5-12.7c0.1-0.3,0.1-0.5,0.2-0.8l0.1-0.8l0.3-1.6l0.3-1.6l0.2-1.6l0.2-1.7l0.1-0.8l0.1-0.8l0.2-3.3 l0.1,3.3l0,0.8l0,0.8l-0.1,1.7l-0.1,1.7l-0.1,1.7l-0.1,1.7l-0.1,0.8c0,0.3-0.1,0.6-0.1,0.8l-0.5,3.3l-0.6,3.3l-0.2,0.8l-0.2,0.8 l-0.4,1.6l-0.4,1.6l-0.5,1.6c-0.6,2.2-1.4,4.3-2.2,6.4l-1.3,3.1c-0.2,0.5-0.4,1-0.7,1.5l-0.7,1.5c-0.2,0.5-0.5,1-0.7,1.5l-0.8,1.5 c-0.5,1-1.1,2-1.7,2.9c-0.6,1-1.2,1.9-1.8,2.9l-1.9,2.8c-2.6,3.7-5.5,7.2-8.7,10.4c-3.2,3.2-6.6,6.2-10.3,8.9 c-0.9,0.7-1.8,1.3-2.8,2l-2.9,1.8c-0.5,0.3-1,0.6-1.5,0.9l-1.5,0.8c-0.5,0.3-1,0.6-1.5,0.8l-1.5,0.8c-2,1.1-4.1,2-6.2,2.9 l-3.2,1.2c-1.1,0.4-2.1,0.7-3.2,1.1c-4.3,1.4-8.8,2.4-13.3,3.1c-4.5,0.6-9,1-13.6,0.9c-4.5-0.1-9.1-0.5-13.5-1.3 c-1.1-0.2-2.2-0.4-3.3-0.6l-3.3-0.8c-1.1-0.3-2.2-0.6-3.3-0.9c-1.1-0.3-2.2-0.7-3.2-1.1c-4.3-1.5-8.4-3.3-12.4-5.5 c-3.9-2.2-7.7-4.6-11.3-7.4C170.7,218.9,167.4,215.8,164.3,212.6z M158.1,219.1c-17.9-17.9-27.7-41.6-27.7-66.9 c0-25.3,9.8-49,27.7-66.9c17.9-17.9,41.6-27.7,66.9-27.7s49,9.8,66.9,27.7c17.9,17.9,27.7,41.6,27.7,66.9c0,25.3-9.8,49-27.7,66.9 C274,237,250.2,246.9,225,246.9S175.9,237,158.1,219.1z M144.1,190.8c2.8,10,11.6,18.8,17.5,24.7c16.9,16.9,39.4,26.2,63.3,26.2 s46.4-9.3,63.3-26.2c16.9-16.9,26.2-39.4,26.2-63.3c0-12-2.3-23.6-6.8-34.3c-3.3-8-9.1-22-19.4-29c-28.4-19.3-82.3,19.4-91.6,26.1 C188.5,120.9,135.3,159.1,144.1,190.8z M358.4,152.2c0,18-3.5,35.5-10.5,51.9c-6.7,15.9-16.3,30.2-28.6,42.4 c-12.2,12.2-26.5,21.9-42.4,28.6c-16.5,7-33.9,10.5-51.9,10.5c-18,0-35.5-3.5-51.9-10.5c-15.9-6.7-30.2-16.3-42.4-28.6 c-12.2-12.2-21.9-26.5-28.6-42.4c-7-16.5-10.5-33.9-10.5-51.9c0-18,3.5-35.5,10.5-51.9c6.7-15.9,16.3-30.2,28.6-42.4 C142.9,45.7,157.2,36,173,29.3c16.5-7,33.9-10.5,51.9-10.5c18,0,35.5,3.5,51.9,10.5c15.9,6.7,30.2,16.3,42.4,28.6 c12.2,12.2,21.9,26.5,28.6,42.4C354.8,116.8,358.4,134.2,358.4,152.2z M352.5,152.2c0-70.4-57.1-127.5-127.5-127.5 c-70.4,0-127.5,57.1-127.5,127.5c0,70.4,57.1,127.5,127.5,127.5C295.4,279.7,352.5,222.7,352.5,152.2z M126.8,152.2 c0-26.2,10.2-50.9,28.8-69.4S198.7,54,225,54c18.7,0,36.5,5.2,52,14.8c12.1,7.6,27.5,8,39.8,0.6c0.1-0.1,0.2-0.1,0.3-0.2 c-1.4-1.6-2.9-3.2-4.4-4.7c-23-23-53.4-35.8-85.9-36.3c-33.3-0.5-65.6,12.6-89.2,36.1C114,87.9,101,119.1,101,152.2 c0,22.2,5.8,43.4,16.6,62.1c0.1-0.1,0.2-0.1,0.3-0.2c11.5-6.9,16.8-20.6,12.9-33.5C128.2,171.6,126.8,162,126.8,152.2z M338.9,117.2c0.9,3.2,1.7,6.4,2.3,9.6c0.7,3.2,1.2,6.5,1.6,9.8c0.8,6.5,1.1,13.1,0.7,19.7c-0.1,3.3-0.4,6.5-0.7,9.8l-0.7,4.9 c-0.3,1.6-0.6,3.2-0.9,4.8c-1.3,6.4-3.1,12.7-5.5,18.8c-4.7,12.2-11.4,23.6-19.7,33.6c-4.2,5-8.8,9.7-13.7,13.9l-1.9,1.6l-0.9,0.8 l-1,0.7c-1.3,1-2.6,2-3.9,3l-4,2.8c-1.4,0.9-2.7,1.7-4.1,2.6c-11.1,6.8-23.3,11.8-36,14.6c-6.3,1.4-12.8,2.3-19.3,2.7l-4.9,0.2 c-0.8,0-1.6,0-2.4,0l-2.4,0l-1.2,0l-0.6,0l-0.6,0l-2.4-0.1l-2.4-0.1c-0.8-0.1-1.6-0.2-2.4-0.3l-2.4-0.3l-1.2-0.1l-1.2-0.2 c-1.6-0.3-3.2-0.5-4.8-0.8l-4.8-1c-1.6-0.4-3.2-0.8-4.8-1.2c-6.3-1.7-12.5-4-18.4-6.7c-1.5-0.7-3-1.4-4.4-2.1l-4.3-2.3 c-1.4-0.8-2.8-1.7-4.2-2.5l-1.1-0.6l-1-0.7l-2.1-1.4c-0.7-0.5-1.4-0.9-2-1.4l-2-1.5l-2-1.5c-0.7-0.5-1.3-1-1.9-1.5l-1.9-1.6 c-0.6-0.5-1.3-1-1.9-1.6l-3.7-3.3l3.5,3.5c0.6,0.6,1.2,1.2,1.8,1.7l1.8,1.7l0.9,0.8c0.3,0.3,0.6,0.6,0.9,0.8l1.9,1.6l1.9,1.6 c0.6,0.5,1.3,1,2,1.5c5.3,4,11,7.6,16.9,10.6c11.9,6,24.9,10.1,38.2,11.8c6.7,0.9,13.4,1.2,20.1,0.9c6.7-0.3,13.4-1.1,20-2.5 c13.2-2.7,25.9-7.9,37.4-14.9c5.8-3.5,11.2-7.6,16.2-12c5-4.5,9.8-9.3,14-14.5c4.2-5.2,8-10.8,11.3-16.7c1.7-2.9,3.2-5.9,4.6-9 l2-4.6c0.6-1.6,1.2-3.1,1.8-4.7c2.2-6.3,3.9-12.8,5.1-19.4c1.2-6.6,1.7-13.3,1.7-20C345.7,143,343.5,129.6,338.9,117.2z"></path> </g> <g> <path class="st0" d="M99.3,66.8l0.3,11.8l6.3-10.3c0.4-0.6,0.9-1.4,1.3-2.1c0.5-0.7,1-1.4,1.5-2.1c1-1.4,2-2.8,3.1-4.1 c1.1-1.4,2.2-2.7,3.3-4c1.1-1.3,2.3-2.6,3.4-3.9c4.7-5.1,9.8-9.9,15.1-14.3c2.7-2.2,5.5-4.3,8.4-6.3c2.9-2,5.8-3.9,8.9-5.6 c6.1-3.5,12.5-6.5,19.2-9.3c-7.2,0.8-14.3,2.7-21.1,5.5c-3.4,1.4-6.7,3-9.9,4.7c-3.2,1.8-6.3,3.7-9.3,5.8c-3,2.1-5.9,4.4-8.7,6.8 c-2.8,2.4-5.4,5-7.9,7.7c-2.5,2.7-4.9,5.5-7.1,8.4c-0.2,0.2-0.3,0.4-0.5,0.6c-0.1-1.1-0.2-2.2-0.3-3.4c-0.4-4.5-0.9-9.1-1.4-13.6 c-0.5-4.5-1.1-9-1.7-13.6c-0.3-2.3-0.7-4.5-1-6.8c-0.3-2.3-0.7-4.5-1.2-6.8c-0.2,2.3-0.4,4.6-0.5,6.8c-0.1,2.3-0.2,4.6-0.3,6.8 c-0.2,4.6-0.3,9.1-0.3,13.7c0,4.6,0,9.1,0,13.7C99,57.7,99.1,62.2,99.3,66.8z"></path> <path class="st0" d="M307.1,31.4c2.9,2,5.7,4.1,8.4,6.3c5.4,4.4,10.5,9.2,15.1,14.3c1.2,1.3,2.3,2.6,3.4,3.9 c1.1,1.3,2.2,2.7,3.3,4c1.1,1.4,2.1,2.8,3.1,4.1c0.5,0.7,1,1.4,1.5,2.1c0.5,0.7,1,1.5,1.3,2.1l6.3,10.3l0.3-11.8 c0.1-4.6,0.2-9.1,0.3-13.7c0.1-4.6,0.1-9.1,0-13.7c0-4.6-0.1-9.1-0.3-13.7c-0.1-2.3-0.2-4.6-0.3-6.8c-0.1-2.3-0.3-4.6-0.5-6.8 c-0.4,2.3-0.8,4.5-1.2,6.8c-0.4,2.3-0.7,4.5-1,6.8c-0.6,4.5-1.2,9-1.7,13.6c-0.5,4.5-1,9.1-1.4,13.6c-0.1,1.1-0.2,2.2-0.3,3.4 c-0.2-0.2-0.3-0.4-0.5-0.6c-2.2-2.9-4.6-5.8-7.1-8.4c-2.5-2.7-5.2-5.2-7.9-7.7c-2.8-2.4-5.7-4.7-8.7-6.8c-3-2.1-6.1-4.1-9.3-5.8 c-3.2-1.7-6.5-3.3-9.9-4.7c-6.8-2.7-13.9-4.6-21.1-5.5c6.7,2.7,13.1,5.7,19.2,9.3C301.3,27.5,304.3,29.4,307.1,31.4z"></path> <path class="st0" d="M161.1,279.9c-3.3-1.1-6.4-2.5-9.6-4c-1.6-0.8-3.1-1.5-4.6-2.3c-1.5-0.8-3-1.7-4.6-2.5 c-3-1.8-5.9-3.6-8.8-5.6c-5.7-4-11.2-8.4-16.3-13.3c-2.6-2.4-5.1-4.9-7.5-7.5c-1.2-1.3-2.4-2.6-3.6-4c-1.2-1.3-2.3-2.7-3.4-4.2 c1.4,3.3,3.3,6.5,5.2,9.5c2,3.1,4.1,6,6.4,8.8c4.6,5.7,9.8,10.9,15.5,15.5c2.9,2.3,5.8,4.5,8.9,6.5c3.1,2,6.3,3.8,9.6,5.5 c0.6,0.3,1.1,0.6,1.7,0.8c-6.6,0.2-13.2,0.4-19.9,0.7c-6.6,0.3-13.3,0.6-19.9,1c-3.3,0.2-6.6,0.4-10,0.7c-3.3,0.3-6.6,0.5-10,0.9 c3.3,0.3,6.6,0.6,10,0.9c3.3,0.3,6.6,0.5,10,0.7c6.6,0.4,13.3,0.8,19.9,1c6.6,0.3,13.3,0.5,19.9,0.7c6.6,0.2,13.3,0.3,19.9,0.3 l26.9,0.3l-26-7.4C167.7,282.1,164.3,281.1,161.1,279.9z"></path> <path class="st0" d="M350.1,285.6c-3.4-0.3-6.8-0.5-10.1-0.7c-6.8-0.4-13.5-0.8-20.3-1c-6.8-0.3-13.5-0.5-20.3-0.7 c-0.1,0-0.2,0-0.2,0c0.6-0.3,1.1-0.5,1.7-0.8c3.3-1.7,6.5-3.5,9.6-5.5c3.1-2,6.1-4.2,8.9-6.5c5.7-4.7,10.9-9.9,15.5-15.5 c2.3-2.8,4.4-5.8,6.4-8.8c1.9-3.1,3.8-6.2,5.2-9.5c-1.1,1.4-2.2,2.8-3.4,4.2c-1.2,1.4-2.3,2.7-3.6,4c-2.4,2.6-4.9,5.1-7.5,7.5 c-5.1,4.8-10.6,9.3-16.3,13.3c-2.8,2-5.8,3.8-8.8,5.6c-1.5,0.8-3,1.7-4.6,2.5c-1.5,0.8-3.1,1.6-4.6,2.3c-3.1,1.4-6.3,2.8-9.6,4 c-3.2,1.2-6.5,2.2-9.9,3.1l-26.6,7.4l27.5-0.3c6.8-0.1,13.5-0.2,20.3-0.3c6.8-0.2,13.5-0.4,20.3-0.7c6.8-0.3,13.5-0.6,20.3-1 c3.4-0.2,6.8-0.4,10.1-0.7c3.4-0.3,6.8-0.5,10.1-0.9C356.8,286.2,353.4,285.9,350.1,285.6z"></path> </g></g></svg>