<svg xmlns="http://www.w3.org/2000/svg" xmlns:xlink="http://www.w3.org/1999/xlink" id="Layer_1" x="0px" y="0px" viewBox="0 0 649.4 172.9" style="enable-background:new 0 0 649.4 172.9;" xml:space="preserve"><style type="text/css"> .st0{fill:#494949;}</style><g id="Car"> <path class="st0" d="M649.4,169.3c0,0-2.5,0.1-7.3,0.2c-4.8,0.1-11.7,0.3-20.6,0.5c-8.9,0.2-19.7,0.4-32,0.7 c-12.4,0.2-26.3,0.5-41.5,0.7c-7.6,0.1-15.5,0.2-23.7,0.3c-8.2,0.1-16.7,0.2-25.4,0.3c-17.4,0.2-35.8,0.4-54.9,0.5 c-9.5,0.1-19.2,0.1-29,0.2c-4.9,0-9.8,0.1-14.8,0.1c-4.9,0-9.9,0-14.9,0c-20,0.1-40.3,0.1-60.6,0.1c-20.3,0-40.6,0-60.6-0.1 c-10,0-19.9-0.1-29.7-0.1c-9.8-0.1-19.5-0.1-29-0.2c-19-0.1-37.4-0.3-54.9-0.5c-17.4-0.2-33.9-0.4-49.2-0.6 c-15.2-0.2-29.2-0.5-41.5-0.7c-12.4-0.2-23.1-0.5-32-0.7c-8.9-0.2-15.9-0.4-20.6-0.5c-4.8-0.1-7.3-0.2-7.3-0.2s2.5-0.1,7.3-0.2 c4.8-0.1,11.7-0.3,20.6-0.5c8.9-0.2,19.7-0.4,32-0.7c12.4-0.2,26.3-0.5,41.5-0.7c15.2-0.2,31.7-0.4,49.2-0.6 c17.4-0.2,35.8-0.4,54.9-0.5c9.5-0.1,19.2-0.1,29-0.2c9.8,0,19.7-0.1,29.7-0.1c20-0.1,40.3-0.1,60.6-0.1c20.3,0,40.6,0,60.6,0.1 c5,0,10,0,14.9,0c4.9,0,9.9,0.1,14.8,0.1c9.8,0.1,19.5,0.1,29,0.2c19,0.1,37.4,0.3,54.9,0.5c8.7,0.1,17.2,0.2,25.4,0.3 c8.2,0.1,16.1,0.2,23.7,0.3c15.2,0.2,29.2,0.5,41.5,0.7c12.4,0.2,23.1,0.5,32,0.7c8.9,0.2,15.9,0.4,20.6,0.5 C646.9,169.2,649.4,169.3,649.4,169.3z M221.6,157.4c3.4,0.2,7.6,0.4,12.3,0.5c2.4,0.1,4.9,0.2,7.6,0.3c2.7,0.1,5.5,0.2,8.4,0.3 c5.8,0.2,12.2,0.4,18.9,0.5c6.7,0.2,13.8,0.3,21.1,0.4c3.7,0.1,7.4,0.1,11.1,0.2c3.8,0.1,7.6,0.1,11.4,0.1 c7.7,0.1,15.5,0.1,23.3,0.1c7.8,0,15.6,0,23.3,0c1.9,0,3.8,0,5.7,0c1.9,0,3.8,0,5.7-0.1c3.8,0,7.5-0.1,11.1-0.1 c7.3-0.1,14.4-0.2,21.1-0.3c6.7-0.1,13-0.3,18.9-0.5c2.9-0.1,5.7-0.2,8.4-0.3c2.7-0.1,5.2-0.2,7.6-0.3c4.8-0.2,8.9-0.4,12.3-0.5 c3.4-0.1,6.1-0.3,7.9-0.4c1.8-0.1,2.8-0.2,2.8-0.2s-1-0.1-2.8-0.2c-1.8-0.1-4.5-0.3-7.9-0.4c-3.4-0.2-7.6-0.4-12.3-0.6 c-2.4-0.1-4.9-0.2-7.6-0.3c-2.7-0.1-5.5-0.2-8.4-0.3c-5.8-0.2-12.2-0.4-18.9-0.5c-6.7-0.2-13.8-0.3-21.1-0.4 c-3.7-0.1-7.4-0.1-11.1-0.2c-1.9,0-3.8,0-5.7-0.1c-1.9,0-3.8,0-5.7,0c-7.7-0.1-15.5-0.1-23.3-0.1c-7.8,0-15.6,0-23.3,0 c-3.8,0-7.6,0-11.4,0.1c-3.8,0-7.5,0.1-11.1,0.1c-7.3,0.1-14.4,0.2-21.1,0.3c-6.7,0.1-13,0.3-18.9,0.5c-2.9,0.1-5.7,0.2-8.4,0.3 c-2.7,0.1-5.2,0.2-7.6,0.3c-4.8,0.2-8.9,0.4-12.3,0.5c-3.4,0.1-6.1,0.3-7.9,0.4c-1.8,0.1-2.8,0.2-2.8,0.2s1,0.1,2.8,0.2 C215.6,157.1,218.2,157.2,221.6,157.4z M568.7,157.2c2.1,0.2,5.1,0.5,8.7,0.7c3.6,0.2,7.8,0.5,12.4,0.6c1.1,0,2.3,0.1,3.4,0.1 c1.2,0,2.3,0.1,3.5,0.1c2.4,0.1,4.8,0.1,7.2,0.1c2.4,0,4.8,0,7.2,0c1.2,0,2.4,0,3.5,0c1.2,0,2.3,0,3.4-0.1 c4.5-0.1,8.7-0.3,12.4-0.5c3.6-0.2,6.6-0.4,8.7-0.6c1.1-0.1,1.9-0.2,2.5-0.2c0.6-0.1,0.9-0.1,0.9-0.1s-0.3,0-0.9-0.1 c-0.6-0.1-1.4-0.2-2.4-0.3c-2.1-0.2-5.1-0.5-8.7-0.7c-3.6-0.2-7.8-0.5-12.4-0.6c-1.1,0-2.3-0.1-3.4-0.1c-1.2,0-2.3-0.1-3.5-0.1 c-2.4-0.1-4.8-0.1-7.2-0.1c-2.4,0-4.8,0-7.2,0c-1.2,0-2.4,0-3.5,0c-1.2,0-2.3,0-3.4,0.1c-4.5,0.1-8.7,0.3-12.4,0.5 c-3.6,0.2-6.6,0.4-8.7,0.6c-1.1,0.1-1.9,0.2-2.5,0.2c-0.6,0.1-0.9,0.1-0.9,0.1s0.3,0,0.9,0.1C566.8,157,567.6,157.1,568.7,157.2z M20.6,156.9c1.4,0.1,3.2,0.2,5.2,0.4c2,0.1,4.3,0.3,6.8,0.4c5,0.2,10.8,0.5,17,0.6c1.6,0,3.1,0.1,4.7,0.1c1.6,0,3.2,0.1,4.8,0.1 c3.3,0.1,6.6,0.1,9.9,0.1c3.3,0,6.6,0,9.9,0c1.6,0,3.2,0,4.8,0c1.6,0,3.2,0,4.7-0.1c6.2-0.1,12-0.3,17-0.5c2.5-0.1,4.8-0.2,6.8-0.3 c2-0.1,3.8-0.2,5.2-0.3c1.4-0.1,2.6-0.2,3.4-0.2c0.8-0.1,1.2-0.1,1.2-0.1s-0.4,0-1.2-0.1c-0.8-0.1-1.9-0.2-3.4-0.3 c-1.4-0.1-3.2-0.2-5.2-0.4c-2-0.1-4.3-0.3-6.8-0.4c-5-0.2-10.8-0.5-17-0.6c-1.6,0-3.1-0.1-4.7-0.1c-1.6,0-3.2-0.1-4.8-0.1 c-3.3-0.1-6.6-0.1-9.9-0.1c-3.3,0-6.6,0-9.9,0c-1.6,0-3.2,0-4.8,0c-1.6,0-3.2,0-4.7,0.1c-6.2,0.1-12,0.3-17,0.5 c-2.5,0.1-4.8,0.2-6.8,0.3c-2,0.1-3.8,0.2-5.2,0.3c-1.4,0.1-2.6,0.2-3.4,0.2c-0.8,0.1-1.2,0.1-1.2,0.1s0.4,0,1.2,0.1 C18,156.7,19.2,156.8,20.6,156.9z"></path> <path class="st0" d="M167.5,81c-24.2,0-43.8,19.6-43.8,43.8c0,24.2,19.6,43.8,43.8,43.8c24.2,0,43.8-19.6,43.8-43.8 C211.3,100.6,191.7,81,167.5,81z M163.8,161.5c-5.7-0.6-11.5-2.4-16.5-5.8c-2.5-1.6-4.9-3.6-6.9-5.8c-2.1-2.2-3.9-4.7-5.4-7.4 c-1.5-2.7-2.6-5.6-3.4-8.5c-0.7-3-1.1-6-1.2-9l0-0.3l0-0.3l0-0.6l0-1.1l0.1-1.1c0-0.4,0.1-0.8,0.1-1.1c0.1-0.7,0.2-1.5,0.3-2.2 c0.1-0.4,0.1-0.7,0.2-1.1c0.1-0.4,0.2-0.7,0.3-1.1c0.2-0.7,0.4-1.4,0.6-2.1c0.2-0.7,0.5-1.4,0.7-2.1c0.5-1.4,1.1-2.7,1.8-3.9 c1.3-2.5,2.9-4.9,4.7-7c1.8-2.1,3.8-3.9,5.8-5.5c2.1-1.6,4.3-2.9,6.5-3.9c2.2-1,4.5-1.8,6.7-2.4c2.2-0.5,4.4-0.9,6.4-1 c1-0.1,2-0.1,3-0.1c0.5,0,1,0,1.4,0.1c0.5,0,0.9,0.1,1.4,0.1c3.7,0.4,6.8,1.2,9.2,2.1c0.6,0.2,1.2,0.5,1.7,0.7 c0.5,0.2,1,0.5,1.5,0.7c0.9,0.5,1.7,0.9,2.3,1.2c0.3,0.2,0.6,0.3,0.8,0.5c0.2,0.1,0.4,0.3,0.6,0.4c0.3,0.2,0.5,0.3,0.5,0.3 s-0.2-0.1-0.5-0.3c-0.2-0.1-0.3-0.2-0.6-0.3c-0.2-0.1-0.5-0.3-0.8-0.4c-1.2-0.7-3.1-1.6-5.6-2.4c-2.5-0.8-5.6-1.6-9.2-1.8 c-0.9-0.1-1.8-0.1-2.8-0.1c-1,0-1.9,0-3,0.2c-2,0.2-4.1,0.5-6.3,1.1c-4.3,1.2-8.7,3.3-12.7,6.4c-2,1.6-3.9,3.4-5.6,5.4 c-1.7,2-3.2,4.3-4.4,6.8c-0.6,1.2-1.2,2.5-1.7,3.8c-0.2,0.7-0.5,1.3-0.7,2c-0.2,0.7-0.4,1.4-0.5,2l-0.2,1l-0.2,1.1 c-0.1,0.7-0.2,1.4-0.3,2.1c-0.1,0.4-0.1,0.7-0.1,1.1l-0.1,1.1l0,1.1l0,0.6l0,0.3l0,0.3c0,2.9,0.4,5.8,1.1,8.6 c0.8,2.8,1.8,5.6,3.2,8.1c1.4,2.6,3.1,5,5.1,7.1c2,2.1,4.2,4,6.6,5.6c4.8,3.2,10.3,5.1,15.8,5.7c5.5,0.6,10.9-0.1,15.7-1.8 c4.8-1.7,8.9-4.3,12.2-7.3c3.3-3,5.7-6.3,7.5-9.5c0.9-1.6,1.6-3.1,2.1-4.6c0.3-0.7,0.5-1.4,0.7-2.1c0.1-0.3,0.2-0.7,0.3-1 c0.1-0.3,0.2-0.7,0.2-1c0.6-2.5,0.9-4.6,1-6c0.1-0.7,0.1-1.2,0.1-1.6c0-0.4,0-0.5,0-0.5s0,0.2,0,0.5c0,0.4,0,0.9,0,1.6 c0,0.7-0.1,1.6-0.2,2.6c0,0.3-0.1,0.5-0.1,0.8c0,0.3-0.1,0.6-0.1,0.8c0,0.3-0.1,0.6-0.1,0.9c-0.1,0.3-0.1,0.6-0.2,0.9 c-0.1,0.3-0.1,0.7-0.2,1c-0.1,0.3-0.2,0.7-0.3,1c-0.2,0.7-0.4,1.4-0.7,2.2c-0.5,1.5-1.2,3.1-2,4.7c-0.8,1.6-1.9,3.3-3.1,5 c-1.2,1.7-2.7,3.3-4.3,4.9c-3.3,3.1-7.5,5.9-12.4,7.7C175.1,161.2,169.5,162,163.8,161.5z M188.2,113.4c0.4,1,1.4,1.6,2.5,1.6 c0.1,0,0.2,0,0.4,0c2.4-0.3,5-0.5,7.8-0.6c0.1,0.4,0.3,0.9,0.4,1.3c-0.1,0-0.1,0-0.2,0c-0.4,0-0.8,0-1.3,0.1c-0.5,0-1,0.1-1.5,0.1 c-0.5,0-1.1,0.1-1.7,0.2c-0.6,0.1-1.2,0.2-1.8,0.3c-0.6,0.1-1.2,0.2-1.8,0.4c-1.2,0.3-2.4,0.6-3.6,0.9c-1.1,0.3-2.2,0.6-3,1 c-1.8,0.6-2.9,1.1-2.9,1.1s1.2-0.4,3-0.8c0.9-0.2,2-0.4,3.1-0.6c1.1-0.2,2.4-0.3,3.6-0.4c0.6-0.1,1.2-0.1,1.8-0.1 c0.6,0,1.2-0.1,1.8-0.1c0,0,0.1,0,0.1,0c-5.8,0.4-11.7,1.7-18.8,4.7c-0.2-0.7-0.5-1.4-0.9-2c0.1-0.1,0.3-0.2,0.4-0.3 c0.6-0.4,1.3-0.9,1.9-1.4c0.6-0.5,1.3-1,2-1.6c0.7-0.6,1.3-1.1,2-1.7c2.6-2.4,5-4.9,6.7-7c0.4-0.5,0.8-1,1.1-1.4 c0.3-0.4,0.6-0.8,0.8-1.1c0.2-0.3,0.3-0.6,0.4-0.8c0.1-0.2,0.1-0.3,0.1-0.3s-0.1,0.1-0.2,0.3c-0.1,0.2-0.3,0.4-0.5,0.7 c-0.2,0.3-0.5,0.7-0.9,1.1c-0.4,0.4-0.7,0.9-1.2,1.3c-1.8,1.9-4.4,4.2-7.1,6.3c-0.7,0.5-1.4,1-2.1,1.5c-0.6,0.5-1.3,0.9-1.9,1.4 c6.7-4.8,11-9.7,14.8-15.4c0.7,0.8,1.4,1.6,2.1,2.4c-1.6,2.3-3.1,4.3-4.8,6.2C188,111.3,187.8,112.4,188.2,113.4z M190.3,136.1 c-1.1-0.2-2.1,0.2-2.8,1.1c-0.6,0.9-0.7,2-0.1,3c0.1,0.1,0.1,0.2,0.2,0.3c1.5,2,2.9,4.1,4.4,6.5c-0.3,0.3-0.6,0.7-1,1 c0-0.1-0.1-0.1-0.1-0.2c-0.2-0.3-0.5-0.7-0.7-1.1c-0.3-0.4-0.6-0.8-0.9-1.3c-0.3-0.4-0.6-0.9-1-1.4c-0.4-0.5-0.7-1-1.1-1.4 c-0.4-0.5-0.8-1-1.2-1.4c-0.8-0.9-1.7-1.8-2.5-2.7c-0.8-0.8-1.6-1.5-2.4-2.2c-1.4-1.2-2.4-2-2.4-2s0.9,0.8,2.2,2.2 c0.6,0.7,1.3,1.5,2.1,2.4c0.7,0.9,1.5,1.9,2.2,2.9c0.4,0.5,0.7,1,1,1.5c0.3,0.5,0.6,1,0.9,1.5c0,0,0,0.1,0,0.1 c-3.3-4.8-7.4-9.3-13.6-14c0.5-0.5,1-1.1,1.4-1.7c0.1,0.1,0.3,0.1,0.4,0.2c0.7,0.3,1.4,0.6,2.2,0.9c0.8,0.3,1.6,0.6,2.4,0.9 c0.8,0.3,1.7,0.6,2.5,0.8c3.4,1.1,6.8,1.9,9.4,2.3c0.6,0.1,1.2,0.2,1.8,0.2c0.5,0.1,1,0.1,1.4,0.1c0.4,0,0.7,0,0.9,0 c0.2,0,0.3,0,0.3,0s-0.1,0-0.3,0c-0.2,0-0.5,0-0.9-0.1c-0.4-0.1-0.8-0.1-1.4-0.2c-0.5-0.1-1.1-0.2-1.7-0.4c-2.5-0.6-5.8-1.7-9.1-3 c-0.8-0.3-1.6-0.7-2.4-1c-0.7-0.3-1.4-0.7-2.1-1c7.5,3.4,13.9,4.6,20.8,5.1c-0.3,1-0.6,2-1,3C195.3,136.9,192.7,136.6,190.3,136.1z M195.5,138.5c-0.1,0.3-0.3,0.6-0.4,0.9c-0.7,1.4-1.6,2.8-2.6,4.3c-0.1,0.2-0.3,0.4-0.4,0.6c-0.2-0.3-0.4-0.7-0.6-1 c1.1-1.4,2.1-2.9,2.9-4.3c0.1-0.2,0.2-0.4,0.3-0.6C194.9,138.4,195.2,138.5,195.5,138.5z M187.7,148.9c-2.6,2.3-5.8,4.3-9.5,5.7 c-0.3,0.1-0.7,0.2-1,0.4c-0.3-0.5-0.5-1.1-0.8-1.6c0.4-0.1,0.8-0.2,1.2-0.4c3.6-1.2,6.7-3.1,9.3-5.2 C187.2,148.1,187.5,148.5,187.7,148.9z M170,150.3c-0.4-1-1.3-1.7-2.4-1.7c-1.1-0.1-2.1,0.5-2.6,1.5c-0.1,0.1-0.1,0.2-0.1,0.3 c-0.8,2.3-1.9,4.7-3.1,7.2c-0.5-0.1-0.9-0.2-1.4-0.3c0-0.1,0.1-0.1,0.1-0.2c0.2-0.4,0.4-0.8,0.6-1.2c0.2-0.4,0.4-0.9,0.6-1.4 c0.2-0.5,0.4-1,0.6-1.6c0.2-0.6,0.4-1.1,0.6-1.7c0.2-0.6,0.4-1.2,0.5-1.8c0.3-1.2,0.6-2.4,0.9-3.6c0.2-1.1,0.4-2.2,0.6-3.1 c0.3-1.8,0.4-3.1,0.4-3.1s-0.2,1.2-0.7,3c-0.2,0.9-0.6,1.9-0.9,3c-0.4,1.1-0.8,2.3-1.3,3.4c-0.2,0.6-0.5,1.1-0.7,1.7 c-0.2,0.6-0.5,1.1-0.8,1.6c0,0,0,0.1,0,0.1c2.3-5.4,3.9-11.3,4.6-19.2c0.7,0.2,1.4,0.3,2.2,0.3c0,0.2,0.1,0.4,0.1,0.7 c0.1,0.8,0.2,1.5,0.4,2.4c0.2,0.8,0.3,1.7,0.5,2.5c0.2,0.8,0.4,1.7,0.6,2.5c0.9,3.4,2.1,6.7,3.1,9.1c0.2,0.6,0.5,1.1,0.8,1.6 c0.2,0.5,0.5,0.9,0.7,1.2c0.2,0.3,0.4,0.6,0.5,0.7c0.1,0.2,0.2,0.3,0.2,0.3s-0.1-0.1-0.2-0.3c-0.1-0.2-0.3-0.4-0.4-0.8 c-0.2-0.4-0.4-0.8-0.6-1.3c-0.2-0.5-0.4-1-0.6-1.7c-0.8-2.5-1.7-5.8-2.3-9.2c-0.2-0.9-0.3-1.7-0.4-2.5c-0.1-0.8-0.2-1.6-0.3-2.4 c1.2,8.2,3.5,14.2,6.8,20.3c-1,0.3-2,0.5-3.1,0.7C171.9,154.9,170.9,152.6,170,150.3z M171,156.3c-2.2,0.3-4.5,0.3-6.7,0.1 c-0.1,0-0.3,0-0.4,0c0.3-0.7,0.6-1.3,0.9-1.9c1.8,0.2,3.6,0.2,5.4,0C170.5,155.1,170.7,155.7,171,156.3z M144.9,145.4 c0.1-0.2,0.2-0.4,0.5-0.7c0.2-0.3,0.5-0.7,0.8-1.1c0.3-0.4,0.7-0.9,1.1-1.4c1.7-2,4.2-4.4,6.9-6.6c0.7-0.6,1.3-1.1,2-1.6 c0.6-0.5,1.3-1,1.9-1.4c-6.5,5.1-10.6,10.1-14.2,16c-0.8-0.7-1.5-1.5-2.2-2.3c1.5-2.3,3-4.4,4.5-6.3c0.7-0.8,0.8-2,0.3-2.9 c-0.5-1-1.5-1.6-2.5-1.5c-0.1,0-0.2,0-0.4,0c-2.4,0.4-5,0.7-7.8,0.9c-0.2-0.4-0.3-0.9-0.5-1.3c0.1,0,0.1,0,0.2,0 c0.4,0,0.8-0.1,1.3-0.1c0.5,0,1-0.1,1.5-0.2c0.5-0.1,1.1-0.1,1.7-0.3c0.6-0.1,1.2-0.2,1.8-0.3c0.6-0.1,1.2-0.3,1.8-0.4 c1.2-0.3,2.4-0.7,3.5-1c1.1-0.4,2.1-0.7,3-1.1c1.7-0.7,2.9-1.2,2.9-1.2s-1.2,0.4-3,0.9c-0.9,0.2-2,0.5-3.1,0.7 c-1.1,0.2-2.3,0.4-3.6,0.6c-0.6,0.1-1.2,0.2-1.8,0.2c-0.6,0.1-1.2,0.1-1.8,0.1c0,0-0.1,0-0.1,0c5.9-0.7,12-2.2,19.2-5.7 c0.2,0.7,0.5,1.3,0.8,1.9c-0.3,0.2-0.6,0.4-0.9,0.7c-0.6,0.5-1.2,1-1.9,1.5c-0.6,0.6-1.3,1.1-1.9,1.7c-0.6,0.6-1.3,1.2-1.9,1.8 c-2.5,2.5-4.8,5.1-6.4,7.2c-0.4,0.5-0.7,1-1,1.5c-0.3,0.4-0.5,0.9-0.7,1.2C145.1,144.9,144.9,145.2,144.9,145.4 c-0.1,0.2-0.2,0.3-0.2,0.3S144.8,145.6,144.9,145.4z M158.6,153.2c-0.3,0.6-0.6,1.3-1,1.9c-2.7-0.8-5.2-2-7.6-3.6 c-1.5-0.9-2.9-2-4.2-3.2c0.4-0.6,0.8-1.3,1.3-1.9c1.3,1.2,2.6,2.3,4.1,3.2c2,1.3,4.2,2.4,6.4,3.2 C158,152.9,158.3,153.1,158.6,153.2z M141.7,143.6c-0.8-1.1-1.6-2.3-2.2-3.5c-0.5-0.9-1-1.9-1.4-2.9c0.8-0.1,1.6-0.1,2.4-0.2 c0.3,0.7,0.6,1.3,1,1.9c0.5,0.9,1,1.8,1.6,2.6C142.6,142.2,142.1,142.9,141.7,143.6z M138.5,131c-0.8,0.1-1.5,0.1-2.3,0.1 c-0.4-2-0.6-4.1-0.6-6.2l0-0.2l0-0.3l0-0.5l0-0.9c0.1-0.7,0.1-1.3,0.2-2c0.1-0.6,0.2-1.3,0.3-1.9l0.2-0.9l0.2-0.7 c0.7,0,1.4,0.1,2.2,0.2c-0.5,2.3-0.8,4.8-0.8,7.2C137.8,127,138,129.1,138.5,131z M159.8,120.7c-0.4-0.2-0.7-0.3-1.1-0.5 c-0.7-0.3-1.5-0.6-2.2-0.9c-0.8-0.3-1.6-0.6-2.4-0.8c-0.8-0.3-1.7-0.5-2.5-0.8c-3.4-1-6.8-1.7-9.4-2c-0.6-0.1-1.3-0.1-1.8-0.2 c-0.5-0.1-1,0-1.4-0.1c-0.4,0-0.7,0-0.9,0c-0.2,0-0.3,0-0.3,0s0.1,0,0.3,0c0.2,0,0.5,0,0.9,0c0.4,0.1,0.8,0.1,1.4,0.2 c0.5,0.1,1.1,0.2,1.7,0.3c2.5,0.5,5.9,1.5,9.1,2.8c0.8,0.3,1.6,0.6,2.4,1c0.7,0.3,1.5,0.6,2.2,1c-7.6-3.2-14-4.3-20.9-4.6 c0.3-1,0.6-2,1-3c2.8,0.2,5.3,0.4,7.7,0.8c1.1,0.2,2.1-0.3,2.7-1.2c0.6-0.9,0.6-2.1,0.1-3c-0.1-0.1-0.1-0.2-0.2-0.3 c-1.5-1.9-3-4-4.5-6.4c0.3-0.4,0.6-0.7,0.9-1c0,0.1,0.1,0.1,0.1,0.2c0.2,0.3,0.5,0.7,0.7,1.1c0.3,0.4,0.6,0.8,0.9,1.3 c0.3,0.4,0.7,0.9,1,1.4c0.4,0.5,0.8,0.9,1.2,1.4c0.4,0.5,0.8,0.9,1.3,1.4c0.9,0.9,1.8,1.8,2.6,2.6c0.9,0.8,1.7,1.5,2.4,2.1 c1.4,1.2,2.5,1.9,2.5,1.9s-0.9-0.8-2.2-2.2c-0.6-0.7-1.4-1.5-2.1-2.3c-0.7-0.9-1.5-1.8-2.3-2.8c-0.4-0.5-0.7-1-1.1-1.5 c-0.3-0.5-0.7-1-1-1.5c0,0,0-0.1,0-0.1c3.5,4.9,7.8,9.4,14.4,14C160.5,119.5,160.1,120.1,159.8,120.7z M138.5,111.6 c0.2-0.4,0.4-0.8,0.6-1.2c0.1-0.3,0.3-0.5,0.4-0.8c0.2-0.3,0.3-0.5,0.5-0.8c0.3-0.5,0.6-1,1-1.5c0.3-0.5,0.7-1,1-1.5 c0.1-0.1,0.1-0.2,0.2-0.3c0.4,0.6,0.8,1.2,1.2,1.7c-0.9,1.3-1.7,2.7-2.5,4.1c-0.1,0.2-0.2,0.3-0.3,0.5 C139.9,111.7,139.2,111.6,138.5,111.6z M146.6,100.9c0.5-0.4,1-0.9,1.6-1.3c1.8-1.3,3.7-2.5,5.6-3.4c1.6-0.7,3.2-1.3,4.8-1.7 c0.2,0.4,0.4,0.8,0.6,1.2c-3.4,1-6.8,2.8-9.9,5.2c-0.6,0.4-1.1,0.9-1.7,1.4C147.2,101.9,146.9,101.4,146.6,100.9z M165.4,98.7 c0.4,1,1.2,1.7,2.3,1.8c1.1,0.1,2.1-0.4,2.6-1.3c0.1-0.1,0.1-0.2,0.2-0.3c1-2.3,2.1-4.6,3.4-7c0.5,0.1,0.9,0.2,1.4,0.3 c0,0.1-0.1,0.1-0.1,0.2c-0.2,0.3-0.4,0.7-0.6,1.2c-0.2,0.4-0.4,0.9-0.7,1.4c-0.2,0.5-0.5,1-0.7,1.6c-0.2,0.5-0.5,1.1-0.7,1.7 c-0.2,0.6-0.4,1.2-0.6,1.8c-0.4,1.2-0.7,2.4-1,3.5c-0.3,1.1-0.5,2.2-0.7,3.1c-0.4,1.8-0.5,3.1-0.5,3.1s0.3-1.2,0.8-3 c0.3-0.9,0.6-1.9,1-3c0.4-1.1,0.9-2.2,1.4-3.3c0.3-0.6,0.5-1.1,0.8-1.6c0.3-0.5,0.5-1.1,0.8-1.6c0,0,0-0.1,0-0.1 c-2.6,5.4-4.5,11.2-5.4,19.2c-0.6-0.1-1.1-0.2-1.7-0.2c-0.1,0-0.2,0-0.3,0c0-0.4-0.1-0.7-0.1-1.1c-0.1-0.8-0.2-1.6-0.3-2.4 c-0.1-0.8-0.2-1.7-0.4-2.5c-0.2-0.9-0.3-1.7-0.5-2.6c-0.7-3.4-1.8-6.8-2.7-9.3c-0.2-0.6-0.5-1.2-0.7-1.7c-0.2-0.5-0.4-0.9-0.6-1.2 c-0.2-0.3-0.4-0.6-0.5-0.8c-0.1-0.2-0.2-0.3-0.2-0.3s0,0.1,0.1,0.3c0.1,0.2,0.2,0.4,0.4,0.8c0.1,0.4,0.3,0.8,0.5,1.3 c0.2,0.5,0.4,1.1,0.5,1.7c0.7,2.5,1.5,5.9,1.9,9.3c0.1,0.9,0.2,1.7,0.3,2.6c0.1,0.8,0.1,1.6,0.2,2.4c-0.8-8.2-2.9-14.4-5.9-20.5 c1-0.2,2.1-0.4,3.1-0.6C163.6,94,164.6,96.3,165.4,98.7z M164.8,93.5c0.1,0,0.1,0,0.2,0c0.9-0.1,1.7,0,2.6,0c0.4,0,0.8,0,1.2,0.1 c0.4,0,0.8,0.1,1.2,0.1c0.5,0.1,1,0.1,1.5,0.2c-0.1,0.3-0.3,0.5-0.4,0.8c-0.4,0-0.8-0.1-1.2-0.1c-0.4,0-0.8,0-1.2,0 c-0.4,0-0.8,0-1.2,0c-0.7,0-1.5,0.1-2.3,0.1C165.2,94.2,165,93.8,164.8,93.5z M173.4,124.4c0-0.2-0.1-0.4-0.1-0.6 c0-0.3-0.1-0.6-0.2-0.9c-0.1-0.4-0.2-0.7-0.5-1.1c-0.2-0.4-0.5-0.7-0.7-1c-0.3-0.3-0.6-0.6-0.9-0.8c-0.3-0.2-0.7-0.4-1-0.6 c-0.4-0.1-0.7-0.3-1.1-0.4c-0.2,0-0.4-0.1-0.5-0.1c-0.2,0-0.3,0-0.5,0c-0.3,0-0.7,0-0.9,0c-0.3,0.1-0.5,0.1-0.8,0.2 c-0.2,0.1-0.4,0.2-0.5,0.3c-0.3,0.2-0.4,0.3-0.4,0.3s0.2-0.1,0.4-0.3c0.1-0.1,0.3-0.1,0.6-0.2c0.2-0.1,0.5-0.1,0.7-0.1 c0.3,0,0.6,0,0.9,0.1c0.2,0,0.3,0.1,0.5,0.1c0.2,0.1,0.3,0.1,0.5,0.2c0.3,0.1,0.6,0.3,0.9,0.4c0.3,0.2,0.6,0.4,0.8,0.6 c0.3,0.2,0.5,0.5,0.7,0.8c0.2,0.3,0.4,0.5,0.5,0.8c0,0,0,0.1,0,0.1c0,0.1-0.1,0.3-0.1,0.5c-0.2,0.5-0.5,1.1-0.8,1.8 c-0.4,0.6-0.8,1.2-1.2,1.6c-0.4,0.4-0.7,0.6-0.7,0.6s0.4-0.1,0.9-0.4c0.5-0.3,1.1-0.7,1.7-1.3c0.2-0.2,0.3-0.3,0.5-0.5c0,0,0,0,0,0 c-1.1,1.6-2.7,3-4.4,3c-2.9,0-5.4-4-5.7-6.2c0.3,0.7,0.6,1.4,1.1,2.2c0.6,1,1.3,1.8,1.9,2.3c0.3,0.3,0.6,0.5,0.8,0.6 c0.2,0.1,0.3,0.2,0.3,0.2s-0.1-0.1-0.3-0.3c-0.2-0.2-0.4-0.4-0.6-0.7c-0.5-0.6-1-1.5-1.4-2.5c-0.4-1-0.6-2-0.7-2.7 c-0.1-0.4-0.1-0.7-0.2-0.9c0-0.1,0-0.1,0-0.2c1.3-1.2,3-1.9,4.9-1.9c2.1,0,4,0.9,5.3,2.4c0.1,0.1,0.2,0.2,0.3,0.4c0,0,0,0,0,0l0,0 c0.3,0.4,0.6,0.9,0.8,1.4c0.3,0.8,0.5,1.7,0.5,2.6c0,0.4,0,0.9-0.1,1.4c-0.1,0.5-0.2,0.9-0.4,1.4c-0.4,0.9-0.9,1.7-1.6,2.4 c-0.7,0.7-1.5,1.2-2.4,1.5c-0.9,0.3-1.9,0.4-2.7,0.3c-1.8-0.1-3.3-1-4.3-2c-0.5-0.5-0.9-1-1.1-1.6c-0.1-0.2-0.2-0.5-0.3-0.7 c-0.1-0.2-0.1-0.4-0.2-0.6c-0.1-0.4-0.1-0.7-0.2-0.9c0-0.2,0-0.3,0-0.3s0,0.1,0,0.3c0,0.2,0.1,0.5,0.2,0.9c0.1,0.2,0.1,0.4,0.2,0.6 c0.1,0.2,0.2,0.5,0.3,0.7c0.3,0.5,0.7,1,1.1,1.5c0.5,0.5,1.1,0.9,1.8,1.2c0.7,0.3,1.5,0.5,2.3,0.5c0.9,0,1.7-0.1,2.5-0.4 c0.8-0.3,1.5-0.8,2.1-1.5c0.6-0.6,1.1-1.4,1.3-2.2c0.1-0.4,0.2-0.8,0.3-1.2C173.4,125.3,173.5,124.9,173.4,124.4z M198.3,126.6 c0,1.2-0.1,3-0.6,5.2c-0.1,0.3-0.1,0.5-0.2,0.8c-0.2,0-0.3,0-0.5-0.1c0,0,0,0,0,0c0.1-0.3,0.1-0.6,0.2-0.8c0.5-2.1,0.8-3.9,0.9-5.1 c0.1-0.6,0.1-1.1,0.1-1.4c0-0.3,0-0.5,0-0.5s0,0.2,0,0.5C198.3,125.5,198.3,126,198.3,126.6z M177.4,95.8c0.1-0.1,0.1-0.3,0.2-0.4 c0.1,0,0.2,0.1,0.3,0.1c2.1,0.8,3.6,1.7,4.7,2.3c0.3,0.2,0.5,0.3,0.7,0.4c0.2,0.1,0.3,0.2,0.5,0.3c0.3,0.2,0.4,0.3,0.4,0.3 s-0.1-0.1-0.4-0.2c-0.1-0.1-0.3-0.2-0.5-0.3c-0.2-0.1-0.4-0.2-0.7-0.4c-1.1-0.5-2.6-1.3-4.7-2C177.6,95.9,177.5,95.8,177.4,95.8z M208.9,132.3c-0.4,2.2-1,4.4-1.8,6.5c-0.8,2.1-1.7,4-2.7,5.9c-0.3,0.5-0.5,0.9-0.8,1.4c-0.3,0.4-0.6,0.9-0.8,1.3 c-0.3,0.4-0.6,0.8-0.9,1.2c-0.3,0.4-0.6,0.8-0.9,1.2c-0.6,0.8-1.2,1.5-1.8,2.2c-0.3,0.3-0.6,0.7-0.9,1c-0.3,0.3-0.6,0.7-1,1 l-0.2,0.2l-0.1,0.1l-0.1,0.1l-0.1,0.1c-0.2,0.2-0.3,0.3-0.5,0.5c-0.2,0.2-0.3,0.3-0.5,0.4c-0.2,0.1-0.3,0.3-0.5,0.4 c-0.7,0.6-1.3,1.1-2,1.6c-1.3,1-2.6,1.9-3.9,2.6c-1.3,0.8-2.5,1.4-3.6,1.9c-1.2,0.5-2.2,1-3.2,1.3c-2,0.7-3.6,1.1-4.7,1.4 c-0.5,0.1-1,0.2-1.3,0.3c-0.3,0.1-0.4,0.1-0.4,0.1s0.1,0,0.4-0.1c0.3-0.1,0.7-0.2,1.2-0.3c1.1-0.3,2.6-0.8,4.6-1.6 c1-0.4,2-0.9,3.1-1.5c1.1-0.6,2.3-1.3,3.5-2.1c1.2-0.8,2.5-1.7,3.7-2.7c0.6-0.5,1.3-1.1,1.9-1.6c0.2-0.1,0.3-0.3,0.5-0.4 c0.2-0.2,0.3-0.3,0.5-0.5c0.2-0.2,0.3-0.3,0.5-0.5l0.1-0.1l0.1-0.1l0.1-0.1l0.2-0.2c0.3-0.3,0.6-0.7,0.9-1c0.3-0.3,0.6-0.7,0.9-1 c0.6-0.7,1.2-1.5,1.7-2.2c1.1-1.6,2.2-3.2,3.1-5c0.9-1.8,1.8-3.7,2.5-5.7c0.7-2,1.2-4.1,1.6-6.3c0.8-4.3,0.8-9,0.1-13.5 c-0.7-4.6-2.3-9.1-4.5-13.2c-2.2-4.1-5.2-7.8-8.7-10.9c-3.5-3.1-7.4-5.5-11.4-7.2c-4.1-1.7-8.3-2.7-12.3-3c-1-0.1-2-0.1-3-0.2 c-1,0-2,0-2.9,0.1c-1,0-1.9,0.1-2.8,0.2c-0.5,0.1-0.9,0.1-1.4,0.2c-0.4,0.1-0.9,0.1-1.3,0.2c-3.5,0.7-6.6,1.7-9.2,2.9 c-2.6,1.2-4.8,2.5-6.5,3.7c-0.4,0.3-0.8,0.6-1.2,0.9c-0.4,0.3-0.7,0.5-1,0.8c-0.3,0.3-0.6,0.5-0.9,0.7c-0.3,0.2-0.5,0.4-0.7,0.6 c-0.8,0.8-1.3,1.2-1.3,1.2s0.4-0.4,1.2-1.2c0.8-0.8,2-1.9,3.7-3.2c1.7-1.3,3.8-2.7,6.5-4c2.6-1.3,5.8-2.5,9.3-3.3 c0.4-0.1,0.9-0.2,1.4-0.3c0.5-0.1,0.9-0.2,1.4-0.2c0.9-0.1,1.9-0.3,2.9-0.3c1-0.1,2-0.1,3-0.1c1,0,2,0,3.1,0.1 c4.2,0.2,8.5,1.2,12.8,2.9c2.1,0.9,4.2,1.9,6.2,3.1c2,1.2,4,2.6,5.7,4.2c3.6,3.2,6.8,7,9.1,11.3c2.3,4.3,3.9,9,4.6,13.8 c0.4,2.4,0.5,4.8,0.5,7.1C209.6,127.7,209.3,130.1,208.9,132.3z M510.2,81.2c-24.1,0-43.7,19.5-43.7,43.7 c0,24.1,19.5,43.7,43.7,43.7c24.1,0,43.7-19.5,43.7-43.7C553.9,100.8,534.3,81.2,510.2,81.2z M506.5,161.5 c-5.7-0.5-11.4-2.4-16.4-5.7c-2.5-1.6-4.8-3.6-6.9-5.8c-2.1-2.2-3.9-4.7-5.3-7.4c-1.5-2.7-2.6-5.5-3.3-8.5c-0.7-2.9-1.1-6-1.2-9 l0-0.3l0-0.3l0-0.5l0-1.1l0.1-1.1c0-0.4,0.1-0.8,0.1-1.1c0.1-0.7,0.2-1.5,0.3-2.2l0.2-1.1c0.1-0.4,0.2-0.7,0.3-1.1 c0.2-0.7,0.4-1.4,0.6-2.1c0.2-0.7,0.5-1.4,0.7-2.1c0.5-1.3,1.1-2.7,1.7-3.9c1.3-2.5,2.9-4.9,4.6-7c1.8-2.1,3.7-3.9,5.8-5.5 c2.1-1.6,4.3-2.9,6.5-3.9c2.2-1,4.5-1.8,6.7-2.4c2.2-0.5,4.4-0.9,6.4-1c1-0.1,2-0.1,3-0.1c0.5,0,1,0,1.4,0.1c0.5,0,0.9,0.1,1.4,0.1 c3.7,0.3,6.8,1.2,9.2,2.1c0.6,0.2,1.2,0.5,1.7,0.7c0.5,0.2,1,0.5,1.5,0.7c0.9,0.5,1.7,0.9,2.3,1.2c0.3,0.2,0.6,0.3,0.8,0.5 c0.2,0.1,0.4,0.3,0.6,0.4c0.3,0.2,0.5,0.3,0.5,0.3s-0.2-0.1-0.5-0.3c-0.2-0.1-0.3-0.2-0.6-0.3c-0.2-0.1-0.5-0.3-0.8-0.4 c-1.2-0.7-3.1-1.6-5.5-2.4c-2.5-0.8-5.6-1.6-9.2-1.8c-0.9-0.1-1.8-0.1-2.8-0.1c-0.9,0-1.9,0-2.9,0.2c-2,0.2-4.1,0.5-6.2,1.1 c-4.3,1.2-8.7,3.2-12.6,6.4c-4,3.1-7.5,7.3-10,12.2c-0.6,1.2-1.2,2.5-1.6,3.8c-0.2,0.7-0.5,1.3-0.6,2c-0.2,0.7-0.4,1.3-0.5,2 l-0.2,1l-0.2,1c-0.1,0.7-0.2,1.4-0.3,2.1c-0.1,0.4-0.1,0.7-0.1,1.1l-0.1,1.1l0,1.1l0,0.5l0,0.3l0,0.3c0,2.9,0.4,5.8,1.1,8.6 c0.7,2.8,1.8,5.5,3.2,8.1c1.4,2.6,3.1,5,5.1,7.1c2,2.1,4.2,4,6.6,5.6c4.8,3.2,10.3,5.1,15.8,5.6c5.5,0.6,10.9-0.1,15.6-1.8 c4.8-1.7,8.9-4.3,12.2-7.2c3.3-3,5.7-6.3,7.5-9.4c0.9-1.6,1.5-3.1,2.1-4.6c0.3-0.7,0.5-1.4,0.7-2.1c0.1-0.3,0.2-0.7,0.3-1 c0.1-0.3,0.2-0.7,0.2-1c0.6-2.5,0.9-4.6,1-6c0.1-0.7,0.1-1.2,0.1-1.6c0-0.4,0-0.5,0-0.5s0,0.2,0,0.5c0,0.4,0,0.9,0,1.6 c0,0.7-0.1,1.6-0.2,2.6c0,0.3-0.1,0.5-0.1,0.8c0,0.3-0.1,0.5-0.1,0.8c0,0.3-0.1,0.6-0.1,0.9c-0.1,0.3-0.1,0.6-0.2,0.9 c-0.1,0.3-0.1,0.7-0.2,1c-0.1,0.3-0.2,0.7-0.3,1c-0.2,0.7-0.4,1.4-0.7,2.2c-0.5,1.5-1.2,3.1-2,4.7c-0.8,1.6-1.9,3.3-3.1,5 c-1.2,1.7-2.7,3.3-4.3,4.8c-3.3,3.1-7.5,5.9-12.4,7.7C517.8,161.3,512.2,162.1,506.5,161.5z M530.9,113.6c0.4,1,1.4,1.6,2.5,1.6 c0.1,0,0.2,0,0.4,0c2.4-0.3,5-0.5,7.8-0.6c0.1,0.4,0.3,0.9,0.4,1.3c-0.1,0-0.1,0-0.2,0c-0.4,0-0.8,0-1.3,0.1c-0.5,0-1,0.1-1.5,0.1 c-0.5,0-1.1,0.1-1.7,0.2c-0.6,0.1-1.2,0.2-1.8,0.3c-0.6,0.1-1.2,0.2-1.8,0.4c-1.2,0.2-2.4,0.6-3.6,0.9c-1.1,0.3-2.2,0.6-3,1 c-1.8,0.6-2.9,1.1-2.9,1.1s1.2-0.4,3-0.8c0.9-0.2,2-0.4,3.1-0.6c1.1-0.2,2.4-0.3,3.6-0.4c0.6-0.1,1.2-0.1,1.8-0.1 c0.6,0,1.2-0.1,1.8-0.1c0,0,0.1,0,0.1,0c-5.8,0.4-11.7,1.7-18.8,4.7c-0.2-0.7-0.5-1.4-0.9-2c0.1-0.1,0.3-0.2,0.4-0.3 c0.6-0.4,1.3-0.9,1.9-1.4c0.6-0.5,1.3-1,2-1.6c0.7-0.6,1.3-1.1,2-1.7c2.6-2.4,5-4.9,6.6-7c0.4-0.5,0.8-1,1.1-1.4 c0.3-0.4,0.6-0.8,0.8-1.1c0.2-0.3,0.3-0.6,0.4-0.8c0.1-0.2,0.1-0.3,0.1-0.3s-0.1,0.1-0.2,0.3c-0.1,0.2-0.3,0.4-0.5,0.7 c-0.2,0.3-0.5,0.7-0.9,1.1c-0.4,0.4-0.7,0.8-1.2,1.3c-1.8,1.9-4.4,4.2-7.1,6.3c-0.7,0.5-1.4,1-2.1,1.5c-0.6,0.5-1.3,0.9-1.9,1.3 c6.7-4.8,10.9-9.7,14.8-15.4c0.7,0.8,1.4,1.6,2.1,2.4c-1.6,2.3-3.1,4.3-4.7,6.2C530.6,111.5,530.4,112.6,530.9,113.6z M533,136.2 c-1.1-0.2-2.1,0.2-2.7,1.1c-0.6,0.9-0.7,2-0.1,2.9c0.1,0.1,0.1,0.2,0.2,0.3c1.5,2,2.9,4.1,4.4,6.4c-0.3,0.3-0.6,0.7-1,1 c0-0.1-0.1-0.1-0.1-0.2c-0.2-0.3-0.4-0.7-0.7-1.1c-0.3-0.4-0.6-0.8-0.9-1.3c-0.3-0.4-0.6-0.9-1-1.4c-0.4-0.5-0.7-0.9-1.1-1.4 c-0.4-0.5-0.8-1-1.2-1.4c-0.8-0.9-1.7-1.8-2.5-2.6c-0.8-0.8-1.6-1.5-2.4-2.1c-1.4-1.2-2.4-1.9-2.4-1.9s0.9,0.8,2.2,2.2 c0.6,0.7,1.3,1.5,2.1,2.4c0.7,0.9,1.5,1.9,2.2,2.9c0.4,0.5,0.7,1,1,1.5c0.3,0.5,0.6,1,0.9,1.5c0,0,0,0.1,0,0.1 c-3.3-4.8-7.4-9.3-13.5-13.9c0.5-0.5,1-1.1,1.4-1.7c0.1,0.1,0.3,0.1,0.4,0.2c0.7,0.3,1.4,0.6,2.2,0.9c0.8,0.3,1.6,0.6,2.4,0.9 c0.8,0.3,1.6,0.6,2.5,0.8c3.3,1.1,6.8,1.9,9.3,2.2c0.6,0.1,1.2,0.2,1.8,0.2c0.5,0.1,1,0.1,1.4,0.1c0.4,0,0.7,0,0.9,0 c0.2,0,0.3,0,0.3,0s-0.1,0-0.3,0c-0.2,0-0.5,0-0.9-0.1c-0.4-0.1-0.8-0.1-1.4-0.2c-0.5-0.1-1.1-0.2-1.7-0.4c-2.5-0.6-5.8-1.7-9-3 c-0.8-0.3-1.6-0.7-2.4-1c-0.7-0.3-1.4-0.7-2.1-1c7.5,3.4,13.9,4.6,20.7,5.1c-0.3,1-0.6,2-1,3C537.9,137,535.4,136.7,533,136.2z M538.2,138.6c-0.1,0.3-0.3,0.6-0.4,0.9c-0.7,1.4-1.6,2.8-2.6,4.3c-0.1,0.2-0.3,0.4-0.4,0.6c-0.2-0.3-0.4-0.7-0.6-1 c1.1-1.4,2.1-2.9,2.9-4.3c0.1-0.2,0.2-0.4,0.3-0.6C537.6,138.5,537.9,138.6,538.2,138.6z M530.4,149c-2.6,2.3-5.8,4.3-9.5,5.6 c-0.3,0.1-0.7,0.2-1,0.4c-0.3-0.5-0.5-1.1-0.8-1.6c0.4-0.1,0.8-0.2,1.2-0.4c3.6-1.2,6.7-3.1,9.3-5.2 C529.9,148.2,530.1,148.6,530.4,149z M512.7,150.4c-0.4-1-1.3-1.7-2.4-1.7c-1.1-0.1-2.1,0.5-2.6,1.5c-0.1,0.1-0.1,0.2-0.1,0.3 c-0.8,2.3-1.9,4.7-3.1,7.1c-0.5-0.1-0.9-0.2-1.4-0.3c0-0.1,0.1-0.1,0.1-0.2c0.2-0.4,0.4-0.8,0.6-1.2c0.2-0.4,0.4-0.9,0.6-1.4 c0.2-0.5,0.4-1,0.6-1.6c0.2-0.6,0.4-1.1,0.6-1.7c0.2-0.6,0.4-1.2,0.5-1.8c0.3-1.2,0.6-2.4,0.9-3.6c0.2-1.1,0.4-2.2,0.6-3.1 c0.3-1.8,0.4-3.1,0.4-3.1s-0.2,1.2-0.7,3c-0.2,0.9-0.6,1.9-0.9,3c-0.4,1.1-0.8,2.2-1.3,3.4c-0.2,0.6-0.5,1.1-0.7,1.7 c-0.2,0.5-0.5,1.1-0.8,1.6c0,0,0,0.1,0,0.1c2.3-5.4,3.9-11.3,4.5-19.1c0.7,0.2,1.4,0.3,2.2,0.3c0,0.2,0.1,0.4,0.1,0.7 c0.1,0.8,0.2,1.5,0.4,2.4c0.2,0.8,0.3,1.6,0.5,2.5c0.2,0.8,0.4,1.7,0.6,2.5c0.9,3.4,2,6.7,3.1,9.1c0.2,0.6,0.5,1.1,0.8,1.6 c0.2,0.5,0.5,0.9,0.7,1.2c0.2,0.3,0.4,0.6,0.5,0.7c0.1,0.2,0.2,0.3,0.2,0.3s-0.1-0.1-0.2-0.3c-0.1-0.2-0.3-0.4-0.4-0.8 c-0.1-0.3-0.4-0.8-0.5-1.3c-0.2-0.5-0.4-1-0.6-1.7c-0.8-2.5-1.7-5.8-2.3-9.2c-0.2-0.8-0.3-1.7-0.4-2.5c-0.1-0.8-0.2-1.6-0.3-2.3 c1.2,8.2,3.5,14.2,6.8,20.2c-1,0.3-2,0.5-3.1,0.7C514.6,155,513.6,152.6,512.7,150.4z M513.8,156.4c-2.2,0.3-4.4,0.3-6.7,0.1 c-0.1,0-0.3,0-0.4,0c0.3-0.7,0.6-1.3,0.9-1.9c1.8,0.2,3.6,0.2,5.4,0C513.2,155.1,513.5,155.7,513.8,156.4z M487.7,145.5 c0.1-0.2,0.2-0.4,0.5-0.7c0.2-0.3,0.5-0.7,0.8-1.1c0.3-0.4,0.7-0.9,1.1-1.4c1.7-1.9,4.2-4.4,6.9-6.6c0.7-0.6,1.3-1.1,2-1.6 c0.6-0.5,1.3-1,1.9-1.4c-6.5,5.1-10.5,10.1-14.2,15.9c-0.8-0.7-1.5-1.5-2.2-2.3c1.5-2.3,3-4.4,4.5-6.3c0.7-0.8,0.8-2,0.3-2.9 c-0.5-1-1.5-1.5-2.5-1.5c-0.1,0-0.2,0-0.4,0c-2.4,0.4-5,0.7-7.7,0.8c-0.2-0.4-0.3-0.9-0.5-1.3c0.1,0,0.1,0,0.2,0 c0.4,0,0.8-0.1,1.3-0.1c0.5,0,1-0.1,1.5-0.2c0.5-0.1,1.1-0.1,1.7-0.3c0.6-0.1,1.2-0.2,1.8-0.3c0.6-0.1,1.2-0.3,1.8-0.4 c1.2-0.3,2.4-0.7,3.5-1c1.1-0.4,2.1-0.7,3-1.1c1.7-0.7,2.8-1.2,2.8-1.2s-1.2,0.4-3,0.9c-0.9,0.2-1.9,0.5-3.1,0.7 c-1.1,0.2-2.3,0.4-3.6,0.6c-0.6,0.1-1.2,0.2-1.8,0.2c-0.6,0.1-1.2,0.1-1.8,0.1c0,0-0.1,0-0.1,0c5.9-0.7,11.9-2.2,19.2-5.7 c0.2,0.7,0.5,1.3,0.8,1.9c-0.3,0.2-0.6,0.4-0.9,0.6c-0.6,0.5-1.2,1-1.9,1.5c-0.6,0.6-1.3,1.1-1.9,1.7c-0.6,0.6-1.3,1.2-1.9,1.8 c-2.5,2.5-4.8,5.1-6.4,7.2c-0.4,0.5-0.7,1-1,1.5c-0.3,0.4-0.5,0.8-0.7,1.2C487.8,145,487.7,145.3,487.7,145.5 c-0.1,0.2-0.2,0.3-0.2,0.3S487.6,145.6,487.7,145.5z M501.4,153.2c-0.3,0.6-0.6,1.3-1,1.9c-2.6-0.8-5.2-2-7.6-3.6 c-1.5-0.9-2.8-2-4.1-3.2c0.4-0.6,0.8-1.3,1.3-1.9c1.3,1.2,2.6,2.3,4.1,3.2c2,1.3,4.2,2.4,6.4,3.2 C500.7,153,501.1,153.1,501.4,153.2z M484.5,143.7c-0.8-1.1-1.6-2.3-2.2-3.5c-0.5-0.9-1-1.9-1.4-2.9c0.8-0.1,1.6-0.1,2.4-0.2 c0.3,0.7,0.6,1.3,1,1.9c0.5,0.9,1,1.8,1.6,2.6C485.4,142.3,484.9,143,484.5,143.7z M481.3,131.2c-0.8,0.1-1.5,0.1-2.3,0.1 c-0.4-2-0.6-4.1-0.6-6.1l0-0.2l0-0.3l0-0.5l0-0.9c0.1-0.6,0.1-1.3,0.2-1.9c0.1-0.6,0.2-1.3,0.3-1.9l0.2-0.9l0.2-0.7 c0.7,0,1.4,0.1,2.2,0.2c-0.5,2.3-0.8,4.8-0.8,7.2C480.6,127.2,480.9,129.2,481.3,131.2z M502.5,120.8c-0.4-0.2-0.7-0.3-1.1-0.5 c-0.7-0.3-1.4-0.6-2.2-0.9c-0.8-0.3-1.6-0.6-2.4-0.8c-0.8-0.3-1.7-0.5-2.5-0.8c-3.4-1-6.8-1.7-9.4-2c-0.6-0.1-1.2-0.1-1.8-0.2 c-0.5-0.1-1,0-1.4-0.1c-0.4,0-0.7,0-0.9,0c-0.2,0-0.3,0-0.3,0s0.1,0,0.3,0c0.2,0,0.5,0,0.9,0c0.4,0.1,0.8,0.1,1.4,0.2 c0.5,0.1,1.1,0.2,1.7,0.3c2.5,0.5,5.9,1.5,9.1,2.8c0.8,0.3,1.6,0.6,2.4,1c0.7,0.3,1.5,0.6,2.2,1c-7.6-3.2-14-4.3-20.8-4.6 c0.3-1,0.6-2,1-3c2.8,0.2,5.3,0.4,7.7,0.8c1.1,0.2,2.1-0.3,2.7-1.2c0.6-0.9,0.6-2,0.1-2.9c-0.1-0.1-0.1-0.2-0.2-0.3 c-1.5-1.9-3-4-4.5-6.3c0.3-0.4,0.6-0.7,0.9-1c0,0.1,0.1,0.1,0.1,0.2c0.2,0.3,0.5,0.7,0.7,1.1c0.3,0.4,0.6,0.8,0.9,1.3 c0.3,0.4,0.7,0.9,1,1.3c0.4,0.5,0.8,0.9,1.2,1.4c0.4,0.5,0.8,0.9,1.3,1.4c0.9,0.9,1.8,1.8,2.6,2.6c0.9,0.8,1.7,1.5,2.4,2.1 c1.4,1.2,2.5,1.9,2.5,1.9s-0.9-0.8-2.2-2.2c-0.6-0.7-1.4-1.5-2.1-2.3c-0.7-0.9-1.5-1.8-2.2-2.8c-0.4-0.5-0.7-1-1.1-1.5 c-0.3-0.5-0.7-1-1-1.5c0,0,0-0.1,0-0.1c3.5,4.8,7.8,9.3,14.4,14C503.3,119.6,502.9,120.2,502.5,120.8z M481.3,111.8 c0.2-0.4,0.4-0.8,0.6-1.2c0.1-0.3,0.3-0.5,0.4-0.8c0.2-0.3,0.3-0.5,0.5-0.8c0.3-0.5,0.6-1,1-1.5c0.3-0.5,0.7-1,1-1.5 c0.1-0.1,0.1-0.2,0.2-0.3c0.4,0.6,0.8,1.1,1.1,1.7c-0.9,1.3-1.7,2.6-2.5,4.1c-0.1,0.2-0.2,0.3-0.3,0.5 C482.7,111.9,482,111.8,481.3,111.8z M489.4,101.1c0.5-0.4,1-0.9,1.6-1.3c1.8-1.3,3.7-2.5,5.6-3.3c1.6-0.7,3.2-1.3,4.8-1.7 c0.2,0.4,0.4,0.8,0.6,1.2c-3.4,1-6.8,2.8-9.9,5.2c-0.6,0.4-1.1,0.9-1.6,1.4C490,102.1,489.7,101.6,489.4,101.1z M508.1,98.9 c0.4,1,1.2,1.7,2.3,1.8c1.1,0.1,2.1-0.4,2.6-1.3c0.1-0.1,0.1-0.2,0.2-0.3c0.9-2.3,2.1-4.6,3.4-7c0.5,0.1,0.9,0.2,1.4,0.3 c0,0.1-0.1,0.1-0.1,0.2c-0.2,0.3-0.4,0.7-0.6,1.2c-0.2,0.4-0.4,0.9-0.7,1.4c-0.2,0.5-0.5,1-0.7,1.6c-0.2,0.5-0.5,1.1-0.7,1.7 c-0.2,0.6-0.4,1.2-0.6,1.8c-0.4,1.2-0.7,2.4-1,3.5c-0.3,1.1-0.5,2.2-0.7,3.1c-0.4,1.8-0.5,3.1-0.5,3.1s0.3-1.2,0.8-3 c0.3-0.9,0.6-1.9,1-3c0.4-1.1,0.9-2.2,1.4-3.3c0.3-0.6,0.5-1.1,0.8-1.6c0.3-0.5,0.5-1.1,0.8-1.6c0,0,0-0.1,0-0.1 c-2.6,5.3-4.5,11.2-5.4,19.1c-0.6-0.1-1.1-0.2-1.7-0.2c-0.1,0-0.2,0-0.3,0c0-0.4-0.1-0.7-0.1-1.1c-0.1-0.8-0.2-1.6-0.3-2.4 c-0.1-0.8-0.2-1.7-0.4-2.5c-0.2-0.8-0.3-1.7-0.5-2.6c-0.7-3.4-1.8-6.8-2.7-9.2c-0.2-0.6-0.5-1.2-0.7-1.7c-0.2-0.5-0.4-0.9-0.6-1.2 c-0.2-0.3-0.3-0.6-0.5-0.8c-0.1-0.2-0.2-0.3-0.2-0.3s0,0.1,0.1,0.3c0.1,0.2,0.2,0.4,0.4,0.8c0.1,0.4,0.3,0.8,0.5,1.3 c0.2,0.5,0.4,1.1,0.5,1.7c0.7,2.5,1.4,5.9,1.9,9.3c0.1,0.9,0.2,1.7,0.3,2.6c0.1,0.8,0.1,1.6,0.2,2.4c-0.8-8.2-2.9-14.3-5.9-20.5 c1-0.2,2.1-0.4,3.1-0.6C506.3,94.2,507.3,96.6,508.1,98.9z M507.6,93.7c0.1,0,0.1,0,0.2,0c0.9-0.1,1.7,0,2.6,0c0.4,0,0.8,0,1.2,0.1 c0.4,0,0.8,0.1,1.2,0.1c0.5,0.1,1,0.1,1.5,0.2c-0.1,0.3-0.3,0.5-0.4,0.8c-0.4,0-0.8-0.1-1.2-0.1c-0.4,0-0.8,0-1.2,0 c-0.4,0-0.8,0-1.2,0c-0.7,0-1.5,0.1-2.3,0.1C507.9,94.4,507.7,94.1,507.6,93.7z M516.1,124.6c0-0.2-0.1-0.4-0.1-0.6 c0-0.3-0.1-0.6-0.2-0.9c-0.1-0.4-0.2-0.7-0.5-1.1c-0.2-0.4-0.5-0.7-0.7-1c-0.3-0.3-0.6-0.6-0.9-0.8c-0.3-0.2-0.7-0.4-1-0.6 c-0.4-0.1-0.7-0.3-1.1-0.3c-0.2,0-0.4-0.1-0.5-0.1c-0.2,0-0.3,0-0.5,0c-0.3,0-0.6,0-0.9,0c-0.3,0.1-0.5,0.1-0.8,0.2 c-0.2,0.1-0.4,0.2-0.5,0.3c-0.3,0.2-0.4,0.3-0.4,0.3s0.2-0.1,0.4-0.2c0.1-0.1,0.3-0.1,0.5-0.2c0.2-0.1,0.5-0.1,0.7-0.1 c0.3,0,0.6,0,0.9,0.1c0.2,0,0.3,0.1,0.5,0.1c0.2,0.1,0.3,0.1,0.5,0.2c0.3,0.1,0.6,0.3,0.9,0.4c0.3,0.2,0.6,0.4,0.8,0.6 c0.3,0.2,0.5,0.5,0.7,0.8c0.2,0.3,0.4,0.5,0.5,0.8c0,0,0,0.1,0,0.1c0,0.1-0.1,0.3-0.1,0.5c-0.2,0.5-0.4,1.1-0.8,1.8 c-0.4,0.6-0.8,1.2-1.2,1.6c-0.4,0.4-0.7,0.6-0.7,0.6s0.4-0.1,0.9-0.4c0.5-0.3,1.1-0.7,1.7-1.3c0.2-0.2,0.3-0.3,0.5-0.5c0,0,0,0,0,0 c-1.1,1.6-2.7,3-4.4,3c-2.9,0-5.3-4-5.7-6.2c0.3,0.7,0.6,1.4,1.1,2.2c0.5,0.9,1.3,1.8,1.9,2.3c0.3,0.3,0.6,0.5,0.8,0.6 c0.2,0.1,0.3,0.2,0.3,0.2s-0.1-0.1-0.3-0.3c-0.2-0.2-0.4-0.4-0.6-0.7c-0.5-0.6-1-1.5-1.4-2.5c-0.4-1-0.6-2-0.7-2.7 c-0.1-0.4-0.1-0.7-0.2-0.9c0-0.1,0-0.1,0-0.2c1.3-1.2,3-1.9,4.8-1.9c2.1,0,4,0.9,5.3,2.4c0.1,0.1,0.2,0.2,0.3,0.4c0,0,0,0,0,0l0,0 c0.3,0.4,0.6,0.9,0.8,1.4c0.3,0.8,0.5,1.7,0.5,2.6c0,0.4,0,0.9-0.1,1.4c-0.1,0.5-0.2,0.9-0.4,1.4c-0.4,0.9-0.9,1.7-1.6,2.4 c-0.7,0.7-1.5,1.2-2.4,1.5c-0.9,0.3-1.9,0.4-2.7,0.3c-1.8-0.1-3.3-1-4.3-2c-0.5-0.5-0.8-1-1.1-1.5c-0.1-0.2-0.2-0.5-0.3-0.7 c-0.1-0.2-0.1-0.4-0.2-0.6c-0.1-0.4-0.1-0.7-0.2-0.9c0-0.2,0-0.3,0-0.3s0,0.1,0,0.3c0,0.2,0.1,0.5,0.2,0.9c0.1,0.2,0.1,0.4,0.2,0.6 c0.1,0.2,0.2,0.5,0.3,0.7c0.3,0.5,0.7,1,1.1,1.4c0.5,0.5,1.1,0.9,1.8,1.2c0.7,0.3,1.5,0.5,2.3,0.5c0.9,0,1.7-0.1,2.5-0.4 c0.8-0.3,1.5-0.8,2.1-1.5c0.6-0.6,1-1.4,1.3-2.2c0.1-0.4,0.2-0.8,0.3-1.2C516.1,125.4,516.2,125,516.1,124.6z M540.9,126.7 c0,1.2-0.1,2.9-0.6,5.1c-0.1,0.3-0.1,0.5-0.2,0.8c-0.2,0-0.3,0-0.5-0.1c0,0,0,0,0,0c0.1-0.3,0.1-0.6,0.2-0.8c0.5-2.1,0.8-3.9,0.9-5 c0.1-0.6,0.1-1,0.1-1.4c0-0.3,0-0.5,0-0.5s0,0.2,0,0.5C540.9,125.7,541,126.1,540.9,126.7z M520.1,96c0.1-0.1,0.1-0.3,0.2-0.4 c0.1,0,0.2,0.1,0.3,0.1c2.1,0.8,3.6,1.7,4.6,2.3c0.3,0.2,0.5,0.3,0.7,0.4c0.2,0.1,0.3,0.2,0.5,0.3c0.3,0.2,0.4,0.3,0.4,0.3 s-0.1-0.1-0.4-0.2c-0.1-0.1-0.3-0.2-0.5-0.3c-0.2-0.1-0.4-0.2-0.7-0.4c-1.1-0.5-2.6-1.3-4.7-2C520.3,96.1,520.2,96.1,520.1,96z M551.5,132.4c-0.4,2.2-1,4.4-1.8,6.5c-0.8,2.1-1.7,4-2.7,5.8c-0.3,0.5-0.5,0.9-0.8,1.3c-0.3,0.4-0.5,0.9-0.8,1.3 c-0.3,0.4-0.6,0.8-0.8,1.2c-0.3,0.4-0.6,0.8-0.9,1.2c-0.6,0.8-1.2,1.5-1.8,2.2c-0.3,0.3-0.6,0.7-0.9,1c-0.3,0.3-0.6,0.7-1,1 l-0.2,0.2l-0.1,0.1l-0.1,0.1l-0.1,0.1c-0.2,0.2-0.3,0.3-0.5,0.5c-0.2,0.1-0.3,0.3-0.5,0.4c-0.2,0.1-0.3,0.3-0.5,0.4 c-0.7,0.6-1.3,1.1-2,1.6c-1.3,1-2.6,1.9-3.9,2.6c-1.3,0.8-2.5,1.4-3.6,1.9c-1.2,0.5-2.2,1-3.2,1.3c-2,0.7-3.6,1.1-4.7,1.4 c-0.5,0.1-1,0.2-1.3,0.3c-0.3,0.1-0.4,0.1-0.4,0.1s0.1,0,0.4-0.1c0.3-0.1,0.7-0.2,1.2-0.3c1.1-0.3,2.6-0.8,4.6-1.6 c1-0.4,2-0.9,3.1-1.5c1.1-0.6,2.3-1.2,3.5-2c1.2-0.8,2.5-1.7,3.7-2.7c0.6-0.5,1.3-1.1,1.9-1.6c0.2-0.1,0.3-0.3,0.5-0.4 c0.2-0.2,0.3-0.3,0.5-0.5c0.2-0.2,0.3-0.3,0.5-0.5l0.1-0.1l0.1-0.1l0.1-0.1l0.2-0.2c0.3-0.3,0.6-0.7,0.9-1c0.3-0.3,0.6-0.7,0.9-1 c0.6-0.7,1.2-1.5,1.7-2.2c1.1-1.6,2.2-3.2,3.1-5c0.9-1.8,1.8-3.7,2.5-5.7c0.7-2,1.2-4.1,1.6-6.3c0.8-4.3,0.8-8.9,0.1-13.5 c-0.7-4.6-2.2-9-4.5-13.1c-2.2-4.1-5.2-7.8-8.6-10.9c-3.4-3.1-7.3-5.5-11.4-7.2c-4.1-1.7-8.2-2.7-12.3-3c-1-0.1-2-0.1-3-0.2 c-1,0-2,0-2.9,0.1c-1,0-1.9,0.1-2.8,0.2c-0.5,0.1-0.9,0.1-1.4,0.2c-0.4,0.1-0.9,0.1-1.3,0.2c-3.5,0.7-6.6,1.7-9.2,2.9 c-2.6,1.2-4.8,2.5-6.5,3.7c-0.4,0.3-0.8,0.6-1.2,0.9c-0.4,0.3-0.7,0.5-1,0.8c-0.3,0.3-0.6,0.5-0.9,0.7c-0.3,0.2-0.5,0.4-0.7,0.6 c-0.8,0.7-1.3,1.1-1.3,1.1s0.4-0.4,1.2-1.2c0.8-0.8,2-1.9,3.7-3.2c1.7-1.3,3.8-2.7,6.4-4c2.6-1.3,5.7-2.5,9.3-3.3 c0.4-0.1,0.9-0.2,1.3-0.3c0.5-0.1,0.9-0.2,1.4-0.2c0.9-0.1,1.9-0.3,2.9-0.3c1-0.1,2-0.1,3-0.1c1,0,2,0,3.1,0.1 c4.2,0.2,8.5,1.2,12.8,2.9c2.1,0.9,4.2,1.9,6.2,3.1c2,1.2,3.9,2.6,5.7,4.2c3.6,3.2,6.7,7,9.1,11.3c2.3,4.3,3.9,9,4.6,13.7 c0.4,2.4,0.5,4.8,0.5,7.1C552.2,127.9,551.9,130.2,551.5,132.4z M272.6,31.8c-0.5,0.1-1,0.1-1.2,0.1c-0.3,0-0.4,0-0.4,0 s0.1-0.1,0.4-0.1c0.3-0.1,0.7-0.2,1.2-0.4c1-0.3,2.5-0.8,4.2-1.3c1.8-0.5,3.8-1,6-1.5c1.1-0.3,2.3-0.5,3.4-0.8 c1.2-0.3,2.4-0.5,3.5-0.7c1.2-0.2,2.4-0.5,3.6-0.7c1.2-0.2,2.3-0.4,3.5-0.6c2.2-0.4,4.3-0.7,6.2-0.9c1.8-0.2,3.3-0.4,4.4-0.5 c0.5-0.1,1-0.1,1.2-0.1c0.3,0,0.4,0,0.4,0s-0.1,0.1-0.4,0.1c-0.3,0.1-0.7,0.2-1.2,0.4c-1,0.3-2.5,0.8-4.2,1.3c-1.8,0.5-3.8,1-6,1.5 c-1.1,0.3-2.3,0.5-3.4,0.8c-1.2,0.3-2.4,0.5-3.5,0.7c-1.2,0.2-2.4,0.5-3.6,0.7c-1.2,0.2-2.3,0.4-3.5,0.6c-2.2,0.4-4.3,0.7-6.2,0.9 C275.1,31.6,273.6,31.7,272.6,31.8z M330.7,33.5c-1.1,0.1-2.6,0.2-4.4,0.5c-1.8,0.2-3.9,0.5-6.2,0.9c-1.1,0.2-2.3,0.4-3.5,0.6 c-1.2,0.2-2.4,0.4-3.6,0.7c-1.2,0.2-2.4,0.5-3.5,0.7c-1.2,0.2-2.3,0.5-3.4,0.8c-2.2,0.5-4.3,1.1-6,1.5c-1.8,0.5-3.2,0.9-4.2,1.3 c-0.5,0.2-0.9,0.3-1.2,0.4c-0.3,0.1-0.4,0.1-0.4,0.1s0.2,0,0.4,0c0.3,0,0.7,0,1.2-0.1c1.1-0.1,2.6-0.2,4.4-0.5 c1.8-0.2,3.9-0.5,6.2-0.9c1.1-0.2,2.3-0.4,3.5-0.6c1.2-0.2,2.4-0.4,3.6-0.7c1.2-0.2,2.4-0.5,3.5-0.7c1.2-0.3,2.3-0.5,3.4-0.8 c2.2-0.5,4.3-1.1,6-1.5c1.8-0.5,3.2-0.9,4.2-1.3c0.5-0.2,0.9-0.3,1.2-0.4c0.3-0.1,0.4-0.1,0.4-0.1s-0.2,0-0.4,0 C331.7,33.4,331.3,33.5,330.7,33.5z M587.6,125c-3.8,5.3-16.8,7.2-30.7,10.1c-0.9,0.2-1.2-7-1.2-11c0-25-20.3-45.3-45.3-45.3 c-25,0-46.4,20.3-46.4,45.3c0,6.4-3.1,18.2-4.6,18.2c-58.4,1-144.4,0.5-246.4,0c-1.2,0,0.3-11.7,0.3-18.2c0-25-17.3-45.3-45.3-45.3 C138.6,78.7,121,99,121,124c0,3,0.8,18,0.1,18c-15.7-1.5-56.8-6.3-74.7-12.7c-4.9-1.7-4.9-20.6-3.9-31.7c0.3-3.1,5-3.3,5-3.3 s0.5-23,1.4-28.7c1-5.7,5.9-9.8,10.5-12C64.9,51,192,14.8,224.1,8.1c32.1-6.7,91.4-10,111.6-6.9c20.2,3.1,69,40.9,69,40.9 s113.6,1.8,146.1,8.6c21.1,4.4,42.1,14.4,42.1,19.2c0,4.8-5.3,7.7-5.3,7.7l-1,8.6c0,0,11.5,3.4,13.9,8.1 C603,99.1,591.5,119.7,587.6,125z M394.4,53.4c0,0,149.4,0.5,182.5,17.4c4.4,2.3,8.1,4.8,8.1,4.8s6.3-4.3,4.1-7.2 c-3.2-4.1-23.5-13.6-42.7-16.3c-47.4-6.7-139.8-7.7-139.8-7.7S402,50.2,394.4,53.4z M399.5,77.8c-1.3,0-2.7,0.1-4.1,0.1 c-3.8,0.1-7.7,0.2-11.6,0.3c-4,0.1-8,0.2-12,0.3c-4.1,0.1-8.2,0.2-12.3,0.3c-8.3,0.2-16.7,0.3-25.2,0.4c-4.2,0-8.4,0.1-12.6,0.1 c-4.2,0-8.4,0.1-12.5,0.1c-8.3,0.1-16.5,0-24.4,0c-2,0-3.9,0-5.9,0c-1.9,0-3.9,0-5.8,0c-3.8,0-7.5-0.1-11.1-0.1 c-3.6,0-7.1-0.1-10.6-0.1c-3.4-0.1-6.7-0.1-9.9-0.2c0,0.2,0.1,0.4,0.1,0.6c0.1,0.7,0.2,1.4,0.3,2.1c0.1,0.7,0.2,1.5,0.4,2.3 c0.1,0.8,0.3,1.6,0.4,2.4c0.1,0.4,0.2,0.8,0.2,1.2c0.1,0.4,0.2,0.8,0.3,1.2c0.2,0.8,0.3,1.6,0.5,2.5c0.4,1.7,0.8,3.4,1.2,5 c0.4,1.7,0.9,3.4,1.4,5c0.2,0.6,0.4,1.3,0.6,1.9c1.3,0,2.6,0,4-0.1c3.6-0.1,7.6-0.2,11.9-0.3c8.8-0.2,19-0.5,29.9-0.8 c5.5-0.1,11.1-0.3,16.9-0.4c5.7-0.1,11.6-0.3,17.4-0.4c5.8-0.1,11.7-0.2,17.4-0.3c2.9,0,5.7-0.1,8.5-0.1c2.8,0,5.6-0.1,8.3-0.1 c5.5-0.1,10.8-0.1,15.8-0.1c2.5,0,5,0,7.3-0.1c2.4,0,4.6,0,6.8,0c2.2,0,4.3,0,6.3,0c2,0,3.9,0,5.7,0c0.1,0,0.2,0,0.3,0 c0-0.1,0-0.2,0-0.3c-0.1-1.4-0.2-2.8-0.3-4.3c-0.2-1.5-0.3-2.9-0.5-4.4c-0.1-0.7-0.2-1.5-0.3-2.2c-0.1-0.4-0.1-0.7-0.2-1.1 c-0.1-0.4-0.1-0.7-0.2-1.1c-0.3-1.4-0.6-2.8-0.9-4.2c-0.3-1.3-0.7-2.6-1.1-3.8C399.9,78.7,399.7,78.2,399.5,77.8z M271.9,72.1 c-4.4,0-20.7,0.8-31.1-0.3c0,0.7,0.1,1.5,0.2,2.4c0.1,0.8,0.2,1.6,0.3,2.6c0.1,0,0.2,0,0.4,0c3.1,0,6.4-0.1,9.8-0.2 c3.4-0.1,6.9-0.2,10.5-0.2c3.6-0.1,7.3-0.2,11.1-0.2c1.9,0,3.8-0.1,5.8-0.1c1.9,0,3.9-0.1,5.9-0.1c7.9-0.1,16.1-0.3,24.4-0.5 c8.3-0.1,16.7-0.3,25.1-0.4c8.4-0.1,16.9-0.2,25.1-0.3c8.3-0.1,16.5-0.2,24.4-0.2c4.9,0,9.8-0.1,14.5-0.1c-0.2-0.4-0.3-0.8-0.5-1.2 c-0.4-0.8-0.7-1.5-0.9-2c0,0,0-0.1,0-0.1C356.7,71.6,313.3,72.2,271.9,72.1z M248.9,66.7c0,0,0.4,0,1,0c0.6,0,1.6,0,2.7,0 c2.2,0,5.2,0,8.1,0c2.9,0,5.9,0,8.1,0c1.1,0,2,0,2.7,0c0.6,0,1,0,1,0c0,0,0.1,0,0.1-0.1c0-0.1,0-0.1-0.1-0.1l0,0c0,0-0.1,0-0.3-0.1 c-0.2-0.1-0.4-0.2-0.7-0.3c-0.3-0.1-0.7-0.2-1.2-0.3c-0.4-0.1-1-0.2-1.5-0.4c-1.1-0.2-2.4-0.4-3.8-0.6c-0.3,0-0.7-0.1-1.1-0.1 c-0.4,0-0.7-0.1-1.1-0.1c-0.7,0-1.5,0-2.2-0.1c-0.7,0-1.5,0-2.2,0.1c-0.4,0-0.7,0-1.1,0.1c-0.4,0-0.7,0-1.1,0.1 c-1.4,0.1-2.7,0.3-3.8,0.6c-0.6,0.1-1.1,0.2-1.5,0.4c-0.4,0.1-0.8,0.2-1.2,0.3c-0.3,0.1-0.6,0.2-0.7,0.3c-0.2,0.1-0.3,0.1-0.3,0.1 l0,0c0,0-0.1,0.1-0.1,0.1C248.8,66.6,248.9,66.7,248.9,66.7z M372.5,47.8C372.6,47.9,372.6,47.9,372.5,47.8c0-0.1-0.2-0.3-0.3-0.4 c-0.1-0.1-0.1-0.2-0.2-0.3c-0.3-0.4-0.6-0.7-0.9-0.9c-0.1-0.1-0.1-0.1-0.2-0.2c-7.9-7.6-19.6-3.7-18.9,4.9c4.7-4,13.4-3.8,17.8-3.4 c0.1,0,0.1,0.1,0.2,0.1c0.3,0.2,0.5,0.4,0.8,0.6c0.3,0.3,0.5,0.5,0.7,0.9c0.2,0.3,0.5,0.7,0.6,1.1c0.2,0.4,0.3,0.8,0.4,1.2 c0.1,0.4,0.2,0.9,0.2,1.3c0,0.4,0,0.9,0,1.3c-0.1,0.4-0.1,0.8-0.3,1.2c-0.1,0.4-0.3,0.7-0.4,1c-0.2,0.3-0.3,0.6-0.5,0.8 c-0.1,0.1-0.2,0.2-0.2,0.3c-0.1,0.1-0.2,0.2-0.2,0.3c-0.1,0.2-0.2,0.3-0.3,0.4c-0.1,0.1-0.1,0.1-0.1,0.1s0,0,0.1-0.1 c0.1-0.1,0.2-0.2,0.4-0.3c0.1-0.1,0.2-0.1,0.3-0.2c0.1-0.1,0.2-0.2,0.3-0.3c0.2-0.2,0.4-0.5,0.6-0.8c0.2-0.3,0.4-0.6,0.6-1 c0.2-0.4,0.3-0.8,0.5-1.2c0.1-0.4,0.2-0.9,0.3-1.4c0-0.5,0-1,0-1.5c0-0.5-0.2-1-0.3-1.5c-0.1-0.5-0.3-1-0.6-1.4 C372.7,48.2,372.6,48,372.5,47.8z M345.2,5.5l-4.9,3c-0.9,1-0.8,2.7,0.4,3.3c19.1,10.4,33.7,22.7,51.7,37.3 c1.7,1.3,5.8-1.7,8.6-4.1c-0.2-0.2-0.5-0.4-0.7-0.6c-0.7-0.6-1.5-1.3-2.4-2.2c-1-0.8-2-1.7-3.2-2.7c-0.6-0.5-1.2-1-1.8-1.5 c-0.6-0.5-1.3-1.1-2-1.6c-0.7-0.6-1.4-1.1-2.1-1.7c-0.7-0.6-1.5-1.1-2.3-1.7c-0.8-0.6-1.5-1.2-2.3-1.8c-0.8-0.6-1.6-1.2-2.4-1.8 c-0.8-0.6-1.6-1.2-2.5-1.8c-0.8-0.6-1.7-1.2-2.5-1.8c-1.7-1.2-3.4-2.3-5.1-3.5c-1.7-1.1-3.4-2.2-5-3.3c-1.6-1-3.2-2.1-4.7-3 c-1.5-0.9-2.9-1.8-4.3-2.6c-1.3-0.8-2.6-1.5-3.6-2.2c-1.1-0.6-2-1.2-2.8-1.6c-1.6-0.9-2.5-1.4-2.5-1.4s0.9,0.4,2.6,1.2 c0.8,0.4,1.8,0.9,2.9,1.5c1.1,0.6,2.4,1.2,3.8,2c1.4,0.7,2.8,1.5,4.4,2.4c1.6,0.8,3.2,1.8,4.9,2.7c1.7,1,3.4,2,5.2,3 c1.7,1.1,3.5,2.1,5.3,3.2c0.9,0.5,1.8,1.1,2.6,1.6c0.6,0.4,1.1,0.7,1.7,1.1C370.5,19.3,356.6,10.5,345.2,5.5z M239.7,7.3 c0,0,7.1-0.5,17.7-1.2c5.3-0.3,11.5-0.7,18.1-1.1c3.3-0.2,6.7-0.3,10.2-0.5c3.5-0.1,7-0.3,10.6-0.4c1.8-0.1,3.5-0.1,5.3-0.1 c1.8,0,3.5-0.1,5.3-0.1c1.7,0,3.5,0,5.2,0c1.7,0,3.4,0,5,0.1c3.3,0.1,6.5,0.2,9.5,0.4c3,0.2,5.8,0.5,8.3,1c1.2,0.2,2.4,0.5,3.4,0.8 l0,0l3.1-2c-1.8-0.9-3.7-1.4-6.1-1.7c-2.7-0.4-7.8-0.9-12.6-1.1C281.7,0,239.7,7.3,239.7,7.3z M238.6,49.6c-0.5,0-0.9,0-1.4-0.1 c-1.8-0.1-3.6-0.4-5.5-0.9c-0.5-0.1-0.9-0.3-1.4-0.4c-0.5-0.1-1-0.3-1.5-0.4c-1-0.3-2-0.5-3-0.8c-4-1-8.3-1.8-12.6-2.4 c-4.3-0.6-8.7-1-13.1-1.3c-8.8-0.5-17.6-0.6-25.9-0.4c-4.1,0.1-8.1,0.2-11.9,0.4c-0.9,0-1.9,0.1-2.8,0.1c-0.9,0-1.8,0.1-2.7,0.1 c-1.8,0.1-3.5,0.2-5.1,0.3c-3.3,0.2-6.3,0.4-9,0.6c-2.7,0.2-5,0.4-6.9,0.6c-3.8,0.3-6,0.5-6,0.5s2.2-0.1,6-0.4 c1.9-0.1,4.3-0.2,6.9-0.4c2.7-0.1,5.7-0.3,9-0.4c1.6-0.1,3.4-0.1,5.1-0.2c0.9,0,1.8-0.1,2.7-0.1c0.9,0,1.9,0,2.8-0.1 c3.8-0.1,7.8-0.1,11.9-0.1c8.2,0,17,0.3,25.8,1.1c4.4,0.4,8.7,0.9,13,1.6c4.2,0.7,8.4,1.6,12.3,2.7c1,0.3,2,0.6,2.9,0.9 c0.5,0.2,1,0.3,1.4,0.4c0.5,0.2,1,0.3,1.4,0.4c2,0.6,4,1,6,1.2c0.5,0,1.1,0.1,1.6,0.1c0,0.2-0.1,0.3-0.1,0.5 c-0.1,0.4-0.2,0.9-0.3,1.3c-0.1,0.2-0.1,0.5-0.1,0.7c0,0.2-0.1,0.5-0.1,0.8c0,0.3-0.1,0.5-0.1,0.8c0,0.3,0,0.5-0.1,0.8 c0,0.3,0,0.5,0,0.8c0,0.3,0,0.5,0,0.8c0,0.3,0,0.5,0,0.8c0,0.3,0,0.5,0,0.8c0,0.5,0.1,1,0.1,1.5c0.1,1,0.2,1.9,0.3,2.7 c0.1,0.8,0.2,1.4,0.3,1.9c0.1,0.5,0.1,0.7,0.1,0.7s0-0.3,0-0.7c0-0.5,0-1.1,0.1-1.9c0.1-0.8,0.1-1.7,0.3-2.7c0.1-0.5,0.1-1,0.2-1.5 c0-0.2,0.1-0.5,0.1-0.7c0.1-0.2,0.1-0.5,0.2-0.7c0-0.2,0.1-0.5,0.2-0.7c0.1-0.2,0.1-0.5,0.2-0.7c0.1-0.2,0.1-0.5,0.2-0.7 c0.1-0.2,0.2-0.5,0.2-0.7c0.1-0.2,0.2-0.4,0.2-0.6c0.1-0.2,0.2-0.4,0.3-0.6c0.2-0.4,0.3-0.7,0.5-1.1c0.1-0.2,0.2-0.3,0.2-0.5 c0.1-0.1,0.2-0.3,0.2-0.4c0.1-0.1,0.1-0.2,0.2-0.3c0.1-0.1,0.1-0.2,0.2-0.3l0,0c0.2,0,0.3,0,0.5,0c1.8,0,3.5,0,5.2,0 c3.3,0,6.3,0,9,0c1.1,0,2,0,3,0c2.3,0,4.6,0,6.9,0.1c2,0,3.1,0,3.1,0s0,0-0.1,0c45.4,0.3,66.8,0.5,80.9,0.6c0,0,0,0,0,0l-91.5-3.7 l91.2-1.5c0.7-2.9,2.9-5.3,5.8-6.8c0.1,0,0.2-0.1,0.5-0.1c0.1,0,0.2-0.1,0.3-0.1c0.1,0,0.2-0.1,0.3-0.1c0.2-0.1,0.4-0.1,0.7-0.2 c0.6-0.1,1.2-0.3,2-0.3c0.8-0.1,1.7-0.1,2.6-0.1c1,0.1,2,0.2,3.1,0.5c1.1,0.3,2.2,0.8,3.2,1.4c0.5,0.3,1,0.7,1.5,1.1 c0.5,0.4,1,0.8,1.4,1.3c0.9,0.9,1.7,2,2.2,3.2c0.6,1.2,1,2.5,1.1,3.8c0.1,1.3,0,2.6-0.4,3.8c-0.2,0.6-0.5,1.2-0.8,1.7 c-0.3,0.5-0.7,1-1.1,1.4c-0.8,0.9-1.7,1.6-2.6,2.1c-0.9,0.5-1.8,0.9-2.6,1.2c-0.4,0.2-0.8,0.3-1.1,0.4c-0.4,0.1-0.7,0.2-1,0.3 c-0.6,0.1-1.1,0.2-1.4,0.3c-0.3,0.1-0.5,0.1-0.5,0.1s0.2,0,0.5,0c0.3,0,0.8-0.1,1.4-0.2c0.3-0.1,0.6-0.1,1-0.2 c0.4-0.1,0.8-0.2,1.2-0.3c0.8-0.2,1.8-0.5,2.8-1c1-0.5,2-1.1,2.9-2c0.5-0.4,0.9-0.9,1.3-1.5c0.4-0.6,0.7-1.2,1-1.8 c0.6-1.3,0.8-2.8,0.8-4.3c0-1.5-0.3-3-0.9-4.4c-0.6-1.4-1.3-2.7-2.3-3.9c-0.5-0.6-1-1.1-1.5-1.6c-0.5-0.5-1.1-1-1.7-1.4 c-1.2-0.8-2.4-1.5-3.7-1.9c-0.6-0.2-1.3-0.4-1.9-0.6c-0.1-0.1-0.2-0.2-0.4-0.4c-1.8-1.7-3.6-3.5-5.4-5.1c-1.7-1.6-3.4-3.1-4.8-4.4 c-2.8-2.5-4.7-4.2-4.7-4.2s2.1,1.3,5.3,3.5c1.6,1.1,3.4,2.3,5.4,3.6c1.9,1.4,4,2.8,6.1,4.3c1,0.7,2.1,1.5,3.1,2.2 c1,0.7,2,1.5,2.9,2.2c0.4,0.3,0.8,0.6,1.3,0.9C362,30,345.5,16.8,332.2,13.9c-13.7-3-64.7-1-89.4,3.2c-6.5,1.1-10.1,9.3-8.9,12.9 c0.9,2.8,6.7,14.2,9.5,19.6c-0.3,0-0.6,0-0.8,0c-0.3,0-0.5,0-0.8,0c-0.2-0.3-0.4-0.7-0.7-1.2c-0.7-1.3-1.7-3.3-2.9-5.7 c-1.2-2.5-2.8-5.5-4.4-8.9c-0.4-0.9-0.8-1.8-1.2-2.7l-0.1-0.3l-0.1-0.2l0,0l0,0l0-0.1l-0.1-0.4l-0.1-0.3c-0.1-0.4-0.1-0.9-0.1-1.3 c0-1.9,0.5-4,1.5-6c0.1-0.2,0.3-0.5,0.4-0.7l0,0c0,0,0-0.1,0,0l0.1-0.1l0.1-0.2l0.2-0.4c0.2-0.2,0.3-0.4,0.5-0.7 c0.2-0.2,0.3-0.5,0.5-0.7c0.7-0.9,1.6-1.7,2.5-2.4c0.5-0.3,1-0.6,1.5-0.9c0.5-0.3,1.1-0.5,1.7-0.7c0.3-0.1,0.6-0.2,0.9-0.2 c0.3-0.1,0.6-0.1,0.9-0.2c0.7-0.1,1.3-0.2,2-0.3c5.3-0.9,11-1.6,16.9-2.2c11.8-1.2,24.4-2,37.1-2.4c6.3-0.2,12.6-0.3,18.9-0.1 c3.1,0.1,6.2,0.2,9.2,0.5c1.5,0.1,3,0.3,4.5,0.6c0.4,0.1,0.7,0.1,1.1,0.2c0.4,0.1,0.7,0.1,1.1,0.2c0.4,0.1,0.7,0.2,1.1,0.3 c0.3,0.1,0.7,0.2,1,0.3c2.8,0.9,5.4,2.2,7.9,3.5c2.5,1.3,4.9,2.7,7.2,4.2c4.6,2.8,8.9,5.8,12.7,8.5c7.7,5.5,13.9,10.5,18.1,14.1 c2.1,1.8,3.7,3.3,4.8,4.3c0.5,0.5,1,0.9,1.2,1.2c0.3,0.3,0.4,0.4,0.4,0.4s-0.1-0.1-0.4-0.4c-0.3-0.3-0.7-0.7-1.2-1.2 c-1.1-1-2.7-2.5-4.8-4.3c-4.2-3.7-10.3-8.7-17.9-14.4c-3.8-2.8-8-5.8-12.6-8.7c-2.3-1.5-4.7-2.9-7.2-4.3c-2.5-1.4-5.2-2.7-8-3.6 c-0.4-0.1-0.7-0.2-1.1-0.3c-0.4-0.1-0.7-0.2-1.1-0.3c-0.4-0.1-0.7-0.2-1.1-0.2c-0.4-0.1-0.7-0.2-1.1-0.2c-1.5-0.3-3-0.5-4.5-0.6 c-3.1-0.3-6.2-0.5-9.3-0.6c-6.2-0.2-12.6-0.2-18.9-0.2c-12.7,0.2-25.4,0.9-37.2,1.9c-5.9,0.5-11.6,1.1-17.1,1.9 c-0.7,0.1-1.3,0.2-2,0.3c-0.3,0-0.7,0.1-1,0.2c-0.4,0.1-0.7,0.2-1.1,0.3c-0.7,0.2-1.4,0.5-2,0.8c-0.6,0.3-1.3,0.7-1.8,1.1 c-1.2,0.8-2.1,1.7-3,2.7c-0.2,0.2-0.4,0.5-0.6,0.8c-0.2,0.3-0.4,0.5-0.6,0.8l-0.2,0.4l-0.1,0.2l-0.1,0.1l-0.1,0.1 c-0.2,0.3-0.3,0.6-0.5,0.8c-0.6,1.1-1.1,2.3-1.4,3.5c-0.3,1.2-0.5,2.4-0.5,3.6c0,0.6,0,1.2,0.2,1.8c0,0.2,0.1,0.3,0.1,0.5l0.1,0.4 l0,0.1l0,0.1l0,0.1l0.1,0.2l0.1,0.4c0.4,1,0.8,1.9,1.2,2.8c1.6,3.5,3.1,6.6,4.3,9.1C237,46.3,237.9,48.2,238.6,49.6z M217.1,23.4 c-2,0.4-3.9,0.9-5.8,1.3c-1.9,0.4-3.8,0.9-5.6,1.3c-1.8,0.4-3.6,0.9-5.3,1.2c-1.7,0.4-3.3,0.8-4.7,1.2c-1.5,0.4-2.8,0.7-4,1 c-1.2,0.3-2.2,0.6-3.1,0.8c-1.7,0.5-2.7,0.7-2.7,0.7s0.2,0,0.7-0.1c0.5-0.1,1.2-0.2,2-0.3c0.9-0.1,1.9-0.3,3.1-0.5 c1.2-0.2,2.6-0.4,4.1-0.7c1.5-0.3,3.1-0.5,4.8-0.8c1.7-0.3,3.5-0.6,5.3-1c1.8-0.3,3.8-0.7,5.7-1.1c1.9-0.4,3.9-0.8,5.9-1.2l0.2,0 l0.1,0l0,0l0,0c0.1,0,0.1,0,0.1,0c0,0,0,0,0.1,0c0.1,0,0.3,0,0.4,0.1c0.2,0.1,0.4,0.3,0.6,0.5c0.4,0.9,0.9,1.7,1.3,2.6 c0.9,1.8,1.8,3.5,2.7,5.1c0.4,0.8,0.9,1.6,1.3,2.4c0.2,0.4,0.4,0.8,0.6,1.2c0.1,0.2,0.2,0.4,0.2,0.5c0,0.1,0.1,0.2,0.1,0.4 c0.1,0.5-0.2,1-0.7,1.3c-0.1,0.1-0.2,0.1-0.4,0.1c0,0-0.1,0-0.1,0c0,0-0.1,0-0.1,0l-0.3,0c-0.4,0-0.8,0.1-1.1,0.1 c-1.5,0.2-2.9,0.3-4.1,0.4c-1.2,0.1-2.3,0.3-3.1,0.4c-0.9,0.1-1.6,0.2-2,0.3c-0.5,0.1-0.7,0.1-0.7,0.1s0.3,0,0.7,0 c0.5,0,1.2,0.1,2,0.1c0.9,0,1.9,0,3.2,0.1c1.2,0,2.6,0,4.1,0c0.4,0,0.8,0,1.2,0l0.3,0c0,0,0.1,0,0.2,0c0.1,0,0.1,0,0.2,0 c0.3,0,0.5-0.1,0.8-0.2c1-0.4,1.8-1.5,1.8-2.8c0-0.3-0.1-0.6-0.1-0.9c-0.1-0.4-0.2-0.5-0.3-0.7c-0.2-0.4-0.4-0.8-0.6-1.2 c-0.4-0.8-0.8-1.6-1.2-2.5c-0.8-1.7-1.7-3.4-2.6-5.2c-0.2-0.4-0.4-0.9-0.7-1.3l-0.3-0.7l-0.2-0.3c-0.1-0.1-0.1-0.2-0.2-0.4 c-0.4-0.6-1-1.1-1.7-1.4c-0.4-0.1-0.7-0.2-1.1-0.2c-0.1,0-0.2,0-0.3,0c-0.1,0-0.2,0-0.2,0l-0.1,0l-0.1,0L217.1,23.4z M122.5,36.9 c0,0,1.2,0.6,2.7,1.6c1.4,1,3.1,0.9,5.5-0.1c2.4-1.1,79.1-21,82.1-21.7c3-0.7,3.8-1.9,3.7-5.2L122.5,36.9z M595.6,97.7 C595.7,97.7,595.7,97.7,595.6,97.7C595.6,97.7,595.6,97.7,595.6,97.7c-0.3,0.1-0.6,0.2-0.9,0.3c-0.3,0.1-0.6,0.2-0.9,0.3 c-0.6,0.2-1.2,0.4-1.9,0.5c-0.7,0.2-1.4,0.3-2.1,0.4c-0.7,0.1-1.5,0.3-2.2,0.4c-0.8,0.1-1.5,0.2-2.3,0.3 c-6.2,0.7-12.4,0.8-12.4,0.8s1.5-0.2,3.8-0.7c2.3-0.4,5.3-1.1,8.2-1.9c0.7-0.2,1.5-0.4,2.2-0.6c0.7-0.2,1.4-0.4,2.1-0.7 c0.7-0.2,1.3-0.5,1.9-0.7c0.6-0.2,1.1-0.5,1.6-0.7c0.2-0.1,0.5-0.2,0.7-0.3c0.2-0.1,0.4-0.2,0.6-0.3c-2.1-1.3-5.6-2.9-8.8-3.8 c0,0-10.3,2.7-25.5,1.2c0.2,0.4,0.3,0.8,0.5,1.2c0.5,1.1,1,2.3,1.4,3.6c0.4,1.2,0.9,2.5,1.2,3.8c0.4,1.3,0.7,2.5,1,3.8 c0.1,0.6,0.3,1.3,0.4,1.9c0.1,0.3,0.1,0.6,0.2,0.9c0,0.3,0.1,0.6,0.1,0.9c0.1,0.6,0.2,1.2,0.3,1.8c0.1,0.6,0.1,1.2,0.2,1.7 c0,0.3,0.1,0.6,0.1,0.8c0,0.3,0,0.5,0.1,0.8c0,0.5,0.1,1,0.1,1.5c0,0.2,0,0.5,0,0.7c0,0.2,0,0.5,0,0.7c0,0.4,0,0.9,0,1.3 c0,0.8,0,1.5,0,2.1c0,1.1-0.1,1.8-0.1,1.8s0-0.6-0.1-1.8c0-0.6-0.1-1.3-0.2-2c0-0.4-0.1-0.8-0.2-1.2c0-0.2-0.1-0.4-0.1-0.7 c0-0.2-0.1-0.5-0.1-0.7c-0.1-0.5-0.2-1-0.3-1.5c0-0.3-0.1-0.5-0.1-0.8c-0.1-0.3-0.1-0.5-0.2-0.8c-0.1-0.5-0.2-1.1-0.4-1.7 c-0.1-0.6-0.3-1.1-0.4-1.7c-0.1-0.3-0.2-0.6-0.2-0.9c-0.1-0.3-0.2-0.6-0.3-0.9c-0.2-0.6-0.4-1.2-0.6-1.8c-0.4-1.2-0.8-2.4-1.3-3.6 c-0.5-1.2-1-2.3-1.5-3.5c-0.6-1.1-1.1-2.2-1.7-3.2c-0.6-1-1.2-2-1.7-2.9c-0.3-0.5-0.6-0.9-0.9-1.3c-0.1-0.1-0.1-0.2-0.2-0.3 c-6.6-8.8-17.3-15-28-18.1c-0.2,0-0.4-0.1-0.8-0.2c-0.6-0.2-1.6-0.4-2.7-0.7c-0.3-0.1-0.6-0.1-0.9-0.2c-0.3-0.1-0.6-0.1-1-0.2 c-0.7-0.1-1.4-0.3-2.2-0.4c-0.8-0.1-1.7-0.2-2.6-0.3c-0.9-0.1-1.9-0.2-2.9-0.2c-1,0-2-0.1-3.1-0.1c-0.5,0-1.1,0-1.7,0 c-0.6,0-1.1,0-1.7,0.1c-0.3,0-0.6,0-0.9,0c-0.3,0-0.6,0-0.9,0.1c-0.6,0-1.2,0.1-1.8,0.1c-1.2,0.2-2.4,0.3-3.7,0.5 c-0.3,0.1-0.6,0.1-0.9,0.2l-0.5,0.1l-0.5,0.1c-0.6,0.1-1.3,0.3-1.9,0.4c-0.6,0.1-1.3,0.3-1.9,0.5c-0.3,0.1-0.6,0.2-1,0.2 c-0.3,0.1-0.6,0.2-1,0.3c-0.3,0.1-0.6,0.2-1,0.3l-0.5,0.1l-0.5,0.2c-0.6,0.2-1.3,0.4-1.9,0.7c-1.2,0.5-2.5,1-3.7,1.6 c-0.6,0.3-1.2,0.6-1.8,0.9c-0.6,0.3-1.2,0.6-1.8,1c-0.6,0.3-1.2,0.7-1.7,1c-0.1,0.1-0.3,0.2-0.4,0.3l-0.4,0.3 c-0.3,0.2-0.6,0.4-0.8,0.6c-0.3,0.2-0.6,0.4-0.8,0.6c-0.3,0.2-0.5,0.4-0.8,0.6c-0.5,0.4-1.1,0.8-1.6,1.2c-1,0.8-2,1.6-3,2.5 c-1,0.8-1.8,1.8-2.7,2.7c-0.4,0.4-0.8,0.9-1.2,1.4c-0.4,0.5-0.8,0.9-1.2,1.4c-0.7,0.9-1.5,1.8-2.1,2.8c-0.3,0.5-0.6,0.9-0.9,1.4 c-0.3,0.5-0.6,0.9-0.8,1.3c-0.3,0.4-0.5,0.9-0.8,1.3c-0.2,0.4-0.5,0.9-0.7,1.3c-0.2,0.4-0.5,0.8-0.7,1.2c-0.2,0.4-0.4,0.8-0.6,1.2 c-0.2,0.4-0.4,0.8-0.5,1.1c-0.1,0.2-0.2,0.4-0.3,0.5c-0.1,0.2-0.1,0.3-0.2,0.5c-0.3,0.7-0.5,1.3-0.8,1.9c-0.2,0.6-0.4,1.1-0.6,1.5 c-0.2,0.4-0.3,0.8-0.4,1.1c-0.2,0.6-0.3,0.9-0.3,0.9s0.1-0.3,0.3-1c0.1-0.3,0.2-0.7,0.3-1.2c0.1-0.5,0.3-1,0.5-1.6 c0.2-0.6,0.4-1.2,0.6-1.9c0.1-0.2,0.1-0.4,0.2-0.5c0.1-0.2,0.1-0.4,0.2-0.6c0.1-0.4,0.3-0.8,0.4-1.2c0.2-0.4,0.3-0.8,0.5-1.2 c0.2-0.4,0.4-0.8,0.6-1.3c0.2-0.4,0.4-0.9,0.6-1.4c0.2-0.5,0.5-0.9,0.7-1.4c0.2-0.5,0.5-1,0.8-1.4c0.3-0.5,0.6-1,0.9-1.5 c0.6-1,1.2-2,1.9-3c0.3-0.5,0.7-1,1.1-1.5c0.4-0.5,0.7-1,1.2-1.5c0.8-1,1.6-2,2.6-3c0.9-1,1.9-1.9,2.9-2.9c0.5-0.5,1-0.9,1.6-1.4 c0.3-0.2,0.5-0.5,0.8-0.7c0.3-0.2,0.6-0.4,0.8-0.7c0.3-0.2,0.6-0.4,0.8-0.7l0.4-0.3c0.1-0.1,0.3-0.2,0.4-0.3 c0.6-0.4,1.2-0.8,1.8-1.2c0.6-0.4,1.2-0.8,1.8-1.2c0.6-0.4,1.2-0.7,1.9-1.1c1.2-0.7,2.6-1.4,3.8-2c0,0,0.1,0,0.1-0.1 c-24.2,0.2-53,0.7-84,1.2c-0.1-0.1-0.1-0.3-0.2-0.4c-0.3-0.5-0.5-1-0.8-1.6c-0.3-0.6-0.6-1.1-0.9-1.7c-0.3-0.6-0.6-1.2-1-1.7 c-1.3-2.3-2.8-4.5-3.9-6.2c-0.6-0.8-1-1.5-1.4-1.9c-0.3-0.5-0.5-0.7-0.5-0.7s0.1,0.3,0.4,0.8c0.3,0.5,0.6,1.3,1,2.1 c0.8,1.8,1.8,4.2,2.7,6.6c0.2,0.6,0.4,1.2,0.7,1.8c0.2,0.6,0.4,1.2,0.6,1.8c0,0.2,0.1,0.3,0.1,0.5c0.2,0.5,0.4,1,0.6,1.6 c0.2,0.7,0.5,1.5,0.8,2.4c1.7,0,3.3,0,5,0c3.6,0,7.1,0,10.6-0.1c3.4,0,6.7,0,9.9,0c6.3,0,12.1,0,17.3-0.1c5.1,0,9.6-0.1,13.3-0.1 c3.7,0,6.6-0.1,8.6-0.1c2,0,3-0.1,3-0.1s-1,0.1-3,0.3c-1,0.1-2.2,0.2-3.6,0.3c-1.4,0.1-3.1,0.3-4.9,0.4c-3.7,0.3-8.2,0.6-13.3,0.9 c-2.6,0.1-5.3,0.3-8.2,0.5c-2.9,0.1-5.9,0.3-9.1,0.4c-3.2,0.1-6.5,0.3-9.9,0.4c-3.4,0.1-6.9,0.3-10.5,0.4c-1.4,0-2.7,0.1-4.1,0.1 c0.1,0.3,0.1,0.6,0.2,0.9c0.3,1.3,0.6,2.6,0.8,4c0.2,1.4,0.5,2.9,0.6,4.3c0,0.4,0.1,0.7,0.1,1.1c0,0.4,0.1,0.7,0.1,1.1 c0.1,0.7,0.1,1.5,0.2,2.3c0.1,1.5,0.2,3,0.2,4.5c0,1.5,0,2.9,0,4.4c0,0.1,0,0.2,0,0.4c3,0,5.6,0,7.8,0.1c2.6,0,4.6,0.1,5.9,0.1 c1.4,0,2.1,0,2.1,0s-0.7,0.1-2.1,0.2c-1.4,0.1-3.4,0.3-5.9,0.4c-2.2,0.2-4.8,0.3-7.8,0.5c-0.1,2.2-0.2,4.2-0.4,6 c-0.4,4.5-0.9,7.4-0.9,7.4s0.3-3,0.4-7.5c0-1.8,0-3.8-0.1-5.9c-0.1,0-0.2,0-0.4,0c-3.6,0.2-7.6,0.5-11.9,0.7 c-2.2,0.1-4.5,0.2-6.8,0.4c-2.4,0.1-4.8,0.2-7.3,0.3c-5,0.2-10.3,0.5-15.8,0.7c-2.7,0.1-5.5,0.2-8.3,0.3c-2.8,0.1-5.7,0.2-8.5,0.3 c-5.7,0.2-11.6,0.3-17.4,0.4c-5.8,0.1-11.7,0.2-17.4,0.3c-2.9,0-5.7,0.1-8.5,0.1c-2.8,0-5.6,0-8.3,0c-5.5,0-10.8,0-15.8-0.1 c-5,0-9.8-0.1-14.2-0.3c-4.4-0.1-8.4-0.3-12-0.4c-1.3-0.1-2.5-0.1-3.6-0.2c0.2,0.6,0.4,1.2,0.6,1.8c0.3,0.8,0.5,1.5,0.8,2.3 c0.2,0.7,0.5,1.5,0.8,2.2c0.3,0.7,0.5,1.4,0.8,2c0.3,0.7,0.5,1.3,0.8,1.9c0.5,1.2,1,2.3,1.4,3.3c0.2,0.5,0.4,0.9,0.6,1.4 c0.2,0.4,0.4,0.8,0.5,1.1c0.7,1.4,1,2.2,1,2.2s-0.4-0.8-1.2-2.1c-0.2-0.3-0.4-0.7-0.6-1.1c-0.2-0.4-0.4-0.9-0.7-1.3 c-0.5-0.9-1.1-2-1.6-3.2c-0.3-0.6-0.6-1.2-0.9-1.8c-0.3-0.6-0.6-1.3-0.9-2c-0.3-0.7-0.6-1.4-0.9-2.1c-0.3-0.7-0.6-1.5-0.9-2.2 c-0.3-0.7-0.6-1.5-0.9-2.3c-1.5-0.1-2.9-0.2-4.2-0.3c-0.6,0-1.2-0.1-1.8-0.1c-0.6-0.1-1.1-0.1-1.6-0.2c-1-0.1-1.8-0.2-2.5-0.3 c-1.4-0.2-2.1-0.3-2.1-0.3s0.7,0,2.1,0.1c0.7,0,1.5,0,2.5,0c1,0,2.1,0,3.4,0c1.2,0,2.4,0,3.8,0c-0.2-0.5-0.4-1-0.5-1.4 c-0.6-1.6-1.2-3.3-1.7-5c-0.6-1.7-1.1-3.4-1.6-5c-0.2-0.8-0.5-1.7-0.7-2.5c-0.1-0.4-0.2-0.8-0.3-1.2c-0.1-0.4-0.2-0.8-0.3-1.2 c-0.2-0.8-0.4-1.6-0.6-2.4c-0.2-0.8-0.4-1.5-0.5-2.3c-0.2-0.7-0.3-1.5-0.5-2.2c-0.1-0.4-0.2-0.9-0.3-1.3c-0.6-0.1-1.2-0.2-1.8-0.3 c-1.5-0.4-3-0.9-4.3-1.4c-2.7-1.1-5.2-2.3-7.5-3.5c-2.3-1.1-4.5-2.2-6.5-3.1c-2-0.9-3.9-1.7-5.6-2.3c-1.7-0.6-3.3-1.1-4.7-1.5 c-1.4-0.4-2.6-0.7-3.5-0.9c-0.5-0.1-0.9-0.2-1.3-0.3c-0.4-0.1-0.7-0.1-0.9-0.2c-0.5-0.1-0.8-0.1-0.8-0.1s0.3,0,0.8,0.1 c0.3,0,0.6,0.1,0.9,0.1c0.4,0.1,0.8,0.1,1.3,0.2c2,0.3,4.8,0.8,8.4,1.9c3.6,1,7.8,2.6,12.5,4.7c2.4,1,4.9,2.1,7.5,3 c1.3,0.5,2.7,0.9,4.1,1.1c0.3,0.1,0.6,0.1,0.9,0.2c-0.1-0.7-0.2-1.3-0.3-2c-0.2-1.1-0.3-2-0.4-2.8c0-0.2,0-0.3-0.1-0.5 c-1.5-0.3-2.8-0.6-3.7-1.1c-14.3-6.6-46.2-14.9-106.7-10.2c-9.1,0.7-18.4,1.3-27.3,1.6c1-0.1,2-0.3,3.1-0.4 c8.2-1.1,17-2.3,25.8-3.2c2.2-0.2,4.4-0.4,6.6-0.6c2.2-0.2,4.4-0.4,6.6-0.5c4.3-0.3,8.6-0.5,12.8-0.7c2.1-0.1,4.1-0.1,6.1-0.1 c1,0,2,0,3,0c0.5,0,1,0,1.5,0c0.5,0,1,0,1.4,0c3.8,0,7.4,0.1,10.7,0.2c1.7,0.1,3.2,0.1,4.8,0.2c1.5,0.1,2.9,0.2,4.3,0.3 c1.3,0.1,2.6,0.2,3.8,0.3c1.2,0.1,2.2,0.2,3.2,0.3c3.9,0.4,6.1,0.6,6.1,0.6s-2.2-0.3-6-0.9c-1-0.1-2-0.2-3.2-0.4 c-1.2-0.1-2.4-0.3-3.8-0.4c-1.3-0.1-2.8-0.3-4.3-0.4c-1.5-0.1-3.1-0.3-4.8-0.4c-3.3-0.3-6.9-0.5-10.7-0.7c-0.5,0-1,0-1.4-0.1 c-0.5,0-1,0-1.5,0c-1,0-2-0.1-3-0.1c-2-0.1-4.1-0.1-6.1-0.1c-4.2,0-8.5,0-12.9,0.2c-2.2,0.1-4.4,0.2-6.6,0.3 c-2.2,0.1-4.4,0.2-6.7,0.4c-8.9,0.5-17.7,1.4-26,2.1c-4.1,0.4-8.1,0.7-11.9,1c-1.9,0.2-3.7,0.3-5.5,0.4c-1.8,0.1-3.5,0.2-5.1,0.3 c-3.3,0.2-6.3,0.2-9,0.2c-1.3,0-2.6,0-3.7-0.1c-1.1,0-2.2-0.1-3.1-0.1C62.8,59.1,62,59,61.2,59c-0.3,0-0.6,0-0.9-0.1 c0.2-0.1,0.4-0.3,0.6-0.4c1-0.6,2.3-1.3,3.7-1.9c2.8-1.3,6.3-2.5,10-3.8c3.7-1.3,7.7-2.5,11.7-3.8c8-2.5,15.9-5.1,21.9-7.2 c3-1,5.4-1.9,7.2-2.5c1.7-0.6,2.7-1,2.7-1s-1,0.3-2.7,0.9c-1.7,0.6-4.2,1.3-7.2,2.3c-6,1.8-14,4.2-22.1,6.5 c-4,1.1-8.1,2.3-11.8,3.4C70.5,52.6,67,53.8,64,55c-1.5,0.6-2.8,1.2-4,1.9c-1.2,0.6-2.1,1.3-2.9,2c-0.4,0.4-0.8,0.8-1.1,1.2 c0,0,0,0,0,0c-4.4,4.1-3.7,25-3.6,33c0.2-2.6,0.4-5.7,0.7-8.8c0.4-3.8,0.8-7.6,1.1-10.4c0.1-1.4,0.3-2.6,0.3-3.4 c0.1-0.8,0.1-1.3,0.1-1.3s0,0.5,0.1,1.3c0,0.8,0.1,2,0.2,3.4c0.1,2.8,0.2,6.6,0.4,10.4c0.2,3.8,0.4,7.5,0.6,10.4 c0.1,1.4,0.2,2.6,0.3,3.4c0,0.2,0,0.3,0,0.4c0.8,0.2,1.6,0.4,2.5,0.6c1.4,0.3,2.9,0.6,4.5,1c1.6,0.3,3.2,0.6,4.8,1 c1.6,0.3,3.3,0.6,5,1c1.7,0.3,3.3,0.6,5,0.9c1.6,0.3,3.3,0.6,4.8,0.9c3.1,0.6,6.1,1,8.6,1.5c5,0.8,8.4,1.3,8.4,1.3 s-3.4-0.2-8.5-0.5c-2.5-0.2-5.5-0.4-8.7-0.7c-1.6-0.1-3.2-0.3-4.9-0.4c-1.7-0.2-3.4-0.3-5.1-0.5c-1.7-0.2-3.4-0.3-5.1-0.5 c-1.7-0.2-3.3-0.4-4.9-0.5c-1.6-0.2-3.1-0.4-4.6-0.5c-1.5-0.2-2.8-0.4-4.1-0.5c-1.3-0.2-2.4-0.4-3.5-0.5c-1-0.1-1.9-0.3-2.7-0.4 c-0.2,0-0.5-0.1-0.7-0.1c-0.7,11,0.2,20.8,1.6,23.4c12.2,4.2,35,7.7,52.8,9.9c-1.6-0.3-3.2-0.6-4.8-0.9c-3.9-0.8-8-1.6-12.2-2.5 c-8.3-1.7-16.5-3.5-22.7-4.9c-6.2-1.4-10.3-2.3-10.3-2.3s4.2,0.7,10.4,1.6c6.3,0.9,14.6,2.1,23,3.2c4.2,0.5,8.4,1.1,12.3,1.5 c2,0.2,3.9,0.5,5.7,0.7c1.8,0.2,3.5,0.4,5.1,0.6c1.6,0.2,3,0.3,4.3,0.5c1.3,0.1,2.4,0.2,3.3,0.3c0.2,0,0.4,0,0.6,0.1 c0-1.3-0.1-2.5-0.1-3.5c-0.1-2.3-0.1-4.1-0.1-5c0-29.6,21.5-50.3,52.2-50.3c29.1,0,50.3,21.2,50.3,50.3c0,2.6-0.2,5.8-0.4,8.8 c-0.1,1.3-0.2,2.9-0.3,4.3l11.8,0.1c51.6,0.2,100.3,0.5,142,0.5c4.7,0,9.2,0,13.6,0c-6.9-0.1-14-0.2-21.2-0.3 c-7.3-0.1-14.8-0.3-22.2-0.4c-14.9-0.3-29.8-0.6-43.7-0.8c-14-0.3-27-0.6-38.2-0.8c-22.3-0.5-37.2-0.8-37.2-0.8s14.9-0.1,37.2-0.3 c11.2-0.1,24.2-0.2,38.2-0.3c14-0.2,28.9-0.3,43.7-0.5c7.4-0.1,14.9-0.2,22.2-0.3c7.3-0.1,14.5-0.2,21.5-0.3c1.6,0,3.2-0.1,4.7-0.1 c-4.1-0.1-8.4-0.1-12.6-0.2c-6.3-0.1-12.7-0.2-19.1-0.4c-25.6-0.5-51.1-1.1-70.3-1.5c-19.2-0.5-31.9-0.8-31.9-0.8s12.8-0.1,32-0.4 c19.2-0.2,44.7-0.6,70.3-1c6.4-0.1,12.8-0.2,19.1-0.3c6.3-0.1,12.5-0.2,18.5-0.3c6-0.1,11.8-0.3,17.3-0.4c1,0,1.9,0,2.9-0.1 c-3.2-0.1-6.5-0.1-9.9-0.2c-10.1-0.2-20.9-0.4-31.7-0.6c-21.6-0.5-43.1-1-59.3-1.4c-16.2-0.4-27-0.7-27-0.7s10.8-0.2,27-0.4 c16.2-0.3,37.7-0.6,59.3-1.1c10.8-0.2,21.6-0.5,31.7-0.7c5.1-0.1,9.9-0.3,14.6-0.4c4.6-0.1,9-0.3,13-0.4c4-0.1,7.7-0.3,11-0.4 c3.3-0.1,6.1-0.2,8.5-0.3c2.3-0.1,4.2-0.2,5.5-0.3c0.1,0,0.3,0,0.4,0c1.8-25.8,24.6-46.9,51.4-46.9c27.7,0,50.3,22.6,50.3,50.3 c0,0.5,0,0.9,0,1.4c1.1-0.2,2.6-0.4,4.2-0.7c2-0.4,4.4-0.9,6.9-1.5c1.2-0.3,2.5-0.7,3.7-1.2c1.2-0.5,2.5-1,3.6-1.6 c0.6-0.3,1.1-0.7,1.6-1.1c0.1-0.1,0.2-0.2,0.4-0.3c0.1-0.1,0.2-0.2,0.3-0.3l0.2-0.2l0,0l0,0c0,0,0,0,0,0l0,0l0.1-0.1l0.3-0.4 l0.3-0.4l0.3-0.4c0.2-0.3,0.4-0.5,0.6-0.8c0.4-0.5,0.8-1,1.2-1.6c0.8-1,1.5-2.1,2.2-3.1c0.7-1,1.3-1.9,1.9-2.8 c2.3-3.5,3.8-5.9,3.8-5.9s-1.2,2.5-3.1,6.3c-0.5,0.9-1,2-1.6,3c-0.6,1.1-1.2,2.2-1.9,3.3c-0.3,0.6-0.7,1.2-1,1.7 c-0.2,0.3-0.4,0.6-0.6,0.9l-0.3,0.5l-0.3,0.4l-0.3,0.4l-0.1,0.1l-0.1,0.1l-0.2,0.2c-0.1,0.2-0.3,0.3-0.4,0.4 c-0.1,0.1-0.3,0.3-0.4,0.4c-0.6,0.5-1.1,1-1.8,1.5c-1.2,0.9-2.5,1.6-3.8,2.2c-1.3,0.6-2.6,1.2-3.8,1.7c-0.1,0-0.1,0.1-0.2,0.1 c5.2-1.3,9.5-2.8,10.8-4.5C587.5,116.6,594.3,103.4,595.6,97.7z M245.4,49.5C245.4,49.5,245.4,49.5,245.4,49.5 c-0.3-0.9-0.8-2.2-1.5-3.8c-0.6-1.6-1.4-3.6-2.3-5.9c-0.9-2.3-1.9-4.8-3-7.6c-0.3-0.7-0.5-1.4-0.8-2.1c-0.1-0.2-0.1-0.3-0.2-0.5 l-0.1-0.3l-0.1-0.2l-0.1-0.2l0-0.1c0,0,0,0.1,0,0.1l0,0l0-0.1l0,0l0,0l0,0c0,0,0,0,0,0c0,0,0-0.1,0-0.1c0-0.4,0.1-1.1,0.3-1.7 c0.2-0.6,0.5-1.2,0.8-1.8c0.1-0.2,0.2-0.3,0.3-0.4l0.1-0.1c0,0,0,0,0,0l0,0l0-0.1c0.1-0.1,0.1-0.2,0.2-0.2c0.1-0.1,0.2-0.3,0.3-0.4 c0.1-0.1,0.2-0.3,0.3-0.4c0.5-0.5,1-0.9,1.5-1.3c0.1-0.1,0.3-0.2,0.4-0.2c0.1-0.1,0.3-0.1,0.4-0.2c0.3-0.1,0.6-0.2,0.8-0.3 c0.1,0,0.1,0,0.2-0.1l0.2,0l0.1,0l0,0c0,0,0,0,0,0c0,0,0,0,0,0l0.1,0l0.3,0c0.5-0.1,0.9-0.1,1.4-0.2c0.5-0.1,0.9-0.1,1.4-0.2 c0.5-0.1,0.9-0.1,1.4-0.2c0.9-0.1,1.8-0.2,2.8-0.3c1.9-0.2,3.8-0.4,5.7-0.6c3.9-0.4,7.8-0.7,11.8-1c4-0.3,7.9-0.6,11.8-0.9 c3.9-0.3,7.7-0.5,11.4-0.8c1.9-0.1,3.7-0.2,5.5-0.4c1.8-0.1,3.5-0.2,5.2-0.3c3.4-0.2,6.6-0.4,9.6-0.6c1.5-0.1,2.9-0.1,4.3-0.2 c1.4-0.1,2.6-0.1,3.9-0.2c2.4-0.1,4.5-0.1,6.3-0.1c1.7,0,3.1,0,4,0.1c0.5,0,0.8,0,1.1,0.1c0.2,0,0.4,0,0.4,0l0.1-0.4 c0,0-0.1,0-0.4-0.1c-0.2-0.1-0.6-0.1-1.1-0.2c-0.9-0.2-2.3-0.4-4-0.5C323,14,318,13.7,312,13.6c-1.5,0-3.1,0-4.7,0 c-1.6,0-3.3,0-5,0c-3.4,0-7.1,0.1-10.8,0.3c-3.7,0.1-7.6,0.3-11.5,0.5c-3.9,0.2-7.9,0.5-11.9,0.8c-4,0.3-8,0.7-11.9,1.2 c-3.9,0.4-7.7,0.9-11.4,1.5c-0.5,0.1-0.9,0.2-1.4,0.2c-0.2,0-0.5,0.1-0.7,0.1l-0.4,0.1c-0.1,0-0.2,0.1-0.3,0.1 c-0.9,0.3-1.8,0.7-2.5,1.3c-1.5,1.1-2.6,2.6-3.4,4.1c-0.4,0.8-0.7,1.6-0.9,2.4c-0.2,0.8-0.3,1.7-0.3,2.5l0,0.3c0,0.1,0,0.2,0.1,0.3 l0,0.1c0,0,0,0,0,0.1l0,0.1l0.1,0.3c0.1,0.4,0.3,0.7,0.5,1.1c0.3,0.7,0.6,1.4,1,2.1c1.3,2.7,2.5,5.2,3.6,7.3 c1.1,2.2,2.1,4.1,2.9,5.6c0.7,1.4,1.3,2.6,1.8,3.4C245,49.5,245.2,49.5,245.4,49.5z M324.7,27c-1.9,0.3-3.9,0.6-6,1 c-2.1,0.4-4.4,0.8-6.7,1.2c-2.3,0.4-4.7,0.9-7.2,1.3c-2.4,0.5-4.9,1-7.4,1.4c-2.5,0.5-5,1-7.4,1.5c-2.4,0.5-4.8,1-7.2,1.5 c-2.3,0.5-4.6,1-6.7,1.5c-2.1,0.5-4.1,0.9-6,1.4c-1.8,0.4-3.5,0.8-5,1.2c-1.5,0.4-2.8,0.7-3.9,1c-1.1,0.3-1.9,0.5-2.5,0.7 c-0.6,0.2-0.9,0.2-0.9,0.2s0.3,0,0.9-0.1c0.6-0.1,1.5-0.2,2.5-0.4c1.1-0.2,2.4-0.3,4-0.6c1.5-0.2,3.2-0.5,5.1-0.8 c1.9-0.3,3.9-0.6,6-1c2.1-0.4,4.4-0.8,6.7-1.2c2.3-0.4,4.7-0.9,7.2-1.3c2.4-0.5,4.9-1,7.4-1.4c2.5-0.5,5-1,7.4-1.5 c2.4-0.5,4.8-1,7.2-1.5c2.3-0.5,4.6-1,6.7-1.5c2.1-0.5,4.1-0.9,6-1.4c1.8-0.4,3.5-0.8,5-1.2c1.5-0.4,2.8-0.7,3.9-1 c1.1-0.3,1.9-0.5,2.5-0.7c0.6-0.2,0.9-0.2,0.9-0.2s-0.3,0-0.9,0.1c-0.6,0.1-1.5,0.2-2.5,0.4c-1.1,0.2-2.4,0.3-4,0.6 C328.3,26.4,326.5,26.7,324.7,27z M225.7,119.5c0-0.5,0-1-0.1-1.5c0-0.5-0.1-1.1-0.1-1.7c0-0.6-0.1-1.2-0.2-1.9 c-0.1-0.6-0.2-1.3-0.3-2c-0.1-0.7-0.3-1.4-0.4-2.2c0-0.2-0.1-0.4-0.1-0.6c0-0.2-0.1-0.4-0.1-0.6c-0.1-0.4-0.2-0.8-0.3-1.2 c-0.1-0.4-0.2-0.8-0.3-1.2c-0.1-0.4-0.2-0.8-0.3-1.2c-0.2-0.8-0.5-1.7-0.8-2.5c-0.3-0.8-0.6-1.7-0.9-2.6c-0.4-0.9-0.7-1.8-1.1-2.6 c-0.4-0.9-0.8-1.8-1.3-2.7c-0.2-0.4-0.5-0.9-0.7-1.4c-0.2-0.5-0.5-0.9-0.8-1.3c-0.3-0.4-0.5-0.9-0.8-1.4c-0.3-0.4-0.6-0.9-0.9-1.3 c-1.2-1.8-2.6-3.5-4.1-5.2c-0.4-0.4-0.8-0.8-1.2-1.3c-0.4-0.4-0.8-0.8-1.2-1.2c-0.8-0.8-1.7-1.6-2.6-2.4c-0.4-0.4-0.9-0.8-1.3-1.2 c-0.5-0.4-0.9-0.7-1.4-1.1l-0.7-0.6l-0.7-0.5c-0.5-0.3-1-0.7-1.5-1c-2-1.3-4.2-2.6-6.4-3.7c-1.1-0.6-2.3-1-3.4-1.5 c-0.3-0.1-0.6-0.2-0.9-0.4l-0.9-0.3c-0.6-0.2-1.2-0.5-1.8-0.6c-1.2-0.4-2.4-0.8-3.6-1.1c-0.6-0.2-1.2-0.3-1.8-0.5l-1.8-0.4 l-0.9-0.2c-0.3-0.1-0.6-0.1-0.9-0.2l-1.9-0.3c-0.6-0.1-1.2-0.1-1.9-0.2c-0.6-0.1-1.2-0.2-1.9-0.2c-0.6,0-1.3-0.1-1.9-0.1l-0.9-0.1 l-0.9,0c-0.6,0-1.2,0-1.8,0l-0.2,0l-0.2,0l-0.1,0l-0.5,0l-0.9,0c-4.9,0.1-9.8,0.8-14.3,2c-2.3,0.6-4.5,1.3-6.6,2.2 c-2.1,0.8-4.1,1.8-6,2.8c-3.8,2-7.1,4.5-9.9,6.9c-2.8,2.5-5.1,5.1-6.9,7.5c-1.8,2.4-3.2,4.7-4.2,6.6c-0.1,0.2-0.3,0.5-0.4,0.7 c-0.1,0.2-0.2,0.4-0.3,0.7c-0.2,0.4-0.4,0.8-0.6,1.2c-0.3,0.8-0.6,1.4-0.9,1.9c-0.4,1.1-0.7,1.6-0.7,1.6s0.3-0.5,0.8-1.5 c0.3-0.5,0.6-1.1,1.1-1.8c0.2-0.4,0.5-0.7,0.7-1.1c0.1-0.2,0.3-0.4,0.4-0.6c0.1-0.2,0.3-0.4,0.4-0.6c1.2-1.8,2.7-3.8,4.7-6.1 c0.5-0.5,1-1.1,1.5-1.7c0.3-0.3,0.5-0.6,0.8-0.8c0.3-0.3,0.6-0.6,0.9-0.8c0.1-0.1,0.3-0.3,0.4-0.4c0.2-0.1,0.3-0.3,0.5-0.4 c0.3-0.3,0.6-0.6,0.9-0.9c0.3-0.3,0.7-0.6,1-0.8c0.2-0.1,0.3-0.3,0.5-0.4c0.2-0.1,0.4-0.3,0.5-0.4c1.4-1.1,3-2.2,4.6-3.2 c1.6-1,3.4-2,5.2-2.9c0.5-0.2,0.9-0.5,1.4-0.7c0.5-0.2,1-0.4,1.4-0.6c1-0.4,2-0.8,3-1.1c2-0.7,4.1-1.4,6.3-1.9 c2.2-0.5,4.4-0.9,6.7-1.2c2.3-0.3,4.6-0.4,7-0.5l0.9,0l0.4,0l0.1,0c0,0,0,0,0,0l0.1,0l0.2,0c0.6,0,1.2,0,1.8,0.1l0.9,0l0.9,0.1 c0.6,0,1.2,0.1,1.7,0.1c0.6,0,1.2,0.1,1.8,0.2c0.6,0.1,1.2,0.1,1.8,0.2l1.8,0.3c0.3,0.1,0.6,0.1,0.9,0.1l0.9,0.2l1.7,0.4 c0.6,0.1,1.1,0.3,1.7,0.4c1.2,0.3,2.3,0.7,3.4,1c0.6,0.2,1.1,0.4,1.7,0.6l0.8,0.3c0.3,0.1,0.6,0.2,0.8,0.3c1.1,0.5,2.2,0.9,3.2,1.4 c0.5,0.3,1.1,0.5,1.6,0.8c0.5,0.3,1,0.6,1.5,0.8c0.3,0.1,0.5,0.3,0.8,0.4l0.7,0.4c0.5,0.3,1,0.6,1.5,0.9c0.5,0.3,0.9,0.6,1.4,1 l0.7,0.5l0.7,0.5c0.5,0.3,0.9,0.7,1.4,1c0.4,0.3,0.9,0.7,1.3,1.1c0.9,0.7,1.7,1.4,2.5,2.2c0.4,0.4,0.8,0.8,1.2,1.1 c0.4,0.4,0.8,0.8,1.1,1.1c1.5,1.6,2.8,3.2,4.1,4.8c2.5,3.3,4.4,6.7,6,9.9c0.4,0.8,0.7,1.6,1.1,2.4c0.2,0.4,0.3,0.8,0.5,1.2 c0.1,0.4,0.3,0.8,0.4,1.2c0.1,0.4,0.3,0.8,0.4,1.1c0.1,0.4,0.2,0.8,0.4,1.1c0.1,0.4,0.2,0.7,0.3,1.1c0.1,0.2,0.1,0.4,0.2,0.5 c0,0.2,0.1,0.4,0.1,0.5c0.2,0.7,0.4,1.4,0.5,2.1c0.2,0.7,0.3,1.3,0.4,2c0.1,0.6,0.3,1.2,0.4,1.8c0.1,0.6,0.2,1.1,0.3,1.7 c0.3,2.1,0.5,3.8,0.6,4.9c0.1,1.1,0.1,1.8,0.1,1.8s0-0.6,0.1-1.8c0-0.6,0.1-1.3,0-2.1C225.7,120.5,225.7,120,225.7,119.5z"></path></g></svg>