<svg xmlns="http://www.w3.org/2000/svg" xmlns:xlink="http://www.w3.org/1999/xlink" id="Layer_1" x="0px" y="0px" viewBox="0 0 445.5 505.2" style="enable-background:new 0 0 445.5 505.2;" xml:space="preserve"><style type="text/css"> .st0{fill:#575756;}</style><path id="Passport_and_flying_plane" class="st0" d="M65.3,357c-12.9-1.2-26-3.6-38.3-8.6c-6.1-2.6-12.1-5.9-17.1-10.4 c-5-4.5-8.8-10.4-9.9-16.7c3.2,5.5,8,9.4,13.2,12c5.2,2.6,10.9,4.1,16.7,5.1c11.7,1.8,23.7,1.8,35.7,0.9c24-1.6,47.9-6.7,71.5-12.7 c11.8-3.1,23.5-6.6,35.2-10.2c11.7-3.7,23.3-7.6,34.8-11.7c11.5-4.2,23-8.4,34.4-12.9c1.2-0.5,2.4-0.9,3.6-1.4l14.2,13.6 c-33.9,11.9-68.2,22.5-103.1,30.6c-21.4,4.9-43,8.9-64.9,10.9c-21.8,1.9-44,2.7-65.4-2.9c10.4,3.8,21.5,5.4,32.5,6.4l8.3,0.5 c2.8,0.1,5.5,0,8.3,0.1c5.5,0.1,11.1-0.2,16.6-0.4c22.1-1.3,44.1-4.6,65.8-8.8c21.7-4.2,43.2-9.5,64.6-15.4 c14-3.9,27.9-8.2,41.6-12.6l0.3,18.6c-3,0.8-6,1.6-8.9,2.4c-12.3,3.3-24.7,6.3-37.1,9c-24.9,5.4-50,10-75.5,12.8 C116.9,357.9,91.1,359.3,65.3,357z M135.3,316.6c8.5-2.7,16.9-5.7,25.3-8.7c-7.3-11.3-11.5-24.8-11.5-39.2c0-15.1,4.6-29,12.4-40.6 c0.7-1,1.3-1.9,2-2.9c3.1-4.2,6.7-8,10.7-11.5c0.5-0.5,1.1-0.9,1.6-1.3c0.8,1.7,2.6,2.6,4.2,3.5c1.8,1,4.7,0.7,6.2,2 c1.3,1.2,1.8,4.2,2,5.9c0.5,3.7-0.9,8.2-1.3,12c-0.2,2-0.6,4.5,0.1,6.4c0.7,2.2,2.6,4,3.3,6.2c0.7,2.4,0.4,5.2,1.1,7.5 c2.5,1.9,3.3,3.5,5.5,4.5c2.9,1.4,4,2.8,4.5,6c0.2,1.8,0.4,2.6,1.9,4.1c3.2,3.2,5.4,1.6,9.2,1.8c2.5,0.1,5.7,1.4,8,2.3 c3.7,1.4,4.8,3.8,7.1,6.6c1.8-0.8,3.6-1.6,5.5-2.4l-0.6-0.6c-2.9-1.3-4.3-2.8-5.1-4.9l-4.3-4.2l3-1.2c-1.3-2.7-5.6-1.4-8.2-2.7 c-2.7-1.4-5.2-5.8-4.5-8.9c3-0.3,6.1-0.7,9.1-0.3c2.3,0.4,4.2,1.4,6.5,1.3c5.5-0.2,6.6-3.3,7.6-8c0.9-4,2-7.3,4.7-10.4 c1.8-2.1,4.8-3.7,5.5-6.5c0.8-3.2,0-9.2-2.6-11.4c-2.5-2.1-6-1.6-8.5-3.8c-2.8-2.5-3.9-1.8-7.6-1.3c-1.6,0.2-3.1-0.1-4.2,1.1 c-1.1,1.2-0.6,3-1.3,4.4c-4.5-0.4-3.5-4.7-2.1-7.5c1.5-2.9,1.2-6-1.5-7.9c-2.8-2.1-3.5-1.5-5.9,0.2c-1.8,1.3-3.2,2.6-5.4,2.6 c-2.5,0-4-2-6.4-2.1c-2.8-0.2-5.7,0.5-7.8-1.8c-0.8-0.9-1.4-1.7-2.2-2.2c1.8-0.8,3.7-1.6,5.6-2.3c1.1-0.4,2.2-0.8,3.4-1.1 c1.1-0.4,2.3-0.7,3.4-1c0.6-0.1,1.2-0.3,1.8-0.4c5.3-1.2,10.8-1.9,16.4-1.9c1.3,0,2.6,0,3.9,0.1c-0.8,0.5-1.4,1.4-1.5,2.5 c-0.7,4.4,5.9,3.6,8.8,3.6c2.2,0,4.1-0.3,5.9,0.8c2.1,1.2,3.1,3.1,4.3,5.1c1.8,3.1,5.1,4.3,8.5,4.7c0.1-2.8,0.3-5.9-0.5-8.7 c-0.2-0.8-0.6-1.5-0.9-2.3c5.9,2.5,11.5,5.8,16.5,9.7c0.9,0.7,1.8,1.5,2.7,2.2c0.9,0.8,1.7,1.5,2.6,2.3c0.8,0.8,1.7,1.6,2.5,2.5 c2.8,2.9,5.4,6.1,7.7,9.5c0.3,0.5,0.6,1,1,1.5c0.9,1.5,1.8,3,2.7,4.5c4.7,8.6,7.6,18.2,8.5,28.4l4.2,2l2.8-1.5 c-0.3-3.3-0.7-6.5-1.3-9.8c-1.7-7.6-4.3-15.1-7.9-22c-3.8-6.8-8.5-13.1-14-18.7c-5.6-5.5-11.9-10.2-18.7-14c-6.9-3.7-14.3-6.2-22-8 c-7.7-1.5-15.6-1.9-23.4-1.3c-7.8,0.9-15.5,2.5-22.8,5.4c-7.3,3-14.1,7-20.4,11.8c-6.1,5-11.6,10.8-16.3,17.2 c-4.6,6.5-8.1,13.7-10.8,21.3c-2.5,7.6-3.8,15.6-4.3,23.7c-0.1-8.1,0.7-16.2,2.8-24.1c2.3-7.8,5.5-15.4,9.9-22.4 c4.5-6.9,10-13.1,16.2-18.6c6.4-5.3,13.5-9.6,21.1-13c7.7-3.3,15.8-5.3,24.1-6.3c8.3-0.7,16.7-0.5,24.9,1c8.2,1.7,16.1,4.4,23.6,8.3 c7.3,4,14.1,9,20.1,14.8c5.8,6,10.8,12.8,14.8,20.1c3.9,7.4,6.6,15.4,8.3,23.6c0.5,2.7,0.8,5.5,1.1,8.2l22.6-11.5l-26.2-37.9h-0.3 c-18.5-23.5-47.3-38.6-79.6-38.6c-32.3,0-61,15.1-79.6,38.6H56.9l-5,100.5c-0.8-60.2-1.4-120.3-1.9-180.5l-0.9-90.2L48.9,18l0-2.8 c0,0,0-0.4,0.1-0.9c0.1-0.4,0.2-0.8,0.4-1.2c0.4-0.8,1-1.4,1.7-1.8c0.4-0.2,0.8-0.3,1.2-0.4c0.5-0.1,0.9-0.1,0.9-0.1l0.7,0l5.6-0.1 l11.3-0.1l45.1-0.4c60.2-0.5,120.3-1.3,180.5-1.5l45.1-0.2l22.6-0.1l11.3-0.1l5.6,0l2.8,0l1.4,0h0.7c1.3,0,2.7,0.4,3.8,1.2 c1.1,0.8,2,1.9,2.4,3.2c0.2,0.6,0.4,1.3,0.4,2l0,0.6l0,1.4l0,2.8l0,5.6l0,11.3l0,22.6l0.1,45.1c0.1,37.3,0.1,74.7,0,112l8.2-4.2V8.6 c0-4.8-3.9-8.6-8.6-8.6H46.6C41.9,0,38,3.9,38,8.6v326.4c9.1,0.1,18.4-0.8,27.7-2C89,330.1,112.3,323.7,135.3,316.6z M366.4,26.5 l-21,0.2l-42,0.3l-84,0.2l-84-0.2l-42-0.3l-21-0.2l-5.2-0.1l-2.6,0l-0.3,0l0,2l-0.1,5.2c-0.5,56-1.6,112-3.1,167.9 c-1.6-56-2.6-112-3.1-167.9l-0.1-5.2l0-2.6l0-0.3c0-0.1,0-0.5,0-0.7c0.1-0.5,0.2-1,0.4-1.5c0.4-1,1.1-1.8,2-2.4c0.9-0.6,1.9-0.9,3-1 l1.4,0l2.6,0l5.2-0.1l21-0.2l42-0.3l84-0.2l84,0.2l42,0.3l21,0.2l5.2,0.1l2.6,0l1.4,0c1.1,0,2.1,0.4,3,1c0.9,0.6,1.6,1.4,2,2.4 c0.2,0.5,0.3,1,0.4,1.5c0,0.2,0,0.6,0,0.7l0,0.3l0,2.6l-0.1,5.2c-0.5,56-1.6,112-3.2,167.9c-1.6-56-2.6-112-3.2-167.9l-0.1-5.2l0-2 l-0.3,0l-2.6,0L366.4,26.5z M374.6,25.5L374.6,25.5C374.6,25.4,374.6,25.5,374.6,25.5z M64.3,25.4L64.3,25.4 C64.3,25.5,64.3,25.5,64.3,25.4C64.3,25.5,64.3,25.4,64.3,25.4z M397.8,371.9c1.1-0.5,2.1-1.1,3.1-1.8v126.5c0,4.8-3.9,8.6-8.6,8.6 H46.6c-4.8,0-8.6-3.9-8.6-8.6V356.8c8.9,3.1,18.1,5.1,27.1,6.4c26.5,3.6,52.9,3.6,79,1.9c26.1-1.7,51.9-5.1,77.4-9.6 c14.3-2.5,28.5-5.4,42.6-8.7l0.3,17.4l33.5-15.5c7.2-3.3,12.7-9.6,15.1-17.2l6.1-19.3l32-12l19,85l11.6-5.7 c0.1,28.5,0.3,57,0.5,85.5l0.2,21.9l-3.6,0l-11.3,0.1l-45.1,0.4l-90.2,0.9l-90.2,1.3L97,490.4l-45.1,0.9l45.1,0.9l45.1,0.7l90.2,1.3 l90.2,0.9l45.1,0.4l11.3,0.1l5.6,0.1l0.7,0l0.4,0c0.2,0,0,0,0.8,0c2.3-0.2,4.3-1.9,4.9-4.2c0.1-0.4,0.2-1.4,0.2-1.4l0-0.4l0-0.7 l0-1.4l0.2-22.6c0.2-30.2,0.4-60.4,0.5-90.6L397.8,371.9z M189.5,432.2h17.1c1.9-5.2,7-9,12.9-9c5.9,0,10.9,3.7,12.9,9h17.1v-8.5 c0-3.7-3-6.7-6.7-6.7h-46.5c-3.7,0-6.7,3-6.7,6.7V432.2z M219.5,431.1c-3.2,0-5.9,2.6-5.9,5.9c0,3.2,2.6,5.9,5.9,5.9 c3.2,0,5.9-2.6,5.9-5.9C225.3,433.7,222.7,431.1,219.5,431.1z M189.5,450.2c0,3.7,3,6.7,6.7,6.7h46.5c3.7,0,6.7-3,6.7-6.7v-8.5 h-17.1c-1.9,5.2-7,9-12.9,9c-5.9,0-10.9-3.7-12.9-9h-17.1V450.2z M237.3,207.6c-2.7-2.3-6.6-1.7-10.4-1.7c-1.5,0.1-1.3,2-0.5,2.6 c1.3,1.1,3.7,0.5,5.2,0.9c2.2,0.6,2.4,2,3.3,3.6c1,1.8,3.3,2.7,5.3,3.1C241.6,213.6,239.1,209.1,237.3,207.6z M323.4,136.9 c-34.6-1.8-69.3-2.2-103.9-2.3c-34.6,0.1-69.3,0.5-103.9,2.3c34.6,1.8,69.3,2.2,103.9,2.3C254.1,139.2,288.8,138.7,323.4,136.9z M170,224.6c-7.8,9.4-13.1,21.2-14.8,33.6c-1.6,12.4-0.1,25.4,4.8,37c1.6,3.8,3.5,7.4,5.7,10.9c1.2-0.5,2.5-0.9,3.7-1.3 c0.3-0.1,0.6-0.2,0.9-0.3c-2.3-3.5-4.3-7.2-5.8-11.1c-1.3-2.7-2-5.5-3-8.3c-0.6-2.9-1.5-5.7-1.8-8.6c-1-5.8-1.2-11.8-0.7-17.7 C160,246.8,163.7,235.1,170,224.6z M275.4,228.9c-3.7-4.8-8.1-9.1-13.1-12.4c4,4.5,7.6,9.1,10.7,14c3.1,4.9,5.7,10.1,7.8,15.6 c1.5,3.8,2.6,7.7,3.5,11.7l3.6,1.7c-0.6-5-1.9-9.9-3.7-14.7C282,239.1,279.1,233.7,275.4,228.9z M444.6,228.4c-2-4.7-7-6.9-12.3-8 c-8.3-1.7-17-0.1-24.5,3.7l-21.5,11l-58.7-53.9c-4.1-3.7-9.9-4.8-15-2.8l-12.1,4.7l48.9,70.8l-50.8,25.9l-24.7-11.6 c-3.7-1.7-7.9-1.8-11.6-0.3l-14.3,5.9l29.3,28.1l0.7,40.6l14-6.5c3.7-1.7,6.5-4.9,7.7-8.7l8.2-25.8l53.4-20.1L380,365l11.6-5.7 c4.9-2.4,8.1-7.4,8.1-12.9l0.3-79.5l22.8-8.5c7.9-3,14.8-8.2,19.2-15.4C444.9,238.4,446.7,233.1,444.6,228.4z"></path><g> <path class="st0" d="M82.5,68.7h10.3v41.6H82.5V68.7z"></path> <path class="st0" d="M97.9,68.7h31.3V79h-10.5v31.3h-10.3V79H97.9V68.7z"></path> <path class="st0" d="M134.3,68.7h10.3v41.6h-10.3V68.7z"></path> <path class="st0" d="M152.1,68.7h9.6l12.6,23v-23h9.7v41.6h-9.7l-12.5-22.9v22.9h-9.7V68.7z"></path> <path class="st0" d="M190.9,68.7h27.6v8.9h-17.3v6.6h16v8.5h-16v8.2H219v9.4h-28.1V68.7z"></path> <path class="st0" d="M224.7,110.3V68.7h17.2c3.2,0,5.6,0.3,7.3,1c1.7,0.7,3,1.9,4.1,3.8c1,1.8,1.5,4.1,1.5,6.7c0,2.3-0.4,4.3-1.2,6 c-0.8,1.7-1.9,3-3.3,4.1c-0.9,0.7-2.1,1.2-3.6,1.6c1.2,0.5,2.1,1,2.7,1.5c0.4,0.3,0.9,1.1,1.6,2.2c0.7,1.1,1.2,2,1.4,2.6l5,12.1 h-11.6l-5.5-12.7c-0.7-1.6-1.3-2.7-1.9-3.2c-0.7-0.6-1.6-1-2.5-1H235v16.9H224.7z M235,85.6h4.3c0.5,0,1.4-0.2,2.7-0.6 c0.7-0.2,1.2-0.6,1.7-1.3c0.4-0.7,0.6-1.5,0.6-2.4c0-1.3-0.3-2.4-1-3.1c-0.7-0.7-2-1.1-3.8-1.1H235V85.6z"></path> <path class="st0" d="M281.3,103.4h-11.7l-1.6,6.9h-10.5L270,68.7h11.2l12.5,41.6H283L281.3,103.4z M279.2,94.4l-3.7-15l-3.6,15 H279.2z"></path> <path class="st0" d="M297.2,110.3V68.7h17.2c3.2,0,5.6,0.3,7.3,1c1.7,0.7,3,1.9,4.1,3.8c1,1.8,1.5,4.1,1.5,6.7c0,2.3-0.4,4.3-1.2,6 c-0.8,1.7-1.9,3-3.3,4.1c-0.9,0.7-2.1,1.2-3.6,1.6c1.2,0.5,2.1,1,2.7,1.5c0.4,0.3,0.9,1.1,1.6,2.2c0.7,1.1,1.2,2,1.4,2.6l5,12.1 h-11.6l-5.5-12.7c-0.7-1.6-1.3-2.7-1.9-3.2c-0.7-0.6-1.6-1-2.5-1h-0.9v16.9H297.2z M307.5,85.6h4.3c0.5,0,1.4-0.2,2.7-0.6 c0.7-0.2,1.2-0.6,1.7-1.3c0.4-0.7,0.6-1.5,0.6-2.4c0-1.3-0.3-2.4-1-3.1c-0.7-0.7-2-1.1-3.8-1.1h-4.5V85.6z"></path> <path class="st0" d="M327.9,68.7h11.5l6.7,14l6.7-14h11.4l-13,24.2v17.4h-10.3V92.9L327.9,68.7z"></path></g></svg>