<svg xmlns="http://www.w3.org/2000/svg" xmlns:xlink="http://www.w3.org/1999/xlink" id="Layer_1" x="0px" y="0px" viewBox="0 0 349 315.1" style="enable-background:new 0 0 349 315.1;" xml:space="preserve"><style type="text/css"> .st0{fill:#494949;}</style><path id="Touristic_map" class="st0" d="M213.1,301.1c5,3.3,10.1,6.7,15,10.2c-5.5-2.6-10.8-5.4-16.2-8.1c-5.3-2.8-10.7-5.6-16-8.6 c-5.3-2.9-10.5-5.9-15.8-8.8l-15.1-8.8c-5.7-0.2-11.4-0.3-17.1-0.6c-5.9-0.3-11.8-0.5-17.7-0.8c-11.8-0.6-23.6-1.4-35.4-2.7 c11.8-0.7,23.7-0.9,35.5-0.9c5.9-0.1,11.8,0,17.7,0c5.9,0,11.8,0.2,17.7,0.3l0.6,0l0.5,0.3l15.6,9.2c5.1,3.2,10.3,6.3,15.4,9.5 C202.9,294.6,208,297.9,213.1,301.1z M37.9,220.6c-2.3-1.7-4.5-3.4-6.8-5.1c4.3-3,8.5-6.1,12.7-9.3c4.9-3.8,9.8-7.6,14.5-11.7 c-5.5,2.9-10.9,6.1-16.2,9.3c-5.3,3.3-10.5,6.6-15.6,10.1l-2.3,1.6l2.2,1.7c3,2.3,6,4.5,9.1,6.8c3,2.3,6.2,4.4,9.3,6.5 c6.3,4.2,12.6,8.4,19.2,12.1c-5.5-5.3-11.3-10.1-17.1-14.9C43.8,225.3,40.9,222.9,37.9,220.6z M176,95.6c3.3,1.7,6.8,2.9,10.4,3.6 c3.6,0.6,7.3,0.7,10.9,0.3c3.6-0.5,7.2-1.4,10.5-2.9c3.3-1.6,6.3-3.5,9-5.9c2.6-2.4,4.9-5.2,6.7-8.2c1.8-3.1,3.1-6.4,3.9-9.7 c0.8-3.4,0.9-6.9,0.6-10.2c-0.4,3.4-1.2,6.6-2.3,9.7c-1.3,3-2.8,5.9-4.8,8.5c-2,2.5-4.3,4.8-6.8,6.7c-2.6,1.8-5.3,3.4-8.3,4.5 c-11.7,4.5-25.6,1.4-34.2-7.4c-8.8-8.6-11.9-22.5-7.4-34.2c1.1-2.9,2.7-5.7,4.5-8.3c1.9-2.5,4.2-4.8,6.7-6.8c2.6-2,5.4-3.5,8.5-4.8 c3.1-1.2,6.3-1.9,9.7-2.3c-3.4-0.3-6.8-0.1-10.2,0.6c-3.4,0.8-6.7,2.1-9.7,3.9c-3,1.8-5.8,4.1-8.2,6.7c-2.4,2.7-4.3,5.8-5.9,9 c-1.5,3.3-2.5,6.9-2.9,10.5c-0.4,3.6-0.3,7.3,0.3,11c0.7,3.6,1.9,7.1,3.6,10.4c1.8,3.2,3.9,6.2,6.5,8.9 C169.8,91.6,172.8,93.8,176,95.6z M349,196.4L245.4,315.1L169,267.3l-98.8-0.7L0,214.5l142.2-92.4l17.3,10.2 c-13.3-24.9-25.6-52.7-25.6-70.4c0-25.2,15.8-46.7,37.9-55.2c8.2-4.4,17.6-6.8,27.6-6.8c32.6,0,59.1,26.4,59.1,59.1 c0,23-20.5,62.7-37.4,91.4l55.1-4.5l-82.7,93.3l85.2-91.8L349,196.4z M216.3,158.7c-7.2,11.9-13.1,20.9-15.6,24.7l-3.9,38.9l7.8,0 l31.3-34c-0.3,0-0.6-0.1-0.9-0.1c-30.2-2.6-7.6-20.8,7.5-30.8L216.3,158.7z M191.2,4.7c8.9-0.1,17.7,1.4,25.7,5 c8,3.5,15,9,20.1,15.9c5.2,6.9,8.6,14.9,10.2,23.4c0.8,4.2,1.1,8.5,1,12.8c-0.1,4.2-0.9,8.5-1.9,12.7c-2,8.5-5,16.7-8.3,24.9 c-3.3,8.2-7,16.2-10.8,24.2c-3.8,8-7.9,15.8-12,23.6c-4.1,7.9-8.4,15.6-12.7,23.4c5.1-7.3,9.8-14.8,14.5-22.4 c4.6-7.6,8.9-15.4,13.1-23.2c8.3-15.7,15.8-32,20.2-49.5c4.6-17.7,0.7-37.6-10.9-51.8c-5.8-7.1-13.4-12.6-21.8-15.8 C209.1,4.7,200,3.7,191.2,4.7z M149.9,62.5c0,24.2,19.6,43.8,43.8,43.8c24.2,0,43.8-19.6,43.8-43.8s-19.6-43.8-43.8-43.8 C169.5,18.6,149.9,38.2,149.9,62.5z M119.5,222.4l71.4-0.1l3.5-34.8l-1.4,0.6h-34.7L119.5,222.4z M155.3,188.1l-2.4-0.2l-60.1,54.4 L155.3,188.1z M179.5,167.1c-0.4-0.7-0.8-1.4-1.3-2.1l-9.7,8.8l1.9,1.1l0,0L179.5,167.1z M172.4,175.6l16,5.7 c-2.1-3.3-4.9-7.6-8-12.7L172.4,175.6z M170.4,145.5c2.3,3.7,4.6,7.4,6.9,11.1c2.4,3.6,4.8,7.3,7.3,10.8L172,144.6 c-4.2-7.6-8.3-15.2-12.2-23c-4-7.7-7.6-15.6-11.1-23.5c-1.8-4-3.4-8-4.9-12.1c-1.6-4-3-8.2-4.4-12.3c0.9,4.3,2.1,8.5,3.3,12.6 c1.3,4.2,2.8,8.3,4.3,12.4c3.1,8.2,6.8,16.1,10.7,23.9C161.8,130.4,166,138,170.4,145.5z M122.5,147.4l44.3,25.4l10.6-9.3 c-2.6-4.2-5.3-8.9-8.2-13.8c-1.7-1-3.5-2-5.2-3.1l-21.4-12.5L122.5,147.4z M114.7,143l1.3,0.8c2.1-1.5,4.2-2.9,6.3-4.4l15.9-11.2 l-16.5,10.3C119.4,140,117.1,141.5,114.7,143z M63.6,186.3l48.1,35.1l38.2-33.7l-78.7-6.4C68.7,183,66.1,184.6,63.6,186.3z M10.7,214.2l31.1-20.4l20-13.3l-4.4-0.4l-17.2,11.3L7.9,213.1l-1.5,1l1.4,1.1c9.1,7.2,55.5,42.3,55.5,42.3S17,219.2,10.7,214.2z M73.2,255.4l33.1-29.2l-49-35.8c-3.1,2-6.1,4-9.2,6l-28.8,18.7L73.2,255.4z M117,260.2l-41.1,0.6l-0.4,0.4l41.2,0.3L117,260.2z M117.9,256.1l5.8-26.6l-12.2,0l-30,26.5L117.9,256.1z M170.4,259.4l-47.4,0.7l-0.3,1.4l45.5,0.3L170.4,259.4z M173.2,256.4l24.8-27 l-68.4,0.1l-5.8,26.7L173.2,256.4z M274.1,273.9l-66.7-44.6l-1.3,0l-27.5,29.9l30.9,20.3c11.6,7.6,23.3,15.3,34.8,23.1 c-11.9-7.2-23.8-14.4-35.7-21.7l-32-19.6l-2.5,2.7l70.2,44L274.1,273.9z M290.5,255.2c-8.2-3.4-33.2-15.2-33.4-30.1 c-0.2-14.3-6.6-28.8-15.4-34.5l-30.3,32.9l67.4,45L290.5,255.2z M341.6,198.5l1-1.2l-1.3-0.9c-9.3-6.7-18.6-13.3-28-19.8l-14.1-9.7 c-4.8-3.1-9.5-6.4-14.3-9.4c4.4,3.6,9,7.1,13.5,10.6l13.7,10.3c8.7,6.6,17.5,13,26.3,19.3c-6.6,7.9-13.2,15.8-19.6,23.8l-10.1,12.7 c-3.3,4.3-6.7,8.5-9.9,12.8c3.7-3.9,7.3-8,11-11.9l10.8-12.1C327.7,215,334.6,206.7,341.6,198.5z"></path></svg>