<svg xmlns="http://www.w3.org/2000/svg" xmlns:xlink="http://www.w3.org/1999/xlink" id="Layer_1" x="0px" y="0px" viewBox="0 0 601.7 299.8" style="enable-background:new 0 0 601.7 299.8;" xml:space="preserve"><style type="text/css"> .st0{opacity:0.7;fill:#DBDBDB;} .st1{fill:#DBDBDB;} .st2{fill:#AAAAAA;} .st3{fill:#678CB6;} .st4{fill:#54668E;} .st5{fill:#5F8FC0;} .st6{opacity:0.5;fill:#FFB39F;} .st7{fill:#C6C6C6;} .st8{fill:#134F70;}</style><path class="st0" d="M0.5,264.8C228,189.6,141.7,232,421,202.9c-61.7,6-111,15.3-145.2,22.8c-65.3,14.4-68.6,6.8-110.3,8.1 c-24.1,0.7-59,15.7-104.8,19.8c-11.7,1.1-24.8,2.8-41.2,5.9"></path><path class="st0" d="M241.6,81C314,92.8,374,96.2,374.1,95.6c0-0.4-25-2.6-70.9-9.2c-35-5-62.1-8.9-95.7-16.5 c-29-6.5-50-12.9-58.9-15.6C99.9,39.9,53,29.6,0,17.7c37.8,13.6,80.8,27.7,132.7,40.7C180.9,70.5,219.6,77.4,241.6,81z"></path><g> <g> <path class="st1" d="M274.6,145.8l-14.7-49.6l-0.2-0.8c0,0,0-0.1,0-0.1c-1-2.7-1.7-4.4-1.7-4.4c0,0,0,0,0,0c0-0.1,7,0.1,7,0.1 l35.9,48.6c-6.7,0.8-12.4,1.7-18.9,3.7l-0.5,0.1C279.3,144.1,277,144.8,274.6,145.8C274.6,145.8,274.6,145.8,274.6,145.8z"></path> <polygon class="st2" points="282.1,144.9 281.5,143.4 262.9,98.1 259.9,96.2 259.8,96.2 259.6,95.3 259.6,95.3 263.2,97.6 281.9,143.3 282.5,144.7 "></polygon> </g> <g> <g> <path class="st1" d="M471.1,113.9c-13,0-23.5-4.6-23.4-10.3c0-5.7,10.6-10.3,23.6-10.3c3,0,5.8,0.2,8.5,0.7 c0.8,0.1,1.6,0.4,2.3,0.8c0.3,0.2,0.6,0.3,0.9,0.5c0.7,0.5,1,1.3,1,2.1v12.4c0,0.8-0.4,1.6-1,2.1c-0.3,0.2-0.6,0.4-0.9,0.5 c-0.7,0.4-1.5,0.7-2.3,0.8C477,113.7,474.1,113.9,471.1,113.9z"></path> <path class="st2" d="M482,112.4V94.8c0.3,0.2,0.6,0.3,0.9,0.5c0.7,0.5,1,1.3,1,2.1v12.4c0,0.8-0.4,1.6-1,2.1 C482.6,112.1,482.3,112.2,482,112.4z"></path> <path class="st2" d="M473.9,103.7c0-1-0.7-1.8-1.7-1.9c-2.1-0.2-4.6-0.4-7.3-0.4c-7.3,0-13.3,1-13.3,2.3c0,1.3,5.9,2.3,13.3,2.3 c2.7,0,5.2-0.1,7.3-0.4C473.1,105.5,473.9,104.7,473.9,103.7L473.9,103.7z"></path> </g> <g> <g> <path class="st1" d="M488.4,150h-77.5c-1.2-5.5,3.5-19.6,3.5-19.6l-0.7-26l0-0.6l0-0.9l-14.5-44.6l3-0.3l-0.1-0.3l-0.2-0.6 l-11.4-29.4l-0.2-0.6l-7.7-20l-4.7-6.8l1.8-0.5c1.2,0.1,3.1,0.3,5.5,0.4c4.3,0.3,5.3,0.3,6.8,0.9c1.3,0.5,3.4,1.7,5.5,4.5 c20.9,35.5,40.4,66.3,61.2,101.8l19.6,25.6L488.4,150z"></path> </g> <polygon class="st2" points="421.6,132.5 420.9,104.4 413.7,104.4 413.7,103.9 420.7,103.9 403.8,57.9 402,57.9 401.8,57.3 405.2,57.3 394,27.9 390.4,27.9 390.2,27.3 394.4,27.3 394.5,27.5 406,57.9 404.4,57.9 421.5,104.4 421.4,104.4 422.2,132.4 "></polygon> </g> </g> <g> <g> <path class="st3" d="M471.1,185.9c-13,0-23.5,4.6-23.4,10.3c0,5.7,10.6,10.3,23.6,10.3c3,0,5.8-0.2,8.5-0.7 c0.8-0.1,1.6-0.4,2.3-0.8c0.3-0.2,0.6-0.3,0.9-0.5c0.7-0.5,1-1.3,1-2.1l0-12.4c0-0.8-0.4-1.6-1-2.1c-0.3-0.2-0.6-0.4-0.9-0.5 c-0.7-0.4-1.5-0.7-2.3-0.8C477,186.1,474.1,185.9,471.1,185.9z"></path> <path class="st4" d="M482,187.4V205c0.3-0.2,0.6-0.3,0.9-0.5c0.7-0.5,1-1.3,1-2.1l0-12.4c0-0.8-0.4-1.6-1-2.1 C482.6,187.7,482.3,187.6,482,187.4z"></path> <path class="st4" d="M473.9,196.1c0,1-0.7,1.8-1.7,1.9c-2.1,0.2-4.6,0.4-7.3,0.4c-7.3,0-13.3-1-13.3-2.3c0-1.3,5.9-2.3,13.3-2.3 c2.7,0,5.2,0.1,7.3,0.4C473.1,194.3,473.9,195.1,473.9,196.1L473.9,196.1z"></path> </g> <g> <g> <path class="st5" d="M488.4,149.8l-77.5,0c-1.2,5.5,3.5,19.6,3.5,19.6l-0.7,26l0,0.6l0,0.9l-14.5,44.6l3,0.3l-0.1,0.3l-0.2,0.6 l-11.4,29.4l-0.2,0.6l-7.7,20l-4.7,6.8l1.8,0.5c1.2-0.1,3.1-0.3,5.5-0.4c4.3-0.3,5.3-0.3,6.8-0.9c1.3-0.5,3.4-1.7,5.5-4.5 c20.9-35.5,40.4-66.3,61.2-101.8l19.6-25.6L488.4,149.8z"></path> </g> <polygon class="st4" points="421.6,167.4 420.9,195.4 413.7,195.4 413.7,196 420.7,196 403.8,241.9 402,241.9 401.8,242.5 405.2,242.5 394,271.9 390.4,271.9 390.2,272.5 394.4,272.5 394.5,272.3 406,241.9 404.4,241.9 421.5,195.4 421.4,195.4 422.2,167.4 "></polygon> </g> </g> <path class="st6" d="M282.5,144.7l-0.4,0.2l-0.6-1.5c0.2,0,0.3-0.1,0.5-0.1L282.5,144.7z"></path> <path class="st7" d="M359.8,168.6c-10.6-0.5-11.1-1.8-29.7-4.8c-28.2-4.5-37.2-3-55.5-9.9c-1.6-0.6-3.1-1.2-4.4-1.8 c-0.4-0.2-0.8-0.3-1.2-0.5c-1.6-0.7-3-1.3-4.1-1.8l0,0c2.1-1,5.4-2.5,9.6-4.1c0,0,0,0,0,0c2.4-0.9,4.7-1.7,6.9-2.3l0.5-0.1 c6.5-1.9,12.2-2.9,18.9-3.7c7.6-0.9,16.4-1.7,29.3-3.8c18.6-3,19.1-4.3,29.7-4.8c5.8-0.3,196.5,1.8,196.5,1.8 c10.5,0.3,37.4,7.7,44.7,15.3c0.6,0.6,0.6,1.3,0.8,1.7c0,0-0.2,0.9-0.6,1.5c0,0.1-0.1,0.1-0.1,0.2c-7.3,7.6-34.2,15.1-44.7,15.3 C556.3,166.8,365.5,168.9,359.8,168.6z"></path> <g> <path class="st5" d="M274.6,153.9l-14.7,49.6l-0.2,0.8c0,0,0,0.1,0,0.1c-1,2.7-1.7,4.4-1.7,4.4c0,0,0,0,0,0c0,0.1,7-0.1,7-0.1 l35.9-48.6c-6.7-0.8-12.4-1.7-18.9-3.7l-0.5-0.1C279.3,155.6,277,154.8,274.6,153.9C274.6,153.9,274.6,153.9,274.6,153.9z"></path> <polygon class="st4" points="282.1,154.7 281.5,156.3 262.9,201.6 259.9,203.5 259.8,203.5 259.6,204.4 259.6,204.4 263.2,202.1 281.9,156.4 282.5,154.9 "></polygon> </g> <path class="st3" d="M359.8,168.6c-10.6-0.5-11.1-1.8-29.7-4.8c-28.2-4.5-37.2-3-55.5-9.9c-1.6-0.6-3.1-1.2-4.4-1.8 c-0.4-0.2-0.8-0.3-1.2-0.5c-1.6-0.7-3-1.3-4.1-1.8h336.9c0,0-0.2,0.9-0.6,1.5c0,0.1-0.1,0.1-0.1,0.2c-7.3,7.6-34.2,15.1-44.7,15.3 C556.3,166.8,365.5,168.9,359.8,168.6z"></path> <g> <path class="st2" d="M589.4,144.3l-2.5,0.9c-2-2.2-5.4-4.1-9.7-5.3C582.3,140.7,586.6,142.3,589.4,144.3z"></path> <path class="st2" d="M593,149.2h-4.1c-0.1-1-0.5-2-1.1-3l2.8-1.1C592,146.4,592.8,147.8,593,149.2z"></path> <path class="st8" d="M590.4,154.6l-2.7-1.1c0.7-1,1.2-2,1.3-3.1l4.1,0C592.8,151.9,591.9,153.3,590.4,154.6z"></path> <path class="st8" d="M576.9,159.8c4.3-1.2,7.7-3,9.8-5.1l2.4,0.9C586.3,157.5,582,159,576.9,159.8z"></path> </g> <path class="st4" d="M320.9,151.4c-29.9,0.2-69.5-0.6-69.5-1.9c0-1.3,39.6-1.5,69.5-1c19.4,0.4,30.7,1.1,30.7,1.6 C351.6,150.7,340.3,151.3,320.9,151.4z"></path></g></svg>