<svg xmlns="http://www.w3.org/2000/svg" xmlns:xlink="http://www.w3.org/1999/xlink" id="Layer_1" x="0px" y="0px" viewBox="0 0 362.9 397.9" style="enable-background:new 0 0 362.9 397.9;" xml:space="preserve"><style type="text/css"> .st0{fill:#F0E4B5;} .st1{fill:#54668E;} .st2{fill:#99BECB;} .st3{fill:#6890A5;} .st4{fill:#5F8FC0;} .st5{fill:#F2E9C4;} .st6{fill:#E2D4A6;} .st7{fill:#F7EFD2;} .st8{fill:#7E9DC0;} .st9{fill:#D6C99D;} .st10{fill:#134F70;}</style><g> <g> <g> <path class="st0" d="M201.4,59.6l-22.2,1.7c-1.6,0.1-2.8,1.5-2.8,3.1v10.1c0,1.6,1.2,2.9,2.8,3.1l22.2,1.7c1.5,0,2.9-0.4,4.1-1.1 c0.3-0.2,0.6-0.4,0.9-0.6c0.3-0.3,0.5-0.7,0.5-1.1l0-13.8c0-0.4-0.2-0.8-0.5-1.1c-0.3-0.2-0.6-0.4-0.9-0.6 C204.3,60,202.9,59.6,201.4,59.6z"></path> <path class="st1" d="M174.2,69.3L174.2,69.3c0,1.3,1,2.3,2.3,2.3l20.5,0c1.3,0,2.3-1,2.3-2.3l0,0c0-1.3-1-2.3-2.3-2.3l-20.5,0 C175.3,67,174.2,68,174.2,69.3z"></path> <path class="st1" d="M205.5,60.7l0,17.2c0.3-0.2,0.6-0.4,0.9-0.6c0.3-0.3,0.5-0.7,0.5-1.1l0-13.8c0-0.4-0.2-0.8-0.5-1.1 C206.1,61.1,205.8,60.9,205.5,60.7z"></path> </g> <g> <path class="st0" d="M238.8,111.8l-22.2,1.7c-1.6,0.1-2.8,1.5-2.8,3.1v10.1c0,1.6,1.2,2.9,2.8,3.1l22.2,1.7 c1.5,0,2.9-0.4,4.1-1.1c0.3-0.2,0.6-0.4,0.9-0.6c0.3-0.3,0.5-0.7,0.5-1.1l0-13.8c0-0.4-0.2-0.8-0.5-1.1c-0.3-0.2-0.6-0.4-0.9-0.6 C241.7,112.3,240.3,111.8,238.8,111.8z"></path> <path class="st1" d="M211.6,121.6L211.6,121.6c0,1.3,1,2.3,2.3,2.3h20.5c1.3,0,2.3-1,2.3-2.3l0,0c0-1.3-1-2.3-2.3-2.3H214 C212.7,119.3,211.6,120.3,211.6,121.6z"></path> <path class="st1" d="M242.9,113v17.2c0.3-0.2,0.6-0.4,0.9-0.6c0.3-0.3,0.5-0.7,0.5-1.1l0-13.8c0-0.4-0.2-0.8-0.5-1.1 C243.5,113.4,243.2,113.2,242.9,113z"></path> </g> </g> <g> <g> <path class="st2" d="M201.4,338.3l-22.2-1.7c-1.6-0.1-2.8-1.5-2.8-3.1v-10.1c0-1.6,1.2-2.9,2.8-3.1l22.2-1.7 c1.5,0,2.9,0.4,4.1,1.1c0.3,0.2,0.6,0.4,0.9,0.6c0.3,0.3,0.5,0.7,0.5,1.1v13.8c0,0.4-0.2,0.8-0.5,1.1c-0.3,0.2-0.6,0.4-0.9,0.6 C204.3,337.9,202.9,338.3,201.4,338.3z"></path> <path class="st3" d="M174.2,328.6L174.2,328.6c0-1.3,1-2.3,2.3-2.3h20.5c1.3,0,2.3,1,2.3,2.3l0,0c0,1.3-1,2.3-2.3,2.3h-20.5 C175.3,330.9,174.2,329.9,174.2,328.6z"></path> <path class="st3" d="M205.5,337.2v-17.2c0.3,0.2,0.6,0.4,0.9,0.6c0.3,0.3,0.5,0.7,0.5,1.1v13.8c0,0.4-0.2,0.8-0.5,1.1 C206.1,336.8,205.8,337,205.5,337.2z"></path> </g> <g> <path class="st4" d="M238.8,286l-22.2-1.7c-1.6-0.1-2.8-1.5-2.8-3.1v-10.1c0-1.6,1.2-2.9,2.8-3.1l22.2-1.7c1.5,0,2.9,0.4,4.1,1.1 c0.3,0.2,0.6,0.4,0.9,0.6c0.3,0.3,0.5,0.7,0.5,1.1l0,13.8c0,0.4-0.2,0.8-0.5,1.1c-0.3,0.2-0.6,0.4-0.9,0.6 C241.7,285.6,240.3,286,238.8,286z"></path> <path class="st1" d="M211.6,276.3L211.6,276.3c0-1.3,1-2.3,2.3-2.3l20.5,0c1.3,0,2.3,1,2.3,2.3l0,0c0,1.3-1,2.3-2.3,2.3l-20.5,0 C212.7,278.6,211.6,277.6,211.6,276.3z"></path> <path class="st1" d="M242.9,284.9l0-17.2c0.3,0.2,0.6,0.4,0.9,0.6c0.3,0.3,0.5,0.7,0.5,1.1l0,13.8c0,0.4-0.2,0.8-0.5,1.1 C243.5,284.5,243.2,284.7,242.9,284.9z"></path> </g> </g> <g> <path class="st5" d="M33.6,193.1c0.9,2.3,1.7,4.4,2.3,6.1l56.3-0.2c-4.6-11.2-8.3-13.9-11.1-13.9c-1.4,0-3.7,0.7-6.1-0.1 c-0.4-0.1-0.8-0.3-1.3-0.5c-1.2-0.7-2-1.6-2.5-2.2l-41.2-53c0,0-5-3.9-10.4-5.8c-6.2-2.1-13.1-1.8-13.2-1.6c0,0,0,0,0,0 c0,0.1,1.1,2.7,2.7,7L33.6,193.1z"></path> <g> <polygon class="st6" points="9.1,128.5 16.1,128.3 45.9,190.9 45.3,191.2 15.7,129.1 9.4,129.3 "></polygon> </g> </g> <g> <path class="st4" d="M7,276.6C7,276.6,7,276.6,7,276.6c0-0.1,1-2.6,2.5-6.6c0-0.1,0.1-0.3,0.1-0.4l0.1-0.3l23.9-63.9 c0.9-2.3,1.6-4.4,2.3-6.1l56.3-0.2c-4.6,11.3-8.3,14-11,14c-1.4,0-3.7-0.7-6.1,0.1c-0.4,0.1-0.8,0.3-1.2,0.5 c-1.2,0.7-2,1.6-2.5,2.2l-40.9,53.2c0,0-4.9,3.9-10.4,5.9C14,277.1,7,276.8,7,276.6z"></path> <g> <path class="st1" d="M16.5,270.1l-7-0.2c0-0.1,0.1-0.3,0.1-0.4l0.1-0.3l6.3,0.2l29.3-62.3l0.7,0.3L16.5,270.1z"></path> </g> </g> <g> <path class="st5" d="M282.6,198.5l-94.9,0.3c-1.7-6.3-3.9-14.5-6.1-22.6c-4.4-16.4-8.8-32.8-9.2-34.4c0-0.1,0-0.1,0-0.1 c0,0-0.1-0.2-0.2-0.6c-1.2-3.5-8-20.9-14.7-37.9c-0.1-0.2-0.2-0.5-0.3-0.7c-6.2-15.8-12.2-31-13.4-34c-0.1-0.3-0.2-0.5-0.2-0.5 l-0.1-0.2l-18.4-40.9l-0.3-0.7L113.2,0c1.7,0.1,4.4,0.3,7.9,0.5c6.2,0.3,7.6,0.3,9.7,1c1.9,0.6,4.8,1.9,7.8,5.2 c29.8,41,59.5,82,89.3,123l40.2,49.4L282.6,198.5z"></path> <path class="st6" d="M190.3,178.1l-9.1-36.4l-8.7,0c0-0.1,0-0.1,0-0.1c0,0-0.1-0.2-0.2-0.6l8.7,0L164.4,103l-6.9,0 c-0.1-0.2-0.2-0.5-0.3-0.7l6.9,0l-14.8-34l-5.5,0c-0.1-0.3-0.2-0.5-0.2-0.5l-0.1-0.2l5.5,0l-17.8-40.9l-6.1,0l-0.3-0.7l7,0 l50,115.4l9.2,36.8L190.3,178.1z"></path> </g> <g> <path class="st4" d="M282.6,198.5l-94.9,0.3c-1.7,6.4-3.8,14.5-6,22.7c-4.3,16.4-8.6,32.9-9,34.5c0,0.1,0,0.1,0,0.1 c0,0-0.1,0.2-0.2,0.6c-1.2,3.5-7.9,21-14.5,38c-0.1,0.2-0.2,0.5-0.3,0.7c-6.1,15.8-12,31.1-13.2,34.1c-0.1,0.4-0.2,0.5-0.2,0.5 l-0.1,0.2l-18.2,41l-0.3,0.7l-11.5,25.8c1.7-0.1,4.4-0.3,7.9-0.5c6.2-0.4,7.6-0.3,9.7-1c1.9-0.6,4.8-2,7.8-5.2 c29.5-41.2,59.1-82.3,88.6-123.5l39.9-49.6L282.6,198.5z"></path> <path class="st1" d="M190.4,219.4l-8.9,36.5l-8.7,0c0,0.1,0,0.1,0,0.1c0,0-0.1,0.2-0.2,0.6l8.7,0l-16.2,38l-6.9,0 c-0.1,0.2-0.2,0.5-0.3,0.7l6.9,0l-14.6,34.1l-5.5,0c-0.1,0.4-0.2,0.5-0.2,0.5l-0.1,0.2l5.5,0l-17.5,41l-6.1,0l-0.3,0.7l7,0 l49.4-115.6l9-36.8L190.4,219.4z"></path> </g> <path class="st7" d="M180.9,221.3c-2.7-0.5-12.3-2.5-25.3-3.2c-2.6-0.2-5.6-0.3-18.9-0.3c-22.6,0-23.7,0.3-29.8,0.1 c-11.3-0.5-11.7-1.8-31.4-4.7c-29.8-4.4-39.3-2.9-58.8-9.8c-4.5-1.6-8-3.1-10.3-4.1c2.2-1,5.8-2.6,10.2-4.2 c19.4-7,28.9-5.5,58.7-10.1c19.7-3,20.2-4.4,31.4-4.9c6.1-0.3,7.1,0,29.8-0.1c13.3-0.1,16.2-0.2,18.9-0.4c13-0.8,22.6-2.8,25.3-3.4 l0.8-0.2c21.1-3.9,46.7,0,86.4,3c13.8,1,29.2,1.9,46.8,2.3c11.1,0.3,39.6,5,47.4,14.8c0.5,0.6,0.6,1.3,0.7,1.8c0,0.1,0,0.2,0,0.3 c0,0.1,0,0.2,0,0.2c-0.1,0.2-0.1,0.5-0.2,0.7c0,0,0,0,0,0.1c-0.1,0.2-0.1,0.3-0.2,0.5c0,0.1-0.1,0.1-0.1,0.2c0,0.1-0.1,0.1-0.1,0.2 c-0.1,0.1-0.1,0.2-0.2,0.3c-7.7,9.8-36.2,14.7-47.3,15C246,217.4,209.5,226.7,180.9,221.3z"></path> <path class="st8" d="M180.9,221.3c-2.7-0.5-12.3-2.5-25.3-3.2c-2.6-0.2-5.6-0.3-18.9-0.3c-22.6,0-23.7,0.3-29.8,0.1 c-11.3-0.5-11.7-1.8-31.4-4.7c-29.8-4.4-39.3-2.9-58.8-9.8c-4.5-1.6-8-3.1-10.3-4.1l356.5-1c0,0.1,0,0.2,0,0.2 c-0.1,0.2-0.1,0.5-0.2,0.7c0,0-0.1,0.4-0.2,0.5c0,0.1-0.1,0.1-0.1,0.2c0,0.1-0.1,0.1-0.1,0.2c-0.1,0.1-0.1,0.2-0.2,0.3 c-7.7,9.8-36.2,14.7-47.3,15C246,217.4,209.5,226.7,180.9,221.3z"></path> <path class="st1" d="M50.2,201.4C22.5,201.5,0,200.5,0,199.3c0-1.3,22.5-2.4,50.2-2.5c27.7-0.1,50.2,0.9,50.2,2.2 C100.4,200.3,78,201.4,50.2,201.4z"></path> <g> <path class="st9" d="M351.9,193.3l-1.6,0.9c-1.3-2.2-3.5-4.1-6.2-5.3C347.4,189.8,350.1,191.3,351.9,193.3z"></path> <path class="st9" d="M354.2,198.3l-2.6,0c-0.1-1-0.3-2-0.7-3l1.8-1.1C353.5,195.5,354.1,196.9,354.2,198.3z"></path> <path class="st10" d="M352.5,203.7l-1.8-1.1c0.5-1,0.7-2,0.8-3.1l2.6,0C354.1,201,353.5,202.4,352.5,203.7z"></path> <path class="st10" d="M343.9,208.9c2.7-1.2,4.9-3,6.3-5.2l1.5,0.9C349.9,206.5,347.2,208.1,343.9,208.9z"></path> </g></g></svg>