<svg xmlns="http://www.w3.org/2000/svg" xmlns:xlink="http://www.w3.org/1999/xlink" id="Layer_1" x="0px" y="0px" viewBox="0 0 730.8 781.5" style="enable-background:new 0 0 730.8 781.5;" xml:space="preserve"><style type="text/css"> .st0{fill:#FFFFFF;} .st1{fill:#331C14;}</style><g> <path class="st0" d="M54.2,455.3c28.9,43.9,25.2,113.5-4.2,98.9c-29.3-14.7-50.5-89.8-30.1-112.4c1.6-1.8,6.9-5.2,8-5.1 c0.1,0,1.8,0.2,3.7,0.5C32.8,437.7,42.1,437.1,54.2,455.3z M356.3,621c-14.1-9-21.7-6.6-22.5-7.8c-0.1-0.3-0.6-0.4-0.8-0.4 c-46.3,4.6-36.9,99.1,8.6,146.1c12.6,13,27.6,20.2,38.6,18.2C426.6,768.8,410,655.8,356.3,621z M333.2,609.4c1.3-0.5,5-0.1,8.8,0.7 c1.3-1,2.5-2.1,3.8-3.1c-14-3.1-27.2-0.5-37.3,9.7c-17.6,17.7-13.7,49.6-14.3,55.5c-0.1,0,1.8-0.6,3.3-0.6h1.2 c0.1-4-0.3-16.3,0.8-23.5C305.7,608,330.2,610.5,333.2,609.4z M724.9,199.5c-3.3-6.4-10.2-7.6-11.9-8.3 c-13.5-3.2-48.2,7.5-70.8,17.8c-0.5-2-1-3.7-1.4-5.1c0.5-2.5,0.9-5.9,0.2-7.5c-1.4-3.3-29.8-17.8-44.2-19.6 c-12.1-1.5-56.3-3.9-92.5-11.9c-13.5-3-40.3,2.7-47.5,3.1c-6.7,0.3-30.3-4.3-32-4.5c-33.1-4-78.4-22.9-83.8-27.6 c-7.8-6.8-19-8.8-28.2-14c-7.6-4.3-16.8-13.2-25.2-10c-28.5,10.8-85-9.7-85.1-9.7c-23.8-4.5-22.1-8.3-28-7.2 c-2.1,0.4-4.5,0.1-6.6-0.2c-13.4-1.6-13.9-6.6-27.6,6.4c-25.2,24-29.4,16.1-67.6,33.7c-28.8,13.1-27.8,12.3-35.2,20 C7.4,245.8,8,253.2,4.9,321.8c-3.6,80.6,2.6,93.5,7.6,113.4c0-0.2,7.1-7.3,18.2-7.4c-9.1,1.9-16.9,7.1-19,11.2 c-1,2,7.2-2.5,29.1-7.7c6.4,3.8,13.2,9.8,16,14.1c30.8,47.8,25,83.1,33.5,99.6c5.5,10.7,68.1,34.5,202.8,129.2l0.3-6.9 c-5.9-56.3,32-81,79.6-51.2c38.7,24.2,66.7,76.3,67.3,121.1l0.1,8.5c4.7-0.3,8.1,0.4,22.6-3.7c10.6-2.8,121.4,8.5,162.6-41.6 c0.2,0.8,0.3,1.6,0.4,2.4c3.3,0,25.1-38.6,26.2-42c14.5-47.3,11.5-26.6,23.5-76.9c10.6-34.3,19.4-61,21.7-106.6 c0.9-6.4,1.4-11.8,1.5-16.1c1.1-40.5-17-150.9-20-154.2c-0.7-2.4-1.3-4.6-2-6.6c20.3-20.8,21.6-25.5,41.3-64.4 c3.3-6.5,7.6-18.8,8.4-24.1C727.3,208.2,726.4,202.5,724.9,199.5z"></path> <g> <path class="st1" d="M554.3,187.7c1.5,1.1,3.5,5.9,7.1,14.5c15.9,38.1,36.3,76.6,55.1,155.5c2.8,11.7,3.8,15.5,5.1,15.5 c0.3,0,0.7-0.2,0.9-0.6c5.9-9.9-28.2-108.7-48.8-150.2c-11.5-23.2-15.7-37.5-19.8-36c-0.1,0-0.4,0.2-0.4,0.4 C553.5,187,553.7,187.3,554.3,187.7z"></path> <path class="st1" d="M526.7,203.8l-0.2-0.1c-2.9-1.3-38.3,2.4-101.1,27.5c-15.2,6.1-64.3,27.8-53,27.8c1.7,0,6.2-2.1,15.4-6.5 C497.2,200.5,532.4,206.3,526.7,203.8z"></path> <path class="st1" d="M378,313c-0.1-0.1-1-1.1-0.9-1c-2.4-2.8,9.3,50.5,10,54c54.6,253.9,32.3,295.2,41.6,295.2 c9.7,0-5.2-158.5-30.4-263.7C390.4,364.2,379.8,315.2,378,313z"></path> <path class="st1" d="M288.1,111.5c-1.7-2.7-27,3.9-62.7-3.7c-19.4-4.2-18.7-6.8-19.8-5.2c-2.1,3.4,22.4,9.5,34.8,11.1 C267.2,117.1,289.6,113.9,288.1,111.5z"></path> <path class="st1" d="M308.4,168.9c0-1-1.9-1.6-7.4-3.5c-68.7-23.4-86.3-42.7-86.3-39.3c0,1.3,2.4,3.3,10.4,8.6 c25.1,16.7,75.5,34.7,82.4,34.7C307.9,169.4,308.4,169.3,308.4,168.9z"></path> <path class="st1" d="M586.4,199.4c0.7,0.1,46.9-1.7,47.1-1.8c3.8-5.6-53-2.5-52.9,0.4C580.6,198.6,581.7,198.8,586.4,199.4z"></path> <path class="st1" d="M296.9,238.7c-41.7-0.7-68.1-9.9-108.2-21.6c-4.7-1.4-54.6-17.6-58.6-19.1c-10.8-4.2-59.8-33-60.6-32.5 c-3.4,1.9,16.4,12.2,32.4,22.5c20.8,13.1,22.7,14,66.8,28.7c36.5,12.2,82.8,26.4,116.4,27.6C323.9,245.5,358.4,239.7,296.9,238.7z "></path> <path class="st1" d="M44,525.2c10.3,0,10.3-20.3,7.2-32.7c-2-7.8-6.8-16.7-10.4-19.5c-2.1-1.6-6.8-2.1-8.8-1 c-3.3,1.8-5.5,5.6-6.4,11.1C22.9,499,31.9,525.2,44,525.2z"></path> <path class="st1" d="M372.2,713.6c7-20-12.3-56.2-30.2-50.7c-3.1,1-5.7,3.1-6.5,5.4c-3.3,9-3.3,9-3.3,14.1 c-0.1,9.5,3,19.8,8.3,28.3C350.8,727.2,366,731.9,372.2,713.6z"></path> <path class="st1" d="M640,424.6c-5.2,20.2,6.2,43.2,17.7,25.4c7.1-11.2,6.2-33.1,3.4-37c-1.9-2.5-7.5-4-11.1-2.9 C646.5,411.2,641.8,418,640,424.6z M657,413.9c2.3,1.5,2.9,2.6,3.6,6.6c0.4,2.6-0.2,11.5-1.2,16.2c-1.3,6.6-5.2,13.4-8.7,15.2 c-3.6,1.9-7.3-5.9-8.1-10.2C640.3,427.5,646.4,407.1,657,413.9z"></path> <path class="st1" d="M656.3,379.8c-6.9-11.6-11.7-12-21-10.4c-14.7,2.6-31.8,18.7-36.1,40.2c-2.3,11.6-3.1,29.1-1.6,36.8 c3.7,18.6,14.9,39,17.9,42.9c2.9,3.8,8,7.7,11.8,9c12.1,4,20.7-3.7,28.3-13.9C669.6,465.6,677.4,414.6,656.3,379.8z M649.1,486.7 c-8.4,9-16.9,10.8-24.8,5.2c-5.9-4.2-9-10.7-12.3-17.6c-9.3-19.2-11.7-30-10.8-47.9c1.5-28,10.9-48.5,38.4-54.3 C662.5,367.2,680,453.4,649.1,486.7z"></path> <path class="st1" d="M706.5,186.3c-5.7,0-26.3,4.2-36.1,7.5c-11,3.7-20.3,7.8-26.7,10.6c-0.6-1.1,1.8-10.1-10.4-17.2 c-22.8-13.5-47.2-13.8-78.2-15.2c-37.2-1.8-31.2-10.2-63.5-10.1c-16.4,0-24.2,3-25.8,2.9c0.4-1.5,5.5-9.3,7.2-24.6 c1.5-13.2,9.2-38.6,3.6-64.1c-12.3-55.7-34.1-48.8-56-66.5c-8.9-7.1-23.3-11-32.2-8.8c-18.6,4.7-25.1,16.6-32.5,22.9 c-27.4,23.4-35.1,46.7-46.7,66.2c-0.1-0.1-28.2-36.8-45.8-51.5c-8.5-7.1-36.2-27.9-46.2-27.9c-2.6,0-14.6,4.4-19.2,7 c-5.2,2.9-11.9,8.3-13.8,9.3c-3.6,1.9-9,10.1-10.9,16.6c-2.1,7.2-3.5,22-2.8,30.6c0.6,8.5,4.3,18.1,4.5,19.7 c-2,0-17.1-5.6-20.3-2.6c-3.7,3.5-0.4-8.7-27.1,18.5c-4.7,4.9-11.3,6.9-21.3,9.9c-19.1,5.7-23.4,7.8-39.9,15.1 c-27.7,12.1-27.7,12.1-33.1,27.5C10.5,226.4,3.5,248.5,0.6,322c-2.9,73,6.5,105.6,6.6,105.7c3.6,13,3.8,13.9,7.7,9.8 c0.1-0.1,9.9-10.2,20.4-6.6c-12.1,2.5-22,4.6-25.8,24.9c-6.6,35.2,15.3,102,46.9,104.7c5,0.4,5-1,11.8-1.5 c15.4-1,22.8-7.9,24.5-9.7c39.5,28.8,108.4,62.1,180.2,112.8c15.2,10.7,20.3,14.3,24.2,11.6l1.4-0.9c1.5,5.6,2.8,35.9,25.1,70.4 c11,17,30.8,38.1,51.2,38.1c2.6,0,6.4-0.3,12.9-0.8c31.5-2.5,52.3-30.7,52.3-33.1c0-0.5,0.9-0.2,2.2,0.2c12.4,3.6,18-1.3,24.5-4.4 c2.4,0.6,44.2,1.7,55.5,0.6c48-4.7,81.7-16,100.2-33.5c12.3-11.7,33.5-46.1,38.4-65.1c3.5-13.4,1.8-11,4.6-16.7 c5.2-10.1,29.5-92.4,34.3-135.4c7.4-64.9-12.3-184.4-20.4-187.5c-0.2-1.4,13.3-13.6,21.8-27.2c3.2-5.2,17.4-33,21.7-41.4 c2.2-4.3,6.3-16.3,7.5-21.7C733.5,199.2,725,186.5,706.5,186.3z M660.1,631.6c0.1,0.1,0.1,0.2,0.1,0.2c-0.4,0.8-30.8,4.2-30.8,8.4 c0,2.5,26.7-5.2,29.7-5.4c-1.1,14.8-20.3,47.9-29.1,59.8c-9.9,13.5-17.9,20.1-32.6,27.3c-51.4,24.8-125.6,17.6-134.3,19.9 c-14.2,4.1-15.2,2.8-19.7,3c-0.5-3.3,3-34.2-20.8-76.7c-51.9-92.6-139.3-85.3-130.4-0.6l0.3,3.1C233.9,625.5,172.6,591.5,132,569 c-46-25.5-40.9-21.8-44-39.6c-9.3-53.5-41.4-129.7-75.3-94.7c-13.9-55.3-6.9-101.2-7.1-119.9c2.8-62.4,3.2-72,32.3-159.7 c7.2-7.6,6.9-7,35.1-19.9c37.9-17.4,42.5-9.7,67.7-33.7c9.7-9.1,11-8.3,14-6.1c7.5,5.6,22.8,13,23.2,11.7 c0.7-2.8-19.7-13-21.5-14.2c6.6,1.6,12.3,2.8,19.1,2.5l2.4,6.7c6.5,17.8,31.4,60.4,33.7,62.2c3.6,2.9,7.1,2.6,16.6,2.8 c10.8,0.3,10.8,0.2,11.4-0.9c0.6-1,0.4-3.1-0.6-3.2c-0.9-0.9-12.8-13.9-14.2-16.1c-0.2-0.4-23.2-39.5-32-73.6 c-2.4-9.6-2.8-12.8-2.9-24c0-10.1,0-10.1,1.3-12.8c2.8-5.9,6-8.2,9.8-7.3c4.7,1.2,20.7,9.9,27.7,14.9c4.7,3.4,66.4,63.4,64.1,68.5 c-1,2.3-8.8,12.6-12.7,16.7c-4.3,4.7-4.5,5.4-3,8.8c1.4,3.2,3.7,4.7,10.4,7.1c1.4,0.5,18,6.3,19.6,4.9c2-0.3,2.7-2.6,3.7-3.3 c1.1,2.4,9.4,32.8,10.1,35.4c-1.2,0.6,0.2,1.8,1.2,2.6c4.8,3.6,54.2,8.4,53.6,0.9c-0.3-3.9-37.2-52.1-47.5-67.5 c4.2-9.8,19.9-74.4,30.4-88.6c4.9-6.5,34-16.4,51.1-12.8c4.4,0.9,13.8,3.8,14.7,4.1c0.3,0.4,0.8,0.9,1.4,1.6 c15.5,16.9,21.1,31.1,21.8,32.2c5,10.2,4.8,9.7,4.4,19c-0.5,13.8-2.2,15.4-4.1,30.7c-3.3,26.7-17.3,55.7-18.5,56.3 c-25.9-0.5-86.3-25-87.3-24.3c-1.9,1.3,12.2,7,14.4,7.9c51,20.7,69,19.1,71.5,20.3c-0.1,0.6-1.4,2.8-1.8,3.6 c-111.5,3.8-25.4,7.9,35,1.2l0.7-0.1c11.9-1.3,24.1-4.8,42-2.7c22.9,2.6,11.2,8.5,59.5,10.4c22.1,0.9,47.2,1.8,65.5,12.7 c12.9,7.6,9.8,13.3,10.6,17.1l-6.7,3.9c-14.8,8.6-14.1,7.3-16.2,11.3c-0.1,2.6-7.9,7.4,2.5,42.9c6.8,23.1,6.4,19.6,16.3,35.8 c6.2,10.2,15.1,16.5,24.4,17.2c4.5,0.3,5.9-0.4,12.5-6.5c4.7-4.3,5-4.4,5.4-3.9c3.4,4.4,29.6,128.7,10.4,218.1 c-7.8,36.8-24.8,97.7-27.3,102.4C659.9,629.9,659.7,630.9,660.1,631.6z M298.3,671.4c-0.1,0-2-0.1-4,0.5 c0.6-9.5-2.4-38.2,14.2-54.9c7.1-7.1,15.7-10.7,25.8-10.8c-12.9,5.6-17.1,7.7-17.2,8c-9.3,5.8-15.4,17.2-18,34 C298,655.2,298.3,667.1,298.3,671.4z M306.8,635.3c4.9-13.3,13.9-21,26.2-22.2c1,0-0.2,0.7,3,0.9c58.6,4.3,97.6,139.8,49.8,161.1 C344.3,793.5,286.3,691.2,306.8,635.3z M31.6,437.4c1.3,0.5,10.4,0.1,22.4,18.1C83,499.4,79.1,568.4,50.1,554 c-29.3-14.6-50.2-89.6-30-112c1.7-1.9,6.8-5,7.8-5c0.8,0.1,0,0,1.5,0.2C30,437.2,30.8,437.3,31.6,437.4z M663.4,312.8 c-3.2,1.5-7.6,0.6-13.4-2.8c-5.7-3.3-8-6.2-16.7-20.8c-5.6-9.4-5.7-11-10.1-25.7c-4.5-14.8-10.4-35.2,1.8-44.7 c15.7-12.1,71.2-31.3,87.8-27.4c0.6,0.3,8.4,1.7,11.8,8.2c1.5,3,2.4,8.7,1.8,12.4c-0.8,5.2-5,17.6-8.4,24 c-20.9,41.3-21.5,41.9-30.3,52.5C680.3,297.3,665.9,311.6,663.4,312.8z"></path> <path class="st1" d="M489,372.5c22.4-1.1,39.4-14.3,48-37.2c9.2-24.6,9.6-68.4,7.4-81.1c-2.8-15.7-9.2-24.8-19.4-27.8 c-9.2-2.8-22.8-1.2-36.3,4.1c-24.5,9.7-37.4,25-52.4,42.5c-10.2,11.8-16.9,19.7-9.9,43.7c4.2,14.4,9.9,34.2,28.3,45.1 C464.8,367.8,468.2,373.6,489,372.5z M462.2,361.9c-0.5-0.4-1.1-0.9-4.8-2.9c-15.3-8.7-21.6-23.2-25.9-37.5 c-7.1-23.5-6.9-31.3,12.3-53.4c16.7-19.3,45.4-38.3,70.9-38.3c12.7,0,21.1,5.2,24.5,23c1.5,8,2.9,55.2-6.9,81.7 c-3.5,9.1-6,12.8-14.2,20.7C501.4,371.1,477.5,372.1,462.2,361.9z"></path> <path class="st1" d="M652.2,432.7c1.5,4.5-0.6,7.4,1.1,8.8c0.3,0.3,0.7,0.5,1.1,0.4c1-0.2,3.9-3.6,2.2-8.6c-0.5-1.4-0.9-2.6,0.3-4 c1.4-1.9,2.4-4.9,1.9-6.2c-0.6-1.7-1.8-1.8-2.1-4c-0.2-2-1.8-2.3-3.5-1.1c-2.4,1.7-2,3.2-1.5,5.1 C653.3,428.7,650.8,428.3,652.2,432.7z"></path> <path class="st1" d="M503.5,702.6c-30.3,25.1-39.3,42.5-15.7,19.9c14.7-14.1,42.2-40.4,78.7-56.8 C597.1,652,548.6,665.3,503.5,702.6z"></path> <path class="st1" d="M633.1,501.5L633.1,501.5c-3.8,0-5.4,70.5-10.7,106.1c-8.5,55.3-21.6,69.9-15.3,69.9c2.1,0,3-3.1,8.2-18.7 c11.3-34,13.2-61.7,16.1-97.6c3.2-39.1,5.2-56.4,2.6-59.3C633.6,501.5,633.2,501.5,633.1,501.5z"></path> </g></g></svg>