<svg xmlns="http://www.w3.org/2000/svg" xmlns:xlink="http://www.w3.org/1999/xlink" id="Layer_1" x="0px" y="0px" viewBox="0 0 418.4 394.2" style="enable-background:new 0 0 418.4 394.2;" xml:space="preserve"><style type="text/css"> .st0{fill:#494949;}</style><path id="Travel_suitcases" class="st0" d="M208.9,376.2c1.1,2.2,3.2,3.8,5.7,4.3l0.2,0c0.6,0.1,1.3,0.2,1.9,0.2 c0.7,0,1.3-0.1,2-0.2l13,0l23.2-0.2l11.6-0.1l11.6-0.2c30.9-0.4,61.8-0.9,92.7-2c-24.5-0.8-49-1.4-73.4-1.7c3.7-1.7,6.2-5.4,6.2-9.7 c0-0.4,0-0.8-0.1-1.2l16.8-0.1l16.3-0.1l8.2-0.1l8.2-0.1c21.8-0.3,43.5-0.8,65.3-1.6c-21.8-0.9-43.5-1.3-65.3-1.6l-8.2-0.1l-8.2-0.1 l-6.8-0.1c3.2-1.8,5.5-5.2,5.5-9.2c0-1.8-0.5-3.5-1.3-5v-14.1c4.3-7,6.9-15.4,6.9-24.3v-53.1c2.5-5.9,4.3-20.1,4.3-36.8 c0-16.7-1.8-30.9-4.3-36.8v-69.8c0-14-11.1-25.6-25.1-26.1l-23.3-0.9l-0.4-57h0.2c1,0,1.8-0.8,1.8-1.8V7.8C294.1,0,276,0,260,0 s-28.9,1.6-28.9,5.8v20.6c0,1,0.8,1.8,1.7,1.8v48.7c-11.4,0.7-20.2,2.6-23.3,5.1l-8.7-0.3c-3.1-0.1-6.3,0.2-9.3,1.1l-4.9,1.4 l-0.1-10.1h0.2c0.9,0,1.7-0.8,1.7-1.7V55.2c0-7.2-16.7-7.2-31.5-7.2c-14.8,0-26.6,1.5-26.6,5.4v19c0,0.9,0.7,1.6,1.6,1.7v42.9 c-10.5,0.6-18.6,2.4-21.5,4.7l-8-0.3c-2.9-0.1-5.8,0.2-8.6,1l-21.7,6c-8.7,2.4-14.8,10.4-14.8,19.4v187.7c0,9.2,4.7,17.3,11.8,22.1 v2.6c-0.3,0-0.5,0-0.8,0c-5.4,0-9.8,4.4-9.8,9.8c0,2.5,0.9,4.7,2.4,6.4c-20.3,0.4-40.5,0.8-60.8,1.5c21.2,0.7,42.4,1.2,63.6,1.6 c-0.8-0.6-1.4-1.4-1.9-2.2c-1.6-2.8-2-6.3-0.9-9.3c1.2-3,3.9-5.5,7-6.2c1.6-0.4,3.2-0.4,4.7,0c1.5,0.4,3,1.2,4.1,2.2 c-2.5-1.8-5.8-2.2-8.6-1.4c-2.8,0.8-5.2,3-6.2,5.7c-1.1,2.7-0.8,5.9,0.6,8.5c0.5,1.1,1.3,2,2.2,2.7c0,0,0,0,0,0 c1.6,1.2,3.6,1.9,5.8,1.9c2.1,0,4-0.6,5.6-1.7c5.5,0.1,11.1,0.2,16.6,0.2l11.6,0.1l11.6,0.1l23.2,0.2l36.4,0.1 c-0.2,0.7-0.2,1.4-0.2,2.1c0,2.8,1.1,5.2,3,7c-13.7,0-27.4,0.2-41.1,0.4c-16.2,0.3-32.4,0.8-48.6,1.6c16.2,0.9,32.4,1.3,48.6,1.6 c15.6,0.3,31.2,0.5,46.7,0.5c-0.6-0.2-1.2-0.4-1.8-0.7c-1.4-0.8-2.6-1.9-3.4-3.3c-1.6-2.8-2-6.3-0.9-9.3c1.2-3,3.9-5.5,7-6.2 c1.6-0.4,3.2-0.4,4.7,0c1.5,0.4,3,1.2,4.1,2.2c-2.5-1.8-5.8-2.2-8.6-1.4c-2.8,0.8-5.2,3-6.2,5.7c-1.1,2.7-0.8,5.9,0.6,8.5 c1.1,2.2,3.2,3.8,5.7,4.4c0.1,0,0.2,0,0.2,0c0.7,0.1,1.4,0.2,2.1,0.2c0.7,0,1.4-0.1,2.1-0.2c14.9,0,29.9-0.2,44.8-0.5 c16.2-0.3,32.4-0.8,48.6-1.6c-16.2-0.9-32.4-1.3-48.6-1.6c-12.9-0.2-25.8-0.4-38.7-0.4c1-1.5,1.6-3.4,1.6-5.4c0-1.3-0.3-2.6-0.8-3.8 l17,0c-0.7-0.2-1.3-0.4-1.9-0.7c-1.4-0.7-2.5-1.9-3.4-3.2c-1.2-2-1.7-4.4-1.4-6.7c0.4-0.2,0.8-0.4,1.2-0.6 C207.4,371.6,207.8,374.1,208.9,376.2z M337.7,201.3c0.7,6.2,1,12.3,1,18.5c0,6.2-0.2,12.4-0.8,18.5c-0.6,6.1-1.5,12.3-3.1,18.3 c0.7-6.1,1-12.3,1.3-18.4c0.2-6.1,0.3-12.3,0.3-18.4c0-6.1-0.2-12.3-0.5-18.4c-0.4-6.1-0.8-12.2-2.2-18.2 C336,188.9,337,195.1,337.7,201.3z M74.7,376.4c-1.2,1.2-2.9,1.9-4.6,1.8c-1.7-0.1-3.3-0.9-4.2-2.2c1.3,0.9,2.7,1.4,4.2,1.3 c1.4-0.1,2.8-0.7,3.8-1.7c1-1,1.6-2.3,1.7-3.8c0.1-1.4-0.4-2.9-1.3-4.2c1.3,0.9,2.1,2.5,2.2,4.2C76.6,373.5,75.9,375.2,74.7,376.4z M191.6,389c-1.2,1.2-2.9,1.9-4.6,1.8c-1.7-0.1-3.3-0.9-4.2-2.2c1.3,0.9,2.7,1.4,4.2,1.3c1.4-0.1,2.8-0.7,3.8-1.7 c1-1,1.6-2.3,1.7-3.8c0.1-1.4-0.4-2.9-1.3-4.2c1.3,0.9,2.1,2.5,2.2,4.2C193.4,386.1,192.8,387.8,191.6,389z M220.9,375.7 c-1.2,1.2-2.9,1.8-4.5,1.7c-1.6-0.1-3.2-0.9-4.1-2.1c1.2,0.9,2.7,1.3,4.1,1.3c1.4-0.1,2.7-0.7,3.7-1.7c1-1,1.6-2.3,1.7-3.7 c0.1-1.4-0.3-2.9-1.3-4.1c1.3,0.9,2.1,2.5,2.1,4.1C222.7,372.8,222.1,374.5,220.9,375.7z M218.4,361.9c0.2-0.2,0.3-0.3,0.5-0.5 c1.5,0.4,2.8,1.1,3.9,2.2C221.5,362.7,219.9,362.1,218.4,361.9z M228.8,265.9c-0.5,5.7-1.4,11.4-2.9,16.8c0.7-5.7,0.9-11.3,1.1-17 c0.2-5.7,0.3-11.3,0.2-17c0-5.7-0.2-11.3-0.4-16.9c-0.4-5.6-0.7-11.3-1.9-16.8c2.1,5.3,3.1,11,3.7,16.7c0.7,5.7,0.9,11.4,1,17.1 C229.6,254.6,229.4,260.3,228.8,265.9z M287.3,354.7c-3.2,1-5.7,3.4-6.8,6.5l-25.4,0.1c-10,0.1-19.9,0.2-29.9,0.3v-8.2 c1.1-1.7,2-3.5,2.8-5.4L287.3,354.7z M297.6,371.6c-1.3,1.3-3.1,2-4.9,1.9c-1.8-0.1-3.5-1-4.5-2.3c1.4,1,3,1.5,4.5,1.4 c1.6-0.1,3.1-0.7,4.1-1.8c1.1-1.1,1.7-2.6,1.8-4.1c0.1-1.6-0.4-3.2-1.4-4.5c1.4,1,2.2,2.7,2.3,4.5 C299.6,368.5,298.8,370.3,297.6,371.6z M290.4,356.8c-3.1,0.9-5.6,3.3-6.7,6.2c-1.2,2.9-0.8,6.4,0.6,9.2c0.4,0.9,1,1.7,1.7,2.3 c0.7,0.6,1.5,1.2,2.3,1.6c0,0-0.1,0-0.1,0c1.2,0.6,2.5,1,3.9,1.1c-1.7,0.1-3.4-0.2-4.9-1c-0.1,0-0.1-0.1-0.2-0.1 c-3,0-5.9-0.1-8.9-0.1l-11.6-0.2l-11.6-0.1l-23.2-0.2l-6.5,0c0.7-1.3,1.1-2.9,1.1-4.5c0-1.7-0.4-3.2-1.2-4.6V365 c10,0.2,19.9,0.2,29.9,0.3l24.8,0.1c0.2,3.1,1.6,5.8,3.8,7.6c-0.1-0.1-0.1-0.2-0.2-0.3c-1.7-3-2.1-6.8-0.9-10.1 c1.3-3.3,4.2-5.9,7.6-6.7c1.7-0.4,3.5-0.4,5.1,0c1.7,0.4,3.2,1.2,4.4,2.4C297,356.4,293.5,355.9,290.4,356.8z M319.2,361.7 c-0.2-0.1-0.4-0.2-0.6-0.4l-16.2-0.1v-6.7c3.4-0.6,6.6-1.5,9.7-2.8c0.3,2.7,1.7,5,3.6,6.7c-0.1-0.1-0.1-0.2-0.2-0.2 c-1.3-2.2-1.8-4.8-1.5-7.3c0.4-0.2,0.8-0.4,1.2-0.6c-0.5,2.5-0.1,5.2,1.1,7.4c0.4,0.9,1,1.6,1.7,2.3c0.5,0.5,1.1,0.9,1.8,1.2l-0.1,0 c1.3,0.8,2.8,1.2,4.3,1.3C322.4,362.8,320.7,362.5,319.2,361.7z M327.2,341.8c1.6,0.4,3.1,1.2,4.3,2.3c-1.4-1-3.1-1.6-4.8-1.8 C326.8,342.2,327,342,327.2,341.8z M324.5,358.2c1.5-0.1,3-0.7,4-1.8c1.1-1.1,1.7-2.5,1.8-4c0.1-1.5-0.4-3.1-1.4-4.4 c1.3,1,2.2,2.7,2.3,4.4c0.1,1.8-0.6,3.6-1.9,4.9c-1.3,1.3-3.1,2-4.9,1.9c-1.8-0.1-3.5-0.9-4.4-2.3 C321.4,357.8,323,358.3,324.5,358.2z M291.1,85.2l-6.4-0.2l-0.4-56.7l1.2,0.2l0.8,52.5l0.7-52.3l3.7,0.6L291.1,85.2z M257,2.8 c5.6-0.2,11.2-0.2,16.9,0.2c2.8,0.2,5.6,0.5,8.4,1c1.4,0.3,2.8,0.6,4.2,1.1c0.7,0.3,1.3,0.5,2.1,1c0.7,0.6,1.1,1.5,1.1,2.3 c0.1,5.6,0.2,11.2,0.1,16.8c-0.6-5.6-1-11.2-1.4-16.8c0-0.6-0.3-1-0.7-1.3c-0.4-0.3-1.1-0.6-1.7-0.8c-1.3-0.4-2.6-0.7-4-1 c-2.7-0.5-5.5-0.7-8.3-0.9C268.2,4,262.6,4,257,3.9c-5.6-0.1-11.2-0.1-16.8,0C245.7,3.2,251.4,2.9,257,2.8z M283.3,84 c-4.1-3.7-18.9-6.8-36.7-7.3c-1.6,0-3.1-0.1-4.7-0.1V28.2c0.9-0.2,1.5-0.9,1.5-1.8l0.1-9.8c0-1.9,1.5-3.4,3.4-3.4l30.3,0 c2.3,0,4.2,1.9,4.2,4.1l0.1,9c0,0.8,0.6,1.5,1.3,1.7L283.3,84z M234.2,28.4l1,0.2l-0.1,44.2l1.6-44l4,0.6v47.3 c-2.2,0-4.3,0.1-6.4,0.2V28.4z M232.4,81.7c4.8-0.5,9.6-0.6,14.4-0.4c4.8,0.2,9.6,0.7,14.4,1.6c4.7,0.9,9.4,2.1,13.8,4.1 c-4.7-1.2-9.3-2-14.1-2.6c-4.7-0.5-9.5-1-14.2-1.1c-4.8-0.2-9.5-0.2-14.3,0c-2.4,0.1-4.8,0.2-7.1,0.4c-2.4,0.2-4.7,0.5-7.1,1 C222.7,82.8,227.6,82.2,232.4,81.7z M238,91.3l43.6,1.7c7.3,0.3,14.5,0.6,21.8,0.9c7.7,0.3,15.4,5.2,18.2,12.6 c1.5,3.7,1.6,7.7,1.6,11.3l0,10.9l0.1,21.8c-0.1,29.1-0.1,58.2-0.4,87.4l-0.4,43.7c-0.3,14.6-0.4,29.1-0.8,43.7 c-0.3-14.6-0.5-29.1-0.8-43.7l-0.4-43.7c-0.3-29.1-0.2-58.2-0.4-87.4l0.1-21.8l0-10.9c0.1-3.7-0.1-7.1-1.3-10.2 c-2.4-6.4-8.9-10.7-15.7-11c-7.3-0.4-14.5-0.8-21.8-1.2l-43.6-2.5c-14.5-1-29.1-1.8-43.6-2.9C208.9,90.3,223.4,90.9,238,91.3z M249.7,102.8l20.3,0.8c3.4,0.2,6.7,0.2,10.2,0.4c3.6,0.3,7.2,1.5,10.3,3.4c6.3,3.8,10.5,10.6,11.3,17.9c0.1,1.9,0.2,3.6,0.2,5.2 l0.1,5.1l0.1,10.1c0.3,27,0.4,54.1,0.4,81.1l-0.3,40.6c-0.2,13.5-0.3,27-0.7,40.6c-0.6-13.5-0.9-27-1.3-40.5l-0.9-40.5 c-0.5-27-0.8-54.1-0.9-81.1l-0.1-10.1l0-5.1c0-1.7,0-3.4-0.1-4.9c-0.6-6.2-4.1-12-9.4-15.3c-2.6-1.7-5.7-2.7-8.8-3 c-3.2-0.3-6.7-0.4-10-0.6l-20.2-1.2c-21-1.2-41.9-2.5-62.9-4l0-0.8C207.7,101.3,228.7,102,249.7,102.8z M185.6,124.7l-5.9-0.2 l-0.4-50.3l1,0.2l0.8,46.5l0.7-46.2l3.4,0.6L185.6,124.7z M154.1,50.6c5.2-0.2,10.4-0.2,15.6,0.1c2.6,0.2,5.2,0.5,7.8,0.9 c1.3,0.2,2.6,0.5,3.9,1c0.7,0.3,1.2,0.4,1.9,0.9c0.7,0.5,1.1,1.4,1,2.2c0.1,5.2,0.1,10.4,0,15.5c-0.6-5.2-0.9-10.3-1.3-15.5 c0-0.5-0.2-0.9-0.6-1.2c-0.3-0.2-1-0.5-1.6-0.7c-1.2-0.4-2.4-0.7-3.7-0.9c-2.5-0.4-5.1-0.6-7.6-0.8c-5.1-0.4-10.3-0.4-15.5-0.5 c-5.2-0.1-10.3-0.1-15.5-0.1C143.7,51,148.9,50.7,154.1,50.6z M178.2,100.5l0,0.4c-3.2-0.2-6.4-0.4-9.6-0.7 C171.8,100.3,175,100.4,178.2,100.5z M167.9,89.4c-9.5,2.6-16,11.2-16,21.1v6.8c-2.4-0.2-4.8-0.3-7.3-0.4c-1.5,0-2.9-0.1-4.3-0.1 V74.1c0.8-0.1,1.4-0.8,1.4-1.6l0.1-9c0-1.7,1.4-3.1,3.2-3.1l27.9,0c2.1,0,3.8,1.7,3.9,3.8l0.1,8.3c0,0.8,0.5,1.4,1.2,1.6l0.1,12.5 L167.9,89.4z M133.1,74.2l0.9,0.1l-0.1,38.8l1.5-38.6l3.6,0.6v41.6c-2,0-4,0.1-5.9,0.2V74.2z M131.4,121.4c4.4-0.4,8.9-0.5,13.3-0.4 c4.4,0.2,8.9,0.6,13.3,1.5c4.4,0.8,8.7,2,12.8,3.8c-4.3-1.1-8.6-1.8-13-2.3c-4.4-0.5-8.7-0.9-13.1-1c-4.4-0.2-8.8-0.2-13.2,0 c-4.4,0.2-8.8,0.3-13.1,1.3C122.5,122.5,127,121.9,131.4,121.4z M178.4,375.5l-39.3,0.1l-23.2,0.2l-11.6,0.1l-11.6,0.1 c-4.5,0.1-9,0.1-13.5,0.2c0.7-1.3,1.1-2.9,1.1-4.5c0-1.7-0.4-3.3-1.2-4.7v-5.2c0.6,0.1,1.1,0.2,1.7,0.2l9.1,1c0.8,1,1.9,1.8,3,2.4 c1.7,1.6,3.9,2.5,6.4,2.5c2.8,0,5.2-1.2,6.9-3.1l75.9,8.5C180.7,373.8,179.5,374.6,178.4,375.5z M184.9,167.8l-2.3,134.1l-3.9-85.7 c-5.4,17-14.2,27.5-26.5,33.8c0-7.2-0.1-14.3-0.2-21.5c-0.2-9.6-0.5-19.2-0.8-28.8l2.3-7.6c0.8-2.6,1.5-5.3,2.3-8 c0.8-2.7,1.5-5.3,2.2-8c0.7-2.7,1.4-5.3,2.1-8c-1.1,2.5-2.2,5.1-3.3,7.6c-1.1,2.5-2.1,5.1-3.2,7.7c-1,2.6-2.1,5.1-3.1,7.7l-3,7.7 l-0.1,0.2l0,0.4c-0.4,9.7-0.7,19.3-0.8,29c-0.2,9.7-0.2,19.3-0.2,29c0,9.7,0.1,19.3,0.3,29l0.1,5.1l0,0.5l-0.2,7.2 c-0.1,4.7-0.3,9.5-0.5,14.2l2.3,6.5l2.3,6.9c0.8,2.3,1.5,4.6,2.3,7c0.7,2.3,1.5,4.6,2.2,7c-1.1-2.2-2.2-4.4-3.2-6.6 c-1-2.2-2.1-4.4-3.1-6.6l-3.1-6.6l-3-6.7l-0.1-0.2l0-0.4c-0.2-4.8-0.4-9.7-0.5-14.5l-0.2-7.2l-0.2-7.2c-0.2-9.7-0.3-19.3-0.3-29 c0-0.5,0-1,0-1.5c-11.8,3.5-26,4.5-42.7,4.4c0-2,0-4.1,0-6.1c0-9.7,0-19.4-0.2-29.2c-0.2-9.7-0.5-19.4-0.8-29.2l0-0.3l0-0.1 l-2.1-7.5c-0.7-2.5-1.5-5-2.2-7.4c-0.7-2.5-1.5-5-2.3-7.4c-0.8-2.5-1.6-4.9-2.4-7.4c0.4,2.6,0.8,5.1,1.2,7.7 c0.4,2.6,0.8,5.1,1.3,7.7c0.5,2.5,0.9,5.1,1.4,7.6l1.4,7.3c-0.4,9.7-0.7,19.4-0.8,29c-0.2,9.7-0.2,19.4-0.2,29.2 c0,9.7,0.1,19.4,0.3,29.2c0.1,4.9,0.2,9.7,0.4,14.6l0.1,3.9l-0.1,4.2l-0.3,7.3l0,0.3l-0.1,0.2c-1.4,3.9-2.8,7.8-4.3,11.7 c-1.5,3.9-3,7.8-4.5,11.6c0.8-4.1,1.7-8.1,2.7-12.2c0.9-3.9,1.9-7.9,2.9-11.8l-0.3-7.1l-0.2-7.3c-0.2-4.9-0.3-9.7-0.4-14.6 c-0.2-8-0.3-16-0.3-24.1c-5.6-0.2-11.5-0.4-17.7-0.7l-5.5,39.3l0.3-41.1c0-54.3,0-96.7,0-96.7c0-6.6,5.6-11.9,12.2-11.5l94.5,5.2 c7.1,0.3,12.6,6.6,12.6,13.2C184.9,166.8,184.9,167.3,184.9,167.8L184.9,167.8z M195.1,330.2c-0.6-12.5-0.9-24.9-1.3-37.4l-0.9-37.4 c-0.4-24.9-0.8-49.9-0.9-74.8l0-9.4l0-4.7c0-1.6,0-3.1-0.1-4.5c-0.5-5.7-3.8-11-8.6-14c-2.4-1.6-5.2-2.5-8-2.8 c-2.9-0.3-6.2-0.4-9.3-0.6l-18.7-1.1c-24.9-1.5-49.8-3.1-74.7-4.9c24.9,0.6,49.9,1.4,74.8,2.3l18.7,0.7c3.2,0.1,6.2,0.2,9.4,0.4 c3.3,0.3,6.7,1.3,9.5,3.1c5.8,3.5,9.8,9.8,10.5,16.6c0.1,1.7,0.2,3.3,0.2,4.8l0,4.7l0.1,9.4c0.3,24.9,0.4,49.9,0.3,74.8l-0.3,37.4 C195.6,305.2,195.4,317.7,195.1,330.2z M207,375.6l-11.1,0v-2.3c3.1-0.5,6.1-1.4,9-2.6C205.2,372.5,205.9,374.2,207,375.6z M196.8,135.3c-6.7-0.3-13.4-0.7-20.1-1.1l-40.2-2.4c-13.4-0.9-26.8-1.7-40.2-2.7c13.4,0.3,26.9,0.8,40.3,1.2l40.3,1.5 c6.7,0.2,13.4,0.5,20.1,0.8c7.2,0.3,14.2,4.8,16.9,11.7c1.4,3.4,1.5,7.1,1.5,10.4l0,10.1l0.1,20.1c-0.1,26.9-0.1,53.7-0.4,80.6 l-0.4,40.3c-0.3,13.4-0.4,26.9-0.8,40.3c-0.3-13.4-0.5-26.9-0.8-40.3l-0.4-40.3c-0.3-26.9-0.2-53.7-0.4-80.6l0.1-20.1l0-10.1 c0.1-3.4-0.1-6.5-1.2-9.4C209,139.5,203.1,135.6,196.8,135.3z"></path></svg>