<svg xmlns="http://www.w3.org/2000/svg" xmlns:xlink="http://www.w3.org/1999/xlink" id="Layer_1" x="0px" y="0px" viewBox="0 0 297.5 205.3" style="enable-background:new 0 0 297.5 205.3;" xml:space="preserve"><style type="text/css"> .st0{fill:#494949;}</style><path id="Handshake" class="st0" d="M202.9,114.1c0.3-0.5,0.7-1,1-1.4c0.3-0.5,0.7-0.9,1.1-1.3c0.4-0.4,0.7-0.7,1.1-1 c0.4-0.3,0.7-0.6,1-0.8c0.3-0.2,0.6-0.4,0.8-0.5c0.2-0.1,0.4-0.2,0.6-0.3c0.1-0.1,0.2-0.1,0.2-0.1s0,0.1-0.1,0.2 c-0.1,0.1-0.2,0.3-0.3,0.5c-0.2,0.2-0.3,0.5-0.5,0.8c-0.2,0.3-0.4,0.7-0.6,1c-0.2,0.4-0.5,0.8-0.7,1.2c-0.2,0.4-0.5,0.9-0.8,1.3 c-0.1,0.2-0.3,0.5-0.4,0.7c-0.1,0.2-0.3,0.5-0.4,0.7c-0.1,0.2-0.3,0.5-0.4,0.7c-0.1,0.3-0.3,0.5-0.4,0.8c-0.3,0.5-0.5,1-0.8,1.5 c-0.1,0.3-0.2,0.5-0.4,0.7c-0.1,0.2-0.2,0.5-0.3,0.7c-0.1,0.2-0.2,0.5-0.3,0.7c-0.1,0.2-0.2,0.5-0.3,0.7c-0.1,0.2-0.2,0.4-0.3,0.7 c-0.1,0.2-0.2,0.4-0.2,0.6c-0.1,0.4-0.3,0.8-0.4,1.1c0,0.2-0.1,0.3-0.1,0.5c-0.1,0.1-0.1,0.3-0.1,0.4c0,0.3-0.1,0.5-0.1,0.6 c0,0.1-0.1,0.2-0.1,0.2s0-0.1-0.1-0.2c0-0.1-0.1-0.3-0.2-0.6c-0.1-0.3-0.1-0.6-0.2-1c-0.1-0.4-0.1-0.8-0.1-1.3c0-0.5,0.1-1,0.1-1.5 c0.1-0.5,0.2-1.1,0.4-1.6c0.2-0.6,0.3-1.1,0.6-1.7c0.2-0.6,0.5-1.1,0.8-1.7C202.2,115.1,202.5,114.6,202.9,114.1z M209.2,125.8 c-0.2,0.3-0.3,0.6-0.4,0.8c-0.1,0.2-0.2,0.4-0.3,0.6c-0.1,0.1-0.1,0.2-0.1,0.2s0.1,0,0.2-0.1c0.1-0.1,0.3-0.2,0.5-0.3 c0.2-0.2,0.5-0.4,0.8-0.6c0.3-0.3,0.6-0.6,0.9-0.9c0.3-0.3,0.6-0.7,0.9-1.2c0.3-0.4,0.6-0.9,0.9-1.4c0.3-0.5,0.6-1,0.8-1.6 c0.3-0.5,0.5-1.1,0.7-1.7c0.2-0.6,0.4-1.2,0.5-1.7c0.2-0.6,0.3-1.2,0.4-1.7c0.1-0.6,0.1-1.1,0.2-1.7c0-0.5,0-1,0-1.5 c-0.1-0.5-0.1-0.9-0.2-1.3c-0.1-0.4-0.2-0.7-0.3-0.9c-0.1-0.3-0.2-0.4-0.3-0.6c-0.1-0.1-0.1-0.2-0.1-0.2s0,0.1,0,0.2 c0,0.1,0,0.4-0.1,0.6c0,0.1,0,0.3-0.1,0.4c0,0.2-0.1,0.3-0.1,0.5c0,0.3-0.1,0.7-0.2,1.2c0,0.2-0.1,0.4-0.2,0.6 c-0.1,0.2-0.1,0.5-0.2,0.7c-0.1,0.2-0.1,0.5-0.2,0.7c-0.1,0.2-0.1,0.5-0.2,0.7c-0.1,0.3-0.2,0.5-0.2,0.8c-0.1,0.3-0.2,0.5-0.3,0.8 c-0.2,0.5-0.4,1.1-0.6,1.6c-0.1,0.3-0.2,0.5-0.3,0.8c-0.1,0.3-0.2,0.5-0.3,0.8c-0.1,0.3-0.2,0.5-0.3,0.8c-0.1,0.3-0.2,0.5-0.3,0.8 c-0.2,0.5-0.4,1-0.6,1.4c-0.2,0.5-0.4,0.9-0.6,1.3C209.5,125.1,209.3,125.5,209.2,125.8z M207.9,116.4c-0.2,0.4-0.5,0.8-0.7,1.2 c-0.2,0.4-0.5,0.8-0.7,1.3c-0.2,0.4-0.5,0.9-0.7,1.4c-0.2,0.5-0.4,1-0.6,1.5c-0.2,0.5-0.3,1-0.5,1.5c-0.1,0.2-0.1,0.5-0.2,0.7 c0,0.2-0.1,0.5-0.1,0.7c0,0.5-0.1,0.9,0,1.4c0,0.2,0,0.4,0.1,0.6c0,0.2,0.1,0.4,0.1,0.5c0.1,0.3,0.2,0.6,0.3,0.8 c0.1,0.2,0.2,0.4,0.3,0.5c0.1,0.1,0.1,0.2,0.1,0.2s0-0.1,0-0.2c0-0.1,0-0.3,0.1-0.5c0-0.2,0.1-0.5,0.1-0.8c0-0.2,0-0.3,0.1-0.5 c0-0.2,0.1-0.3,0.1-0.5c0-0.1,0-0.2,0.1-0.3c0-0.1,0.1-0.2,0.1-0.3c0.1-0.2,0.1-0.4,0.2-0.6c0.1-0.2,0.2-0.4,0.2-0.6 c0-0.1,0.1-0.2,0.1-0.3c0-0.1,0.1-0.2,0.1-0.3c0.1-0.2,0.2-0.4,0.3-0.6c0.1-0.2,0.2-0.4,0.3-0.7c0.2-0.4,0.4-0.9,0.6-1.4 c0.2-0.5,0.4-0.9,0.6-1.4c0.2-0.5,0.4-0.9,0.6-1.4c0.2-0.5,0.3-0.9,0.4-1.4c0.1-0.2,0.1-0.4,0.2-0.6c0-0.2,0.1-0.4,0.1-0.6 c0-0.2,0.1-0.4,0.1-0.6c0-0.2,0-0.4,0.1-0.5c0-0.3,0-0.6,0-0.9c0-0.2,0-0.4,0-0.5c0-0.1,0-0.2,0-0.2s0,0.1-0.1,0.2 c-0.1,0.1-0.2,0.3-0.3,0.5c-0.1,0.2-0.3,0.5-0.4,0.7c-0.2,0.3-0.3,0.6-0.5,0.9C208.4,115.7,208.2,116.1,207.9,116.4z M210.4,153.6 c-0.2,0.4-0.4,0.9-0.6,1.3c-0.2,0.4-0.4,0.8-0.6,1.2c-0.2,0.4-0.4,0.7-0.5,1c-0.2,0.3-0.4,0.6-0.5,0.8c-0.2,0.2-0.3,0.4-0.5,0.5 c-0.2,0.1-0.3,0.2-0.4,0.2c-0.1,0-0.2,0-0.2,0s0,0,0.2,0.1c0.1,0.1,0.3,0.1,0.6,0.1c0.3,0,0.6-0.1,0.9-0.3c0.3-0.2,0.6-0.4,1-0.6 c0.6-0.5,1.3-1.2,1.9-2c0.3-0.4,0.6-0.8,0.8-1.3c0.2-0.5,0.5-0.9,0.7-1.4c0.4-1,0.7-2,0.9-2.9c0.1-0.5,0.2-0.9,0.2-1.4 c0-0.4,0.1-0.9,0.1-1.3c0-0.8,0-1.4-0.1-1.9c0-0.2-0.1-0.4-0.1-0.5c0-0.1,0-0.2,0-0.2s0,0.1-0.1,0.2c-0.1,0.1-0.1,0.3-0.2,0.5 c-0.1,0.2-0.2,0.5-0.3,0.7c-0.1,0.3-0.3,0.6-0.4,0.9c-0.3,0.7-0.6,1.5-0.9,2.3c-0.2,0.4-0.3,0.9-0.5,1.3c-0.2,0.4-0.4,0.9-0.6,1.3 C210.8,152.8,210.6,153.2,210.4,153.6z M208.1,145.4c-0.3,0.4-0.5,0.8-0.7,1.2c-0.2,0.4-0.4,0.9-0.6,1.3c-0.2,0.4-0.3,0.9-0.5,1.4 c-0.1,0.5-0.3,0.9-0.4,1.3c-0.1,0.4-0.2,0.8-0.3,1.3c-0.1,0.4-0.2,0.8-0.3,1.1c-0.1,0.2-0.1,0.3-0.2,0.5c-0.1,0.2-0.1,0.3-0.2,0.5 c-0.1,0.3-0.3,0.6-0.4,0.8c-0.1,0.2-0.3,0.4-0.4,0.6c-0.1,0.2-0.2,0.3-0.3,0.4c-0.1,0.1-0.1,0.1-0.1,0.1s0.1,0,0.2,0 c0.1,0,0.3,0,0.5-0.1c0.2-0.1,0.5-0.2,0.8-0.3c0.3-0.2,0.6-0.4,0.9-0.6c0.3-0.3,0.6-0.6,0.8-1c0.3-0.4,0.5-0.8,0.7-1.2 c0.2-0.4,0.4-0.9,0.6-1.3c0.2-0.4,0.3-0.9,0.5-1.4c0.2-0.9,0.5-1.7,0.7-2.6c0.2-0.8,0.5-1.5,0.8-2c0.1-0.3,0.3-0.5,0.5-0.7 c0.2-0.2,0.3-0.4,0.5-0.5c0.1-0.1,0.3-0.2,0.4-0.3c0.1-0.1,0.1-0.1,0.1-0.1s-0.1,0-0.2,0c-0.1,0-0.3,0-0.5,0c-0.2,0-0.5,0.1-0.8,0.2 c-0.3,0.1-0.6,0.3-1,0.6C208.7,144.7,208.4,145.1,208.1,145.4z M199.3,154.2c0.1-0.1,0.2-0.3,0.3-0.5c0.3-0.4,0.7-1.1,1.1-1.8 c0.2-0.4,0.5-0.8,0.7-1.2c0.2-0.4,0.5-0.9,0.8-1.4c0.5-0.9,1.1-1.9,1.7-2.9c0.3-0.5,0.6-1,0.9-1.5c0.3-0.5,0.6-0.9,0.8-1.4 c0.3-0.4,0.6-0.9,0.8-1.2c0.3-0.4,0.6-0.7,0.8-1.1c0.3-0.3,0.5-0.6,0.8-0.8c0.2-0.2,0.5-0.4,0.7-0.5c0.1-0.1,0.2-0.1,0.3-0.2 c0.1,0,0.2-0.1,0.2-0.1c0.1-0.1,0.2-0.1,0.2-0.1s-0.1,0-0.2,0c-0.1,0-0.2,0-0.3,0c-0.1,0-0.2,0-0.4,0c-0.3,0-0.6,0.1-1,0.2 c-0.2,0.1-0.4,0.2-0.6,0.2c-0.2,0.1-0.4,0.2-0.6,0.3c-0.4,0.3-0.8,0.6-1.2,0.9c-0.4,0.4-0.8,0.8-1.2,1.2c-0.4,0.4-0.7,0.9-1.1,1.4 c-0.4,0.5-0.7,1-1,1.5c-0.3,0.5-0.6,1.1-0.8,1.6c-0.3,0.5-0.5,1.1-0.7,1.6c-0.4,1.1-0.7,2.1-0.9,2.9c-0.1,0.4-0.2,0.9-0.2,1.2 c-0.1,0.4-0.1,0.7-0.1,1c0,0.5,0,0.8,0,0.8S199.2,154.4,199.3,154.2z M190.9,174.5c-0.2,0.3-0.4,0.6-0.6,1c-0.2,0.3-0.4,0.5-0.6,0.8 c-0.2,0.2-0.3,0.4-0.5,0.6c-0.3,0.3-0.5,0.5-0.5,0.5s0.2,0,0.7-0.2c0.2-0.1,0.5-0.2,0.7-0.3c0.3-0.2,0.6-0.4,0.9-0.6 c0.3-0.2,0.6-0.5,0.9-0.8c0.3-0.3,0.6-0.6,0.9-1c0.3-0.4,0.6-0.7,0.9-1.1c0.3-0.4,0.5-0.8,0.8-1.2c0.2-0.4,0.5-0.8,0.7-1.3 c0.2-0.4,0.4-0.9,0.6-1.3c0.4-0.8,0.7-1.6,0.9-2.3c0.2-0.7,0.4-1.3,0.4-1.7c0.1-0.4,0.1-0.7,0.1-0.7s-0.2,0.2-0.4,0.5 c-0.3,0.3-0.7,0.8-1.1,1.4c-0.9,1.2-1.9,2.8-2.9,4.4c-0.5,0.8-1,1.6-1.4,2.4C191.3,173.8,191.1,174.1,190.9,174.5z M188.2,167.7 c-0.7,1.4-1.2,2.8-1.6,3.8c-0.2,0.5-0.4,0.9-0.6,1.2c-0.1,0.1-0.2,0.3-0.2,0.3c-0.1,0.1-0.1,0.1-0.1,0.1s0.1,0,0.1,0 c0.1,0,0.2-0.1,0.4-0.2c0.2-0.1,0.4-0.2,0.6-0.3c0.2-0.2,0.4-0.3,0.6-0.6c0.4-0.4,0.9-1,1.3-1.6c0.2-0.3,0.4-0.6,0.6-1 c0.2-0.3,0.4-0.7,0.5-1c0.7-1.4,1.2-2.7,1.7-3.7c0.1-0.2,0.2-0.5,0.4-0.7c0.1-0.2,0.2-0.4,0.3-0.5c0.1-0.1,0.1-0.1,0.1-0.2 c0-0.1,0.1-0.1,0.1-0.1c0.1-0.1,0.1-0.1,0.1-0.1s-0.1,0-0.1,0c-0.1,0-0.2,0-0.4,0.1c-0.2,0.1-0.4,0.1-0.6,0.3 c-0.2,0.1-0.5,0.3-0.7,0.5c-0.2,0.2-0.5,0.4-0.7,0.7c-0.2,0.3-0.5,0.6-0.7,0.9c-0.2,0.3-0.4,0.6-0.6,1 C188.6,167,188.4,167.3,188.2,167.7z M180.7,173c0,0.1,0.1,0.2,0.1,0.2s0-0.1,0.1-0.2c0-0.1,0.1-0.3,0.2-0.5 c0.2-0.4,0.5-0.9,0.9-1.5c0.7-1.2,1.7-2.8,2.7-4.5c0.5-0.8,1-1.6,1.5-2.4c0.5-0.7,0.9-1.4,1.3-2c0.4-0.6,0.8-1,1.1-1.3 c0.1-0.1,0.3-0.3,0.4-0.3c0.1-0.1,0.1-0.1,0.1-0.1s-0.1,0-0.2,0c-0.1,0-0.3,0-0.5,0.1c-0.2,0.1-0.5,0.2-0.8,0.3 c-0.3,0.1-0.6,0.3-0.9,0.6c-0.3,0.2-0.6,0.5-1,0.8c-0.3,0.3-0.6,0.6-1,1c-0.3,0.4-0.6,0.7-0.9,1.1c-0.3,0.4-0.6,0.8-0.8,1.2 c-1.1,1.7-1.8,3.6-2.2,5c-0.2,0.7-0.2,1.4-0.2,1.8C180.7,172.7,180.7,172.9,180.7,173z M167.3,185.7c-0.2,0.2-0.2,0.3-0.2,0.3 s0.1,0,0.4-0.1c0.1,0,0.3-0.1,0.4-0.1c0.2-0.1,0.4-0.2,0.5-0.3c0.2-0.1,0.4-0.3,0.6-0.4c0.2-0.2,0.4-0.4,0.6-0.6 c0.2-0.2,0.3-0.4,0.5-0.7c0.2-0.2,0.3-0.5,0.4-0.8c0.1-0.3,0.2-0.5,0.3-0.8c0.1-0.3,0.2-0.5,0.2-0.8c0.1-0.5,0.1-1,0.1-1.5 c0-0.4,0-0.8-0.1-1c0-0.2-0.1-0.4-0.1-0.4s-0.1,0.1-0.2,0.4c-0.1,0.1-0.1,0.2-0.2,0.4c-0.1,0.2-0.2,0.3-0.2,0.5 c-0.3,0.7-0.8,1.7-1.2,2.6c-0.1,0.2-0.2,0.5-0.3,0.7c-0.1,0.2-0.2,0.4-0.3,0.7c-0.1,0.2-0.2,0.4-0.3,0.6c-0.1,0.2-0.2,0.4-0.3,0.5 c-0.1,0.2-0.2,0.3-0.3,0.5C167.5,185.5,167.4,185.6,167.3,185.7z M163.3,183.7c0.1-0.1,0.3-0.1,0.5-0.2c0.2-0.1,0.4-0.2,0.5-0.4 c0.7-0.6,1.5-1.6,2.1-2.6c0.3-0.5,0.5-1.1,0.8-1.6c0.2-0.5,0.4-1,0.5-1.5c0.1-0.4,0.2-0.8,0.2-1.1c0-0.3,0-0.4,0-0.4 s-0.1,0.1-0.3,0.3c-0.2,0.2-0.4,0.5-0.7,0.8c-0.3,0.4-0.6,0.8-0.9,1.2c-0.3,0.5-0.6,0.9-0.9,1.4c-0.1,0.3-0.3,0.5-0.4,0.7 c-0.1,0.2-0.3,0.5-0.4,0.7c-0.1,0.2-0.2,0.5-0.3,0.7c-0.1,0.2-0.2,0.4-0.3,0.6c-0.1,0.2-0.2,0.4-0.3,0.5c-0.1,0.2-0.2,0.3-0.2,0.4 c-0.1,0.1-0.1,0.2-0.2,0.2c0,0.1-0.1,0.1-0.1,0.1s0,0,0.1,0C163,183.8,163.2,183.8,163.3,183.7z M159.5,182.1c0,0,0.1-0.1,0.3-0.2 c0.2-0.1,0.3-0.3,0.5-0.5c0.4-0.5,0.8-1.1,1.1-1.8c0.1-0.2,0.2-0.3,0.2-0.5c0.1-0.2,0.1-0.3,0.2-0.5c0.1-0.3,0.2-0.6,0.3-0.9 c0-0.1,0.1-0.3,0.1-0.4c0-0.1,0.1-0.2,0.1-0.3c0-0.2,0-0.3,0-0.3s-0.1,0-0.3,0.1c-0.1,0-0.2,0.1-0.3,0.2c-0.1,0.1-0.2,0.2-0.4,0.3 c-0.2,0.2-0.5,0.5-0.7,0.8c-0.2,0.3-0.4,0.7-0.6,1c-0.3,0.7-0.5,1.5-0.6,2.1c0,0.3,0,0.6,0,0.8C159.5,182,159.5,182.1,159.5,182.1z M162.8,120.4c-0.1,0-0.2,0.1-0.4,0.2c-0.1,0.1-0.3,0.2-0.4,0.3c-0.3,0.2-0.5,0.5-0.8,0.9c-0.2,0.4-0.5,0.8-0.7,1.2 c-0.2,0.4-0.3,0.9-0.5,1.4c-0.1,0.5-0.2,1-0.3,1.5c-0.1,0.5-0.2,1-0.3,1.5c-0.1,0.5-0.2,1-0.3,1.4c-0.1,0.2-0.1,0.5-0.2,0.7 c-0.1,0.2-0.1,0.4-0.2,0.6c-0.1,0.4-0.3,0.8-0.4,1.2c-0.2,0.4-0.3,0.7-0.5,1c-0.2,0.3-0.4,0.6-0.5,0.8c-0.2,0.3-0.3,0.5-0.5,0.6 c-0.3,0.4-0.5,0.6-0.5,0.6s0.1,0,0.2,0c0.1,0,0.3-0.1,0.5-0.2c0.2-0.1,0.5-0.2,0.8-0.4c0.1-0.1,0.3-0.2,0.5-0.3 c0.2-0.1,0.3-0.2,0.5-0.4c0.2-0.1,0.3-0.3,0.5-0.5c0.2-0.2,0.3-0.3,0.5-0.5c0.3-0.4,0.6-0.8,0.8-1.3c0.2-0.5,0.5-1,0.6-1.5 c0.2-0.5,0.3-1.1,0.4-1.6c0.1-0.5,0.2-1.1,0.2-1.6c0.1-0.5,0.1-1,0.1-1.5c0-0.5,0.1-0.9,0.1-1.3c0-0.4,0.1-0.8,0.2-1.1 c0.1-0.3,0.2-0.6,0.3-0.9c0-0.1,0.1-0.1,0.1-0.2c0-0.1,0.1-0.1,0.1-0.2c0.1-0.1,0.1-0.2,0.2-0.3c0.1-0.2,0.2-0.3,0.3-0.4 c0.1-0.1,0.1-0.2,0.1-0.2s-0.1,0-0.2,0C163.3,120.3,163.1,120.3,162.8,120.4z M157.3,128.3c0.1-0.3,0.2-0.6,0.3-0.9 c0.1-0.3,0.2-0.6,0.2-0.9c0.1-0.6,0.2-1.2,0.2-1.6c0-0.2,0-0.5,0-0.7c0-0.2,0-0.4-0.1-0.5c0-0.3-0.1-0.4-0.1-0.4s-0.1,0.1-0.2,0.4 c-0.1,0.3-0.3,0.6-0.5,1c-0.2,0.4-0.4,0.9-0.6,1.5c-0.2,0.5-0.4,1.1-0.7,1.6c-0.1,0.3-0.2,0.6-0.3,0.8c-0.1,0.3-0.2,0.5-0.3,0.8 c-0.1,0.2-0.2,0.5-0.3,0.7c-0.1,0.1-0.1,0.2-0.2,0.3c-0.1,0.1-0.1,0.2-0.2,0.3c-0.1,0.2-0.2,0.4-0.3,0.5c-0.1,0.2-0.2,0.3-0.3,0.4 c-0.2,0.2-0.3,0.3-0.3,0.3s0.2,0,0.5-0.1c0.1-0.1,0.3-0.1,0.5-0.2c0.2-0.1,0.4-0.2,0.6-0.4c0.1-0.1,0.2-0.2,0.3-0.3 c0.1-0.1,0.2-0.2,0.3-0.3c0.2-0.2,0.4-0.5,0.5-0.7c0.2-0.3,0.3-0.5,0.5-0.8C157.1,128.9,157.2,128.6,157.3,128.3z M147.1,147.1 c-0.2,0.1-0.4,0.1-0.6,0.3c-0.2,0.1-0.5,0.3-0.7,0.5c-0.2,0.2-0.5,0.4-0.7,0.7c-0.2,0.3-0.5,0.6-0.7,0.9c-0.2,0.3-0.4,0.6-0.6,1 c-0.2,0.3-0.4,0.7-0.6,1c-0.7,1.4-1.2,2.8-1.6,3.8c-0.2,0.5-0.4,0.9-0.6,1.2c-0.1,0.1-0.2,0.3-0.2,0.3c-0.1,0.1-0.1,0.1-0.1,0.1 s0.1,0,0.1,0c0.1,0,0.2-0.1,0.4-0.2c0.2-0.1,0.4-0.2,0.6-0.3c0.2-0.2,0.4-0.3,0.6-0.6c0.4-0.4,0.9-1,1.3-1.6c0.2-0.3,0.4-0.6,0.6-1 c0.2-0.3,0.4-0.7,0.5-1c0.7-1.4,1.2-2.7,1.7-3.7c0.1-0.2,0.2-0.5,0.4-0.7c0.1-0.2,0.2-0.4,0.3-0.5c0.1-0.1,0.1-0.1,0.1-0.2 c0-0.1,0.1-0.1,0.1-0.1c0.1-0.1,0.1-0.1,0.1-0.1s-0.1,0-0.1,0C147.4,147,147.2,147,147.1,147.1z M141.2,152.4 c0.2-0.3,0.5-0.6,0.7-0.9c0.2-0.4,0.5-0.7,0.7-1.1c0.2-0.4,0.4-0.8,0.6-1.2c0.2-0.4,0.3-0.8,0.4-1.1c0.1-0.2,0.1-0.3,0.1-0.5 c0-0.1,0.1-0.3,0.1-0.4c0.1-0.2,0.1-0.3,0.1-0.3s-0.1,0-0.3,0.2c-0.2,0.1-0.5,0.3-0.7,0.5c-0.6,0.5-1.1,1.2-1.6,2 c-0.4,0.8-0.7,1.7-0.9,2.4c-0.1,0.3-0.1,0.6-0.1,0.9c0,0.2,0,0.3,0,0.3s0.1-0.1,0.3-0.2C140.8,152.9,141,152.7,141.2,152.4z M130.7,163c0-0.3-0.1-0.4-0.1-0.4s-0.1,0.1-0.2,0.4c-0.1,0.1-0.1,0.3-0.2,0.4c-0.1,0.2-0.2,0.4-0.3,0.6c-0.2,0.4-0.4,0.9-0.7,1.4 c-0.1,0.2-0.3,0.5-0.4,0.8c-0.1,0.3-0.3,0.5-0.4,0.8c-0.3,0.5-0.5,1-0.8,1.5c-0.1,0.2-0.3,0.5-0.4,0.7c-0.1,0.2-0.2,0.4-0.4,0.6 c-0.1,0.2-0.2,0.4-0.3,0.5c-0.1,0.1-0.2,0.3-0.3,0.4c-0.2,0.2-0.3,0.3-0.3,0.3s0.2,0,0.4-0.1c0.1,0,0.3-0.1,0.5-0.2 c0.2-0.1,0.4-0.2,0.6-0.3c0.2-0.1,0.4-0.3,0.6-0.5c0.2-0.2,0.4-0.4,0.6-0.6c0.2-0.2,0.4-0.5,0.6-0.8c0.2-0.3,0.3-0.5,0.5-0.8 c0.1-0.3,0.3-0.6,0.4-0.9c0.1-0.3,0.2-0.6,0.3-0.9c0.1-0.3,0.1-0.6,0.2-0.8c0.1-0.3,0.1-0.5,0.1-0.8c0-0.2,0-0.5,0-0.7 C130.8,163.3,130.8,163.1,130.7,163z M128,164.2c0.1-0.3,0.1-0.5,0.2-0.7c0-0.2,0-0.3,0-0.3s-0.1,0-0.3,0.1 c-0.2,0.1-0.4,0.2-0.7,0.4c-0.2,0.2-0.5,0.4-0.8,0.7c-0.2,0.3-0.5,0.6-0.7,1c-0.1,0.2-0.2,0.3-0.3,0.5c-0.1,0.2-0.1,0.4-0.2,0.5 c-0.1,0.4-0.2,0.7-0.2,1c0,0.3-0.1,0.6-0.1,0.7c0,0.2,0,0.3,0,0.3s0.1-0.1,0.3-0.2c0.2-0.1,0.4-0.3,0.6-0.5c0.4-0.4,0.9-1,1.2-1.7 C127.5,165.4,127.8,164.7,128,164.2z M167,94.8c-0.2,0-0.5,0.1-0.8,0.2c-0.3,0.1-0.6,0.3-1,0.6c-0.3,0.3-0.6,0.6-0.9,0.9 c-0.3,0.4-0.5,0.8-0.7,1.2c-0.2,0.4-0.4,0.9-0.6,1.3c-0.2,0.4-0.3,0.9-0.5,1.4c-0.1,0.5-0.3,0.9-0.4,1.3c-0.1,0.4-0.2,0.8-0.3,1.3 c-0.1,0.4-0.2,0.8-0.3,1.1c-0.1,0.2-0.1,0.3-0.2,0.5c-0.1,0.2-0.1,0.3-0.2,0.5c-0.1,0.3-0.3,0.6-0.4,0.8c-0.1,0.2-0.3,0.4-0.4,0.6 c-0.1,0.2-0.2,0.3-0.3,0.4c-0.1,0.1-0.1,0.1-0.1,0.1s0.1,0,0.2,0c0.1,0,0.3,0,0.5-0.1c0.2-0.1,0.5-0.2,0.8-0.3 c0.3-0.2,0.6-0.4,0.9-0.6c0.3-0.3,0.6-0.6,0.8-1c0.3-0.4,0.5-0.8,0.7-1.2c0.2-0.4,0.4-0.9,0.6-1.3c0.2-0.4,0.3-0.9,0.5-1.4 c0.2-0.9,0.5-1.7,0.7-2.6c0.2-0.8,0.5-1.5,0.8-2c0.1-0.3,0.3-0.5,0.5-0.7c0.2-0.2,0.3-0.4,0.5-0.5c0.1-0.1,0.3-0.2,0.4-0.3 c0.1-0.1,0.1-0.1,0.1-0.1s-0.1,0-0.2,0C167.4,94.8,167.3,94.8,167,94.8z M159.7,101.1c0,0,0.1-0.1,0.3-0.2c0.1-0.1,0.3-0.4,0.5-0.6 c0.2-0.3,0.3-0.6,0.5-1c0.1-0.4,0.3-0.7,0.4-1.1c0-0.2,0.1-0.4,0.1-0.6c0.1-0.2,0.1-0.4,0.1-0.5c0.1-0.4,0.1-0.7,0.2-1 c0-0.1,0.1-0.3,0.1-0.4c0-0.1,0-0.2,0.1-0.3c0-0.2,0.1-0.3,0.1-0.3s-0.1,0-0.3,0.1c-0.1,0-0.2,0.1-0.3,0.2c-0.1,0.1-0.2,0.2-0.4,0.3 c-0.2,0.2-0.5,0.6-0.7,0.9c-0.1,0.2-0.2,0.4-0.3,0.6c-0.1,0.2-0.1,0.4-0.2,0.6c-0.2,0.8-0.3,1.6-0.3,2.2c0,0.3,0,0.6,0,0.8 C159.7,101,159.7,101.1,159.7,101.1z M176.5,91.7c-0.6-0.5-1.3-1-2.1-1.7c-0.8-0.6-1.8-1.4-2.8-2.2c-1-0.8-2.1-1.6-3.3-2.5 c-1.2-0.9-2.4-1.8-3.7-2.8c-1.3-1-2.6-2-3.9-3c-0.7-0.5-1.3-1-2-1.6c-0.7-0.5-1.3-1.1-2-1.6c-0.7-0.5-1.3-1.1-1.9-1.6 c-0.3-0.3-0.6-0.6-1-0.8c-0.3-0.3-0.6-0.6-0.9-0.8c-1.2-1.1-2.4-2.2-3.6-3.4c-0.6-0.6-1.1-1.1-1.6-1.7c-0.5-0.6-1-1.1-1.5-1.6 c-0.5-0.5-1-1.1-1.4-1.6c-0.5-0.5-0.9-1-1.3-1.5c-1.7-1.9-3.1-3.6-4.1-4.7c-0.5-0.6-0.9-1-1.2-1.3c-0.3-0.3-0.4-0.4-0.4-0.4 s0.1,0.2,0.3,0.5c0.2,0.3,0.5,0.8,0.9,1.5c0.4,0.6,0.9,1.4,1.5,2.3c0.6,0.9,1.2,1.9,2,2.9c0.4,0.5,0.8,1.1,1.2,1.6 c0.4,0.6,0.9,1.1,1.3,1.7c0.5,0.6,0.9,1.2,1.4,1.8c0.5,0.6,1,1.2,1.6,1.8c0.5,0.6,1.1,1.2,1.7,1.8c0.6,0.6,1.2,1.2,1.8,1.8 c0.3,0.3,0.6,0.6,0.9,0.9c0.3,0.3,0.6,0.6,1,0.9c0.7,0.6,1.3,1.2,2,1.7c0.7,0.5,1.3,1.1,2,1.6c0.7,0.5,1.4,1,2,1.6 c0.7,0.5,1.3,1,2,1.5c0.7,0.5,1.4,1,2,1.4c1.3,0.9,2.6,1.8,3.9,2.6c1.2,0.8,2.4,1.5,3.5,2.2c2.2,1.4,4.1,2.4,5.4,3.1 c0.7,0.4,1.2,0.6,1.5,0.8c0.4,0.2,0.5,0.3,0.5,0.3s-0.2-0.1-0.5-0.4C177.6,92.5,177.1,92.1,176.5,91.7z M292,106.1 c-11.9,3.8-24.3,9.2-36,17.5c0,0,0,0,0,0c-0.9-0.7-2-1.4-3.1-2.1c-1.1-0.8-2.3-1.5-3.5-2.3c-1.2-0.8-2.6-1.7-4-2.5 c-1.4-0.9-2.8-1.7-4.4-2.6c-1.5-0.9-3.1-1.8-4.7-2.7c-3.2-1.8-6.7-3.7-10.3-5.6c-7.2-3.7-14.9-7.5-22.6-11.3 c-7.7-3.8-15.4-7.6-22.4-11.6c-3.5-2-6.8-4-9.9-6c-3.1-2-5.9-4-8.4-6c-2.5-2-4.7-3.9-6.6-5.8c-0.5-0.5-0.9-0.9-1.3-1.3 c-0.4-0.4-0.8-0.9-1.2-1.3c-0.8-0.8-1.5-1.6-2-2.3c-0.6-0.7-1.1-1.4-1.6-2c-0.4-0.6-0.8-1.1-1.1-1.5c-0.6-0.8-0.9-1.3-0.9-1.3 s0.3,0.5,0.8,1.3c0.3,0.4,0.6,1,1,1.6c0.4,0.6,0.9,1.3,1.5,2c0.5,0.8,1.2,1.6,1.9,2.4c0.4,0.4,0.7,0.9,1.1,1.4 c0.2,0.2,0.4,0.4,0.6,0.7c0.5,0.4,0.9,0.9,1.4,1.3c3.5,3.3,10.4,9.3,19.9,16.1c1.2,0.8,2.4,1.6,3.7,2.4c6.9,4.3,14.4,8.5,21.9,12.7 c7.5,4.2,15.1,8.3,22,12.4c3.5,2,6.8,4,9.9,6c1.5,1,3.1,1.9,4.5,2.9c1.4,0.9,2.8,1.9,4.1,2.8c1.3,0.9,2.6,1.8,3.7,2.6 c1.2,0.8,2.3,1.6,3.3,2.4c0.5,0.4,1,0.7,1.4,1.1c0,0-0.1,0.1-0.1,0.1c2.5,1.9,4.7,3.8,6.6,5.5c3.4,3.1,5.4,5.7,6.2,7.8 c2.1,5.3,2.3,9.7,0.6,13.1c-0.9,1.8-2.3,3.3-4.1,4.5c4.9,2.6,8.6,5.1,11.4,7.7c5.7,5.3,7.1,11,4.3,17.1c-1.4,2.9-3.5,4.8-6.4,5.7 c-3.9,1.2-8.6,0.1-12.3-1.3c0.8,2.8,0.4,5.8-1.2,8.5c-2.4,4.1-7.9,7.3-14.6,5.2c-5.2-1.6-16.3-5.3-21.9-7.1c0.1,1.4-0.2,2.8-0.8,4.3 c-1.7,4.1-5.8,6.6-10.7,6.8c-3.5,0.1-16.5-3.9-37.4-10.5c-10-3.1-20.8-6.5-30.2-9.3c-23,8.2-47.3,17.2-51.6,17.3 c-7.5,0.1-10.8-5.6-10.5-9.5c2.7-1.4,5.6-2.7,8.7-4.1c5.8-2.7,12.2-5.4,18.5-8.3c2.4-1.1,4.9-2.2,7.2-3.4c-0.8-0.3-1.7-0.6-2.5-0.9 c-0.3,0.1-0.5,0.2-0.8,0.3c-1.6,0.7-3.2,1.3-4.7,2c-6.4,2.6-12.8,5.1-18.7,7.7c-6,2.5-11.5,5-16.1,7.4c-0.5,0.2-1,0.5-1.5,0.7 c-5.4,2-11.5,4.3-15,5.6c-9.4,3.4-16.6-4.9-14.2-12c0.2-0.1,0.4-0.3,0.6-0.4c1.2-0.7,2.4-1.5,3.7-2.3c2.6-1.6,5.4-3.2,8.5-4.9 c1.5-0.9,3.1-1.7,4.7-2.6c1.6-0.9,3.3-1.8,4.9-2.7c3.4-1.8,6.9-3.6,10.4-5.4c3.6-1.8,7.2-3.6,10.9-5.3c0.2-0.1,0.4-0.2,0.5-0.2 c-0.8-0.4-1.6-0.9-2.3-1.3c-3.4,1.5-6.8,3.1-10.2,4.6c-3.6,1.7-7.2,3.4-10.6,5.1c-1.7,0.9-3.4,1.7-5,2.5c-1.6,0.8-3.2,1.7-4.8,2.5 c-3.1,1.6-6,3.3-8.7,4.8c-1.3,0.8-2.6,1.5-3.8,2.2c-1.2,0.7-2.3,1.4-3.4,2.1c-0.5,0.3-1.1,0.6-1.5,0.9c-0.1,0.1-0.2,0.1-0.3,0.2 c-5,1.4-10.6,1.4-13.5-4.2c-3-5.8-1.5-11.1,4.4-16.6c2.9-1.6,6.7-3.7,11-6.2c5.2-3,11.2-6.4,17.6-10.2c1.9-1.1,3.9-2.3,5.8-3.4 c-0.7-0.6-1.3-1.1-1.9-1.7c-1.8,1-3.5,1.9-5.2,2.9c-5.8,3.2-11.3,6.2-16.2,8.8c-4.1-1.8-8.1-6.1-4.6-16.3c0.8-2.2,3.2-5.2,7-8.8 c-10.9-5.9-22.4-9.8-30.3-12.1c-5.2-1.5-7.8-7.4-5.3-12.2l32.6-63.5c1.8-3.4,5.6-5.3,9.4-4.5c4.5,0.9,10.8,1.9,16.4,1.5 c5.9-0.4,23.2-8.6,34.5-15.6C81.7,18.2,81.1,9.4,85.8,3.4C91.5-4,104,3.1,118,2.4c13.1-0.6,20.1,4,36.6,1.1 c13.3-2.3,23-0.7,31.6,4.3c6.8-1.4,12.6-2.4,16.7,1.5c0.3,0.3,0.6,0.6,0.9,0.9c2.4,2.9,3.6,6.3,3.3,9.8 c10.9,5.3,23.1,10.1,28.3,10.2c6.1,0.1,12.2-1,16.6-2c3.7-0.9,7.5,0.8,9.3,4.1l35.3,62.4C298.9,99.1,296.8,104.6,292,106.1z M203.3,18.2c0-0.3-0.1-0.6-0.1-1c-0.1,0.2-0.2,0.5-0.3,0.7C203,18,203.1,18.1,203.3,18.2z M190.6,10.8c2.3,1.6,5.5,3.6,9.2,5.6 c0.1-0.3,0.2-0.5,0.2-0.8c0.2-0.7,0.2-1.4,0.1-1.9c-0.1-0.5-0.2-1-0.4-1.4c0-0.1-0.1-0.2-0.1-0.3c0-0.1-0.1-0.2-0.1-0.2 c-0.1-0.1-0.1-0.3-0.2-0.4c-0.1-0.1-0.1-0.1-0.1-0.2C197,10.1,194.1,10.2,190.6,10.8z M44,43.9c0.3,0.1,0.7,0.2,1,0.3 c0.4,0.1,0.7,0.2,1.1,0.3c0.4,0.1,0.8,0.2,1.2,0.3c0.4,0.1,0.8,0.2,1.2,0.3c1.7,0.4,3.5,0.6,5.4,0.8c1.9,0.2,4,0.2,6.1,0 c2.1-0.1,4.3-0.5,6.5-1c2.2-0.5,4.4-1.2,6.6-2.1c2.2-0.8,4.4-1.8,6.5-2.8c2.1-1,4.2-2.1,6.1-3.2c3.9-2.1,7.6-4.2,10.7-6 c1.2-0.7,2.4-1.4,3.5-2c-0.9-0.4-1.7-0.8-2.5-1.2C86.3,35,67,44.5,59.6,45C53.9,45.3,48.3,44.6,44,43.9z M215.2,193 c-0.5-0.2-1.4-0.6-2.4-1c-1.8-0.7-4.4-1.8-7.5-3c0,0-0.1,0-0.2,0c-0.2,0-0.5,0-0.8,0c-0.3,0-0.8,0-1.2,0.2c-0.4,0.1-0.9,0.3-1.3,0.7 c-0.2,0.2-0.4,0.4-0.5,0.6c-0.2,0.2-0.3,0.5-0.4,0.8c-0.3,0.6-0.5,1.3-0.6,2c-0.2,0.7-0.3,1.4-0.3,2.2c0,0.2,0,0.4,0,0.5 c0,0.2,0,0.4,0,0.5c0,0.2,0.1,0.3,0.1,0.5c0,0.1,0,0.1,0.1,0.2c0,0.1,0,0.1,0.1,0.1l0.1,0.3l0,0l0,0l0,0c0,0.1-0.1-0.1,0-0.1 c0,0,0,0,0,0c0,0,0,0,0,0l0,0c0.1,0,0.2,0.1,0.3,0.2c0.3,0.2,0.6,0.3,0.9,0.4c0.7,0.3,1.4,0.5,2.1,0.8c1.4,0.5,2.7,0.8,3.9,1.2 c1.4,0.4,2.5,0.7,3.2,0.9c2.7-1,3.9-3,4.3-4C215.7,195.4,215.6,193.9,215.2,193z M254.7,135.9c-9.9-9.3-30.3-22.3-51.8-33 C178,90.4,160.3,75,153.8,69c-3.3-3.1-10.4-10-13-15c-0.2-0.4-0.5-0.9-0.9-1.6c-0.8-1.5-1.8-3.5-2.8-5.5c-0.9-2-1.8-4.1-2.4-5.6 c-0.6-1.5-1-2.6-1-2.6s0.6,0.9,1.5,2.3c0.9,1.4,2.2,3.2,3.5,4.9c0.6,0.8,1.2,1.6,1.8,2.4c0.8-1.1,2.3-2,4.4-2.7 c1-0.3,2.1-0.6,3.4-0.8c1.1-1,1.7-1.7,1.8-2.8c0.7-7.1-23.9-3-45.9-11.3c-1.2-0.5-2.4-0.9-3.5-1.4c-1.1,0.7-2.3,1.6-3.7,2.4 c-3,2-6.5,4.4-10.2,6.8C85,39.7,83,41,80.9,42.2c-2.1,1.2-4.2,2.4-6.4,3.4c-2.2,1.1-4.5,2-6.9,2.7c-2.3,0.7-4.7,1.3-7,1.7 c-2.3,0.3-4.6,0.5-6.8,0.5c-1.4,0-6.2-0.7-9.7-1.3c-2.2-0.3-4.3,0.7-5.3,2.7L9.6,108.7c-0.8,1.6,0,3.6,1.8,4.1 c2.9,0.8,6.5,1.8,7,1.9c0.7,0.2,1.4,0.5,2.2,0.7c0.7,0.2,1.5,0.5,2.3,0.7c0.8,0.3,1.5,0.5,2.3,0.8c0.8,0.3,1.6,0.6,2.4,0.9 c0.8,0.3,1.6,0.6,2.5,1c0.4,0.2,0.8,0.3,1.3,0.5c0.4,0.2,0.8,0.4,1.3,0.6c0.8,0.4,1.7,0.8,2.6,1.1c0.9,0.4,1.7,0.8,2.6,1.3 c0.9,0.4,1.7,0.9,2.6,1.4c3.5,1.9,6.9,4.1,10.2,6.5c3.3,2.5,6.4,5.2,9.5,8c3.1,2.8,6.1,5.5,9.1,8.1c3.1,2.6,6.2,4.9,9.4,7.1 c3.2,2.1,6.3,4.1,9.4,5.7c0.8,0.4,1.5,0.9,2.3,1.2c0.8,0.4,1.5,0.8,2.2,1.1c0.7,0.4,1.5,0.8,2.2,1.1c0.7,0.3,1.4,0.7,2.1,1 c0.7,0.3,1.4,0.6,2,1c0.7,0.3,1.3,0.6,2,0.9c1.3,0.6,2.5,1.1,3.6,1.6c1.2,0.5,2.2,0.9,3.2,1.3c1,0.4,1.9,0.8,2.8,1.1 c3.4,1.2,5.3,2,5.3,2s-2-0.6-5.4-1.7c-0.9-0.3-1.8-0.6-2.8-1c-1-0.4-2.1-0.7-3.3-1.2c-1.2-0.4-2.4-0.9-3.7-1.4 c-0.7-0.3-1.3-0.5-2-0.8c-0.7-0.3-1.4-0.6-2.1-0.9c-0.7-0.3-1.4-0.6-2.2-0.9c-0.7-0.3-1.5-0.7-2.2-1c-0.8-0.3-1.5-0.7-2.3-1 c-0.8-0.4-1.6-0.8-2.4-1.1c-3.2-1.5-6.5-3.4-9.8-5.4c-3.3-2-6.6-4.3-9.9-6.8c-3.2-2.5-6.4-5.1-9.6-7.7c-3.2-2.6-6.3-5.1-9.6-7.3 c-3.3-2.2-6.6-4.2-10-5.8c-0.8-0.4-1.7-0.8-2.5-1.2c-0.8-0.4-1.7-0.7-2.5-1.1c-0.8-0.3-1.7-0.7-2.5-1c-0.4-0.2-0.8-0.3-1.2-0.5 c-0.4-0.1-0.8-0.3-1.2-0.4c-0.8-0.3-1.6-0.6-2.4-0.8c-0.8-0.3-1.6-0.5-2.4-0.7c-0.5-0.2-1.1-0.3-1.6-0.5 c13.5,5.2,25.1,12.1,34.8,20.9c17,15.3,46.4,30.3,71.6,36.6c11.3,2.8,28,8.1,42.8,12.7c10.6,3.3,21.4,6.7,28.6,8.7 c-0.2-0.1-0.4-0.3-0.6-0.4c-0.2-0.2-0.4-0.3-0.6-0.6l-0.1-0.1l-0.1-0.1l-0.1-0.1c0,0-0.1-0.2-0.1-0.1l0,0l0,0l0,0l-0.1-0.3 c-0.1-0.2-0.2-0.6-0.2-0.8c0-0.2,0-0.5,0-0.7c0-0.2,0-0.5,0-0.7c0-0.2,0.1-0.4,0.1-0.6c0.2-0.8,0.4-1.6,0.7-2.4 c0.3-0.7,0.6-1.4,1-2.1c0.2-0.3,0.4-0.6,0.6-0.9c0.2-0.3,0.5-0.5,0.8-0.7c0.6-0.4,1.2-0.6,1.7-0.6c0.5,0,1,0,1.3,0.1 c0.3,0,0.5,0.1,0.7,0.2c-0.2-0.1-0.5-0.2-0.7-0.3c-3.5-1.4-7.6-3-12-4.8c-2.2-0.9-4.4-1.9-6.7-2.9c-2.3-1-4.5-2-6.8-3.1 c-4.6-2.1-9.1-4.1-13.5-6c-1.1-0.5-2.2-0.9-3.2-1.3c-1.1-0.4-2.1-0.8-3.1-1.2c-2-0.8-3.9-1.5-5.7-2.1c-0.9-0.3-1.7-0.6-2.5-0.9 c-0.8-0.3-1.6-0.5-2.3-0.8c-1.5-0.5-2.7-0.9-3.8-1.2c-2.1-0.6-3.3-1-3.3-1s1.2,0.3,3.3,0.8c1.1,0.3,2.4,0.6,3.8,1 c0.7,0.2,1.5,0.4,2.3,0.7c0.8,0.3,1.7,0.5,2.6,0.8c1.8,0.6,3.7,1.2,5.8,1.9c1,0.4,2.1,0.7,3.1,1.1c1.1,0.4,2.2,0.8,3.3,1.2 c4.4,1.7,9.1,3.6,13.7,5.5c2.3,0.9,4.6,1.9,6.9,2.8c2.3,0.9,4.6,1.7,6.8,2.5c4.4,1.6,8.6,3,12.1,4.1c1.8,0.6,3.5,1.2,5,1.6l-0.1-0.1 l6.6,2.2c0.2,0.1,18.3,6,25.4,8.3c5.1,1.6,8.7-0.9,10.3-3.5c0.9-1.6,1.4-3.8,0.7-6c-0.2-0.1-0.5-0.3-0.9-0.5c-0.5-0.2-1-0.5-1.6-0.9 c-0.3-0.2-0.7-0.3-1-0.5c-0.3-0.2-0.7-0.4-1.1-0.6c-1.5-0.8-3.3-1.6-5.3-2.3c-1-0.3-2-0.7-3-0.8c-0.2,0-0.5-0.1-0.7-0.1 c-0.1,0-0.2,0-0.2,0l0,0c0,0,0,0,0,0c0,0,0,0,0,0c0,0,0,0,0,0l-0.1,0l0,0c0,0-0.1,0-0.1,0.1c-0.1,0.1-0.2,0.1-0.2,0.2 c-0.2,0.2-0.3,0.4-0.5,0.6c-0.6,0.9-1.2,1.9-1.7,2.9c-0.5,1-0.9,2-1.2,3c-0.3,1-0.5,2-0.3,2.8c0,0.1,0,0.2,0.1,0.3l0,0.1l0,0.1 c0,0.1,0.1,0.2,0.2,0.3l0,0l0,0.1c0,0,0.1,0.1,0.1,0.1c0.3,0.3,0.7,0.6,1,0.8c0.7,0.5,1.4,0.9,2,1.3c0.6,0.4,1.1,0.7,1.6,0.9 c0.9,0.5,1.4,0.8,1.4,0.8s-0.6-0.2-1.5-0.5c-0.5-0.2-1.1-0.4-1.7-0.7c-0.7-0.3-1.4-0.6-2.2-1c-0.4-0.2-0.8-0.5-1.2-0.8 c-0.1,0-0.1-0.1-0.2-0.1l-0.1-0.1l0,0l0,0c0,0-0.1-0.1,0,0l0,0c-0.1-0.1-0.2-0.2-0.3-0.3c0-0.1-0.1-0.2-0.1-0.2l-0.1-0.2 c-0.1-0.1-0.1-0.3-0.1-0.4c-0.3-1.2-0.1-2.3,0-3.4c0.2-1.1,0.5-2.3,1-3.4c0.4-1.1,0.9-2.2,1.5-3.3c0.2-0.3,0.3-0.5,0.5-0.8 c0.1-0.1,0.2-0.3,0.3-0.4c0.1-0.1,0.1-0.1,0.2-0.2l0.1-0.1l0.1-0.1l0,0c-0.1,0,0.1-0.1,0.1-0.1l0,0l0.1-0.1c0,0,0.1,0,0.1-0.1 l0.1-0.1c0.1,0,0.2-0.1,0.2-0.1l0.2,0c0.2-0.1,0.4-0.1,0.6-0.1c0.4,0,0.7,0,1,0c0.9,0.1,1.6,0.2,2.4,0.4c-1.8-0.9-3.8-1.9-6-3 c-2.2-1.1-4.7-2.3-7.3-3.5c-2.6-1.2-5.4-2.4-8.2-3.7c-2.9-1.2-5.8-2.5-8.9-3.7c-3-1.2-6.1-2.5-9.2-3.7c-1.5-0.6-3.1-1.3-4.6-1.9 c-1.5-0.7-3-1.4-4.5-2.1c-3-1.4-5.9-2.8-8.7-4.1c-5.7-2.7-11-5.1-15.6-6.9c-4.6-1.9-8.6-3.1-11.5-3.8c-0.7-0.2-1.3-0.3-1.9-0.4 c-0.6-0.1-1-0.2-1.4-0.3c-0.8-0.1-1.2-0.2-1.2-0.2s0.4,0,1.2,0.1c0.4,0,0.9,0.1,1.4,0.2c0.6,0.1,1.2,0.2,1.9,0.4 c2.9,0.6,6.9,1.7,11.6,3.4c4.7,1.7,10.2,3.9,15.9,6.4c2.9,1.2,5.8,2.5,8.9,3.8c1.5,0.6,3,1.3,4.6,1.9c1.5,0.6,3.1,1.2,4.7,1.8 c3.1,1.1,6.3,2.3,9.4,3.4c3.1,1.1,6.1,2.3,9.1,3.4c2.9,1.2,5.7,2.3,8.4,3.4c2.7,1.1,5.2,2.2,7.5,3.2c2.3,1,4.4,2,6.2,2.9 c1.9,0.9,3.5,1.7,4.8,2.3c1.2,0.6,2.2,1.1,2.9,1.5l0-0.1c0.1,0.1,9.6,5.9,15.9,4c1.9-0.6,3.2-1.8,4.1-3.7c1.3-2.7,1.4-5.2,0.4-7.7 c-0.2-0.1-0.5-0.3-0.9-0.5c-0.9-0.5-2.2-1.2-3.8-2c-0.8-0.4-1.7-0.8-2.6-1.2c-0.9-0.4-1.9-0.8-2.9-1.2c-0.5-0.2-1-0.3-1.3-0.3 l-0.1,0c-0.1,0.1-0.3,0.2-0.5,0.4c-0.7,0.7-1.4,1.6-2.1,2.6c-0.6,1-1.2,2-1.8,3c-0.5,1-1,2.1-1.3,3.1c-0.2,0.5-0.3,1-0.4,1.4 c0,0.2,0,0.4,0,0.5c0,0,0,0,0,0l0,0l0,0c-0.1-0.1,0,0,0,0l0,0l0.1,0.1l0.1,0.1l0,0l0.1,0.1c0.3,0.3,0.7,0.6,1.1,0.9 c0.4,0.3,0.8,0.6,1.1,0.8c1.5,1,2.7,1.9,3.6,2.4c0.4,0.3,0.8,0.5,1,0.7c0.2,0.2,0.4,0.3,0.4,0.3s-0.6-0.2-1.6-0.6 c-1-0.4-2.4-1-4-1.9c-0.4-0.2-0.8-0.5-1.2-0.7c-0.4-0.3-0.9-0.5-1.3-0.9l-0.2-0.2l-0.1-0.1l-0.1-0.1l-0.1-0.1l0,0c0,0,0,0,0,0l0,0 l0,0c-0.1-0.1-0.1-0.2-0.2-0.3c-0.2-0.4-0.2-0.8-0.2-1.1c0-0.6,0.1-1.2,0.3-1.8c0.3-1.2,0.7-2.3,1.2-3.4c0.5-1.1,1-2.3,1.6-3.4 c0.6-1.1,1.3-2.2,2.2-3.2c0.2-0.3,0.5-0.5,0.9-0.8l0.1-0.1c0,0,0,0,0.1,0l0.1-0.1c0.1,0,0.2-0.1,0.3-0.1l0.1,0l0.1,0l0,0l0.1,0 l0.1,0l0,0c0.1,0-0.2,0,0.2,0l0,0l0.3,0c0.2,0,0.4,0,0.6,0c0.2,0,0.4,0,0.5,0.1c0.3,0,0.6,0.1,0.9,0.2c1.2,0.3,2.3,0.7,3.3,1 c0.3,0.1,0.5,0.2,0.8,0.3c-3-2.4-7.1-4.9-12.5-7.5l-4.3-2.1l0,0c-0.9-0.4-1.9-0.9-2.9-1.4c-1.7-0.8-3.7-1.8-5.8-2.9 c-4.2-2.1-9.1-4.7-14.3-7.5c-2.6-1.4-5.3-2.9-8-4.4c-1.4-0.7-2.7-1.5-4.1-2.2c-1.4-0.7-2.8-1.5-4.2-2.2c-2.8-1.4-5.6-2.9-8.4-4.3 c-2.7-1.5-5.4-2.9-8-4.4c-5.2-2.9-9.9-5.8-13.8-8.3c-1-0.6-1.9-1.3-2.8-1.8c-0.9-0.6-1.7-1.2-2.5-1.7c-1.6-1.1-3-2-4.1-2.8 c-2.2-1.6-3.5-2.5-3.5-2.5s1.3,0.9,3.6,2.4c1.2,0.8,2.6,1.6,4.2,2.7c0.8,0.5,1.7,1,2.6,1.6c0.9,0.6,1.9,1.2,2.9,1.8 c4,2.4,8.8,5.1,14.1,7.9c2.6,1.4,5.3,2.7,8.1,4.1c2.8,1.4,5.6,2.7,8.5,4c1.4,0.7,2.9,1.4,4.3,2c1.4,0.7,2.8,1.4,4.2,2.1 c2.8,1.4,5.5,2.7,8.2,4c5.3,2.6,10.3,4.9,14.6,6.8c2.1,1,4.1,1.8,5.9,2.6c1.8,0.8,3.3,1.4,4.5,1.9c0.9,0.4,1.6,0.7,2.2,0.9 c2.4-0.9,4.1-2.2,5-4c0.8-1.7,1-3.8,0.4-6.4c-0.1-0.1-0.3-0.3-0.5-0.4c-0.6-0.5-1.5-1.3-2.6-2.2c-0.5-0.4-1.1-0.9-1.7-1.4 c-0.6-0.5-1.3-1-1.9-1.4c-0.7-0.4-1.4-0.7-1.9-0.8c-0.1,0-0.2,0-0.3,0c-0.1,0-0.1,0-0.2,0l-0.1,0c0,0,0,0,0,0l-0.1,0 c-0.3,0.2-0.7,0.5-1,0.7c-0.7,0.6-1.3,1.2-2,1.9c-0.6,0.7-1.2,1.3-1.7,2c-0.5,0.7-1,1.4-1.4,2c-0.2,0.3-0.4,0.7-0.5,1 c-0.1,0.3-0.2,0.6-0.2,0.9c0,0.2,0.2,0.4,0.4,0.6c0.2,0.2,0.4,0.4,0.6,0.6c0.4,0.4,0.8,0.7,1.1,1c0.3,0.3,0.5,0.5,0.7,0.7 c0.2,0.2,0.2,0.2,0.2,0.2s-0.4-0.2-1.2-0.6c-0.4-0.2-0.8-0.5-1.3-0.8c-0.2-0.2-0.5-0.4-0.8-0.6c-0.1-0.1-0.3-0.2-0.4-0.4 c0,0-0.1-0.1-0.1-0.1l0,0l0-0.1l-0.1-0.1c-0.1-0.1-0.1-0.2-0.1-0.4c-0.1-0.5,0-0.9,0.1-1.3c0.1-0.4,0.2-0.8,0.4-1.2 c0.3-0.8,0.8-1.6,1.2-2.4c0.5-0.8,1-1.6,1.6-2.3c0.6-0.8,1.2-1.5,1.9-2.3c0.4-0.4,0.7-0.7,1.2-1.1l0.1-0.1l0.1-0.1 c0.1,0,0.1-0.1,0.2-0.1c0.2-0.1,0.3-0.2,0.5-0.2c0.3-0.1,0.7-0.2,1-0.2c0.7-0.1,1.3,0.1,1.8,0.2c0.5,0.2,1,0.3,1.5,0.6 c0.9,0.4,1.7,0.9,2.4,1.3C257.3,138.5,256.2,137.4,254.7,135.9z M261.2,168.8C261.2,168.8,261.1,168.8,261.2,168.8L261.2,168.8 C261.1,168.8,261.1,168.8,261.2,168.8C261.1,168.8,261.1,168.8,261.2,168.8C261.1,168.8,261.2,168.8,261.2,168.8z M261,168.8 L261,168.8L261,168.8C261,168.8,261.1,168.8,261,168.8C261.1,168.8,261.1,168.8,261,168.8L261,168.8L261,168.8z M239.3,182.7 C239.3,182.7,239.3,182.7,239.3,182.7C239.3,182.7,239.3,182.7,239.3,182.7L239.3,182.7z"></path></svg>