<svg xmlns="http://www.w3.org/2000/svg" xmlns:xlink="http://www.w3.org/1999/xlink" id="Layer_1" x="0px" y="0px" viewBox="0 0 705.5 463.2" style="enable-background:new 0 0 705.5 463.2;" xml:space="preserve"><style type="text/css"> .st0{fill:#575756;}</style><path id="Air_ticket" class="st0" d="M625.8,132.5L623,123c-1.1-3.6-4.8-5.6-8.4-4.5l-104.5,31.2c-3.6,1.1-5.6,4.8-4.5,8.4l2.8,9.5 c1.1,3.6,4.8,5.6,8.4,4.5l104.5-31.2C624.9,139.8,626.9,136,625.8,132.5z M515.7,166.8l-1-3.4l67.4-20.1l1,3.4L515.7,166.8z M591.1,144.3l-1-3.4l28.3-8.4l1,3.4L591.1,144.3z M471,143.1l9.2-2.7l6.6,22.2l-9.2,2.7L471,143.1z M178,174.9 c0.5,0.5,0.9,1.2,1.1,2.2c0.2,0.5,0.2,1.1,0.2,1.7c0,0.6-0.2,1.2-0.5,1.8c-0.3,0.6-0.8,1.1-1.4,1.6c-0.4,0.3-0.8,0.6-1.4,0.8h-2.9 l-2.5-8.3l1.5-0.5c0.8-0.2,1.5-0.4,2.2-0.5c0.7-0.1,1.4,0,2,0.1C176.9,174.1,177.5,174.4,178,174.9z M611.8,182.9l19.9-5.9l-1-3.4 l-28.3,8.4l0.3,0.9h-55.8l79.9-23.9c3.6-1.1,7.3,1,8.4,4.5l2.8,9.5c1.1,3.6-1,7.3-4.5,8.4l-5,1.5H611.8z M96.6,182.9h45l-1.4-4.8 l9-2.7l2.2,7.5h11.9l-3.2-10.7l11.2-3.3c2.3-0.7,4.4-1,6.3-1c1.9,0,3.6,0.3,5,0.8c1.4,0.5,2.6,1.2,3.5,2.1c0.9,0.9,1.5,1.9,1.9,3 c0.3,0.9,0.4,1.8,0.5,2.7c0.1,0.9,0,1.8-0.2,2.7c-0.2,0.9-0.6,1.8-1.2,2.6c-0.3,0.4-0.6,0.8-1,1.2h34.6l-6-20l-6.4,1.9l-1.9-6.4 l22-6.6l1.9,6.4l-6.6,2l6.6,22l-2.4,0.7h92.2L634,89.2l28,93.8c4.5,0.2,8.9,1,13.1,2.2L629.9,33.6C622.4,8.7,596.2-5.5,571.3,2 L33.6,162.6C8.7,170-5.5,196.3,2,221.2l36.3,121.5v-41.3l-19.7-65.6l-3-9.9l-1.5-5c-0.6-1.9-1.1-3.8-1.4-5.8 c-1.2-7.9,0.5-16.1,4.4-22.9c3.8-6.8,9.7-12.4,16.7-15.9c1.7-0.9,3.6-1.6,5.4-2.2c1-0.3,1.8-0.5,2.6-0.8l2.5-0.7l10-2.9L94.1,158 l159.7-46.4l319.4-92.7l-317.9,97.6l-159,48.8l-39.7,12.2l-9.9,3.1l-2.5,0.8c-0.8,0.3-1.7,0.5-2.4,0.7c-1.4,0.5-2.8,1.1-4.2,1.8 c-5.4,2.8-9.9,7.2-12.8,12.5c-2.9,5.3-4,11.4-3.1,17.2c0.3,1.4,0.6,2.8,1.1,4.3l1.7,4.9l3.1,8.6l-0.1,0l10.7,33.6v-23.8 C38.3,209,64.4,182.9,96.6,182.9z M508.5,85.2c0.9-0.7,2.1-1.1,3.3-1.2l16.9-0.9c0,0,4.4-2.9,12.4-8.4l-26.4-3.2l4.6-2.9 c1.2-0.8,2.6-1.3,4.1-1.5l34.7-4.1c13.1-8.8,24.5-9.5,29.5-9.3c0.9,0,1.2,1.2,0.5,1.7L530.6,92c-2.1,1.3-4.6,1.6-6.9,0.7l-16.6-6.4 L508.5,85.2z M473.5,118.2l-9.2,2.7l-6.6-22.2l9.2-2.7L473.5,118.2z M456.5,61.1l3.8,12.6l-9.2,2.7l-3.8-12.6L456.5,61.1z M371.9,108.9l1.9,6.4l-6.6,2l6.6,22l-9,2.7l-6.6-22l-6.4,1.9l-1.9-6.4L371.9,108.9z M341.9,117.9l1.5,5.2l-10.9,3.3l1.7,5.7 l9.7-2.9l1.5,5.2l-9.7,2.9l2,6.6l10.9-3.3l1.7,5.8l-20,6l-8.5-28.4L341.9,117.9z M296.5,131.4l3.3,11.1l0.6-0.2l2.5-12.8l10.3-3.1 l-4.3,16.1l12.8,12.3l-10.3,3.1l-9.4-10.5l-0.6,0.2l3.7,12.2l-9,2.7l-8.5-28.4L296.5,131.4z M258.6,151.4c0.2-2.1,0.8-3.9,1.8-5.6 c1-1.7,2.3-3.1,4-4.3c1.7-1.2,3.7-2.1,6-2.8c0.6-0.2,1.3-0.4,2.1-0.5c0.8-0.2,1.7-0.3,2.5-0.5c0.9-0.1,1.7-0.2,2.5-0.3 c0.8-0.1,1.6-0.1,2.2-0.1l0.6,6.8c-0.6-0.1-1.3-0.1-2,0c-0.7,0-1.5,0.1-2.2,0.2c-0.7,0.1-1.5,0.2-2.1,0.4c-0.7,0.1-1.2,0.3-1.7,0.4 c-1.2,0.4-2.2,0.9-2.9,1.5c-0.7,0.7-1.2,1.4-1.5,2.3c-0.3,0.9-0.4,1.9-0.3,3c0.1,1.1,0.3,2.2,0.7,3.5c0.4,1.3,0.9,2.4,1.5,3.4 c0.6,0.9,1.4,1.7,2.2,2.2c0.8,0.5,1.7,0.9,2.7,1c1,0.1,2,0,3.2-0.3c1-0.3,2.1-0.8,3.2-1.5c1.2-0.7,2.2-1.5,3.3-2.6l3.2,6.1 c-1.3,1.2-2.6,2.1-4.1,2.9c-1.4,0.7-2.9,1.3-4.3,1.8c-2.1,0.6-4.2,0.9-6.2,0.8c-2.1-0.1-4-0.6-5.8-1.5c-1.8-0.9-3.4-2.1-4.7-3.7 c-1.4-1.6-2.4-3.5-3.1-5.8C258.6,155.7,258.4,153.5,258.6,151.4z M245.4,146.7l8.5,28.4l-9,2.7l-8.5-28.4L245.4,146.7z M531.5,417.4 h-9.6v-23.2h9.6V417.4z M531.5,371h-9.6v-23.2h9.6V371z M531.5,324.6h-9.6v-23.2h9.6V324.6z M167.4,428H98v-12.7h69.4V428z M167.4,410.5H98v-6.3h69.4V410.5z M167.4,330.1H98v-12.7h69.4V330.1z M167.4,389.8H98v-12.7h69.4V389.8z M167.4,349.5H98v-8.9h69.4 V349.5z M167.4,372.2H98v-8.9h69.4V372.2z M167.4,398.7H98v-3.8h69.4V398.7z M167.4,358.8H98V355h69.4V358.8z M167.4,337.8H98V334 h69.4V337.8z M304.6,363.7H206v-7.2h98.6V363.7z M416.8,363.7H315.3v-7.2h101.5V363.7z M481.4,363.7h-53.8v-7.2h53.8V363.7z M416.8,410.3H315.3v-7.2h101.5V410.3z M481.4,410.3h-53.8v-7.2h53.8V410.3z M304.6,410.3H206v-7.2h98.6V410.3z M557.5,427h109.1 c3.7,0,6.7-3,6.7-6.7v-9.9c0-3.7-3-6.7-6.7-6.7H557.5c-3.7,0-6.7,3-6.7,6.7v9.9C550.8,424,553.8,427,557.5,427z M636.7,418.1h29.5 v3.6h-29.5V418.1z M558,418.1h70.3v3.6H558V418.1z M557.5,384.6h109.1c3.7,0,6.7-3,6.7-6.7V368c0-3.7-3-6.7-6.7-6.7H557.5 c-3.7,0-6.7,3-6.7,6.7v9.9C550.8,381.6,553.8,384.6,557.5,384.6z M636.7,376.3h29.5v3.6h-29.5V376.3z M558,376.3h70.3v3.6H558V376.3 z M557.5,342.2h109.1c3.7,0,6.7-3,6.7-6.7v-9.9c0-3.7-3-6.7-6.7-6.7H557.5c-3.7,0-6.7,3-6.7,6.7v9.9 C550.8,339.2,553.8,342.2,557.5,342.2z M636.7,333.3h29.5v3.6h-29.5V333.3z M558,333.3h70.3v3.6H558V333.3z M658.4,194.9H97.3 c-26,0-47.1,21.1-47.1,47.1v174.1c0,26,21.1,47.1,47.1,47.1h561.1c26,0,47.1-21.1,47.1-47.1V242C705.5,216,684.4,194.9,658.4,194.9z M659.2,249c0.8,0.3,0.8,1.5,0,1.7l-65.5,18.7c-2.3,0.7-4.9,0.2-6.8-1.3l-14-10.9l1.6-0.6c1.1-0.4,2.3-0.5,3.5-0.2l16.4,3.9 c0,0,5.1-1.6,14.3-4.5l-24.4-10.7l5.2-1.5c1.4-0.4,2.9-0.5,4.3-0.2l34.4,6C643.3,244.8,654.5,247.4,659.2,249z M693.6,413 c0,21.1-17.1,38.2-38.2,38.2H531.5v-10.7h-9.6v10.7H100.4c-21.1,0-38.2-17.1-38.2-38.2l-0.2-152.3l-0.1-10.4l0-5.2 c-0.1-2,0.1-4,0.3-6c1.1-8,5.1-15.3,10.8-20.7c5.6-5.5,12.9-9.1,20.5-10.5c1.9-0.4,3.9-0.5,5.8-0.6c1,0,1.9,0,2.7,0l2.6,0l10.4,0.1 l41.6,0.3l166.3,1.3l332.5,2.6l-332.5,2.6l-166.3,1.3l-41.6,0.3l-10.4,0.1l-2.6,0c-0.9,0-1.8,0-2.5,0c-1.5,0.1-3,0.2-4.5,0.5 c-5.9,1.1-11.6,4.1-15.8,8.4c-4.3,4.3-7.1,9.8-7.8,15.6c-0.2,1.5-0.2,2.9-0.2,4.4l0.3,5.2l0.5,9.2l-0.1,0l2.8,153L82,296.4h611.5 V413z M521.9,231.8v-13.1h9.6v13.1H521.9z M531.5,255v23.2h-9.6V255H531.5z M413.8,247v-6.7h23v6.7h-6.9v23h-9.4v-23H413.8z M404.1,251.7v5.4h-10.1v6.9h11.4v6h-20.8v-29.7h20.8v5.4h-11.4v6H404.1z M375.6,270h-10.7l-6-12.8h-0.7V270h-9.4v-29.7h9.4v11.5 h0.7l6-11.5h10.7l-8.7,14.2L375.6,270z M324.8,258.8c0.3,1.1,0.8,2,1.4,2.8c0.6,0.8,1.4,1.3,2.3,1.7c0.9,0.4,2,0.6,3.1,0.6 c1,0,2.2-0.2,3.5-0.5c1.3-0.3,2.6-0.8,3.9-1.5l1.3,6.7c-1.6,0.8-3.1,1.3-4.7,1.6c-1.6,0.3-3.1,0.4-4.7,0.4c-2.2,0-4.2-0.4-6.2-1.1 c-1.9-0.7-3.7-1.7-5.1-3.1c-1.5-1.3-2.6-3-3.5-4.9c-0.9-1.9-1.3-4.1-1.3-6.5c0-2.5,0.4-4.7,1.2-6.7c0.8-1.9,1.9-3.5,3.3-4.8 c1.4-1.3,3.1-2.3,5.1-3c2-0.7,4.2-1,6.6-1c0.6,0,1.4,0,2.2,0.1c0.8,0.1,1.7,0.2,2.5,0.3c0.9,0.1,1.7,0.3,2.5,0.4 c0.8,0.2,1.5,0.3,2.2,0.5l-1.3,6.7c-0.6-0.2-1.2-0.4-1.9-0.6c-0.7-0.2-1.5-0.3-2.2-0.4c-0.7-0.1-1.5-0.2-2.2-0.3 c-0.7-0.1-1.3-0.1-1.8-0.1c-1.3,0-2.3,0.2-3.2,0.6c-0.9,0.4-1.6,1-2.1,1.8c-0.5,0.8-0.9,1.7-1.1,2.8c-0.2,1.1-0.3,2.2-0.3,3.5 C324.3,256.5,324.4,257.8,324.8,258.8z M304.8,240.3V270h-9.4v-29.7H304.8z M263.9,247v-6.7h23v6.7h-6.9v23h-9.4v-23H263.9z M236.2,260c0.2,0.5,0.5,1,0.8,1.6c0.3,0.6,0.6,1.2,1,1.9c0.4,0.6,0.7,1.3,1.1,1.9c0.9,1.5,1.8,3,2.8,4.6h-10.7 c-0.5-1-0.9-2.1-1.3-3.3c-0.2-0.5-0.4-1-0.6-1.5c-0.2-0.6-0.4-1.1-0.6-1.7c-0.2-0.6-0.3-1.2-0.5-1.8c-0.2-0.6-0.3-1.2-0.4-1.8h-2.7 V270h-9.4v-29.7h11.7c2.4,0,4.6,0.3,6.4,0.9c1.8,0.6,3.3,1.3,4.5,2.2c1.2,0.9,2.1,1.9,2.7,3c0.6,1.1,0.9,2.3,0.9,3.4 c0,0.9-0.1,1.8-0.3,2.7c-0.2,0.9-0.5,1.7-1,2.5c-0.5,0.8-1.1,1.5-1.9,2.2c-0.8,0.6-1.8,1.2-3.1,1.6C235.8,259,236,259.5,236.2,260z M204.3,240.3V270h-9.4v-29.7H204.3z M186.3,270h-11.2l-1.4-5.9h-7.4L165,270h-7.6l7.6-29.7h13.1L186.3,270z M232.1,248 c0.3,0.6,0.5,1.4,0.5,2.4c0,0.6-0.1,1.1-0.3,1.7c-0.2,0.6-0.5,1.1-1,1.5c-0.5,0.5-1.1,0.8-1.8,1.1c-0.7,0.3-1.6,0.4-2.7,0.4h-1.6 v-9.5h1.6c0.8,0,1.5,0.1,2.2,0.2c0.7,0.1,1.3,0.4,1.8,0.7C231.3,246.9,231.7,247.4,232.1,248z M173.2,258.7h-6l2.9-13.8h0.6 L173.2,258.7z"></path></svg>