<svg xmlns="http://www.w3.org/2000/svg" xmlns:xlink="http://www.w3.org/1999/xlink" id="&#x421;&#x43B;&#x43E;&#x439;_1" x="0px" y="0px" width="512px" height="512px" viewBox="0 0 512 512" style="enable-background:new 0 0 512 512;" xml:space="preserve"><g> <path d="M352.43832,481.30942H159.56168c-22.87103,0-42.19231-19.32129-42.19231-42.19232V187.1198 c0-22.87128,19.32127-42.20235,42.19231-42.20235h192.87665c23.26666,0,42.19232,18.93568,42.19232,42.20235v251.9973 C394.63065,461.98813,375.30936,481.30942,352.43832,481.30942z M159.56168,159.27486 c-15.08919,0-27.8349,12.74571-27.8349,27.84494v251.9973c0,15.0892,12.74571,27.8349,27.8349,27.8349h192.87665 c15.0892,0,27.8349-12.7457,27.8349-27.8349V187.1198c0-15.35629-12.48865-27.84494-27.8349-27.84494H159.56168z"></path> <path d="M168.17421,506c-3.96498,0-7.17857-3.21359-7.17857-7.17883v-24.69034c0-3.96521,3.21359-7.17883,7.17857-7.17883 c3.96523,0,7.17883,3.21362,7.17883,7.17883v24.69034C175.35304,502.78641,172.13943,506,168.17421,506z"></path> <path d="M344.39941,506c-3.96518,0-7.17883-3.21359-7.17883-7.17883v-24.69034c0-3.96521,3.21365-7.17883,7.17883-7.17883 c3.965,0,7.17859,3.21362,7.17859,7.17883v24.69034C351.578,502.78641,348.36441,506,344.39941,506z"></path> <path d="M210.07983,481.30942c-3.96498,0-7.17859-3.21362-7.17859-7.17859V302.49368c0-3.96521,3.21361-7.17883,7.17859-7.17883 c3.96521,0,7.17882,3.21362,7.17882,7.17883v171.63715C217.25865,478.09579,214.04504,481.30942,210.07983,481.30942z M210.07983,209.21962c-3.96498,0-7.17859-3.21359-7.17859-7.17882v-49.94452c0-3.96523,3.21361-7.17883,7.17859-7.17883 c3.96521,0,7.17882,3.21361,7.17882,7.17883v49.94452C217.25865,206.00603,214.04504,209.21962,210.07983,209.21962z"></path> <path d="M301.92017,481.30942c-3.96497,0-7.17859-3.21362-7.17859-7.17859V302.49368c0-3.96521,3.21362-7.17883,7.17859-7.17883 c3.96524,0,7.17883,3.21362,7.17883,7.17883v171.63715C309.099,478.09579,305.88541,481.30942,301.92017,481.30942z M301.92017,209.21962c-3.96497,0-7.17859-3.21359-7.17859-7.17882v-49.94452c0-3.96523,3.21362-7.17883,7.17859-7.17883 c3.96524,0,7.17883,3.21361,7.17883,7.17883v49.94452C309.099,206.00603,305.88541,209.21962,301.92017,209.21962z"></path> <path d="M256.00012,279.83026c-28.30962,0-49.65779-11.97449-49.65779-27.84494c0-15.54384,21.34818-27.27107,49.65779-27.27107 c28.30939,0,49.65784,11.72723,49.65784,27.27107C305.65796,267.85577,284.30951,279.83026,256.00012,279.83026z M256.00012,239.07166c-21.90225,0-35.30042,8.35547-35.30042,12.91367c0,5.36929,14.08051,13.48755,35.30042,13.48755 c21.21973,0,35.30042-8.11826,35.30042-13.48755C291.30054,247.42712,277.90213,239.07166,256.00012,239.07166z"></path> <path d="M256.00012,159.27486c-3.96523,0-7.17882-3.21361-7.17882-7.17857V46.47191c0-3.96522,3.21359-7.17883,7.17882-7.17883 c3.96497,0,7.17859,3.2136,7.17859,7.17883v105.62437C263.17871,156.06125,259.96509,159.27486,256.00012,159.27486z"></path> <path d="M310.53271,53.65049H201.4673c-3.96498,0-7.17859-3.2136-7.17859-7.17858V13.17883 C194.28871,9.2136,197.50232,6,201.4673,6h9.75954c3.96523,0,7.17883,3.2136,7.17883,7.17883 c0,3.96498-3.21361,7.17858-7.17883,7.17858h-2.58067v18.93568h94.70796V20.35741h-55.39316 c-3.96497,0-7.17857-3.2136-7.17857-7.17858C240.78239,9.2136,243.996,6,247.96097,6h62.57175 c3.96521,0,7.1788,3.2136,7.1788,7.17883v33.29308C317.71152,50.43689,314.49792,53.65049,310.53271,53.65049z"></path></g></svg>