<svg xmlns="http://www.w3.org/2000/svg" xmlns:xlink="http://www.w3.org/1999/xlink" id="&#x421;&#x43B;&#x43E;&#x439;_1" x="0px" y="0px" width="512px" height="512px" viewBox="0 0 512 512" style="enable-background:new 0 0 512 512;" xml:space="preserve"><g> <path d="M266.33295,402.0965c-80.55798,0-146.09604-65.53833-146.09604-146.09628 c0-80.24167,65.53806-145.52264,146.09604-145.52264c80.24164,0,145.52264,65.28098,145.52264,145.52264 C411.85559,336.55817,346.57458,402.0965,266.33295,402.0965z M266.33295,124.83497 c-72.64761,0-131.73863,58.83395-131.73863,131.16525c0,72.64758,59.09102,131.73862,131.73863,131.73862 c72.33127,0,131.16522-59.09103,131.16522-131.73862C397.49817,183.66891,338.66422,124.83497,266.33295,124.83497z"></path> <path d="M266.33295,338.95111c-45.74207,0-82.95093-37.20883-82.95093-82.9509c0-45.74231,37.20886-82.95093,82.95093-82.95093 c13.61581,0,26.72754,3.29269,37.9306,9.52208c3.46088,1.92825,4.70679,6.28888,2.77853,9.75955 c-1.91821,3.45084-6.27884,4.7166-9.75955,2.77853c-9.06717-5.04295-19.76614-7.70276-30.94958-7.70276 c-37.82191,0-68.59352,30.77162-68.59352,68.59352s30.77161,68.59351,68.59352,68.59351s68.59351-30.77161,68.59351-68.59351 c0-9.52232-2.20493-19.44003-6.19977-27.94362c-1.6908-3.57962-0.15817-7.86116,3.43124-9.54214 c3.57938-1.70056,7.88074-0.16795,9.5419,3.43126c4.96387,10.52097,7.58401,22.29765,7.58401,34.0545 C349.28384,301.74228,312.07526,338.95111,266.33295,338.95111z"></path> <path d="M53.3638,228.73869C27.24929,228.73869,6,207.23233,6,180.8015v-63.14536c0-3.96498,3.2136-7.17858,7.17858-7.17858 c3.96522,0,7.17883,3.2136,7.17883,7.17858v63.14536c0,18.20389,15.10903,33.57979,33.00639,33.57979 c18.52045,0,33.57978-15.05957,33.57978-33.57979v-63.14536c0-3.96498,3.21361-7.17858,7.17883-7.17858 c3.96523,0,7.17883,3.2136,7.17883,7.17858v63.14536C101.30122,207.23233,79.79462,228.73869,53.3638,228.73869z"></path> <path d="M53.3638,187.98009c-3.96522,0-7.17883-3.21361-7.17883-7.17859v-63.14536c0-3.96498,3.2136-7.17858,7.17883-7.17858 s7.17883,3.2136,7.17883,7.17858v63.14536C60.54262,184.76648,57.32902,187.98009,53.3638,187.98009z"></path> <path d="M53.3638,402.0965c-14.78267,0-27.27131-12.48865-27.27131-27.27133v-99.30585c0-3.96524,3.2136-7.17883,7.17883-7.17883 h40.7586c3.96497,0,7.17858,3.21359,7.17858,7.17883v99.30585C81.2085,389.8649,68.71986,402.0965,53.3638,402.0965z M40.44989,282.69788v92.12729c0,7.00061,5.91307,12.91367,12.9139,12.91367c7.43589,0,13.48729-5.79431,13.48729-12.91367 v-92.12729H40.44989z"></path> <path d="M478.7287,402.0965c-14.78268,0-27.27133-12.48865-27.27133-27.27133v-99.30585c0-3.96524,3.21362-7.17883,7.17883-7.17883 h40.18497c3.96524,0,7.17883,3.21359,7.17883,7.17883v99.30585C506,389.8649,493.76843,402.0965,478.7287,402.0965z M465.81479,282.69788v92.12729c0,7.00061,5.91306,12.91367,12.91391,12.91367c7.24786,0,12.91364-5.6658,12.91364-12.91367 v-92.12729H465.81479z"></path> <path d="M498.82117,282.69788c-3.96497,0-7.17883-3.21359-7.17883-7.17856V133.20023 c-28.00284,27.91399-39.29501,61.57309-34.48953,102.44038c0.4649,3.93561-2.3533,7.50519-6.28864,7.96986 c-4.03452,0.2769-7.50519-2.36331-7.96988-6.28888c-5.95273-50.70593,11.33185-93.02678,51.38828-125.79593 c2.1557-1.76006,5.12204-2.11604,7.61389-0.92961C504.3981,111.78273,506,114.314,506,117.08276v158.43655 C506,279.48428,502.78641,282.69788,498.82117,282.69788z"></path> <path d="M53.3638,282.69788c-3.96522,0-7.17883-3.21359-7.17883-7.17856V221.5601c0-3.96523,3.2136-7.17882,7.17883-7.17882 s7.17883,3.21359,7.17883,7.17882v53.95921C60.54262,279.48428,57.32902,282.69788,53.3638,282.69788z"></path></g></svg>