<svg xmlns="http://www.w3.org/2000/svg" xmlns:xlink="http://www.w3.org/1999/xlink" id="Layer_1" x="0px" y="0px" viewBox="0 0 1135.1 675.1" style="enable-background:new 0 0 1135.1 675.1;" xml:space="preserve"><style type="text/css"> .st0{fill:#575756;}</style><path id="Flying_airplane_00000153685274553804173070000004603329410328781236_" class="st0" d="M402,579.2l-44.9-116.9l27.9,0 L402,579.2z M1134.4,467.2l-6,11c-1.2,2.2-3.5,3.4-6,3.2l-122.8-9.9l3.4-7.9l-45.3-6l-2,4.9l38.8,5.2l-4,10.7l-39.9-3.3l-0.6,1.4 c-0.8,1.8-2.5,3-4.4,3c-0.6,0-1.2-0.1-1.8-0.4c-2-0.8-3.1-2.8-2.9-4.8l-90.1-7.5l-0.4,1.2c-0.7,2-2.5,3.2-4.5,3.2 c-0.5,0-1-0.1-1.6-0.3c-2.1-0.7-3.3-2.8-3.2-4.9l-47.3-3.9l7.2-20.1l46.2,6.1l1.7-4.9l-51.5-6.8l-5,12.7l-49.7-0.9l3.4-13.7 l-25.5,1.4l-0.7,4.8l18.6-1.1l-5.9,20.9l-15.5,1l-0.1,0.9c-0.3,2.4-2.4,4.1-4.7,4.1c-0.2,0-0.4,0-0.6,0c-2.3-0.3-4-2.2-4.1-4.4 l-43.3,2.8l0,0.2c-0.2,2.5-2.3,4.5-4.8,4.5c-0.1,0-0.2,0-0.3,0c-2.3-0.1-4.1-1.9-4.4-4.1l-15.8,1v-20.9l17-1l0.3-5.1l-22.6,1.3l1-37 l-3.3,125.9c-0.5,21.1-3.7,42.2-9.8,62.4l151,36c2.5,0.6,4,3,3.5,5.5l-1.3,6.3c-0.5,2.2-2.5,3.8-4.8,3.7L603.2,636 c-10.5,20-23.9,39.1-35.6,39.1c-11.7,0-25.1-19.1-35.6-39.1l-166.7,7.6c-2.3,0.1-4.3-1.5-4.8-3.7l-1.3-6.3c-0.5-2.5,1-4.9,3.5-5.5 l151-36c-6.1-20.2-9.3-41.2-9.8-62.4l-2.9-114l0.6,25.1l-22.6-1.3l0.3,5.1l17,1v20.9l-15.8-1c-0.3,2.2-2.1,3.9-4.4,4.1 c-0.1,0-0.2,0-0.3,0c-2.5,0-4.6-1.9-4.8-4.5l0-0.2l-43.3-2.8c-0.1,2.2-1.8,4.1-4.1,4.4c-0.2,0-0.4,0-0.6,0c-2.4,0-4.4-1.7-4.7-4.1 l-0.1-0.9l-15.5-1l-5.9-20.9l18.6,1.1l-0.7-4.8l-25.5-1.4l3.4,13.7l-49.7,0.9l-5-12.7l-51.5,6.8l1.7,4.9l46.2-6.1l7.2,20.1 l-47.3,3.9c0.2,2.1-1.1,4.2-3.2,4.9c-0.5,0.2-1,0.3-1.6,0.3c-2,0-3.8-1.2-4.5-3.2l-0.4-1.2l-90.1,7.5c0.2,2-1,4-2.9,4.8 c-0.6,0.2-1.2,0.4-1.8,0.4c-1.9,0-3.7-1.1-4.4-3l-0.6-1.4l-39.9,3.3l-4-10.7l38.8-5.2l-2-4.9l-45.3,6l3.4,7.9l-122.8,9.9 c-2.5,0.2-4.8-1.1-6-3.2l-6-11c-2-3.6,0-8.1,4-9c35.6-8.5,184.2-44.4,311.7-82.7c-2.9-10.1-4.9-19.7-5.8-26.9c0,0,0,0,0,0 c-3.1-16.3,9.4-32.3,27.8-35.7c17-3.2,33.1,5.4,37.9,19.5c0.2,0.5,0.4,1,0.6,1.5c1.7,5.4,3.5,12.7,5.1,21 c51.6-17.1,94.2-33.9,116.1-48l-4-153.9c0,0-10.2-149.5,73.5-152.9c83.7,3.4,73.5,152.9,73.5,152.9l-4,153.9 c22,14.3,65.3,31.2,117.4,48.5c1.5-8.5,3.3-15.9,5-21.4c0.2-0.5,0.4-1,0.6-1.5c4.7-14.1,20.7-22.9,37.7-19.8 c18.4,3.3,30.9,19.2,28,35.5c0,0,0,0,0,0c-0.9,7.5-2.9,17.3-5.8,27.8c127.2,38.2,274.9,73.9,310.3,82.3 C1134.4,459.1,1136.3,463.6,1134.4,467.2z M502,152.3l0,0.2l3.8,146.9c13.2-22.2,18.6-65.8,16.5-120.5 c-2.5-64.1,14.6-153.8,44.7-153.8c30.1,0,48.1,89.3,46.2,153.5c-1.6,53.3,3.6,96.1,16.3,118.7l3.7-144.7l0-0.3 c0.1-0.9,5.5-88.5-29-127c-9.9-11-21.9-16.7-36.6-17.4c-14.7,0.7-26.7,6.4-36.6,17.4C496.4,63.9,501.9,151.5,502,152.3z M324.6,398.8c-2.1-5.1-4-10.3-5.7-15.5C193.8,420.8,52,455.1,8.8,465.4L324.6,398.8z M278.4,449.3l-1.7-4.9l-89.4,11.9l2,4.9 L278.4,449.3z M340,426.4c-1.2-1.6-2.4-3.2-3.6-5c-4,0.7-8.1,1.4-12.1,2.1c-11.9,2.1-23.8,4.3-35.7,6.5c-11.9,2.3-23.8,4.6-35.7,7 l-17.8,3.7l-8.9,1.9l-8.9,2l9-1.1l9-1.2l18-2.4c12-1.7,24-3.5,36-5.3c12-1.9,23.9-3.7,35.9-5.7C330.2,428,335.1,427.2,340,426.4z M350.8,432c-4.3-5.3-7.1-11.5-9.3-17.7c-2.2-6.3-3.7-12.8-4.9-19.3c-1.4-7.8-2.3-15.7-2.9-23.6c-5.9-1.5-11.1-4.3-15.2-8.3 c2.8,11.6,6.1,23,10.5,34.1c2.6,6.5,5.4,12.8,9,18.8C341.4,421.9,345.6,427.6,350.8,432z M352.6,356.5c-0.5-2.8-3.5-4.6-6.7-4 c-3.2,0.6-5.3,3.4-4.8,6.2c0.5,2.8,3.5,4.6,6.7,4C351,362,353.1,359.3,352.6,356.5z M364,333.2c1.1,1.5,1.8,3.1,2.4,4.9 c1.1,3.6,0.9,7.6-0.3,11.5c2.5-3.3,3.8-7.6,3.4-12.1c-0.3-2.2-0.9-4.4-1.9-6.4c-1-2-2.4-3.9-4-5.5c-6.6-6.3-16.6-8.4-25.3-6.2 c-2.2,0.5-4.3,1.3-6.4,2.2c-2,1.1-4,2.2-5.7,3.7c-0.9,0.7-1.7,1.5-2.5,2.3c-0.7,0.9-1.5,1.7-2.1,2.7c-1.3,1.8-2.3,3.9-3,6.1 c-1.4,4.4-1.1,9.2,0.6,13.3c1.8,4.1,5.1,7.2,8.8,8.9c-2.9-2.9-5.1-6.3-5.9-9.9c-0.8-3.6-0.4-7.3,1.1-10.5c0.1-0.1,0.2-0.3,0.2-0.4 l14.3,11.3l-9.2-17.9c0.4-0.4,0.9-0.8,1.4-1.1c2.1-1.6,4.4-2.8,6.9-3.6l7.6,18.7l0.3-20.2c1.9-0.1,3.8,0,5.6,0.4 c3.6,0.6,6.9,2,9.8,4.1C361.6,330.4,362.9,331.7,364,333.2z M379.4,387.3c-0.4-11.9-1.9-23.7-4-35.4c-2.2,5.2-5.9,9.8-10.7,13.3 c2.7,7.6,5,15.3,6.8,23.1c1.5,6.5,2.7,13,3.2,19.7c0.5,6.6,0.3,13.4-1.5,20c3-6.1,4.6-13,5.4-19.9 C379.5,401.2,379.6,394.2,379.4,387.3z M469.6,444l-0.3-5.1l-45.1-2.5l0.7,4.9L469.6,444z M475.7,428.7c-9.5-1.3-19.1-2.3-28.7-3.4 c-9.6-1.1-19.1-2.1-28.7-3c-9.6-0.9-19.2-1.8-28.7-2.6c-2.1-0.2-4.2-0.4-6.3-0.5c-0.4,1.8-0.9,3.5-1.5,5.1c2.5,0.2,4.9,0.3,7.4,0.5 c9.6,0.6,19.2,1.2,28.8,1.7c9.6,0.5,19.2,1,28.8,1.4C456.4,428.1,466,428.6,475.7,428.7z M499.4,362l-1.1-43.5 c-27,13.9-67.9,29.3-115,44.7c1.1,7.3,1.9,15.1,2.3,22.8L499.4,362z M519.4,608.6c-0.8-2.1-1.6-4-2.2-5.8c-0.3-0.9-0.6-1.7-0.9-2.6 c-14.1,3.2-28.3,6.4-42.4,9.8c-15.4,3.6-30.8,7.4-46.2,11.2c-15.4,3.9-30.7,7.8-46,12.2c15.7-2.3,31.3-4.9,47-7.6 c15.6-2.8,31.2-5.6,46.8-8.5C490.1,614.4,504.7,611.4,519.4,608.6z M556.4,659.1v-47.8c0-5.7-1.9-11.2-5.3-15.7 c-16.2-21-25.3-46.6-26.1-73.1l-2.2-70.2c0,0,0.1,0,0.1,0c3.3,1,6.5,1.8,9.8,2.5c6.6,1.3,13.2,2,19.7,2.1 c-6.3-1.7-12.4-3.9-18.2-6.7c-2.9-1.3-5.7-2.9-8.4-4.5c-2.7-1.6-5.2-3.4-7.6-5.3l0,0l-9-7.3l2.5,96.2c0.6,25,5,48.7,12.9,70.6 C533.4,624.2,546.2,647.4,556.4,659.1z M618.9,600.1c-0.3,0.9-0.6,1.7-0.9,2.6c-0.7,1.8-1.4,3.8-2.2,5.8c14.7,2.9,29.3,5.9,44,8.6 c15.6,3,31.2,5.8,46.8,8.5c15.6,2.7,31.2,5.3,47,7.6c-15.3-4.3-30.6-8.2-46-12.2c-15.4-3.8-30.8-7.6-46.2-11.2 C647.2,606.5,633,603.3,618.9,600.1z M623.4,529.4l2.5-95.3l-13.1,9.7c-1.1,0.7-2.1,1.5-3.3,2.1c-2.7,1.6-5.5,3.1-8.4,4.5 c-5.8,2.7-11.9,5-18.2,6.7c6.6-0.1,13.2-0.8,19.7-2.1c3.3-0.6,6.5-1.5,9.7-2.4l-2.2,69.9c-0.8,26.5-10,52.1-26.1,73.1 c-3.5,4.5-5.3,10-5.3,15.7v47.8c10.2-11.8,23-35,31.8-59.1C618.4,578.2,622.8,554.4,623.4,529.4z M751.1,386.3 c0.3-7.6,1.1-15.3,2.1-22.6c-47.7-15.6-89.2-31.2-116.4-45.2l-1.1,43.5L751.1,386.3z M710.9,436.4l-45.1,2.5l-0.3,5.1l44.7-2.7 L710.9,436.4z M755.2,424.1c-0.6-1.6-1.1-3.3-1.6-5.1c-2.7,0.2-5.4,0.5-8.1,0.7c-9.6,0.8-19.2,1.7-28.7,2.6 c-9.6,0.9-19.1,1.9-28.7,3c-9.6,1.1-19.1,2.1-28.7,3.4c9.6-0.2,19.2-0.6,28.9-0.9c9.6-0.4,19.2-0.8,28.8-1.4 c9.6-0.5,19.2-1.1,28.8-1.7C749,424.5,752.1,424.3,755.2,424.1z M771.9,365.1c-4.8-3.5-8.6-8.1-10.8-13.2c-2,11.7-3.4,23.5-3.7,35.4 c-0.2,6.9,0,13.9,0.9,20.8c0.9,6.9,2.5,13.7,5.6,19.8c-1.8-6.6-2-13.3-1.6-20c0.5-6.6,1.6-13.2,3-19.7 C767,380.4,769.3,372.7,771.9,365.1z M776.2,329.3c2.9-2.1,6.2-3.6,9.8-4.2c1.8-0.3,3.7-0.5,5.6-0.4l0.5,20.2l7.5-18.7 c2.5,0.8,4.8,2,6.9,3.6c0.5,0.3,1,0.7,1.4,1.1l-9.1,17.9l14.2-11.4c0.1,0.1,0.2,0.3,0.2,0.4c1.5,3.2,2,6.9,1.2,10.5 c-0.8,3.7-2.9,7.1-5.8,10c3.7-1.7,7-4.9,8.8-9c1.7-4.1,2-8.9,0.6-13.3c-0.7-2.2-1.7-4.3-3.1-6.1c-0.6-1-1.4-1.8-2.1-2.7 c-0.8-0.8-1.6-1.6-2.5-2.3c-1.7-1.5-3.7-2.6-5.7-3.7c-2.1-0.9-4.2-1.7-6.4-2.2c-8.7-2.1-18.6,0-25.2,6.4c-1.6,1.6-3,3.5-4,5.5 c-1,2.1-1.6,4.2-1.8,6.4c-0.4,4.4,0.9,8.8,3.5,12.1c-1.3-3.9-1.5-7.9-0.4-11.5c0.6-1.8,1.3-3.4,2.4-4.9 C773.5,331.7,774.8,330.3,776.2,329.3z M788.8,362.5c3.2,0.6,6.2-1.2,6.7-4c0.5-2.8-1.7-5.5-4.8-6.1c-3.2-0.6-6.2,1.2-6.7,4 C783.5,359.2,785.6,361.9,788.8,362.5z M799.1,415.6c3.5-6,6.3-12.4,8.8-18.9c4.3-11.1,7.5-22.5,10.2-34.1c-4,4-9.3,6.9-15.1,8.4 c-0.5,7.9-1.4,15.8-2.7,23.6c-1.2,6.5-2.6,13.1-4.8,19.4c-2.2,6.3-4.9,12.4-9.2,17.8C791.5,427.4,795.6,421.6,799.1,415.6z M881.7,439.9l18,2.4l9,1.2l9,1.1l-8.9-2l-8.9-1.9l-17.8-3.7c-11.9-2.4-23.8-4.7-35.7-7c-11.9-2.2-23.8-4.4-35.7-6.5 c-3.5-0.6-7-1.2-10.5-1.8c-1.2,1.7-2.4,3.4-3.6,4.9c4.4,0.7,8.8,1.5,13.2,2.2c11.9,2,23.9,3.9,35.9,5.7 C857.8,436.4,869.7,438.2,881.7,439.9z M947.9,456.3l-89.4-11.9l-1.7,4.9l89.1,11.9L947.9,456.3z M1126.3,465.4 c-43-10.3-183.9-44.3-308.7-81.6c-1.7,5.1-3.6,10.3-5.6,15.4L1126.3,465.4z M778,462.2l-27.9,0l-17,117L778,462.2z"></path></svg>