<svg xmlns="http://www.w3.org/2000/svg" xmlns:xlink="http://www.w3.org/1999/xlink" id="&#x421;&#x43B;&#x43E;&#x439;_1" x="0px" y="0px" width="512px" height="512px" viewBox="0 0 512 512" style="enable-background:new 0 0 512 512;" xml:space="preserve"><g> <path d="M351.2912,143.78026c-1.89841,0-3.72775-0.76117-5.0726-2.106l-16.65143-16.65169 c-2.80817-2.79813-2.80817-7.34678,0-10.14515c2.80817-2.80817,7.33698-2.80817,10.14514,0l11.57889,11.5791l11.56906-11.5791 c2.78833-2.80817,7.33698-2.80817,10.14514,0c2.79837,2.79837,2.80817,7.34702,0,10.14515l-16.64163,16.65169 C355.01892,143.01909,353.19965,143.78026,351.2912,143.78026z"></path> <path d="M498.82117,127.12881H367.93283c-3.96521,0-7.17883-3.2136-7.17883-7.17883c0-3.96497,3.21362-7.17858,7.17883-7.17858 h130.88834c3.96524,0,7.17883,3.21361,7.17883,7.17858C506,123.91521,502.78641,127.12881,498.82117,127.12881z"></path> <path d="M334.63974,399.22864c-1.83911,0-3.66849-0.7019-5.07257-2.10623c-2.80817-2.79813-2.80817-7.34677,0-10.14517 l16.65143-16.65143c1.34485-1.34485,3.17419-2.10599,5.0726-2.10599l0,0c1.90845,0,3.72772,0.76114,5.07257,2.10599 l16.64163,16.65143c2.80817,2.7984,2.79837,7.34705,0,10.14517c-2.80817,2.80841-7.35681,2.80841-10.14514,0l-11.56906-11.57886 l-11.57889,11.57886C338.30823,398.52673,336.47888,399.22864,334.63974,399.22864z"></path> <path d="M498.82117,399.22864H367.93283c-3.96521,0-7.17883-3.21359-7.17883-7.1788c0-3.965,3.21362-7.17859,7.17883-7.17859 h130.88834c3.96524,0,7.17883,3.21359,7.17883,7.17859C506,396.01505,502.78641,399.22864,498.82117,399.22864z"></path> <path d="M334.63974,127.12881H13.1786c-3.96499,0-7.1786-3.2136-7.1786-7.17883c0-3.96497,3.2136-7.17858,7.1786-7.17858h321.46115 c3.965,0,7.17883,3.21361,7.17883,7.17858C341.81857,123.91521,338.60474,127.12881,334.63974,127.12881z"></path> <path d="M334.63974,399.22864H13.1786c-3.96499,0-7.1786-3.21359-7.1786-7.1788c0-3.965,3.2136-7.17859,7.1786-7.17859h321.46115 c3.965,0,7.17883,3.21359,7.17883,7.17859C341.81857,396.01505,338.60474,399.22864,334.63974,399.22864z"></path> <path d="M13.1786,399.22864c-3.96499,0-7.1786-3.21359-7.1786-7.1788V119.94999c0-3.96497,3.2136-7.17858,7.1786-7.17858 c3.96521,0,7.17881,3.21361,7.17881,7.17858v272.09985C20.35741,396.01505,17.1438,399.22864,13.1786,399.22864z"></path> <path d="M498.82117,399.22864c-3.96521,0-7.17883-3.21359-7.17883-7.1788V119.94999c0-3.96497,3.21362-7.17858,7.17883-7.17858 c3.96524,0,7.17883,3.21361,7.17883,7.17858v272.09985C506,396.01505,502.78641,399.22864,498.82117,399.22864z"></path> <path d="M351.2912,264.89926c-3.96497,0-7.17859-3.21359-7.17859-7.17883v-3.44104c0-3.96498,3.21362-7.17859,7.17859-7.17859 c3.96521,0,7.1788,3.21361,7.1788,7.17859v3.44104C358.47,261.68567,355.25641,264.89926,351.2912,264.89926z"></path> <path d="M351.2912,198.88647c-3.96497,0-7.17859-3.21361-7.17859-7.17859v-4.01466c0-3.96498,3.21362-7.17859,7.17859-7.17859 c3.96521,0,7.1788,3.21361,7.1788,7.17859v4.01466C358.47,195.67287,355.25641,198.88647,351.2912,198.88647z"></path> <path d="M351.2912,331.48541c-3.96497,0-7.17859-3.21359-7.17859-7.17856v-4.01468c0-3.965,3.21362-7.17859,7.17859-7.17859 c3.96521,0,7.1788,3.21359,7.1788,7.17859v4.01468C358.47,328.27182,355.25641,331.48541,351.2912,331.48541z"></path> <path d="M299.62601,321.1525h-79.78676c-3.96497,0-7.17882-3.21362-7.17882-7.17883c0-3.96497,3.21385-7.17859,7.17882-7.17859 h79.78676c3.96524,0,7.17886,3.21362,7.17886,7.17859C306.80487,317.93887,303.59125,321.1525,299.62601,321.1525z"></path> <path d="M219.84904,321.1525c-2.52121,0-4.95383-1.32501-6.2688-3.67828l-10.90657-19.50931 c-1.93805-3.46063-0.70216-7.8313,2.75871-9.75955c3.47067-1.95764,7.82152-0.71198,9.75955,2.75894l10.90657,19.50906 c1.93808,3.46088,0.70192,7.8313-2.75896,9.75955C222.23219,320.85577,221.03572,321.1525,219.84904,321.1525z"></path> <path d="M208.92291,340.09796c-1.21632,0-2.44241-0.30652-3.56958-0.95898c-3.43127-1.97772-4.61771-6.36795-2.64024-9.79922 l10.90657-18.94547c1.9875-3.43124,6.39758-4.59784,9.79921-2.64023c3.43102,1.97772,4.61772,6.36798,2.63998,9.79922 l-10.90657,18.94547C213.82727,338.80258,211.40471,340.09796,208.92291,340.09796z"></path> <path d="M274.37183,321.1525c-2.10599,0-4.19241-0.92938-5.60629-2.70926l-31.57268-39.60181 c-2.47202-3.09485-1.96768-7.61389,1.13722-10.07587c3.09486-2.46222,7.61365-1.94809,10.07587,1.13699l31.57245,39.60178 c2.47202,3.09488,1.96793,7.61389-1.13699,10.07587C277.52618,320.63837,275.94412,321.1525,274.37183,321.1525z"></path> <path d="M242.79941,360.1907c-1.59212,0-3.18399-0.5242-4.50899-1.60193c-3.08507-2.49185-3.55978-7.01062-1.06792-10.08591 l31.57266-39.03818c2.49161-3.10468,7.02042-3.56958,10.08566-1.06769c3.08505,2.49161,3.55978,7.01062,1.06793,10.08563 l-31.57243,39.03821C246.9622,359.28091,244.88582,360.1907,242.79941,360.1907z"></path> <path d="M176.21324,321.1525H13.1786C9.2136,321.1525,6,317.93887,6,313.97366c0-3.96497,3.2136-7.17859,7.1786-7.17859h163.03464 c3.96497,0,7.17857,3.21362,7.17857,7.17859C183.39182,317.93887,180.17821,321.1525,176.21324,321.1525z"></path> <path d="M455.19492,166.16702h-60.27747c-3.96521,0-7.17883-3.21361-7.17883-7.17883s3.21362-7.17882,7.17883-7.17882h60.27747 c3.96521,0,7.17883,3.21359,7.17883,7.17882S459.16013,166.16702,455.19492,166.16702z"></path> <path d="M455.19492,204.63159h-60.27747c-3.96521,0-7.17883-3.21361-7.17883-7.17883c0-3.96521,3.21362-7.17882,7.17883-7.17882 h60.27747c3.96521,0,7.17883,3.21361,7.17883,7.17882C462.37375,201.41798,459.16013,204.63159,455.19492,204.63159z"></path> <path d="M455.19492,282.69772h-4.02423c-3.96521,0-7.17883-3.21362-7.17883-7.17859c0-3.96524,3.21362-7.17883,7.17883-7.17883 h4.02423c3.96521,0,7.17883,3.21359,7.17883,7.17883C462.37375,279.4841,459.16013,282.69772,455.19492,282.69772z"></path> <path d="M417.87735,282.69772h-22.9599c-3.96521,0-7.17883-3.21362-7.17883-7.17859c0-3.96524,3.21362-7.17883,7.17883-7.17883 h22.9599c3.96524,0,7.17883,3.21359,7.17883,7.17883C425.05618,279.4841,421.84259,282.69772,417.87735,282.69772z"></path> <path d="M455.19492,321.72589h-60.27747c-3.96521,0-7.17883-3.21362-7.17883-7.17859c0-3.96524,3.21362-7.17883,7.17883-7.17883 h60.27747c3.96521,0,7.17883,3.21359,7.17883,7.17883C462.37375,318.51227,459.16013,321.72589,455.19492,321.72589z"></path> <path d="M427.06351,360.76407h-32.14606c-3.96521,0-7.17883-3.21359-7.17883-7.1788c0-3.965,3.21362-7.17859,7.17883-7.17859 h32.14606c3.965,0,7.17859,3.21359,7.17859,7.17859C434.2421,357.55048,431.0285,360.76407,427.06351,360.76407z"></path> <path d="M283.55801,166.16702H53.3638c-3.96522,0-7.17883-3.21361-7.17883-7.17883s3.2136-7.17882,7.17883-7.17882h230.19421 c3.96497,0,7.17883,3.21359,7.17883,7.17882S287.52298,166.16702,283.55801,166.16702z"></path> <path d="M224.42732,204.63159h-94.14418c-3.96522,0-7.17883-3.21361-7.17883-7.17883c0-3.96521,3.21361-7.17882,7.17883-7.17882 h94.14418c3.96523,0,7.17885,3.21361,7.17885,7.17882C231.60617,201.41798,228.39255,204.63159,224.42732,204.63159z M94.1224,204.63159H53.3638c-3.96522,0-7.17883-3.21361-7.17883-7.17883c0-3.96521,3.2136-7.17882,7.17883-7.17882h40.7586 c3.96523,0,7.17883,3.21361,7.17883,7.17882C101.30122,201.41798,98.08762,204.63159,94.1224,204.63159z"></path></g></svg>