<svg xmlns="http://www.w3.org/2000/svg" xmlns:xlink="http://www.w3.org/1999/xlink" id="Layer_1" x="0px" y="0px" viewBox="0 0 553.2 421.7" style="enable-background:new 0 0 553.2 421.7;" xml:space="preserve"><style type="text/css"> .st0{fill:#575756;}</style><path id="Travel_suitcase" class="st0" d="M544.3,360c5.4-36.8,9.2-79.5,8.8-126.8c-0.3-42.8-3.8-81.7-8.8-115.7 c1.5-1,2.5-2.7,2.5-4.7v-17c0-18.8-15.3-34.1-34.1-34.1h-17c-2.3,0-4.3,1.4-5.2,3.4c-16.3-1.6-32.9-3-49.9-4.2v-1.5 c0-3-2.3-5.5-5.3-5.7c-9.1-0.6-18.2-1.2-27.3-1.8c-3.3-0.2-6,2.4-6,5.7v0.8c-16.2-0.9-32.7-1.7-49.5-2.3l4-19.3 c4.7,0.4,9.2-2.6,10.5-7.3l1.8-6.4c1.5-5.4-1.8-11.1-7.2-12.4C333.8,3.7,305.5,0.1,277,0c-29.7-0.1-59.1,3.4-87.8,10.5 c-5.5,1.4-8.7,7-7.2,12.4l1.8,6.4c1.3,4.6,5.6,7.6,10.2,7.3l4,19.3c-18,0.6-35.6,1.4-52.8,2.4v-0.8c0-3.3-2.8-5.9-6-5.7 c-9.1,0.6-18.2,1.2-27.3,1.8c-3,0.2-5.3,2.7-5.3,5.7V61c-15.6,1.2-30.9,2.5-45.9,3.9c-0.9-2-2.9-3.3-5.2-3.3h-17 c-18.8,0-34.1,15.3-34.1,34.1v17c0,2.1,1.1,3.8,2.7,4.8C3,152.4,0.2,191,0,232.8c-0.3,46.5,2.6,89,7,127c-1.7,1-2.8,2.8-2.8,4.9v17 c0,18.8,15.3,34.1,34.1,34.1h17c2.7,0,5-1.9,5.6-4.5c15,0.8,30.2,1.5,45.5,2.2v1.3c0,3,2.4,5.6,5.4,5.7c9.1,0.4,18.2,0.7,27.3,1 c3.2,0.1,5.9-2.5,5.9-5.7v-0.9c42.6,1.4,86.3,2.2,131.3,2.1c42.9,0,84.8-0.7,125.6-2v0.9c0,3.2,2.7,5.8,5.9,5.7 c9.1-0.3,18.2-0.6,27.3-1c3-0.1,5.5-2.6,5.5-5.7v-1.3c16.7-0.7,33.2-1.5,49.5-2.4c0.5,2.6,2.8,4.5,5.6,4.5h17 c18.8,0,34.1-15.3,34.1-34.1v-17C546.8,362.7,545.8,361,544.3,360z M60.2,76.3c15.4-1.5,30.8-2.8,46.2-4l-0.1,14.9 c-9.6,1-19.2,2.2-28.7,3.4c9.6-0.5,19.1-0.9,28.7-1.3l-1.2,125l1.4,2.2v45.6c-40-4.4-71.1-10.5-85.8-18.5c-0.1,1.1-0.2,2.2-0.3,3.3 c-0.5,5.2-0.8,10.3-1.2,15.5c-0.3,5.2-0.6,10.4-0.8,15.6c-0.4,10.4-0.6,20.8-0.5,31.2c0.1,10.4,0.3,20.9,1,31.3 c-1.7-10.3-3-20.7-4.2-31.1c-1.1-10.4-2-20.9-2.6-31.3c-0.4-5.2-0.5-10.5-0.8-15.7c-0.1-5.3-0.3-10.5-0.3-15.8 c-0.2-10.5,0.2-21.1,0.6-31.7l0.1,0c0.7-32.5,3.1-65.1,6.9-97.3c7.4-1.4,18.6-5,28.2-14.9C55.4,93.6,58.8,83.4,60.2,76.3z M10,92.1 c0.5-6.3,3.5-12.4,7.9-17c4.4-4.6,10.6-7.6,17-7.9c6.3,0,12.1,0.6,18.2,1.2c-3,0.4-6,0.5-9,0.8c-3,0.3-6.2,0.3-8.9,0.6 c-5.6,0.8-10.9,3.6-14.8,7.7c-3.9,4.1-6.7,9.3-7.6,15c-0.4,2.8-0.5,5.9-0.7,8.9c-0.3,3-0.5,6-0.9,9c-0.4-3-0.6-6-0.9-9 C10.1,98.3,9.7,95.3,10,92.1z M44.1,409.8c-3,0.2-5.9,0.5-9.2,0.2c-6.3-0.5-12.3-3.7-16.8-8.1c-4.4-4.5-7.6-10.4-8.1-16.8 c-0.3-3.2,0.1-6.2,0.2-9.2c0.2-3,0.5-6,0.9-9c0.4,3,0.6,6,0.9,9c0.2,3,0.3,6.1,0.7,8.8c1,5.6,3.9,10.7,7.9,14.7 c4,4,9.1,6.9,14.7,7.9c2.7,0.5,5.8,0.5,8.8,0.7c3,0.2,6,0.5,9,0.8C50.1,409.4,47.1,409.6,44.1,409.8z M54.6,387.3 c-2.5-4.4-5.5-8.5-9.1-12.1c-3.5-3.6-7.6-6.7-12-9.3c-4.4-2.5-9.2-4.4-14.2-5.9c5.2,0.6,10.2,2.1,15,4.4c4.7,2.3,9.1,5.4,12.8,9.2 c3.7,3.8,6.8,8.1,9,12.9c2.2,4.8,3.7,9.9,4.2,15C58.9,396.5,57,391.7,54.6,387.3z M66,328.5l-6.3-4.6l-6.3,4.6l2.4-7.4l-6.3-4.6h7.8 l2.4-7.4l2.4,7.4h7.8l-6.3,4.6L66,328.5z M106.5,400.6c-7.1-0.6-14.2-1.1-21.2-1.8l21.2,0.2V400.6z M107.3,342 c-0.2,7.2-0.4,14.3-0.9,21.5c-0.5-7.2-0.7-14.3-0.9-21.5c-0.2-7.2-0.2-14.3-0.3-21.5c0.1-7.2,0.1-14.3,0.3-21.5 c0.2-7.2,0.4-14.3,0.9-21.5c0.5,7.2,0.7,14.3,0.9,21.5c0.2,7.2,0.2,14.3,0.3,21.5C107.5,327.7,107.5,334.9,107.3,342z M137.4,58.9 l-1.9,148.4c-1.5,2.1-3.5,5-5.2,7.4l-0.5-39.9h1.8c1.6,0,2.8-1.3,2.8-2.8c0-1.6-1.3-2.8-2.8-2.8h-1.8l-0.3-25.1h2.2 c1.6,0,2.8-1.3,2.8-2.8c0-1.6-1.3-2.8-2.8-2.8h-2.2l-0.3-25.1h2.6c1.6,0,2.8-1.3,2.8-2.8c0-1.6-1.3-2.8-2.8-2.8H129l-0.6-42.8 l-14.8-4.3L137.4,58.9z M111.5,107.9l0.5-15.3c0.3-5.1,0.4-10.2,0.8-15.3c0.4,5.1,0.6,10.2,0.8,15.3l0.5,15.3 c0.3,10.2,0.4,20.4,0.4,30.5c0,10.2-0.1,20.4-0.4,30.5l-0.5,15.3c-0.3,5.1-0.4,10.2-0.8,15.3c-0.4-5.1-0.5-10.2-0.8-15.3l-0.5-15.3 c-0.3-10.2-0.4-20.4-0.4-30.5C111.2,128.2,111.2,118,111.5,107.9z M132.9,409l-2-155.9l4.1-6.5L132.9,409z M136.3,227.5 c-2.1,4.2-4.5,8.2-6.9,12.2l-1.8,3l-2-2.8c-2.8-4-5.6-8-8.1-12.2c-2.6-4.2-5-8.4-7-13c3.6,3.4,6.8,7.1,9.9,10.9 c2.4,2.9,4.7,5.9,6.9,8.9c1.9-3,3.9-5.9,6-8.8c2.7-3.8,5.6-7.5,8.8-11C140.5,219.2,138.5,223.4,136.3,227.5z M190.8,17.1 c27.6-6.8,56.1-10.3,84.5-10.3l1.6,0c27.9,0.1,55.7,3.6,82.8,10.3c1.1,0.3,1.7,1.1,2,1.5c0.3,0.4,0.6,1.4,0.3,2.5l-1.8,6.4 c-0.4,1.4-1.6,2.3-3.1,2.3c-0.3,0-0.5,0-0.8-0.1C322.6,3.1,189.7,17.4,190.8,17.1z M346.4,34.5l-4.3,21.1c-19.3-0.6-38.9-0.9-58.9-1 c-25.6-0.1-50.5,0.3-74.9,1L204,34.5c23.9-5.3,48.4-7.9,72.9-7.8C300.3,26.9,323.6,29.5,346.4,34.5z M275.3,66c2.6,0,5.2,0,7.8,0 c39.4,0.1,79.1,1.3,118.7,3.6l-0.1,13.6c-7.4-0.6-14.8-1.1-22.2-1.5c-33.6-2.1-67.2-3.1-100.8-3.2c-33.6,0-67.3,0.9-100.8,2.9 c-10.9,0.6-21.7,1.4-32.6,2.3l-0.1-13.8C188.6,67.2,232.1,66,275.3,66z M144.8,377.2l0.3-111.6c0,0,0,0,0,0v-17.2 c6.2,0.7,12.4,1.3,18.6,1.9l0.5-5.7c-6.3-0.6-12.7-1.2-19.1-1.9v-25.5l1.5-3l-1.2-126.5c10.9-0.4,21.8-0.8,32.7-1.1 c33.5-0.9,67-1.5,100.6-1.4c33.5,0,67,0.7,100.6,1.7c7.5,0.3,14.9,0.5,22.4,0.8l-1.2,126.6l1.5,2.3v26.4c-6.2,0.7-12.5,1.3-18.7,1.8 l0.5,5.7c6-0.5,12.1-1.1,18.2-1.8v17.4c-77.6,5.2-173.8,5.2-251.3-0.2L144.8,377.2z M401.9,403.6c-9.1,0.5-18.3,0.9-27.4,1.3 c-32.1,1.3-64.3,1.9-96.5,2c-32.2,0-64.4-0.6-96.5-1.9c-12.2-0.5-24.3-1-36.5-1.7v-3.9l36.6,0.3c32.1,0.2,64.3,0.4,96.4,0.4 c32.1,0,64.2-0.2,96.4-0.5l27.5-0.3V403.6z M402.8,342c-0.2,7.2-0.4,14.3-0.9,21.5c-0.5-7.2-0.7-14.3-0.9-21.5 c-0.2-7.2-0.2-14.3-0.3-21.5c0.1-7.2,0.1-14.3,0.3-21.5c0.2-7.2,0.4-14.3,0.9-21.5c0.5,7.2,0.7,14.3,0.9,21.5 c0.2,7.2,0.2,14.3,0.3,21.5C402.9,327.7,403,334.9,402.8,342z M432.9,60L431,207.2c-1.5,2.1-3.5,5-5.2,7.4l-0.5-39.9h1.8 c1.6,0,2.8-1.3,2.8-2.8c0-1.6-1.3-2.8-2.8-2.8h-1.8l-0.3-25.1h2.2c1.6,0,2.8-1.3,2.8-2.8c0-1.6-1.3-2.8-2.8-2.8h-2.3l-0.3-25.1h2.6 c1.6,0,2.8-1.3,2.8-2.8c0-1.6-1.3-2.8-2.8-2.8h-2.7l-0.6-41.6L409,58.2L432.9,60z M406.9,107.9l0.5-15.3c0.3-5.1,0.4-10.2,0.8-15.3 c0.4,5.1,0.6,10.2,0.8,15.3l0.5,15.3c0.3,10.2,0.4,20.4,0.4,30.5c0,10.2-0.1,20.4-0.4,30.5l-0.5,15.3c-0.3,5.1-0.4,10.2-0.8,15.3 c-0.4-5.1-0.5-10.2-0.8-15.3l-0.5-15.3c-0.3-10.2-0.4-20.4-0.4-30.5C406.6,128.2,406.6,118,406.9,107.9z M428.3,409l-2-155.9 l4.2-6.5L428.3,409z M431.8,227.5c-2.1,4.2-4.5,8.2-6.9,12.2l-1.8,3l-2-2.8c-2.8-4-5.6-8-8.1-12.2c-2.6-4.2-5-8.4-7-13 c3.6,3.4,6.8,7.1,9.9,10.9c2.4,2.9,4.7,5.9,6.9,8.9c1.9-3,3.9-5.9,6-8.8c2.7-3.8,5.6-7.5,8.8-11 C435.9,219.2,433.9,223.4,431.8,227.5z M512.7,68.4c14.6,0,26.5,11.5,27.2,25.9c0.3,2.1,0.5,4.3,0.6,6.4c0.3,3.8,0.5,7.7,0.5,11.5 c-0.8-3.7-1.8-7.5-2.8-11.1c-0.4-1.5-0.9-3.1-1.4-4.6c-8.9,1.9-34.5,4.4-40.1-28.1H512.7z M440.6,401.1v-2.2l30.3-0.3 C460.8,399.5,450.7,400.4,440.6,401.1z M484.6,328.5l2.4-7.4l-6.3-4.6h7.8l2.4-7.4l2.4,7.4h7.8l-6.3,4.6l2.4,7.4l-6.3-4.6 L484.6,328.5z M490.4,401.5c0.5-5.2,1.9-10.3,4.2-15c2.2-4.8,5.3-9.1,9-12.9c3.7-3.8,8.1-6.9,12.8-9.2c4.7-2.3,9.8-3.8,15-4.4 c-5,1.5-9.8,3.4-14.2,5.9c-4.4,2.6-8.5,5.6-12,9.3c-3.6,3.6-6.6,7.7-9.1,12.1C493.6,391.7,491.8,396.5,490.4,401.5z M540,381.7 c0,15-12.2,27.3-27.3,27.3c24.1-5.4,14.1-24.8,15.9-35.7c-2.4,0.3-4.7,0.9-7,1.7c-4.5,1.6-8.8,4.1-12.4,7.5c-3.6,3.3-6.6,7.5-8.8,12 c-2.2,4.6-3.6,9.5-4.7,14.5c0.5-5.1,1.4-10.3,3.1-15.2c1.8-4.9,4.4-9.6,7.9-13.7c3.5-4.1,7.9-7.4,12.9-9.8c5-2.4,10.4-3.7,16-4.1v0 c1.2-0.3,2.7-0.4,4.4-0.4V381.7z M542.1,252c0,5.3-0.2,10.5-0.3,15.8c-0.2,5.3-0.4,10.5-0.8,15.7c-0.6,10.5-1.5,20.9-2.6,31.3 c-1.1,10.4-2.4,20.8-4.2,31.1c0.7-10.4,1-20.9,1-31.3c0.1-10.4-0.1-20.8-0.5-31.2c-0.2-5.2-0.5-10.4-0.8-15.6 c-0.4-5.2-0.7-10.4-1.2-15.5c-0.2-2.7-0.5-5.5-0.8-8.2c-15,7.8-45.9,13.9-85.7,18.2c0,0,0,0.1,0,0.1c0,0,0,0.1,0,0.1l-6,114.6 l0.3-114.7c0,0,0,0,0,0v-45.3l1.4-2.9l-1.2-124.8c13,0.6,26,1.2,39,1.9c-13-1.7-26-3.3-39.1-4.6l-0.1-14.6 c16.8,1.2,33.6,2.7,50.3,4.3c1.4,7.1,4.8,17.2,13.5,26.2c9.7,10,21.1,13.6,28.4,15c5.2,35.4,8.2,71.3,8.8,107 C542,233.7,542.3,242.9,542.1,252z M320.9,254.6l-0.2-5.7c10.4-0.4,20.9-0.9,31.3-1.6l0.4,5.7C342,253.6,331.4,254.2,320.9,254.6z M226.5,254.4c-10.4-0.4-21-1-31.4-1.7l0.4-5.7c10.4,0.7,20.9,1.2,31.3,1.7L226.5,254.4z M275.3,255.4c-5.8,0-11.6,0-17.4-0.1 l0.1-5.7c5.7,0.1,11.5,0.1,17.3,0.1h0.6c4.5,0,9,0,13.5-0.1l0.1,5.7c-4.5,0.1-9,0.1-13.6,0.1H275.3z M519.9,175l-11.4,8.6l11.4,8.6 h-26.7v37.2c3.9,0.5,6.8,2.1,6.8,3.9c0,2.2-4.3,4.1-9.6,4.1s-9.6-1.8-9.6-4.1c0-1.8,2.9-3.4,6.8-3.9V175H519.9z M101.1,242.9 c-5.5-0.8-11-1.6-16.3-2.5l0.9-5.6c5.3,0.8,10.7,1.7,16.2,2.5L101.1,242.9z M461.8,235.3l0.9,5.6c-5.4,0.8-10.8,1.6-16.3,2.4 l-0.8-5.6C451.1,236.9,456.5,236.1,461.8,235.3z M31.3,175h32.4v54.5c3.6,0.6,6.2,2.1,6.2,3.8c0,2.2-4.3,4.1-9.6,4.1 c-5.3,0-9.6-1.8-9.6-4.1c0-1.9,3.1-3.5,7.4-4v-37.2H31.3l11.4-8.6L31.3,175z"></path></svg>