<svg xmlns="http://www.w3.org/2000/svg" xmlns:xlink="http://www.w3.org/1999/xlink" id="Layer_1" x="0px" y="0px" viewBox="0 0 6 207" style="enable-background:new 0 0 6 207;" xml:space="preserve"><style type="text/css"> .st0{fill:url(#SVGID_1_);} .st1{fill:url(#SVGID_00000110431852052774286620000004156166783412612762_);} .st2{fill:url(#SVGID_00000117657796854221990930000004002941165374559906_);} .st3{fill:url(#SVGID_00000133491553614591478840000017299201975556464783_);} .st4{fill:url(#SVGID_00000166637069127838736510000014622012082742671501_);} .st5{fill:url(#SVGID_00000120538540889039693810000016560332681307786634_);} .st6{fill:url(#SVGID_00000161618993091030963270000005864891877379233721_);} .st7{fill:url(#SVGID_00000042718490593015604710000013139815199687301777_);} .st8{fill:url(#SVGID_00000163775260385526054470000003669253421014334391_);} .st9{fill:url(#SVGID_00000142143548590940495650000007196727880058680507_);} .st10{fill:url(#SVGID_00000102514874816089398340000014144527922000021677_);} .st11{fill:url(#SVGID_00000066492113902230000970000009498883717318768040_);} .st12{fill:url(#SVGID_00000067955225250378387870000003915294041263110018_);} .st13{fill:url(#SVGID_00000019652706337413627230000009787742369667668657_);} .st14{fill:url(#SVGID_00000125561004778521577290000010454939611923645083_);} .st15{fill:url(#SVGID_00000183212850561132350560000012695016009273817246_);} .st16{fill:url(#SVGID_00000008141620206231775920000007320852671793004221_);} .st17{fill:url(#SVGID_00000082341622099269863380000015583184200823294884_);}</style><g> <g> <linearGradient id="SVGID_1_" gradientUnits="userSpaceOnUse" x1="-1.305008e-02" y1="0.5411" x2="5.9869" y2="0.5411"> <stop offset="1.217023e-03" style="stop-color:#000000;stop-opacity:0.5"></stop> <stop offset="0.5167" style="stop-color:#2C2829;stop-opacity:0.9"></stop> <stop offset="1" style="stop-color:#000000;stop-opacity:0.4"></stop> </linearGradient> <path class="st0" d="M3,0l0.1,1c0,0,0,0.1-0.1,0.1c0,0-0.1,0-0.1-0.1c0,0,0,0,0,0L3,0z"></path> <linearGradient id="SVGID_00000124126521680056360130000003110271742681883315_" gradientUnits="userSpaceOnUse" x1="-1.305008e-02" y1="12.2672" x2="5.9869" y2="12.2672"> <stop offset="1.217023e-03" style="stop-color:#000000;stop-opacity:0.5"></stop> <stop offset="0.5167" style="stop-color:#2C2829;stop-opacity:0.9"></stop> <stop offset="1" style="stop-color:#000000;stop-opacity:0.4"></stop> </linearGradient> <path style="fill:url(#SVGID_00000124126521680056360130000003110271742681883315_);" d="M3.7,11.1l0.1,2c0,0.5-0.3,0.9-0.8,0.9 s-0.9-0.3-0.9-0.8c0,0,0-0.1,0-0.1l0.1-2c0-0.4,0.4-0.7,0.8-0.7C3.4,10.5,3.7,10.8,3.7,11.1z"></path> <linearGradient id="SVGID_00000115495620989672565290000005492825190188250274_" gradientUnits="userSpaceOnUse" x1="-1.305008e-02" y1="24.4564" x2="5.9869" y2="24.4564"> <stop offset="1.217023e-03" style="stop-color:#000000;stop-opacity:0.5"></stop> <stop offset="0.5167" style="stop-color:#2C2829;stop-opacity:0.9"></stop> <stop offset="1" style="stop-color:#000000;stop-opacity:0.4"></stop> </linearGradient> <path style="fill:url(#SVGID_00000115495620989672565290000005492825190188250274_);" d="M4.3,23.3l0.1,2c0,0.8-0.6,1.5-1.4,1.5 c-0.8,0-1.5-0.6-1.5-1.4c0,0,0-0.1,0-0.1l0.1-2c0-0.7,0.7-1.3,1.4-1.3C3.7,22.1,4.3,22.6,4.3,23.3z"></path> <linearGradient id="SVGID_00000078737565169875495490000000152915370599238837_" gradientUnits="userSpaceOnUse" x1="-1.305008e-02" y1="36.6279" x2="5.9869" y2="36.6279"> <stop offset="1.217023e-03" style="stop-color:#000000;stop-opacity:0.5"></stop> <stop offset="0.5167" style="stop-color:#2C2829;stop-opacity:0.9"></stop> <stop offset="1" style="stop-color:#000000;stop-opacity:0.4"></stop> </linearGradient> <path style="fill:url(#SVGID_00000078737565169875495490000000152915370599238837_);" d="M4.8,35.5l0.1,2c0,1.1-0.8,1.9-1.8,2 c-1.1,0-1.9-0.8-2-1.8c0,0,0-0.1,0-0.1l0.1-2c0-1,0.9-1.8,1.9-1.8C4,33.8,4.8,34.6,4.8,35.5z"></path> <linearGradient id="SVGID_00000111895611661822579820000015704287279505209266_" gradientUnits="userSpaceOnUse" x1="-1.305008e-02" y1="48.7861" x2="5.9869" y2="48.7861"> <stop offset="1.217023e-03" style="stop-color:#000000;stop-opacity:0.5"></stop> <stop offset="0.5167" style="stop-color:#2C2829;stop-opacity:0.9"></stop> <stop offset="1" style="stop-color:#000000;stop-opacity:0.4"></stop> </linearGradient> <path style="fill:url(#SVGID_00000111895611661822579820000015704287279505209266_);" d="M5.2,47.7l0.1,2c0,1.3-1,2.3-2.2,2.3 c-1.3,0-2.3-1-2.3-2.2c0,0,0-0.1,0-0.1l0.1-2c0-1.2,1.1-2.2,2.3-2.2C4.2,45.6,5.2,46.5,5.2,47.7z"></path> <linearGradient id="SVGID_00000026872724629326586480000003943394744594268598_" gradientUnits="userSpaceOnUse" x1="-1.305008e-02" y1="60.9345" x2="5.9869" y2="60.9345"> <stop offset="1.217023e-03" style="stop-color:#000000;stop-opacity:0.5"></stop> <stop offset="0.5167" style="stop-color:#2C2829;stop-opacity:0.9"></stop> <stop offset="1" style="stop-color:#000000;stop-opacity:0.4"></stop> </linearGradient> <path style="fill:url(#SVGID_00000026872724629326586480000003943394744594268598_);" d="M5.5,59.9l0,2c0,1.4-1.1,2.6-2.5,2.6 c-1.4,0-2.6-1.1-2.6-2.5c0,0,0-0.1,0-0.1l0-2c0-1.4,1.2-2.5,2.6-2.5C4.4,57.4,5.5,58.5,5.5,59.9z"></path> <linearGradient id="SVGID_00000075845941850106241250000010152121529741296258_" gradientUnits="userSpaceOnUse" x1="-1.305008e-02" y1="73.1159" x2="5.9869" y2="73.1159"> <stop offset="1.217023e-03" style="stop-color:#000000;stop-opacity:0.5"></stop> <stop offset="0.5167" style="stop-color:#2C2829;stop-opacity:0.9"></stop> <stop offset="1" style="stop-color:#000000;stop-opacity:0.4"></stop> </linearGradient> <path style="fill:url(#SVGID_00000075845941850106241250000010152121529741296258_);" d="M5.7,72l0,2c0,1.5-1.2,2.8-2.7,2.8 s-2.8-1.2-2.8-2.7c0,0,0-0.1,0-0.1l0-2c0-1.5,1.3-2.7,2.8-2.7C4.5,69.4,5.7,70.6,5.7,72z"></path> <linearGradient id="SVGID_00000095334871167199661780000012584024992407150477_" gradientUnits="userSpaceOnUse" x1="-1.305008e-02" y1="85.2538" x2="5.9869" y2="85.2538"> <stop offset="1.217023e-03" style="stop-color:#000000;stop-opacity:0.5"></stop> <stop offset="0.5167" style="stop-color:#2C2829;stop-opacity:0.9"></stop> <stop offset="1" style="stop-color:#000000;stop-opacity:0.4"></stop> </linearGradient> <path style="fill:url(#SVGID_00000095334871167199661780000012584024992407150477_);" d="M5.9,84.2l0,2c0,1.6-1.3,2.9-2.9,2.9 c-1.6,0-2.9-1.3-2.9-2.9v0l0-2c0-1.6,1.3-2.9,2.9-2.9C4.6,81.3,5.9,82.6,5.9,84.2z"></path> <linearGradient id="SVGID_00000057145757387995300190000004971171183267070112_" gradientUnits="userSpaceOnUse" x1="-1.305008e-02" y1="97.4324" x2="5.9869" y2="97.4324"> <stop offset="1.217023e-03" style="stop-color:#000000;stop-opacity:0.5"></stop> <stop offset="0.5167" style="stop-color:#2C2829;stop-opacity:0.9"></stop> <stop offset="1" style="stop-color:#000000;stop-opacity:0.4"></stop> </linearGradient> <path style="fill:url(#SVGID_00000057145757387995300190000004971171183267070112_);" d="M5.9,96.4l0,2c0,1.6-1.3,3-3,3 c-1.6,0-3-1.3-3-3v0l0-2c0-1.6,1.3-3,3-2.9C4.6,93.5,5.9,94.8,5.9,96.4z"></path> <linearGradient id="SVGID_00000163783098054938315590000003333469493164871045_" gradientUnits="userSpaceOnUse" x1="-1.305008e-02" y1="109.5781" x2="5.9869" y2="109.5781"> <stop offset="1.217023e-03" style="stop-color:#000000;stop-opacity:0.5"></stop> <stop offset="0.5167" style="stop-color:#2C2829;stop-opacity:0.9"></stop> <stop offset="1" style="stop-color:#000000;stop-opacity:0.4"></stop> </linearGradient> <path style="fill:url(#SVGID_00000163783098054938315590000003333469493164871045_);" d="M6,108.6l0,2c0,1.6-1.3,3-3,3 c-1.6,0-3-1.3-3-3l0-2c0-1.6,1.3-3,3-3C4.6,105.6,6,106.9,6,108.6L6,108.6z"></path> <linearGradient id="SVGID_00000065056902399789518140000016234030090846579587_" gradientUnits="userSpaceOnUse" x1="-1.305008e-02" y1="121.7347" x2="5.9869" y2="121.7347"> <stop offset="1.217023e-03" style="stop-color:#000000;stop-opacity:0.5"></stop> <stop offset="0.5167" style="stop-color:#2C2829;stop-opacity:0.9"></stop> <stop offset="1" style="stop-color:#000000;stop-opacity:0.4"></stop> </linearGradient> <path style="fill:url(#SVGID_00000065056902399789518140000016234030090846579587_);" d="M5.9,120.8l0,2c0,1.6-1.3,2.9-2.9,2.9 c-1.6,0-2.9-1.3-2.9-2.9l0-2c0-1.6,1.3-2.9,2.9-3S5.9,119.1,5.9,120.8C5.9,120.7,5.9,120.7,5.9,120.8z"></path> <linearGradient id="SVGID_00000157297088317068404540000014516584596724793011_" gradientUnits="userSpaceOnUse" x1="-1.305008e-02" y1="133.8835" x2="5.9869" y2="133.8835"> <stop offset="1.217023e-03" style="stop-color:#000000;stop-opacity:0.5"></stop> <stop offset="0.5167" style="stop-color:#2C2829;stop-opacity:0.9"></stop> <stop offset="1" style="stop-color:#000000;stop-opacity:0.4"></stop> </linearGradient> <path style="fill:url(#SVGID_00000157297088317068404540000014516584596724793011_);" d="M5.8,132.9l0,2c0,1.5-1.3,2.7-2.8,2.7 c-1.5,0-2.7-1.2-2.7-2.7l0-2c0-1.5,1.2-2.8,2.7-2.8C4.5,130.1,5.7,131.3,5.8,132.9C5.8,132.9,5.8,132.9,5.8,132.9z"></path> <linearGradient id="SVGID_00000180329942393296305230000001316518361608278423_" gradientUnits="userSpaceOnUse" x1="-1.305008e-02" y1="146.0651" x2="5.9869" y2="146.0651"> <stop offset="1.217023e-03" style="stop-color:#000000;stop-opacity:0.5"></stop> <stop offset="0.5167" style="stop-color:#2C2829;stop-opacity:0.9"></stop> <stop offset="1" style="stop-color:#000000;stop-opacity:0.4"></stop> </linearGradient> <path style="fill:url(#SVGID_00000180329942393296305230000001316518361608278423_);" d="M5.6,145.1l0,2c0,1.4-1.2,2.5-2.6,2.5 c-1.4,0-2.5-1.1-2.5-2.5l0-2c0-1.4,1.1-2.6,2.5-2.6S5.5,143.6,5.6,145.1C5.6,145,5.6,145.1,5.6,145.1z"></path> <linearGradient id="SVGID_00000127015026924298109100000008757610927968031906_" gradientUnits="userSpaceOnUse" x1="-1.305008e-02" y1="158.2131" x2="5.9869" y2="158.2131"> <stop offset="1.217023e-03" style="stop-color:#000000;stop-opacity:0.5"></stop> <stop offset="0.5167" style="stop-color:#2C2829;stop-opacity:0.9"></stop> <stop offset="1" style="stop-color:#000000;stop-opacity:0.4"></stop> </linearGradient> <path style="fill:url(#SVGID_00000127015026924298109100000008757610927968031906_);" d="M5.3,157.3l-0.1,2c0,1.2-1.1,2.2-2.3,2.2 c-1.2,0-2.1-1-2.2-2.2l-0.1-2c0-1.3,1-2.3,2.2-2.3c1.3,0,2.3,1,2.3,2.2C5.3,157.2,5.3,157.2,5.3,157.3z"></path> <linearGradient id="SVGID_00000075856892254576822240000009775541226666777475_" gradientUnits="userSpaceOnUse" x1="-1.305008e-02" y1="170.3711" x2="5.9869" y2="170.3711"> <stop offset="1.217023e-03" style="stop-color:#000000;stop-opacity:0.5"></stop> <stop offset="0.5167" style="stop-color:#2C2829;stop-opacity:0.9"></stop> <stop offset="1" style="stop-color:#000000;stop-opacity:0.4"></stop> </linearGradient> <path style="fill:url(#SVGID_00000075856892254576822240000009775541226666777475_);" d="M4.9,169.5l-0.1,2c0,1-0.9,1.8-1.9,1.8 c-1,0-1.7-0.8-1.8-1.8l-0.1-2c0-1.1,0.8-2,1.8-2s2,0.8,2,1.8C4.9,169.4,4.9,169.4,4.9,169.5z"></path> <linearGradient id="SVGID_00000018229590425443409540000008331799222404397194_" gradientUnits="userSpaceOnUse" x1="-1.305008e-02" y1="182.5425" x2="5.9869" y2="182.5425"> <stop offset="1.217023e-03" style="stop-color:#000000;stop-opacity:0.5"></stop> <stop offset="0.5167" style="stop-color:#2C2829;stop-opacity:0.9"></stop> <stop offset="1" style="stop-color:#000000;stop-opacity:0.4"></stop> </linearGradient> <path style="fill:url(#SVGID_00000018229590425443409540000008331799222404397194_);" d="M4.4,181.6l-0.1,2c0,0.7-0.7,1.3-1.4,1.3 c-0.7,0-1.3-0.6-1.3-1.3l-0.1-2c0-0.8,0.6-1.5,1.4-1.5c0.8,0,1.5,0.6,1.5,1.4C4.4,181.6,4.4,181.6,4.4,181.6z"></path> <linearGradient id="SVGID_00000175314137823738764880000003774860062873524126_" gradientUnits="userSpaceOnUse" x1="-1.305008e-02" y1="194.7319" x2="5.9869" y2="194.7319"> <stop offset="1.217023e-03" style="stop-color:#000000;stop-opacity:0.5"></stop> <stop offset="0.5167" style="stop-color:#2C2829;stop-opacity:0.9"></stop> <stop offset="1" style="stop-color:#000000;stop-opacity:0.4"></stop> </linearGradient> <path style="fill:url(#SVGID_00000175314137823738764880000003774860062873524126_);" d="M3.8,193.8l-0.1,2c0,0.4-0.4,0.7-0.8,0.7 c-0.4,0-0.7-0.3-0.7-0.7l-0.1-2c0-0.5,0.3-0.9,0.8-0.9C3.4,192.9,3.8,193.3,3.8,193.8C3.8,193.8,3.8,193.8,3.8,193.8z"></path> <linearGradient id="SVGID_00000036934858415097675140000010174128085100791464_" gradientUnits="userSpaceOnUse" x1="-1.305008e-02" y1="206.4586" x2="5.9869" y2="206.4586"> <stop offset="1.217023e-03" style="stop-color:#000000;stop-opacity:0.5"></stop> <stop offset="0.5167" style="stop-color:#2C2829;stop-opacity:0.9"></stop> <stop offset="1" style="stop-color:#000000;stop-opacity:0.4"></stop> </linearGradient> <path style="fill:url(#SVGID_00000036934858415097675140000010174128085100791464_);" d="M3.1,206L3,207l-0.1-1 C2.9,206,2.9,205.9,3.1,206C3,205.9,3.1,205.9,3.1,206C3.1,206,3.1,206,3.1,206z"></path> </g></g></svg>