<svg xmlns="http://www.w3.org/2000/svg" xmlns:xlink="http://www.w3.org/1999/xlink" id="Layer_1" x="0px" y="0px" viewBox="0 0 6 207" style="enable-background:new 0 0 6 207;" xml:space="preserve"><style type="text/css"> .st0{fill:url(#SVGID_1_);} .st1{fill:url(#SVGID_00000011724566789543671610000007626048768324020116_);} .st2{fill:url(#SVGID_00000003101414872288506270000003500903282112204442_);} .st3{fill:url(#SVGID_00000049188172304804205520000017912716741087992990_);} .st4{fill:url(#SVGID_00000089535724294324855970000001174147959842271150_);} .st5{fill:url(#SVGID_00000109008639452356113450000004015061074328778886_);} .st6{fill:url(#SVGID_00000127044893791094104710000008905990322420117948_);} .st7{fill:url(#SVGID_00000044881477870600102790000013953981353194463618_);} .st8{fill:url(#SVGID_00000060708527630688020080000014890023298364322462_);} .st9{fill:url(#SVGID_00000053530387158608174180000007391984735713669524_);} .st10{fill:url(#SVGID_00000042706258717688909320000001578831953886573457_);} .st11{fill:url(#SVGID_00000083056414794229417120000012736253980774437560_);} .st12{fill:url(#SVGID_00000092457383001932998740000007476030276009334144_);} .st13{fill:url(#SVGID_00000082349981907838337440000015911461205546666675_);} .st14{fill:url(#SVGID_00000087375631827755244460000013315062194864890249_);} .st15{fill:url(#SVGID_00000097472218053609718820000010516435588922688385_);} .st16{fill:url(#SVGID_00000148639428989081059540000001650272951721522560_);} .st17{fill:url(#SVGID_00000131361008794325422460000008325690865472272004_);}</style><g> <g> <linearGradient id="SVGID_1_" gradientUnits="userSpaceOnUse" x1="-1.305008e-02" y1="0.5411" x2="5.9869" y2="0.5411"> <stop offset="1.217023e-03" style="stop-color:#000000;stop-opacity:0.5"></stop> <stop offset="0.518" style="stop-color:#FFFFFF;stop-opacity:0.9"></stop> <stop offset="1" style="stop-color:#000000;stop-opacity:0.4"></stop> </linearGradient> <path class="st0" d="M3,0l0.1,1c0,0,0,0.1-0.1,0.1c0,0-0.1,0-0.1-0.1c0,0,0,0,0,0L3,0z"></path> <linearGradient id="SVGID_00000090265675818571131790000012806189954426102432_" gradientUnits="userSpaceOnUse" x1="-1.305008e-02" y1="12.2672" x2="5.9869" y2="12.2672"> <stop offset="1.217023e-03" style="stop-color:#000000;stop-opacity:0.5"></stop> <stop offset="0.518" style="stop-color:#FFFFFF;stop-opacity:0.9"></stop> <stop offset="1" style="stop-color:#000000;stop-opacity:0.4"></stop> </linearGradient> <path style="fill:url(#SVGID_00000090265675818571131790000012806189954426102432_);" d="M3.7,11.1l0.1,2c0,0.5-0.3,0.9-0.8,0.9 c-0.5,0-0.9-0.3-0.9-0.8c0,0,0-0.1,0-0.1l0.1-2c0-0.4,0.4-0.7,0.8-0.7C3.4,10.5,3.7,10.8,3.7,11.1z"></path> <linearGradient id="SVGID_00000080193919518810666300000014045035496134087326_" gradientUnits="userSpaceOnUse" x1="-1.305008e-02" y1="24.4564" x2="5.9869" y2="24.4564"> <stop offset="1.217023e-03" style="stop-color:#000000;stop-opacity:0.5"></stop> <stop offset="0.518" style="stop-color:#FFFFFF;stop-opacity:0.9"></stop> <stop offset="1" style="stop-color:#000000;stop-opacity:0.4"></stop> </linearGradient> <path style="fill:url(#SVGID_00000080193919518810666300000014045035496134087326_);" d="M4.3,23.3l0.1,2c0,0.8-0.6,1.5-1.4,1.5 c-0.8,0-1.5-0.6-1.5-1.4c0,0,0-0.1,0-0.1l0.1-2c0-0.7,0.7-1.3,1.4-1.3C3.7,22.1,4.3,22.6,4.3,23.3z"></path> <linearGradient id="SVGID_00000021120854419689831350000003849415159116735373_" gradientUnits="userSpaceOnUse" x1="-1.305008e-02" y1="36.6279" x2="5.9869" y2="36.6279"> <stop offset="1.217023e-03" style="stop-color:#000000;stop-opacity:0.5"></stop> <stop offset="0.518" style="stop-color:#FFFFFF;stop-opacity:0.9"></stop> <stop offset="1" style="stop-color:#000000;stop-opacity:0.4"></stop> </linearGradient> <path style="fill:url(#SVGID_00000021120854419689831350000003849415159116735373_);" d="M4.8,35.5l0.1,2c0,1.1-0.8,1.9-1.8,2 c-1.1,0-1.9-0.8-2-1.8c0,0,0-0.1,0-0.1l0.1-2c0-1,0.9-1.8,1.9-1.8C4,33.8,4.8,34.6,4.8,35.5z"></path> <linearGradient id="SVGID_00000138537966203876793650000011738770046430560647_" gradientUnits="userSpaceOnUse" x1="-1.305008e-02" y1="48.7861" x2="5.9869" y2="48.7861"> <stop offset="1.217023e-03" style="stop-color:#000000;stop-opacity:0.5"></stop> <stop offset="0.518" style="stop-color:#FFFFFF;stop-opacity:0.9"></stop> <stop offset="1" style="stop-color:#000000;stop-opacity:0.4"></stop> </linearGradient> <path style="fill:url(#SVGID_00000138537966203876793650000011738770046430560647_);" d="M5.2,47.7l0.1,2c0,1.3-1,2.3-2.2,2.3 c-1.3,0-2.3-1-2.3-2.2c0,0,0-0.1,0-0.1l0.1-2c0-1.2,1.1-2.2,2.3-2.2C4.2,45.6,5.2,46.5,5.2,47.7z"></path> <linearGradient id="SVGID_00000109736743302630174700000015305934552539524765_" gradientUnits="userSpaceOnUse" x1="-1.305008e-02" y1="60.9345" x2="5.9869" y2="60.9345"> <stop offset="1.217023e-03" style="stop-color:#000000;stop-opacity:0.5"></stop> <stop offset="0.518" style="stop-color:#FFFFFF;stop-opacity:0.9"></stop> <stop offset="1" style="stop-color:#000000;stop-opacity:0.4"></stop> </linearGradient> <path style="fill:url(#SVGID_00000109736743302630174700000015305934552539524765_);" d="M5.5,59.9l0,2c0,1.4-1.1,2.6-2.5,2.6 c-1.4,0-2.6-1.1-2.6-2.5c0,0,0-0.1,0-0.1l0-2c0-1.4,1.2-2.5,2.6-2.5C4.4,57.4,5.5,58.5,5.5,59.9z"></path> <linearGradient id="SVGID_00000059299335993050331760000010123829392593912754_" gradientUnits="userSpaceOnUse" x1="-1.305008e-02" y1="73.1159" x2="5.9869" y2="73.1159"> <stop offset="1.217023e-03" style="stop-color:#000000;stop-opacity:0.5"></stop> <stop offset="0.518" style="stop-color:#FFFFFF;stop-opacity:0.9"></stop> <stop offset="1" style="stop-color:#000000;stop-opacity:0.4"></stop> </linearGradient> <path style="fill:url(#SVGID_00000059299335993050331760000010123829392593912754_);" d="M5.7,72l0,2c0,1.5-1.2,2.8-2.7,2.8 s-2.8-1.2-2.8-2.7c0,0,0-0.1,0-0.1l0-2c0-1.5,1.3-2.7,2.8-2.7C4.5,69.4,5.7,70.6,5.7,72z"></path> <linearGradient id="SVGID_00000057857582769250957120000003719115583545916828_" gradientUnits="userSpaceOnUse" x1="-1.305008e-02" y1="85.2538" x2="5.9869" y2="85.2538"> <stop offset="1.217023e-03" style="stop-color:#000000;stop-opacity:0.5"></stop> <stop offset="0.518" style="stop-color:#FFFFFF;stop-opacity:0.9"></stop> <stop offset="1" style="stop-color:#000000;stop-opacity:0.4"></stop> </linearGradient> <path style="fill:url(#SVGID_00000057857582769250957120000003719115583545916828_);" d="M5.9,84.2l0,2c0,1.6-1.3,2.9-2.9,2.9 c-1.6,0-2.9-1.3-2.9-2.9v0l0-2c0-1.6,1.3-2.9,2.9-2.9C4.6,81.3,5.9,82.6,5.9,84.2z"></path> <linearGradient id="SVGID_00000016042688318653404770000002325918997852493480_" gradientUnits="userSpaceOnUse" x1="-1.305008e-02" y1="97.4324" x2="5.9869" y2="97.4324"> <stop offset="1.217023e-03" style="stop-color:#000000;stop-opacity:0.5"></stop> <stop offset="0.518" style="stop-color:#FFFFFF;stop-opacity:0.9"></stop> <stop offset="1" style="stop-color:#000000;stop-opacity:0.4"></stop> </linearGradient> <path style="fill:url(#SVGID_00000016042688318653404770000002325918997852493480_);" d="M5.9,96.4l0,2c0,1.6-1.3,3-3,3 c-1.6,0-3-1.3-3-3v0l0-2c0-1.6,1.3-3,3-2.9C4.6,93.5,5.9,94.8,5.9,96.4z"></path> <linearGradient id="SVGID_00000021809504293085161540000017613780172800291733_" gradientUnits="userSpaceOnUse" x1="-1.305008e-02" y1="109.5781" x2="5.9869" y2="109.5781"> <stop offset="1.217023e-03" style="stop-color:#000000;stop-opacity:0.5"></stop> <stop offset="0.518" style="stop-color:#FFFFFF;stop-opacity:0.9"></stop> <stop offset="1" style="stop-color:#000000;stop-opacity:0.4"></stop> </linearGradient> <path style="fill:url(#SVGID_00000021809504293085161540000017613780172800291733_);" d="M6,108.6l0,2c0,1.6-1.3,3-3,3 c-1.6,0-3-1.3-3-3l0-2c0-1.6,1.3-3,3-3C4.6,105.6,6,106.9,6,108.6L6,108.6z"></path> <linearGradient id="SVGID_00000052084343919587808300000017546891660180973446_" gradientUnits="userSpaceOnUse" x1="-1.305008e-02" y1="121.7347" x2="5.9869" y2="121.7347"> <stop offset="1.217023e-03" style="stop-color:#000000;stop-opacity:0.5"></stop> <stop offset="0.518" style="stop-color:#FFFFFF;stop-opacity:0.9"></stop> <stop offset="1" style="stop-color:#000000;stop-opacity:0.4"></stop> </linearGradient> <path style="fill:url(#SVGID_00000052084343919587808300000017546891660180973446_);" d="M5.9,120.8l0,2c0,1.6-1.3,2.9-2.9,2.9 c-1.6,0-2.9-1.3-2.9-2.9l0-2c0-1.6,1.3-2.9,2.9-3C4.6,117.8,5.9,119.1,5.9,120.8C5.9,120.7,5.9,120.7,5.9,120.8z"></path> <linearGradient id="SVGID_00000002368170333790950140000002738996305706747271_" gradientUnits="userSpaceOnUse" x1="-1.305008e-02" y1="133.8835" x2="5.9869" y2="133.8835"> <stop offset="1.217023e-03" style="stop-color:#000000;stop-opacity:0.5"></stop> <stop offset="0.518" style="stop-color:#FFFFFF;stop-opacity:0.9"></stop> <stop offset="1" style="stop-color:#000000;stop-opacity:0.4"></stop> </linearGradient> <path style="fill:url(#SVGID_00000002368170333790950140000002738996305706747271_);" d="M5.8,132.9l0,2c0,1.5-1.3,2.7-2.8,2.7 c-1.5,0-2.7-1.2-2.7-2.7l0-2c0-1.5,1.2-2.8,2.7-2.8S5.7,131.3,5.8,132.9C5.8,132.9,5.8,132.9,5.8,132.9z"></path> <linearGradient id="SVGID_00000129203592796044054000000000447570718266713734_" gradientUnits="userSpaceOnUse" x1="-1.305008e-02" y1="146.0651" x2="5.9869" y2="146.0651"> <stop offset="1.217023e-03" style="stop-color:#000000;stop-opacity:0.5"></stop> <stop offset="0.518" style="stop-color:#FFFFFF;stop-opacity:0.9"></stop> <stop offset="1" style="stop-color:#000000;stop-opacity:0.4"></stop> </linearGradient> <path style="fill:url(#SVGID_00000129203592796044054000000000447570718266713734_);" d="M5.6,145.1l0,2c0,1.4-1.2,2.5-2.6,2.5 c-1.4,0-2.5-1.1-2.5-2.5l0-2c0-1.4,1.1-2.6,2.5-2.6C4.4,142.5,5.5,143.6,5.6,145.1C5.6,145,5.6,145.1,5.6,145.1z"></path> <linearGradient id="SVGID_00000046317471443342890470000015261179954870637457_" gradientUnits="userSpaceOnUse" x1="-1.305008e-02" y1="158.2131" x2="5.9869" y2="158.2131"> <stop offset="1.217023e-03" style="stop-color:#000000;stop-opacity:0.5"></stop> <stop offset="0.518" style="stop-color:#FFFFFF;stop-opacity:0.9"></stop> <stop offset="1" style="stop-color:#000000;stop-opacity:0.4"></stop> </linearGradient> <path style="fill:url(#SVGID_00000046317471443342890470000015261179954870637457_);" d="M5.3,157.3l-0.1,2c0,1.2-1.1,2.2-2.3,2.2 c-1.2,0-2.1-1-2.2-2.2l-0.1-2c0-1.3,1-2.3,2.2-2.3c1.3,0,2.3,1,2.3,2.2C5.3,157.2,5.3,157.2,5.3,157.3z"></path> <linearGradient id="SVGID_00000127726462360480101450000017171945715333451964_" gradientUnits="userSpaceOnUse" x1="-1.305008e-02" y1="170.3711" x2="5.9869" y2="170.3711"> <stop offset="1.217023e-03" style="stop-color:#000000;stop-opacity:0.5"></stop> <stop offset="0.518" style="stop-color:#FFFFFF;stop-opacity:0.9"></stop> <stop offset="1" style="stop-color:#000000;stop-opacity:0.4"></stop> </linearGradient> <path style="fill:url(#SVGID_00000127726462360480101450000017171945715333451964_);" d="M4.9,169.5l-0.1,2c0,1-0.9,1.8-1.9,1.8 c-1,0-1.7-0.8-1.8-1.8l-0.1-2c0-1.1,0.8-2,1.8-2c1.1,0,2,0.8,2,1.8C4.9,169.4,4.9,169.4,4.9,169.5z"></path> <linearGradient id="SVGID_00000091730810640256432820000012337791224163983494_" gradientUnits="userSpaceOnUse" x1="-1.305008e-02" y1="182.5425" x2="5.9869" y2="182.5425"> <stop offset="1.217023e-03" style="stop-color:#000000;stop-opacity:0.5"></stop> <stop offset="0.518" style="stop-color:#FFFFFF;stop-opacity:0.9"></stop> <stop offset="1" style="stop-color:#000000;stop-opacity:0.4"></stop> </linearGradient> <path style="fill:url(#SVGID_00000091730810640256432820000012337791224163983494_);" d="M4.4,181.6l-0.1,2c0,0.7-0.7,1.3-1.4,1.3 c-0.7,0-1.3-0.6-1.3-1.3l-0.1-2c0-0.8,0.6-1.5,1.4-1.5c0.8,0,1.5,0.6,1.5,1.4C4.4,181.6,4.4,181.6,4.4,181.6z"></path> <linearGradient id="SVGID_00000085965019851208722230000006712565827449511562_" gradientUnits="userSpaceOnUse" x1="-1.305008e-02" y1="194.7319" x2="5.9869" y2="194.7319"> <stop offset="1.217023e-03" style="stop-color:#000000;stop-opacity:0.5"></stop> <stop offset="0.518" style="stop-color:#FFFFFF;stop-opacity:0.9"></stop> <stop offset="1" style="stop-color:#000000;stop-opacity:0.4"></stop> </linearGradient> <path style="fill:url(#SVGID_00000085965019851208722230000006712565827449511562_);" d="M3.8,193.8l-0.1,2c0,0.4-0.4,0.7-0.8,0.7 c-0.4,0-0.7-0.3-0.7-0.7l-0.1-2c0-0.5,0.3-0.9,0.8-0.9C3.4,192.9,3.8,193.3,3.8,193.8C3.8,193.8,3.8,193.8,3.8,193.8z"></path> <linearGradient id="SVGID_00000159445830734826566600000006020462655388602299_" gradientUnits="userSpaceOnUse" x1="-1.305008e-02" y1="206.4586" x2="5.9869" y2="206.4586"> <stop offset="1.217023e-03" style="stop-color:#000000;stop-opacity:0.5"></stop> <stop offset="0.518" style="stop-color:#FFFFFF;stop-opacity:0.9"></stop> <stop offset="1" style="stop-color:#000000;stop-opacity:0.4"></stop> </linearGradient> <path style="fill:url(#SVGID_00000159445830734826566600000006020462655388602299_);" d="M3.1,206L3,207l-0.1-1 C2.9,206,2.9,205.9,3.1,206C3,205.9,3.1,205.9,3.1,206C3.1,206,3.1,206,3.1,206z"></path> </g></g></svg>